<svg xmlns="http://www.w3.org/2000/svg" fill-rule="evenodd" stroke-linejoin="round" stroke-miterlimit="2" clip-rule="evenodd" viewBox="0 0 720 397">
  <defs/>
  <path fill="none" d="M0 0h719.7V396H0z"/>
  <g fill="#193989">
    <path d="M30 347.4c0 .6 21.3-23.6 23.5-26.3 12.7-14.9 25.8-29.5 38.6-44.4 50.6-59 102.3-115.8 161.6-166.6 20.1-17.3 40-36.1 61.1-52 6.3-4.6 11.4-10.5 16.8-15.9 8.4-8.4 10.9-9.2 10.9-7.5 0 3.2-1.3-3.4 0 0 5 13.4 0 45.3 0 65.1 0 10.3 4.2 30.3-1.7 42.1-11 22-39 42.4-56.1 59.5-45.8 45.7-84.2 98.4-129.8 144-21.7 21.7-61 11.3-89.6 8.4-7.1-.7-13.6-5-21-4.2-2.1.2-14.3-2.2-14.3-2.2z"/>
    <path d="M342.4 25.7l1.7.3 1.4.5 1 .6.7.5.2.2.5.5.3.3.2.3.2.3.2.2.1.3.3.4.2.3.2.4.2.4.1.3.1.4.1.3.1.4v.1l.2.3v.2l.1.3v.2l.1.2.1.2v.3l.1.2v.2l.2.3v.4l.1.3v.2l.1.2v.2l.1.3v.2l.1.3v.2l.1.2v.3l.1.2v.2l.1.3v.5l.1.2v.5l.1.2v.3l.1.2v.8l.1.2v.5l.1.2v.8l.1.3v1l.1.5v.5l.1.5v1.6l.1.5v3.2l.1.6V58.9l-.1.6V61.8l-.1.6V64l-.1.6v1.1l-.1.6v1.2l-.1 1.2-.1 1.1v1.2l-.2 1.1v1.2l-.1 1.2-.1 1.1V77l-.2 2.3-.2 2.2v1.2l-.1 1-.1 1.2v1L351 87l-.1 1v1.1l-.1.5v1.6l-.1.5v2l-.1.5v2.4l-.1.5V103l.1.3v.8l.1.6v.6l.1.6v.6l.1.6.1 1.3.1 1.3.1 1.4.1.7v.7l.1.7v.7l.1.8v.7l.1.7v.8l.1.4v1.1l.1.4v2.3l.1.4V129.1l-.1.4v.8l-.1.4v.8l-.1.4v.4l-.1.4v.4l-.1.4v.4l-.1.4v.4l-.1.4-.1.4v.4l-.1.3v.2l-.1.2v.4l-.1.2v.2l-.1.2v.2l-.1.2v.4l-.1.2v.2l-.1.2-.1.2v.2l-.1.2v.2l-.1.2v.2l-.1.2-.1.2v.2l-.1.2v.2l-.2.2v.4l-.2.2v.2l-.1.2v.2l-.1.2-.1.2-.1.1v.2l-.2.2v.2l-.1.2-.1.2-.1.2v.2l-.2.2v.2l-.2.2v.2l-.1.2-.2.3-.1.3-.2.3-.1.3-.2.2-.2.3-.1.3-.2.3-.1.3-.2.3-.2.3-.1.3-.2.2-.1.3-.2.3-.2.3-.2.3-.1.3-.2.3-.2.2-.2.3-.1.3-.2.3-.2.3-.2.2-.1.3-.2.3-.2.3-.2.3-.2.2-.2.3-.2.3-.2.3-.1.2-.2.3-.2.3-.2.3-.2.2-.2.3-.2.3-.2.3-.2.2-.2.3-.2.3-.2.2-.2.3-.2.3-.2.2-.3.3-.2.3-.2.3-.2.2-.2.3-.2.3-.2.2-.2.3-.2.3-.3.2-.2.3-.2.2-.2.3-.2.3-.3.2-.2.3-.2.3-.2.2-.2.3-.3.2-.2.3-.2.3-.2.2-.3.3-.4.5-.5.5-.4.5-.5.6-.5.5-.5.5-.4.5-.5.5-.5.5-.5.5-.4.5-.5.5-.5.5-.5.5-.5.5-.5.5-.5.5-.5.5-.5.5-.4.5-.5.5-.5.5-.5.4-.5.5-.6.5-.5.5-.5.5-.5.5-.5.4-.5.5-.5.5-.5.5-.5.4-.5.5-.5.5-.5.5-.5.4-.5.5-.5.5-.6.4-.5.5-.5.5-1 .9-1 .9-1 .9-1 .9-1 .9-2 1.8-2 1.7-1 .9-.9.9-1 .8-.9.9-1 .8-.4.4-.4.4-.5.5-.4.4-.5.4-.4.4-.5.4-.4.4-.4.4-.5.4-.4.4-.4.4-.5.4-.4.4-.4.4-.4.4-.4.4-.4.4-.4.4-.4.4-.4.3-.4.4-.5.6-.5.5-.5.5-.6.5-.5.6-.5.5-.5.5-.6.6-.5.5-.5.6-.5.5-.6.5-.5.6-.5.5-.5.5-.6.6-.5.5-.5.6-.5.5-.5.5-.5.6-.6.5-.5.6-.5.5-1 1.1-1 1-1 1.2-1.1 1-1 1.2-1 1-1 1.2-1.1 1-1 1.2-1 1.1-1 1.1-1 1.1-1 1.1-1 1.2-1 1-1 1.2-1 1.1-1.1 1.1-1 1.2-1 1-1 1.2-1 1.1-1 1.2-1 1-1 1.2-1 1.2-1 1-1 1.2-1 1.2-1 1.1-1 1.1-1 1.2-1 1.1-1 1.2-1 1.1-.9 1.1-1 1.2-1 1.1-1 1.2-1 1.1-2 2.3-1.9 2.3-2 2.3-2 2.3-3.9 4.6-4 4.6-1.9 2.3-2 2.4-2 2.3-2 2.3-1 1.1-1 1.2-1 1.1-.9 1.2-1 1.1-1 1.2-1 1.1-1 1.2-1 1.1-1 1.2-1 1.1-1 1.2-1 1.1-1 1.2-1 1-1 1.2-1 1.2-1 1.1-1 1.2-1 1.1-1 1.1-1 1.2-1 1.1-1.1 1.1-1 1.2-1 1.1-1 1.1-1.1 1.2-1 1.1-1 1.1-1 1.2-1.1 1-1 1.2-1 1.1-1.1 1.1-1 1.2-1.1 1-1 1.2-1.1 1.1-1 1.1-.6.6-.5.5-.5.6-.6.5-.5.6-.5.5-.6.6-.5.5-.5.6-.6.5-.5.6-.5.5-.6.6-.5.5-.5.6-.6.5-.5.6-.5.5-.6.6-.5.5-.6.5-.5.6-.5.5-.6.6-.1.1-.2.2-.1.1-.2.2-.1.1-.2.2-.2.1-.1.2-.2.1-.1.2-.2.1-.1.1-.2.2-.2.1-.1.2-.2.1-.1.1-.2.2-.2.1-.1.2h-.2l-.1.2-.2.2h-.2l-.1.2-.2.2h-.2l-.1.2-.2.1-.2.2h-.1l-.2.2-.2.1-.1.2h-.2l-.2.2-.1.1-.2.2-.3.2-.4.2-.3.3-.4.2-.3.2-.4.2-.3.3-.4.2-.3.2-.4.2-.3.2-.4.2-.3.2-.4.2-.4.2-.3.2-.4.2-.3.2-.4.1-.4.2-.3.2-.4.2-.4.1-.3.2-.4.2-.4.1-.4.2-.3.2-.4.1-.4.2-.4.1-.3.1-.4.2-.4.1-.4.2h-.3l-.4.2-.4.1-.4.2-.4.1-.3.1-.4.1-.4.2h-.4l-.4.2h-.4l-.4.2h-.3l-.4.2h-.4l-.4.2h-.4l-.4.2h-.4l-.4.1-.4.1-.3.1h-.4l-.4.2h-.4l-.4.1h-.4l-.4.1-.4.1h-.4l-.4.1-.4.1h-.4l-.4.1h-.4l-.4.1h-.4l-.4.1h-.4l-.4.1h-.4l-.4.1h-.8l-.3.1h-.8l-.4.1h-.8l-.4.1h-1.6l-.4.1h-2.5l-.4.1H109.3l-.4-.1h-2l-.4-.1H105.3l-.4-.1H103.7l-.4-.1h-.8l-.4-.1h-.8l-.8-.1-.8-.1H99l-.7-.2h-.8l-.8-.1-.8-.1H95l-.8-.2h-.8l-.7-.2h-.8l-.8-.1-.8-.1-.8-.1-.7-.1-.8-.1-.8-.1-.7-.1-.8-.1-.7-.1-.8-.1-1.5-.2-1.5-.2-3-.4-1.4-.2-1.4-.2-1.5-.2-.7-.1-.7-.1h-.7l-.7-.2h-.7l-.6-.1-.7-.1-.7-.1h-.7l-.6-.2h-.7l-.6-.1H65l-.7-.1H64l-.2-.1h-.5l-.2-.1h-.4l-.2-.1H62l-.2-.1h-.2l-.2-.1H61l-.2-.1h-.2l-.2-.1h-.2l-.2-.1h-.2l-.2-.1h-.2l-.4-.2h-.4l-.4-.2h-.4l-.3-.2H57l-.3-.2-.4-.1-.3-.1-.4-.1-.7-.2-.6-.2-.6-.2-.7-.2-.3-.1-.3-.1-.3-.1-.2-.1h-.3l-.3-.2H51l-.3-.1-.2-.1h-.3l-.3-.1-.2-.1h-.4l-.1-.1h-.4v-.1h-.5l-.1-.1H47.7l-.1-.1H42.1l-.3-.1h-.5l-.3-.1h-.6l-.3-.1h-.3l-.3-.1H39l-.3-.1h-.3l-.3-.1h-.3l-.4-.1-.6-.1-.7-.1-.6-.1-.7-.2h-.6l-.6-.2H33l-.6-.2-.6-.1-.5-.1-.5-.1-.5-.1-.8-.2H29l-.3-.1h-.1l-.2-.1-1.1-.3-1.8-1-1.5-1.2-1-1.5-.7-1.6-.3-2.7.6-2.7 1.5-2.3 2-1.5-.3.2-.4.2-.2.2-.2.1v.1-.1l.2-.2.2-.2.2-.2.3-.3.3-.3.3-.3.3-.3.3-.4.4-.4.4-.4.4-.4.4-.5.4-.5.4-.4.5-.5 1-1 .9-1.2 1-1 1-1.2 1-1.2L36 329l1-1.2 1-1.1 1.1-1.2 1-1.1 1-1.1.9-1.1.9-1 .8-1 .8-.9.7-.8.6-.7.6-.6.4-.6.4-.4.2-.3.6-.7.6-.7 1.2-1.4 1.2-1.4 1.2-1.4 1.2-1.4 1.3-1.4 1.2-1.4 1.2-1.3 1.2-1.4 1.2-1.4 1.2-1.4 1.2-1.4 1.2-1.4 1.2-1.4 2.4-2.7 2.5-2.8 2.4-2.8 2.4-2.7 1.2-1.4 1.2-1.4 1.2-1.4 1.2-1.4 1.2-1.3 1.2-1.4 1.2-1.4 1.2-1.4 1.2-1.4 1.2-1.4 1.2-1.3 1.2-1.4 1.2-1.4 1.1-1.4 1.2-1.4 1.2-1.4 1.2-1.4 1.2-1.3 1.2-1.4 1.2-1.4 1.2-1.4 1.2-1.4 1.2-1.3 1.2-1.4 1.2-1.4 1.2-1.4 1.2-1.3 1.2-1.4 1.2-1.4 1.2-1.4 1.2-1.3 1.2-1.4 1.2-1.4 1.2-1.3 1.2-1.4 1.2-1.4 1.2-1.3 1.2-1.4 1.3-1.3 1.2-1.4 1.2-1.4 1.2-1.3 1.2-1.4 1.2-1.3 1.2-1.4 1.3-1.3 1.2-1.4 1.2-1.3 1.2-1.4 1.2-1.3 1.3-1.4 1.2-1.3 1.2-1.4 1.2-1.3 1.3-1.4 1.2-1.3 1.2-1.3 1.3-1.4 1.2-1.3 1.2-1.4 1.3-1.3 1.2-1.3 1.2-1.4 1.3-1.3 1.2-1.3 1.3-1.4 1.2-1.3 1.3-1.3 1.2-1.3 1.2-1.3 1.3-1.4 1.3-1.3 1.2-1.3 1.3-1.3 1.2-1.3 1.3-1.4 1.2-1.3 1.3-1.3 1.3-1.3 1.2-1.3 1.3-1.3 1.3-1.3 1.2-1.3 1.3-1.3 1.3-1.3 1.3-1.3 1.2-1.3 1.3-1.3 1.3-1.3 1.3-1.3 1.3-1.3 1.3-1.3 1.3-1.3 1.3-1.2 1.2-1.3 1.3-1.3 1.3-1.3 1.3-1.3 1.3-1.2 1.3-1.3 1.4-1.3 1.3-1.3 1.3-1.2 1.3-1.3 1.3-1.3 1.3-1.2 1.3-1.3 1.4-1.3 1.3-1.2 1.3-1.3 1.3-1.2 1.4-1.3 1.3-1.2 1.3-1.3.7-.6.7-.6.7-.7.6-.6.7-.6.7-.6.6-.6.7-.7.7-.6.7-.6.6-.6.7-.6.7-.7.7-.6.7-.6.6-.6.7-.6.7-.6.7-.7.7-.6.6-.6.7-.6.7-.6.7-.6.7-.6.7-.7.6-.6.7-.6.7-.6.7-.6.7-.6.7-.6.7-.6.7-.6.6-.6.7-.7.7-.6.7-.6.7-.6.7-.6.7-.6.7-.6.7-.6.7-.6.7-.6.7-.6.7-.6.7-.6 1-.8.9-.8.9-.8 1-.8.9-.8.9-.8 1-.9.9-.8 1-.8.8-.8 1-.8 1-.9 1.8-1.6 1.9-1.7 1.9-1.6 1.9-1.7 1.8-1.7 2-1.7 1.8-1.6 1-.9 1-.8.9-.8 1-.9.9-.8 1-.8.9-.9 1-.8 1-.9.9-.8 1-.8 1-.8.9-.9 1-.8.9-.8 1-.8 1-.9 1-.8.9-.8 1-.8 1-.8 1-.9.9-.8.5-.4.5-.4.5-.4.5-.4.5-.4.5-.4.4-.4.5-.4.5-.4.5-.4.5-.4.5-.4.5-.4.5-.4.5-.3.5-.4.5-.4.5-.4.5-.4.5-.4.5-.4.5-.4.5-.4.5-.4.5-.3.5-.4.5-.4.5-.4.5-.4.5-.3.3-.2.2-.2.3-.2.2-.2.3-.2.2-.2.3-.2.2-.2.3-.2.2-.2.3-.2.2-.2.2-.3.3-.2.2-.2.3-.2.2-.2.3-.2.2-.3.3-.2.2-.2.2-.2.3-.3.2-.2.3-.2.2-.3.3-.2.2-.2.2-.3.3-.2.2-.3.3-.2.2-.2.3-.3.5-.5.4-.5.5-.5.5-.5.5-.5 1-1 1-1 .5-.6.5-.5.6-.5.5-.6.5-.5.5-.5.4-.4.4-.4.4-.4.4-.4.4-.3.4-.4.3-.3.4-.4.3-.3.4-.3.3-.3.3-.3.4-.3.3-.3.3-.3.3-.3.3-.2.3-.3.3-.2.2-.2.3-.3.3-.2.3-.2.2-.2.3-.2.3-.2.2-.2.3-.2.3-.2.2-.2.3-.1.2-.2h.2l.1-.2h.1l.2-.1.1-.1h.2l.1-.2h.2l.1-.1h.2l.1-.2h.2l.5-.4 2-.7 2.2-.2zm-6.1 23.2l-.5.5-.5.5-.5.5-.5.5-1 1-1 1-.5.6-.5.5-.6.5-.5.6-.5.5-.3.3-.2.2-.3.3-.3.3-.3.3-.2.2-.3.3-.3.3-.3.2-.2.3-.3.3-.3.2-.3.3-.3.3-.3.2-.3.3-.3.3-.2.2-.3.3-.3.3-.3.2-.3.3-.4.2-.3.3-.3.3-.3.2-.3.3-.3.2-.3.3-.4.2-.3.3-.3.3-.3.2-.4.2-.4.4-.5.4-.5.3-.5.4-.5.4-.5.3-.4.4-.5.4-.5.4-.5.3-.5.4-.4.4-.5.4-.5.3-.5.4-.4.4-.5.4-.5.3-.5.4-.5.4-.4.4-.5.4-.5.4-.5.4-.4.3-.5.4-.5.4-.5.4-.5.4-.4.4-1 .8-1 .8-.9.8-1 .7-.9.8-1 .8-.9.9-1 .8-.9.8-1 .8-.9.8-.9.8-1 .8-.9.8-1 .9-.9.8-1 .8-.9.8-1 .9-.9.8-.9.8-1 .8-.9.9-1.9 1.6-1.9 1.7-1.9 1.7-1.8 1.6-2 1.7-1.8 1.7-2 1.6-.9.9-.9.8-1 .8-.9.9-1 .8-.9.8-1 .8-.9.9-1 .8-.9.8-1 .8-.9.9-.7.5-.7.6-.7.6-.6.6-.7.6-.7.6-.7.6-.7.6-.7.6-.7.6-.6.6-.7.6-.7.6-.7.6-.7.6-.6.6-.7.6-.7.6-.7.6-.6.6-.7.6-.7.6-.7.6-.6.6-.7.6-.7.6-.7.6-.6.6-.7.6-.7.6-.6.6-.7.6-.7.6-.6.6-.7.7-.7.6-.6.6-.7.6-.7.6-.6.6-.7.6-.7.6-.6.6-.7.7-.6.6-.7.6-.7.6-.6.6-1.3 1.2-1.4 1.3-1.3 1.2-1.3 1.3-1.3 1.2-1.3 1.2-1.3 1.3-1.3 1.2-1.3 1.3-1.3 1.2-1.3 1.3-1.3 1.2-1.3 1.3-1.3 1.2-1.3 1.3-1.2 1.3-1.3 1.2-1.3 1.3-1.3 1.2-1.3 1.3-1.2 1.3-1.3 1.3-1.3 1.2-1.3 1.3-1.2 1.3-1.3 1.3-1.3 1.2-1.2 1.3-1.3 1.3-1.3 1.3-1.2 1.3-1.3 1.3-1.2 1.2-1.3 1.3-1.2 1.3-1.3 1.3-1.2 1.3-1.3 1.3-1.2 1.3-1.3 1.3-1.2 1.3-1.2 1.3-1.3 1.3-1.2 1.3-1.3 1.4-1.2 1.3-1.2 1.3-1.3 1.3-1.2 1.3-1.2 1.3-1.3 1.3-1.2 1.4-1.2 1.3-1.2 1.3-1.3 1.3-1.2 1.4-1.2 1.3-1.2 1.3-1.2 1.3-1.3 1.4-1.2 1.3-1.2 1.3-1.2 1.4-1.2 1.3-1.2 1.3-1.2 1.4-1.2 1.3-1.3 1.4-1.2 1.3-1.2 1.4-1.2 1.3-1.2 1.3-1.2 1.4-1.2 1.3-1.2 1.4-1.2 1.3-1.2 1.4-1.2 1.4-1.2 1.3-1.2 1.4-1.2 1.3-1.2 1.4-1.2 1.3-1.2 1.4-1.2 1.4-1.2 1.3-1.2 1.4-1.2 1.4-1.1 1.3-1.2 1.4-1.2 1.4-1.2 1.3-1.2 1.4-1.2 1.4-1.2 1.3-1.2 1.4-1.2 1.4-1.2 1.4-1.1 1.4-1.2 1.3-1.2 1.4-1.2 1.4-1.2 1.4-1.2 1.4-1.2 1.4-1.2 1.4-1.2 1.4-1.2 1.3-1.2 1.4-1.2 1.4-1.2 1.4-1.2 1.4-1.2 1.4-1.2 1.4-2.5 2.8-2.4 2.7-2.4 2.8-2.4 2.8-1.2 1.3-1.2 1.4-1.2 1.4-1.2 1.4-1.2 1.4-1.2 1.3-1.2 1.4-1.2 1.4-1.2 1.4-1.2 1.4-1.2 1.4-1.2 1.3-1.2 1.4-.6.7-.6.7-.3.4-.4.4-.4.6-.6.6-.6.7-.7.9-.8.9-.9 1-.9 1-.9 1-1 1.1-1 1.2-1 1.1-1 1.2-1.1 1.2-1 1.2-.7.7h2.1l.2.1h.7l.2.1h.7l.2.1h.2l.2.1h.5l.2.1h.4l.2.1h.2l.2.1h.2l.2.1h.2l.2.1h.2l.2.1h.2l.4.1.4.1.4.1.4.2h.3l.4.2h.4l.3.2h.4l.3.2.4.1.6.2.7.2.6.2.6.2.3.1.3.1h.3l.3.2h.3l.2.1.3.1h.3l.2.2H63.6v.1H64l.1.1h.4l.1.1h.5v.1h.6l.1.1h.4l.7.1h.7l.7.2h.7l.7.1.7.1h.7l.7.2h.7l.7.1.8.1.7.1.7.1.7.1 1.5.2 1.4.2 1.5.2 3 .4 1.4.2 1.5.2.8.1.7.1.8.1.7.1.7.1.8.1h.7l.8.2h.7l.8.2h.7l.7.1.8.1.7.1h.8l.7.2h.8l.7.1h.7l.8.1.7.1h.8l.7.1h.7l.4.1h.7l.4.1H107l.4.1h1.5l.3.1h2.9l.3.1h7l.3-.1h1.4l.3-.1h1l.3-.1h.7l.3-.1h.7l.3-.1h.3l.3-.1h.7l.3-.1h.3l.3-.1h.3l.4-.1h.3l.3-.1h.3l.3-.1h.3l.3-.1.3-.1h.3l.3-.1.3-.1h.3l.3-.1.3-.1h.3l.3-.1.3-.1h.3l.3-.2h.3l.3-.1.3-.1h.3l.2-.2h.3l.3-.2h.3l.3-.1.2-.1.3-.1.3-.1.3-.1.2-.1.3-.1.3-.1.2-.1.3-.1.3-.1.2-.2h.3l.3-.2h.2l.3-.2.2-.1.3-.1.2-.2h.3l.2-.2.3-.1.2-.2.3-.1.2-.1.3-.2.2-.1.3-.1.2-.2.2-.1.3-.2.2-.1.3-.2.2-.1.2-.2.3-.1.2-.2.2-.1.2-.2h.1l.2-.2.2-.1.1-.1h.1l.1-.2h.1l.1-.1.2-.1v-.1h.2v-.2h.2l.1-.2h.1l.1-.1.1-.1.1-.1.1-.1.1-.1h.2v-.2h.2v-.2h.2v-.2h.2v-.1l.2-.1.1-.1.1-.1.1-.1.1-.1.1-.1.1-.1.1-.1.1-.1.5-.6.6-.5.5-.5.5-.6.5-.5.6-.5.5-.5.5-.6.5-.5.6-.6.5-.5.5-.5.5-.6.6-.5.5-.5.5-.6.5-.5.5-.5.5-.6.6-.5.5-.6.5-.5.5-.6.5-.5 1-1 1-1.2 1.1-1 1-1.2 1-1 1-1.2 1.1-1 1-1.2 1-1 1-1.2 1-1 1-1.2 1-1.1 1-1.1 1-1.1 1-1.1 1.1-1.2 1-1 1-1.2 1-1.1 1-1.2 1-1 1-1.2 1-1.1 1-1.2 1-1.1 1-1.1 1-1.2 1-1.1 1-1.1 1-1.2 1-1.1 1-1.2 1-1.1.9-1.1 1-1.2 1-1.1 1-1.2 1-1.1 1-1.2 2-2.3 1.9-2.3 2-2.3 2-2.3 3.9-4.6 4-4.6 1.9-2.3 2-2.3 2-2.3 2-2.3 1-1.2.9-1.1 1-1.2 1-1.1 1-1.2 1-1.1 1-1.2 1-1.1 1-1.2 1-1.1 1-1.2 1-1.1 1-1.2 1-1.1 1-1.1 1-1.2 1-1.1 1-1.2 1-1.1 1-1.2 1-1.1 1-1.1 1-1.2 1.1-1.1 1-1.1 1-1.2 1-1.1 1.1-1.1 1-1.2 1-1.1 1.1-1.1 1-1.2 1-1 1.1-1.2 1-1.1 1.1-1.1 1-1.2 1-1 1.1-1.2 1-1.1.6-.6.5-.5.6-.6.5-.5.5-.6.6-.5.5-.6.5-.5.6-.6.5-.5.5-.6.6-.5.5-.6.5-.5.6-.6.5-.5.5-.6.6-.5.5-.6.6-.5.5-.6.5-.5.6-.5.5-.6.4-.4.5-.4.4-.4.4-.5.5-.4.4-.4.4-.4.5-.5.4-.4.5-.4.4-.4.5-.5.4-.4.5-.4.5-.4.4-.5.5-.4.4-.4.5-.4.5-.5.5-.4.4-.4 1-1 1-.8 1-.8.9-1 1-.8 2-1.8 2-1.7.9-1 1-.8 1-.9 1-.9 1-.9.5-.4.5-.5.4-.4.5-.5.5-.4.5-.5.5-.5.5-.4.5-.5.5-.4.5-.5.5-.4.4-.5.5-.4.5-.5.5-.5.5-.4.4-.5.5-.4.5-.5.4-.5.5-.4.5-.5.4-.4.5-.5.5-.5.4-.4.5-.5.4-.4.5-.5.4-.5.5-.4.4-.5.4-.5.5-.4.4-.5.4-.4.4-.5.5-.5.4-.4.4-.5.4-.5.2-.2.2-.2.2-.3.2-.2.2-.2.2-.2.2-.3.2-.2.2-.2.2-.3.2-.2.2-.2.2-.3.1-.2.2-.2.2-.3.2-.2.2-.2.2-.3.2-.2.1-.2.2-.2.2-.3.2-.2.1-.2.2-.3.2-.2.2-.2.1-.3.2-.2.2-.2.2-.2.1-.3.2-.2.1-.2.2-.3.2-.2.1-.2.2-.3.1-.2.2-.2.2-.2.1-.3.2-.2.1-.2.2-.2.1-.3.2-.2.1-.2.2-.3v-.2l.2-.2.2-.2.1-.3.1-.2.2-.2.1-.2.1-.3.2-.2.1-.2.1-.2.2-.3v-.2l.2-.2.1-.2.2-.2v-.3l.2-.2.1-.2.1-.2.1-.3.1-.2.1-.1v-.1l.1-.1v-.2h.1v-.2h.1v-.2l.1-.2.1-.2v-.2h.1v-.2h.1v-.2l.1-.2v-.2l.1-.1V135.6h.1V135.2l.1-.1v-.2l.1-.2V134.4l.1-.2v-.2l.1-.1v-.4l.1-.1v-.4l.1-.3v-.3l.1-.2v-.3l.1-.3v-.6l.1-.3v-.5l.1-.3V129l.1-.3v-1.6l.1-.3v-7.3l-.1-.4V118l-.1-.4v-1l-.1-.7v-.7l-.1-.6v-.7l-.1-.7v-.7l-.2-1.3-.1-1.3-.1-1.4v-.6l-.1-.6-.1-.7V105.2l-.1-.6v-.6l-.1-.3v-1.8l-.1-.3V94.2l.1-.6v-2.1l.1-.5V89.3l.1-.5v-.6l.1-1V86l.2-1.1v-1.1l.1-1.2v-1.1l.1-1.1.2-2.3.2-2.3v-1.2l.1-1.1v-1.1l.2-1.2v-1.1l.1-1.2v-1.1l.1-1.1V66l.1-.5v-1.2l.1-.5V62.2l.1-.5v-2.2l.1-.5v-3.7l.1-.5V48.6l-.4.3zM29 339.4l-1.4.3-.9.4-.3.1 2.5-.8h1.6H29z"/>
  </g>
  <g fill="#193989">
    <path d="M351.7 193.8c0 2.3-2.3-.8 0-.8 10.3 0 76.3-11.7 77.9-10.9.7.4 10.9 42.5 13.4 47 21.2 37.1 58.7 42.3 95.5 30 27.2-9 52.7-34.8 52.7-63.6 0-.2 28 2.6 47 .8 3.9-.3 32.2-6.1 33.4-2.5 5.2 15.5-15.2 66.6-22.5 79.7-47.3 85.2-185.9 111.8-249.9 29.5-13.4-17.3-47.5-109.2-47.5-109.2z"/>
    <path d="M429.5 174h.2l.3.1h.8l.5.2.7.2.6.2.2.1 1.3.7 1.2 1 .6.8.2.2.3.5.2.3.2.3v.2l.2.2.1.3.1.3.1.2v.2l.1.2.1.2v.2l.1.3.1.2v.2l.2.2v.3l.2.5.1.6.2.5.2.7.2.6.1.7.2.7.2.8.3.8.2.8.4 1.7.5 1.8.5 2 1 3.9.6 2 .5 2 .6 2.2.3 1 .2 1 .3 1 .3 1.1.3 1 .2 1 .3 1 .3 1 .2 1 .3 1 .3.8.2 1 .3.8.2.9.2.8.3.8v.4l.2.3.1.4.1.4.1.3.1.3.1.4.1.3.1.3.1.3.1.3.1.2v.3l.2.2v.3l.1.2.1.2v.2l.1.1v.2l.1.1v.1h.1l.1.3.3.4.2.4.2.4.3.4.2.4.2.4.3.3.2.4.3.4.2.3.2.4.3.4.2.3.3.4.2.3.3.4.2.3.2.4.3.3.2.4.3.3.3.3.2.4.3.3.2.3.3.3.2.4.3.3.2.3.3.3.3.3.2.3.3.3.3.3.2.3.3.3.3.3.2.3.3.3.3.3.2.3.3.2.3.3.2.3.3.3.3.2.3.3.3.3.2.2.3.3.3.2.3.3.3.2.2.3.3.2.3.3.3.2.3.3.3.2.2.2.3.3.3.2.3.2.3.3.3.2.3.2.3.2.3.2.3.3.3.2.3.2.3.2.3.2.3.2.3.2.3.2.3.2.3.2.3.2.3.2.3.2.3.1.3.2.3.2.3.2.3.2.3.1.4.2.3.2.3.1.3.2.3.2.3.1.3.2.4.2.3.1.3.2.3.1.3.2.4.1.3.2.3.1.3.1.4.2.3.1.3.1.3.2.4.1.3.1.3.2h.3l.4.2.3.1.3.1.4.2h.3l.3.2.4.1.3.1.4.1.3.1.3.1.4.1.3.1.4.1.3.1.3.1h.4l.3.2h.4l.3.2h.4l.3.1.4.1h.3l.4.1.3.1h.4l.3.2h.7l.4.2h.7l.4.1h.3l.4.1.3.1h.4l.4.1h.7l.3.1h.4l.4.1h.7l.4.1h.7l.4.1h1.5l.3.1H509.7l.3-.1H511.2l.4-.1h.8l.4-.1h.3l.4-.1h.4l.4-.1h.8l.4-.1h.4l.4-.1.4-.1h.4l.4-.1h.4l.4-.1.3-.1h.4l.4-.1.4-.1h.4l.4-.1.4-.1.4-.1h.4l.4-.2h.4l.4-.1.4-.1h.4l.4-.2h.4l.4-.2h.4l.4-.1.4-.1.4-.1.4-.1.4-.1.4-.1.4-.1.4-.2h.4l.4-.2h.5l.4-.2.4-.1.4-.1.4-.1.4-.2h.4l.4-.2.4-.1.4-.1.4-.2.4-.1.4-.1.4-.2.4-.1.4-.1.3-.1.3-.1.3-.1.3-.1.3-.1.2-.1.3-.1.3-.1.3-.1.3-.2h.3l.2-.2h.3l.3-.2.3-.1.3-.1.3-.2h.3l.2-.2.3-.1.3-.1.3-.2h.3l.3-.2.2-.1.3-.2.3-.1.3-.1.3-.2.2-.1.3-.1.3-.2.3-.1.3-.2.3-.1.2-.1.3-.2.3-.1.3-.2.2-.1.3-.2.3-.1.3-.2.3-.1.2-.2.3-.1.3-.2.3-.2.2-.1.3-.2.3-.1.2-.2.3-.2.3-.1.3-.2.2-.2.3-.1.3-.2.2-.2.3-.1.3-.2.2-.2.3-.2.3-.1.2-.2.3-.2.3-.2.2-.1.3-.2.2-.2.3-.2.3-.2.2-.2.3-.2.2-.1.3-.2.3-.2.2-.2.3-.2.2-.2.3-.2.2-.2.3-.2.2-.2.3-.2.2-.2.3-.2.2-.2.3-.2.2-.2.3-.2.2-.2.3-.2.2-.2.2-.2.3-.2.2-.2.3-.2.2-.2.2-.3.3-.2.2-.2.2-.2.3-.2.2-.2.2-.3.3-.2.2-.2.2-.2.2-.2.3-.3.2-.2.2-.2.2-.2.3-.3.2-.2.2-.2.2-.2.2-.3.3-.2.2-.2.2-.2.2-.3.2-.2.2-.2.2-.3.2-.2.2-.2.2-.3.2-.2.3-.3.2-.2.2-.2.2-.3.2-.2.1-.3.2-.2.2-.2.2-.3.2-.2.2-.3.2-.2.2-.3.2-.2.2-.3.1-.2.2-.2.2-.3.2-.2.2-.3.1-.2.2-.3.2-.2.2-.3.1-.2.2-.3.2-.3.1-.2.2-.3.2-.2.1-.3.2-.2.2-.3.1-.2.2-.3.1-.3.2-.2.1-.3.2-.2.1-.3.2-.3.1-.2.2-.3.1-.2.2-.3.1-.3.1-.2.2-.3.1-.3.2-.2v-.3l.2-.2.2-.3v-.3l.2-.2.1-.3.2-.3v-.2l.2-.3.1-.3.1-.2.1-.3.2-.3v-.3l.2-.2v-.3l.2-.3.1-.2.1-.3.1-.3.1-.2.1-.3.1-.3.1-.3.1-.2v-.3l.2-.3v-.3l.2-.2v-.3l.1-.3.1-.2v-.3l.2-.3v-.3l.1-.2v-.3l.2-.3v-.5l.2-.3v-.6l.1-.3.1-.2v-.3l.1-.3v-.3l.1-.2v-.3l.1-.3v-.3l.1-.2v-.6l.1-.3v-.3l.1-.2v-.6l.1-.3v-.8l.1-.3V196.9l.1-.3v-1.1l.2-1.8.6-1.7 1.3-1.8 1.7-1.5 1.7-.8 1-.2.6-.2H593.3l.4.1h.8l2 .2h1l1.3.2h2l.8.1h.7l.8.1h.7l.8.1h.8l.9.1H608l.8.1h1l.8.1h1.8l1 .1h1.9l.9.1h4.7l.5.1H629.9l.5-.1H632.2l.5-.1h1.3l.4-.1h1.3l.4-.1h.9l.4-.1h.4l.2-.1h.6l.4-.2h.8l.5-.2 1-.1 2.2-.4 1.3-.2 1.3-.2.7-.1.7-.1.7-.2h.7l.7-.2.8-.1.7-.1.7-.1.8-.1.7-.1.8-.1.7-.1.8-.1.7-.1h.4l.4-.1h.4l.3-.1h.4l.4-.1h.7l.4-.1h.4l.3-.1h.7l.4-.1h1.1l.3-.1H664.3l.4-.1H669.9l.2.1h.7l.1.1h.4l.2.1H671.8l.2.1h.2l.2.1h.2l.2.1.2.1h.2l.2.2h.2l.3.1.2.1.2.1.3.1.2.2.3.1.2.2.3.1.3.2.2.2.3.3.3.2.3.3.3.3.3.3.2.3.3.4.3.4.2.4.2.5.2.4.2.4v.3l.1.1v.2l.1.1V192.2l.1.2v.2l.2.3v.3l.1.3v.3l.1.3v.3l.1.3v.3l.1.3v.4l.1.3v.6l.1.3V197.8l.1.4V203.7l-.1.3v1l-.1.4v.7l-.1.3v.3l-.1.4v.3l-.1.4v.7l-.1.3v.4l-.1.3-.1.4v.3l-.1.4v.4l-.1.3v.4l-.2.3v.8l-.2.3v.8l-.2.3v.4l-.1.4v.3l-.2.4v.4l-.1.3-.1.4v.4l-.2.4v.3l-.1.4-.1.4-.1.4-.1.4-.1.3v.4l-.2.4v.4l-.2.4v.4l-.2.3v.4l-.2.4v.4l-.2.4v.4l-.2.4v.4l-.2.3-.1.4-.1.4-.2.8-.2.8-.3.8-.2.8-.2.7-.3.8-.2.8-.2.8-.3.8-.2.8-.3.8-.2.8-.3.8-.3.8-.2.7-.3.8-.2.8-.3.8-.3.8-.2.8-.3.7-.3.8-.3.8-.2.8-.3.7-.3.8-.3.8-.2.7-.3.8-.3.7-.3.8-.3.7-.2.7-.3.8-.3.7-.3.7-.3.8-.2.7-.3.7-.3.7-.3.7-.3.7-.2.7-.3.6-.3.7-.3.7-.2.6-.3.7-.3.6-.3.7-.2.6-.3.6-.3.6-.2.6-.3.6-.2.6-.3.6-.2.5-.3.6-.3.6-.2.5-.2.5-.3.5-.2.6-.3.5-.2.4-.2.5-.3.5-.2.5-.2.4-.2.4-.2.5-.3.4-.2.4-.2.4-.2.4-.2.3-.2.4-.3.5-.3.6-.3.5-.3.5-.3.5-.3.6-.3.5-.3.5-.3.5-.3.5-.3.5-.4.6-.3.5-.3.5-.3.5-.4.5-.3.5-.3.5-.4.5-.3.5-.3.5-.4.5-.3.5-.4.5-.3.5-.3.5-.4.5-.3.4-.4.5-.4.5-.3.5-.4.5-.3.5-.4.4-.4.5-.3.5-.4.5-.4.4-.3.5-.4.5-.4.5-.4.4-.3.5-.4.5-.4.4-.4.5-.4.4-.4.5-.4.4-.4.5-.3.5-.4.4-.4.5-.4.4-.4.4-.4.5-.5.4-.4.5-.4.4-.4.5-.4.4-.4.4-.4.5-.4.4-.4.4-.5.5-.4.4-.4.4-.4.4-.5.4-.4.5-.4.4-.5.4-.4.4-.4.4-.5.4-.4.5-.4.4-.5.4-.4.4-.5.4-.4.4-.4.4-.5.4-.4.4-.5.4-.4.4-.5.4-.5.4-.4.3-.5.4-.4.4-.5.4-.5.4-.4.4-.5.3-.5.4-.4.4-.5.4-.5.4-.4.3-.5.4-.5.4-.5.3-.4.4-.5.4-.5.3-.5.4-.5.3-.4.4-.5.3-.5.4-.5.3-.5.4-.5.3-.5.4-.5.3-.5.4-.5.3-.5.3-.5.4-.5.3-.5.4-.5.3-.5.3-.5.3-.5.4-.5.3-.5.3-.5.3-.5.4-.5.3-.5.3-.5.3-.6.3-.5.3-.5.3-.5.4-.5.3-.6.3-.5.3-.5.3-.5.3-.5.3-.6.3-.5.2-.5.3-.6.3-.5.3-.5.3-.5.3-.6.3-.5.3-.5.2-.6.3-.5.3-.6.3-.5.2-.5.3-.6.3-.5.2-.6.3-.5.3-.5.2-.6.3-.5.2-.6.3-.5.3-.6.2-.5.3-.6.2-.5.3-.6.2-.5.2-.6.3-.5.2-.6.3-.5.2-.6.2-.6.3-.5.2-.6.2-.5.3-.6.2-.5.2-.6.2-.6.2-.5.3-.6.2-.6.2-.5.2-.6.2-.6.2-.5.2-.6.2-.6.2-.5.2-.6.2-.6.2-.5.2-.6.2-.6.2-.6.2-.5.2-.6.2-.6.2-.6.1-.5.2-.6.2-.6.2-.6.2-.5.1-.6.2-.6.2-.6.1-.6.2-.5.2-.6.1-.6.2-.6.1-.6.2-.6.1-.5.2-.6.1-.6.2-.6.1-.6.2-.6.1-.6.2-.5.1-.6.1-.6.2-.6.1-.6.1-.6.2-.6.1-.6.1-.6.1-.5.2h-.6l-.6.2-.6.1-.6.1-.6.1-.6.1-.6.2h-.6l-.6.2h-.6l-.6.2h-.6l-.6.2h-.5l-.6.1-.6.1-.6.1-.6.1h-.6l-.6.2h-.6l-.6.1h-.6l-.6.2h-.6l-.6.1h-.6l-.6.1-.6.1h-.6l-.6.1h-.6l-.6.1h-.6l-.6.1h-.6l-.6.1h-.6l-.6.1h-.6l-.6.1H516l-.6.1H513.6l-.6.1h-3l-.6.1H500.5l-.6-.1H498l-.6-.1h-1.2l-.6-.1h-.6l-.6-.1h-1.2l-.6-.1h-.6l-.6-.1-.6-.1h-.6l-.6-.1h-.6l-.5-.1-.6-.1h-.6l-.6-.1-.6-.1-.6-.1h-.6l-.6-.2h-.6l-.6-.1-.6-.1h-.6l-.5-.2h-.6l-.6-.2h-.6l-.6-.2h-.6l-.6-.2h-.6l-.5-.2-.6-.1-.6-.1-.6-.1-.6-.1-.6-.2h-.5l-.6-.2-.6-.1-.6-.2h-.6l-.6-.2-.5-.2-.6-.1-.6-.1-.6-.2-.5-.1-.6-.2-.6-.1-.6-.2-.6-.1-.5-.2-.6-.1-.6-.2-.5-.2-.6-.1-.6-.2-.6-.2-.5-.1-.6-.2-.6-.2-.5-.2-.6-.2-.6-.1-.5-.2-.6-.2-.6-.2-.5-.2-.6-.2-.6-.2-.5-.2-.6-.2-.5-.2-.6-.2-.6-.2-.5-.2-.6-.2-.5-.3-.6-.2-.5-.2-.6-.2-.5-.3-.6-.2-.5-.2-.6-.3-.5-.2-.6-.2-.5-.3-.6-.2-.5-.3-.6-.2-.5-.3-.6-.2-.5-.3-.5-.2-.6-.3-.5-.2-.6-.3-.5-.3-.5-.3-.6-.2-.5-.3-.5-.3-.6-.3-.5-.2-.5-.3-.6-.3-.5-.3-.5-.3-.5-.3-.6-.3-.5-.3-.5-.3-.5-.3-.5-.3-.6-.3-.5-.3-.5-.3-.5-.4-.5-.3-.5-.3-.5-.3-.6-.4-.5-.3-.5-.3-.5-.3-.5-.4-.5-.3-.5-.4-.5-.3-.5-.4-.5-.3-.5-.4-.5-.3-.5-.4-.5-.3-.5-.4-.4-.4-.5-.3-.5-.4-.5-.4-.5-.3-.5-.4-.5-.4-.4-.4-.5-.4-.5-.4-.5-.3-.5-.4-.4-.4-.5-.4-.5-.4-.4-.4-.5-.4-.5-.5-.4-.4-.5-.4-.5-.4-.4-.4-.5-.4-.4-.5-.5-.4-.5-.4-.4-.4-.5-.5-.4-.4-.5-.4-.4-.5-.4-.4-.5-.5-.4-.4-.5-.5-.4-.4-.4-.5-.5-.4-.4-.5-.4-.5-.5-.4-.4-.5-.4-.5-.4-.5-.5-.4-.4-.5-.4-.5-.4-.5-.4-.5-.5-.5-.4-.5-.4-.4-.4-.5-.4-.5-.4-.5-.4-.6-.4-.5-.4-.5-.2-.2-.2-.3-.2-.3-.2-.3-.2-.3-.2-.3-.2-.2-.2-.3-.2-.4-.2-.3-.3-.3-.2-.3-.2-.3-.2-.3-.2-.4-.2-.3-.2-.3-.2-.4-.2-.3-.2-.4-.2-.3-.2-.4-.2-.4-.2-.3-.2-.4-.3-.4-.2-.4-.2-.4-.2-.4-.2-.4-.2-.4-.3-.4-.2-.4-.2-.4-.2-.4-.2-.5-.3-.4-.2-.4-.2-.5-.2-.4-.3-.4-.2-.5-.2-.4-.2-.5-.3-.5-.2-.4-.2-.5-.3-.5-.2-.4-.2-.5-.3-.5-.2-.5-.2-.5-.3-.5-.2-.5-.2-.5-.3-.5-.2-.5-.5-1-.5-1-.5-1-.4-1.1-.5-1.1-.5-1.1-.5-1-.5-1.2-.5-1.1-.5-1.1-.5-1.1-.5-1.2-.5-1.1-.5-1.2-.5-1.1-.5-1.2-.5-1.1-.5-1.2-.5-1.2-.5-1.2-.5-1.2-.5-1.1-.5-1.2-.5-1.2-.5-1.2-.5-1.2-.5-1.2-.5-1.2-.5-1.2-.5-1.2-.5-1.2-.5-1.2-.4-1.2-.5-1.2-.5-1.2-.5-1.1-.5-1.2-.4-1.2-.5-1.2-.5-1.1-.4-1.2-.5-1.1-.5-1.2-.4-1.1-.5-1.2-.4-1-.4-1.2-.5-1.1-.4-1-.9-2.3-.8-2-.8-2.1-.8-2-.8-2-.7-2-.7-1.8-.7-1.8-.6-1.7-.7-1.6-.6-1.6-.5-1.4-.6-1.4-.5-1.3-.4-1.2-.4-1.2-.4-1-.1-.2-.1-.1-.3-.3-.3-.4-.3-.3-.2-.3-.2-.3-.3-.4-.1-.3-.2-.4-.2-.3-.1-.4-.2-.4-.1-.4-.1-.5-.1-.4v-.7l-.1-.3v-1.8l.1-.3v-.3l.2-.3v-.4l.2-.3.1-.3.2-.4.1-.3.2-.4.2-.3.2-.3.2-.3.3-.3.2-.3.3-.3.3-.3.3-.3.3-.2.3-.2.3-.2.3-.2.3-.2.3-.1.3-.2h.4l.3-.2h.2l.3-.2h.3l.3-.1h.3l.2-.1h.8l.2-.1h2.1l.3-.1h.7l.4-.1h.5l.4-.1h.5l.4-.1h.5l.5-.1h.6l.5-.1.6-.1h.5l.6-.2h.6l.6-.1h.7l.6-.2h.7l.6-.2h.7l.7-.1.7-.1.7-.1 1.4-.2 1.5-.3 1.5-.2 1.6-.2 1.5-.2 1.6-.3 1.6-.2 1.7-.3 1.6-.2 1.7-.3 1.7-.2 1.6-.3 1.7-.3 1.7-.2 3.4-.5 3.3-.6 3.4-.5 3.2-.5 3.1-.5 3-.5 1.6-.2 1.4-.2 1.4-.2 1.3-.2 1.4-.2 1.2-.2 1.2-.2 1.2-.2 1.1-.1 1-.2h.6l.5-.1.5-.1h.4l.5-.1h.4l.4-.1h.4l.4-.1h.4l.3-.1h.7l.3-.1h.7l.3-.1h1.2zm-6.7 16.9l-1 .1-1.2.2-1.2.2-1.3.2-1.2.2-1.4.2-1.4.2-1.4.2-1.5.2-3 .5-3.1.5-3.3.5-3.3.5-3.3.6-3.4.5-1.7.3-1.7.2-1.7.3-1.7.2-1.7.3-1.6.3-1.7.2-1.6.3-1.6.2-1.6.2-1.6.3-1.5.2-1.5.2-1.5.2-.7.1-.7.1-.7.1-.7.1h-.7l-.7.2h-.6l-.7.2h-1l.3 1 .6 1.5.6 1.6.6 1.6.6 1.7.7 1.8.7 1.8.8 1.9.7 2 .8 2 .8 2 .8 2.1.9 2.1.4 1.1.4 1.1.5 1.1.4 1.1.5 1.2.4 1.1.5 1.1.4 1.2.5 1.1.4 1.2.5 1.1.5 1.2.4 1.2.5 1.1.5 1.2.5 1.2.5 1.2.4 1.1.5 1.2.5 1.2.5 1.2.5 1.2.5 1.1.5 1.2.5 1.2.5 1.2.4 1.1.5 1.2.5 1.2.5 1.1.5 1.2.5 1.1.5 1.2.5 1.1.5 1.2.5 1 .5 1.2.5 1.1.4 1.1.5 1.1.5 1 .5 1.1.5 1.1.4 1 .5 1 .5 1.1.4 1 .5 1 .5 1 .2.5.2.5.3.5.2.4.2.5.2.5.3.4.2.5.2.5.2.4.2.5.3.4.2.4.2.5.2.4.2.4.2.4.2.5.2.4.3.4.2.4.2.4.2.4.2.3.2.4.2.4.2.4.2.3.2.4.1.3.2.4.2.3.2.4.2.3.2.3.2.3.1.3.2.3.2.3.2.3.1.3.2.3.2.2.1.3.2.3.1.2.2.2.1.3.2.2.1.2.2.2.1.2.1.2.2.2v.2l.2.1.1.2.1.1.4.5.3.4.4.5.3.4.4.4.4.5.3.4.4.4.4.5.3.4.4.4.4.5.3.4.4.4.4.4.4.4.3.5.4.4.4.4.4.4.4.4.3.4.4.4.4.4.4.4.4.4.4.4.4.4.4.3.4.4.4.4.4.4.4.4.4.3.4.4.4.4.4.3.4.4.4.4.4.3.4.4.4.3.4.4.4.4.4.3.5.3.4.4.4.3.4.4.4.3.5.4.4.3.4.3.4.3.5.4.4.3.4.3.5.3.4.4.4.3.5.3.4.3.4.3.5.3.4.3.5.3.4.3.4.3.5.3.4.3.5.3.4.3.5.3.4.3.5.3.4.2.5.3.4.3.5.3.4.2.5.3.5.3.4.2.5.3.4.3.5.2.5.3.4.2.5.3.5.3.4.2.5.2.5.3.4.2.5.3.5.2.5.3.4.2.5.2.5.3.5.2.4.2.5.2.5.3.5.2.5.2.4.2.5.2.5.2.5.2.5.2.5.3.5.2.5.2.4.2.5.1.5.2.5.2.5.2.5.2.5.2.5.2.5.2.5.1.5.2.5.2.5.2.5.2.5.1.5.2.5.2.5.1.5.2.5.1.5.2.5.2.5.1.5.2.6.1.5.2.5.1.5.1.5.2.5.1.5.2.5.1.6.1.5.2h.5l.5.2.5.1.5.2h.6l.5.2.5.1.5.1.5.2h.6l.5.2h.5l.5.2h.5l.6.2h.5l.5.2h.5l.6.2h.5l.5.2h.6l.5.1.5.1h.5l.6.2h.5l.5.1h.6l.5.2h.5l.6.1h.5l.5.1h.6l.5.2h1.1l.5.1h.5l.6.1h.5l.5.1h.6l.5.1h1.1l.5.1h1.1l.5.1H500l.5.1h2.7l.5.1h8.7l.6-.1h1.6l.5-.1h1.1l.6-.1h1.1l.5-.1h.6l.5-.1h.5l.6-.1h.5l.6-.1h.5l.6-.1h.5l.6-.1h.5l.5-.2h1.1l.6-.2h1.1l.5-.2h.5l.6-.1.5-.1h.6l.5-.2h.6l.5-.1.5-.1.6-.1.5-.1.6-.1.5-.1h.5l.6-.2h.5l.6-.2.5-.1.5-.1.6-.1.5-.1.6-.1.5-.2h.5l.6-.2.5-.1.5-.1.6-.1.5-.2.5-.1.6-.1.5-.2h.6l.5-.2.5-.2h.6l.5-.2.5-.2.6-.1.5-.2.5-.1.5-.2.6-.1.5-.1.5-.2.6-.2.5-.1.5-.2.6-.1.5-.2.5-.2.5-.1.6-.2.5-.2.5-.1.5-.2.6-.2.5-.1.5-.2.5-.2.5-.2.6-.2.5-.1.5-.2.5-.2.5-.2.6-.2.5-.2.5-.2.5-.2.5-.2.5-.2.5-.2.6-.2.5-.2.5-.2.5-.2.5-.2.5-.2.5-.2.5-.2.5-.3.5-.2.5-.2.5-.2.6-.2.5-.3.5-.2.5-.2.5-.2.5-.3.5-.2.5-.2.5-.3.5-.2.4-.2.5-.3.5-.2.5-.3.5-.2.5-.3.5-.2.5-.3.5-.2.5-.3.5-.2.4-.3.5-.2.5-.3.5-.2.5-.3.5-.3.4-.2.5-.3.5-.3.5-.2.4-.3.5-.3.5-.3.5-.2.4-.3.5-.3.5-.3.4-.3.5-.2.5-.3.4-.3.5-.3.5-.3.4-.3.5-.3.5-.3.4-.3.5-.3.4-.3.5-.3.4-.3.5-.3.4-.3.5-.3.4-.3.5-.3.4-.3.5-.3.4-.4.5-.3.4-.3.5-.3.4-.3.4-.4.5-.3.4-.3.5-.3.4-.4.4-.3.4-.3.5-.3.4-.4.4-.3.5-.4.4-.3.4-.3.4-.4.4-.3.5-.4.4-.3.4-.4.4-.3.4-.3.4-.4.5-.4.4-.3.4-.4.4-.3.4-.4.4-.3.4-.4.4-.4.4-.3.4-.4.4-.4.4-.3.4-.4.4-.4.4-.3.3-.4.4-.4.4-.4.4-.3.4-.4.4-.4.3-.4.4-.4.4-.3.4-.4.3-.4.4-.4.4-.4.4-.4.3-.4.4-.4.4-.4.3-.4.4-.4.3-.4.4-.4.4-.4.3-.4.4-.4.3-.4.4-.4.3-.4.4-.4.3-.4.3-.4.4-.5.3-.4.4-.4.3-.4.3-.4.4-.4.3-.5.3-.4.3-.4.4-.4.3-.5.3-.4.3-.4.4-.5.3-.4.3-.4.3-.5.3-.4.3-.4.3-.5.3-.4.3-.4.3-.5.3-.4.3-.5.3-.4.3-.5.3-.4.3-.5.3-.4.3-.5.3-.4.2-.5.3-.4.3-.5.3-.5.3-.4.2-.5.3-.4.3-.5.2-.5.3-.4.3-.5.2-.5.2-.2.1-.3.2-.3.2-.3.1-.4.2-.3.2-.4.2-.3.2-.4.2-.4.2-.5.2-.4.2-.4.2-.5.2-.4.2-.5.3-.5.2-.5.2-.5.3-.5.2-.5.2-.6.3-.5.2-.6.3-.6.2-.5.3-.6.2-.6.3-.6.2-.6.3-.6.3-.7.2-.6.3-.6.2-.7.3-.6.3-.7.2-.7.3-.6.3-.7.2-.7.3-.7.3-.7.2-.7.3-.7.3-.7.2-.7.3-.7.3-.7.2-.7.3-.7.3-.8.2-.7.3-.7.3-.8.2-.7.3-.7.2-.8.3-.7.2-.8.3-.7.2-.7.3-.8.2-.7.3-.8.2-.7.3-.8.2-.7.2-.7.3-.8.2-.7.2-.8.2-.7.2-.7.3-.8.2-.7.2-.7.2-.8v-.3l.2-.4v-.3l.2-.4v-.3l.2-.4v-.4l.1-.3.1-.4.1-.3.1-.4.1-.3v-.4l.2-.3v-.4l.1-.3.1-.3.1-.4v-.3l.2-.4v-.3l.1-.3v-.4l.2-.3v-.3l.1-.4v-.3l.1-.3.1-.3v-.4l.1-.3.1-.3v-.3l.1-.3v-.3l.1-.4v-.3l.1-.3.1-.3v-.3l.1-.3v-.6l.1-.3v-.2l.1-.3v-.3l.1-.3v-.6l.1-.2v-.6l.1-.2v-.8l.1-.3v-1.2l.1-.2v-1.2H663.4l-.3.1h-.6l-.3.1h-1l-.3.1h-.3l-.3.1h-.7l-.3.1h-.7l-.3.1-.7.1-.7.1-.7.1-.7.1-.7.1-.7.1-.7.1-.7.1-.7.1-.7.1-.7.1-.7.2h-.7l-.6.2-1.3.2-1.2.2-2.3.4-1 .1-.5.1h-.5l-.4.2h-.8l-.4.1h-.4l-.3.1H639l-.1.1h-.5l-.5.1h-1l-.5.1h-1l-.4.1h-1.5l-.5.1h-2l-.6.1h-4l-.5.1h-9.2l-1-.1h-3l-.9-.1h-1l-.9-.1H608l-.8-.1h-.9l-.9-.1h-.8l-.9-.1h-.8l-.8-.1h-1.5l-.8-.1h-.7l-.5-.1v.4l-.1.4-.1.4v.4l-.1.3-.1.4v.4l-.2.4v.3l-.1.4v.4l-.2.4v.3l-.2.4v.4l-.1.4-.1.3-.1.4-.1.4-.1.3-.1.4-.1.4-.2.3v.4l-.2.4-.1.3-.1.4-.1.4-.2.3v.4l-.2.3-.1.4-.2.4-.1.3-.1.4-.2.3-.1.4-.2.3v.4l-.2.4-.2.3-.1.4-.2.3-.1.4-.2.3-.1.4-.2.3-.2.3-.1.4-.2.3-.2.4-.1.3-.2.4-.2.3-.1.3-.2.4-.2.3-.2.4-.1.3-.2.3-.2.4-.2.3-.2.3-.2.4-.2.3-.2.3-.2.3-.1.4-.2.3-.2.3-.2.4-.2.3-.2.3-.3.3-.2.3-.2.4-.2.3-.2.3-.2.3-.2.3-.2.3-.3.4-.2.3-.2.3-.2.3-.2.3-.3.3-.2.3-.2.3-.3.3-.2.3-.2.3-.2.3-.3.4-.2.3-.3.3-.2.2-.2.3-.3.3-.2.3-.3.3-.2.3-.3.3-.2.3-.3.3-.2.3-.3.3-.2.3-.3.2-.2.3-.3.3-.3.3-.2.3-.3.3-.2.2-.3.3-.3.3-.2.3-.3.2-.3.3-.2.3-.3.3-.3.2-.3.3-.2.3-.3.2-.3.3-.3.3-.3.2-.2.3-.3.3-.3.2-.3.3-.3.2-.3.3-.2.2-.3.3-.3.2-.3.3-.3.3-.3.2-.3.2-.3.3-.3.2-.3.3-.3.2-.3.3-.3.2-.3.2-.3.3-.3.2-.3.3-.3.2-.3.2-.3.3-.3.2-.3.2-.3.2-.3.3-.3.2-.3.2-.3.2-.4.3-.3.2-.3.2-.3.2-.3.2-.3.3-.3.2-.4.2-.3.2-.3.2-.3.2-.3.2-.4.2-.3.2-.3.2-.3.2-.4.2-.3.2-.3.2-.3.2-.4.2-.3.2-.3.2-.4.2-.3.2-.3.2-.3.2-.4.2-.3.1-.3.2-.4.2-.3.2-.3.2-.4.1-.3.2-.4.2-.3.2-.3.1-.4.2-.3.2-.4.1-.3.2-.3.2-.4.1-.3.2-.4.1-.3.2-.3.2-.4.1-.3.2-.4.1-.3.2-.4.1-.3.2-.4.1-.3.2-.4.1-.3.1-.4.2-.3.1-.4.2h-.3l-.4.2-.3.2h-.4l-.3.2-.4.1-.3.2h-.4l-.3.2-.4.1-.3.1-.5.2-.4.1-.5.2-.4.1-.5.2-.5.1-.4.2-.5.1-.4.2h-.5l-.5.2-.4.2h-.5l-.4.2-.5.1-.4.2h-.5l-.5.2-.4.1-.5.2h-.4l-.5.2-.5.1-.4.1-.5.1-.4.1-.5.1-.5.1-.4.1-.5.1-.4.1-.5.1-.5.1-.4.1-.5.1-.4.1-.5.1h-.5l-.4.2h-.5l-.4.1-.5.1h-.5l-.4.2h-.5l-.4.1h-.5l-.5.1-.4.1h-.5l-.4.1h-.5l-.5.1-.4.1h-.5l-.4.1h-.5l-.5.1h-.9l-.4.1h-.5l-.5.1h-1.3l-.5.1h-1.4l-.4.1H498.8l-.4-.1h-.9l-.5-.1h-.9l-.4-.1h-.5l-.4-.1h-.5l-.4-.1h-.5l-.4-.1-.5-.1h-.4l-.5-.1h-.4l-.4-.2h-.5l-.4-.1h-.5l-.4-.2h-.5l-.4-.1-.4-.1-.5-.1-.4-.1h-.5l-.4-.2h-.4l-.5-.2h-.4l-.5-.2-.4-.1-.4-.1-.5-.1-.4-.2h-.4l-.5-.2-.4-.1-.4-.1-.5-.2-.4-.1-.4-.1-.5-.2-.4-.1-.4-.2-.4-.1-.5-.2-.4-.1-.4-.2-.4-.1-.5-.2-.4-.1-.4-.2-.4-.2-.4-.1-.5-.2-.4-.2-.4-.2-.4-.1-.4-.2-.4-.2-.5-.2-.4-.2-.4-.2-.4-.2-.4-.2-.4-.2-.4-.2-.4-.2-.4-.2-.4-.2-.4-.2-.4-.3-.4-.2-.4-.2-.4-.2-.4-.3-.4-.2-.4-.2-.4-.3-.4-.2-.4-.3-.4-.2-.4-.3-.4-.2-.4-.3-.4-.2-.3-.3-.4-.3-.4-.2-.4-.3-.4-.3-.4-.2-.3-.3-.4-.3-.4-.3-.4-.3-.3-.3-.4-.2-.4-.3-.3-.3-.4-.3-.4-.3-.3-.4-.4-.3-.4-.3-.3-.3-.4-.3-.4-.3-.3-.4-.4-.3-.3-.3-.4-.3-.3-.4-.4-.3-.3-.4-.4-.3-.3-.3-.3-.4-.4-.3-.3-.4-.4-.4-.3-.3-.3-.4-.4-.4-.3-.3-.3-.4-.4-.4-.3-.3-.3-.4-.3-.4-.4-.4-.3-.4-.3-.4-.3-.4-.3-.4-.4-.4-.3-.4-.3-.4-.3-.4-.3-.4-.3-.4-.3-.4-.3-.5-.3-.4-.3-.4-.3-.4-.3-.5-.3-.4-.3-.4-.3-.5-.3-.4-.3-.5-.2-.4-.3-.5-.3-.4-.3-.5-.3-.5-.3-.4-.2-.5-.3-.5-.3-.4v-.2l-.2-.2v-.1l-.1-.2v-.1l-.2-.2v-.1l-.1-.2-.1-.2-.1-.3-.1-.3-.1-.3-.1-.2-.2-.3v-.3l-.2-.3v-.3l-.2-.3v-.3l-.2-.3-.1-.4-.1-.3-.1-.4-.1-.3-.1-.4-.2-.3v-.4l-.2-.4-.1-.4-.1-.4-.1-.4-.2-.4-.2-.8-.3-1-.2-.8-.3-1-.2-.8-.3-1-.3-1-.3-1-.2-1-.3-1-.3-1-.3-1-.2-1-.3-1.1-.3-1-.3-1.1-.5-2.1-.6-2.1-.5-2-1-4-.6-1.9-.4-1.8-.5-1.7-.2-.8-.2-.8v-.3l-1.1.2zm-78.8 1v.3l-.1.2v.2l-.1.2v.6l-.1.1v.4l.3-2z"/>
  </g>
</svg>
