<svg xmlns="http://www.w3.org/2000/svg" fill-rule="evenodd" stroke-linejoin="round" stroke-miterlimit="2" clip-rule="evenodd" viewBox="0 0 800 800">
  <defs/>
  <path fill="#df2c09" d="M47.8 502.7c-.2.3-.1-1.3 0-1.4 1-1 8.9-.3 10.4-.5 8.8-1 16.8-5.5 25.3-8 7.9-2.2 20.2-3.3 27.2-6.9 2.9-1.4-1.8-9.5-.5-10.9 2-2 24.5-8.3 28.3-8.9 41.2-6.9 80.6-17.7 121-29.3 5.8-1.6 38.6-12.7 43.2-10.4 3.4 1.7 16 23.4 19.4 28.3 5.7 8.7 17 13 23.3 19.3.4.5-.3 2.3-.5 2.5-3.9 5.2-5.2 11.9-7.5 17.9-5.3 14.2-6.1 31.2-13.9 44.1-2.2 3.8-3.2 13.3-7.4 15.4-2.6 1.3-6.8-4.7-8.4-6-7.1-5.3-18.4-14.3-27.8-14.3-2 0-8.3 11.7-9.4 13.4-7.9 11-19.2 19.8-27.8 30.2-2 2.5-5.7 10-9 10-.4 0-18.6-22.2-21.8-25.4-.3-.3-5 2.3-5.4 2.5-5 2-10.5 3.5-15.4 6-23.5 11.7-37.7 30.2-55.6 48-1.8 2-12 11.2-14.7 9.8-6-3-10.5-9.6-14.5-14.7-15.5-19.3-32.9-40.9-41.7-64.5-4.2-11.3-8-24.4-13.4-35.2-.6-1.2-2-9.4-1.5-9.4"/>
  <path fill="#df2c09" d="M300.9 418.1H302.5l.2.1h.4l.2.1h.3l.2.1h.2l.3.1h.2l.3.2h.3l.3.2h.3l.3.2.3.2h.2l.2.2.2.1.2.1.2.2h.2l.1.2h.2l.1.2.2.1.1.1.1.1.2.1.1.1.2.2.2.2.2.2.2.2.2.2.2.2.2.2.2.2.2.2.1.2.2.2.2.2.2.2.1.2.2.3.2.2.1.2.2.2.2.2.2.3.1.2.2.2.2.3.2.2.1.2.2.3.2.2.2.3.2.2.1.3.2.2.2.3.2.3.4.5.3.5.4.6.4.5.4.6.3.6.4.6.4.5.4.6.4.6.4.6.3.6.4.6.4.6.4.6.4.6.3.6.4.6.4.6.4.6.7 1.1.7 1.2.7 1 .6 1.1 1.2 2 .6.9.5.8.2.4.3.3.2.4.2.3.2.3.1.2.2.3.1.2h.1v.2l.2.2.2.2v.2h.2v.2l.2.2.2.2.1.2h.1l.1.2.2.1v.2l.2.1.1.1.1.2.2.1.1.1.1.2.2.1v.1l.2.2h.2l.1.2.1.2h.2l.1.2.2.1.1.2.2.1.1.1.2.2.1.1.2.1.1.2h.2l.2.2.1.1.2.2.2.1.1.1.2.2.2.1.1.1.2.2h.2l.2.2.1.1.2.2.2.1.2.1.3.3.4.3.4.2.3.3.4.2.4.3.4.3.4.2.4.3.8.5.8.6.8.5.4.3.4.3.4.3.4.3.5.2.4.3.4.3.4.3.2.2.2.1.2.2.2.1.2.2.3.1.2.2.2.2.2.1.2.2.2.1.2.2.2.2.2.1.2.2.2.2.2.2.2.1.2.2.2.2.2.2.2.1.2.2.2.2.2.2.2.2.2.2.3.3.4.4.5.6.3.6.3.5.2.5.2.5.2.5v.4l.2.4v1.3l.1.3V475.8l-.1.2v.2l-.1.3v.3l-.1.3-.1.2v.3l-.1.2-.1.2v.2l-.1.2-.1.2v.2l-.2.2v.2l-.1.2-.1.2-.1.2v.2l-.2.2-.2.3-.2.3-.2.4-.2.2-.1.1v.1l-.1.1-.1.2-.1.1v.1h-.1v.2h-.1v.1l-.1.1v.1l-.1.1h-.1v.2h-.1v.2h-.1v.1l-.1.1v.1l-.1.1v.1l-.1.1-.1.2-.1.2-.1.2-.1.2-.1.3-.1.2v.2l-.2.2v.2l-.2.3v.2l-.2.2v.3l-.2.2v.3l-.1.2-.1.3-.1.2-.1.3-.1.2v.3l-.2.3v.2l-.2.3-.1.6-.2.5-.2.6-.4 1.1-.2.6-.2.6-.2.6v.4l-.2.3v.3l-.2.3-.1.3-.1.3-.1.3-.1.3-.2.4v.3l-.2.3-.1.3-.1.3-.1.3-.1.3-.1.3-.1.3-.1.3-.1.3-.1.3-.1.3-.1.3-.1.3-.1.4-.1.3-.1.3-.1.3v.3l-.2.4v.3l-.2.3v.3l-.1.4-.1.3-.1.3-.1.4-.1.3v.3l-.2.4v.3l-.2.7-.2.7-.2.7-.1.6-.2.7-.2.7-.1.8-.2.7-.2.7-.3 1.4-.3 1.5-.2.7-.2.7-.1.8-.2.7-.2.7-.2.8-.2.7v.4l-.2.4v.3l-.2.4v.4l-.1.4-.1.3-.1.4-.1.4-.2.4v.3l-.2.4v.4l-.2.4v.3l-.2.4-.1.4-.1.4-.1.3-.2.4v.4l-.2.4-.1.3-.1.4-.2.4-.1.4-.1.4-.2.3-.1.4-.1.4-.2.4-.1.3-.2.4-.1.4-.2.4-.1.3-.2.4-.1.4-.2.4-.1.3-.2.4-.2.4-.1.3-.2.4-.2.4-.1.4-.2.3-.2.4-.2.4-.2.3-.2.4-.2.4-.2.3-.2.4-.2.4-.2.3-.2.4-.2.3v.2h-.1v.2h-.1v.2l-.1.3-.1.1v.2l-.1.2-.1.2v.2l-.2.3v.2l-.1.3-.1.2v.3l-.3.6-.1.5-.2.6-.1.4-.1.3-.1.3-.1.3-.1.3-.2.4v.3l-.2.4-.1.3-.1.3-.2.4-.1.3v.2l-.1.2-.1.2v.2l-.2.1v.2l-.1.2-.1.2v.2l-.2.2v.1l-.1.2-.1.2-.1.2-.1.2-.1.2-.1.2-.1.2-.1.1-.1.2-.1.2-.2.2v.2l-.2.2-.1.2-.2.2v.2l-.2.2-.2.2-.1.2-.2.2-.1.2-.2.1-.1.2-.2.2-.2.2-.2.2-.2.2-.2.2-.2.2-.2.2-.2.2-.2.2-.2.1-.3.2-.2.2-.3.2-.2.1-.3.2-.3.2-.2.1-.3.2-.4.1-.3.2-.4.1-.3.1-.4.1-.3.1-.4.1h-.4l-.3.1H313.5l-.2-.1h-.3l-.3-.1-.2-.1h-.3l-.2-.2h-.3l-.2-.1-.2-.1-.2-.1h-.3l-.2-.2h-.1l-.2-.2h-.2l-.2-.2h-.2l-.2-.2h-.1l-.2-.2h-.1l-.2-.2h-.1l-.2-.2h-.1l-.2-.2h-.1l-.1-.2h-.2l-.1-.2h-.1l-.2-.2-.2-.2-.2-.2-.3-.2-.2-.2-.2-.1-.2-.2-.2-.2-.2-.2-.2-.2-.2-.2-.2-.2-.2-.2-.1-.1-.2-.2-.2-.2-.1-.2-.2-.1-.3-.3-.2-.3-.3-.3-.2-.3-.2-.2h-.1l-.1-.2h-.1v-.1l-.5-.4-.7-.5-.8-.5-.7-.6-.7-.6-.4-.2-.4-.3-.4-.3-.4-.3-.4-.3-.3-.3-.4-.2-.4-.3-.4-.3-.4-.3-.4-.3-.4-.3-.4-.2-.4-.3-.5-.3-.2-.1-.2-.1-.2-.2-.2-.1-.2-.1-.2-.2-.2-.1-.2-.1-.2-.2h-.2l-.2-.2-.2-.1-.2-.2h-.2l-.2-.2-.2-.1-.2-.1-.2-.2h-.2l-.2-.2h-.2l-.2-.2-.2-.1-.2-.1-.2-.1-.2-.1-.2-.1-.2-.1-.2-.1-.2-.1-.2-.1-.2-.1-.1-.1-.2-.1-.2-.1h-.2l-.2-.2h-.2l-.2-.1-.2-.1h-.1l-.2-.2h-.2l-.2-.1h-.2l-.1-.1-.2-.1h-.2l-.1-.1h-.2l-.2-.1-.1-.1h-.2l-.2-.1h-.1l-.2.2-.2.3-.2.2-.1.3-.2.3-.2.2-.1.3-.2.3-.2.3-.2.2-.1.3-.2.3-.2.3-.3.5-.3.6-.4.5-.3.5-.3.6-.5.9-.3.4-.2.4-.1.2-.2.2v.2l-.2.2-.1.2-.1.2-.2.2-.1.2-.2.3-.2.3-.3.3-.2.3-.2.2-.2.3-.2.3-.2.3-.2.2-.2.3-.3.3-.2.3-.2.2-.2.3-.2.3-.2.3-.3.2-.2.3-.2.3-.2.2-.2.3-.3.3-.2.2-.2.3-.2.2-.3.3-.2.3-.2.2-.3.3-.2.2-.2.3-.2.2-.3.3-.2.2-.2.3-.3.2-.4.5-.5.5-.4.5-.5.5-.5.5-.4.5-.5.5-.5.4-.4.5-.5.5-.5.5-.4.4-.5.5-.5.5-.9.9-1 1-.8.8-1 1-.8.8-.5.5-.4.4-.5.5-.4.4-.5.5-.4.4-.4.5-.5.4-.4.5-.4.4-.4.5-.4.4-.5.4-.4.5-.2.2-.2.2-.2.3-.2.2-.2.2-.2.2-.2.2-.2.3-.1.2-.2.2-.2.2-.2.3-.2.2-.2.2-.2.2-.2.2v.2h-.2v.2h-.1v.2l-.2.1v.2l-.2.1v.2l-.3.3-.2.4-.6.8-.3.4-.3.5-.1.2-.2.3-.1.2-.2.2-.2.3-.1.2-.2.3-.2.2-.2.3-.2.2-.1.3-.2.2-.2.3-.2.2-.2.3-.3.2v.2h-.2l-.1.2-.1.2h-.1l-.1.2-.2.1v.2l-.2.1-.1.1-.2.2h-.1l-.1.2-.2.1-.1.2-.2.1-.1.1-.2.2-.1.1-.2.1-.1.2h-.2l-.2.2-.2.2h-.1l-.2.2-.2.1-.2.2h-.2l-.3.2-.2.1-.2.2h-.2l-.3.2h-.2l-.3.2-.3.1-.3.1h-.2l-.3.2h-.4l-.3.1h-.3l-.3.1h-.4l-.3.1h-2l-1.6-.5-.9-.4-.2-.1-.6-.4-.4-.3-.4-.3-.2-.2-.2-.1-.1-.2-.1-.1-.2-.1v-.1l-.3-.3-.2-.2-.2-.3-.3-.2-.2-.3-.3-.3-.3-.4-.3-.3-.3-.4-.3-.4-.4-.4-.7-.8-.8-.9-.8-1-.8-1-.9-1-.9-1-1.8-2.3-2-2.2-.9-1-.9-1.2-.9-1-.9-1-.8-1-.9-1-.3-.5-.3-.3h-.2l-.2.1-.3.2h-.3l-.2.2h-.3l-.5.3-.5.2-.6.1-.5.2-.5.2-.5.2-.5.2-.5.1-1 .4-1 .3-.4.2-.5.2-.4.1-.5.2-.5.2-.4.1-.5.2h-.2l-.2.2h-.2l-.2.1-.2.1-.3.1-.2.1h-.2l-.2.2h-.2l-.2.1-.2.1-.2.1-.2.1-.2.1h-.2l-.2.2h-.2l-.2.2h-.2l-.1.1-.2.1-.3.2h-.2l-.3.2-.2.1-.3.2-.2.1-.3.1-.2.2-.3.1-.2.1-.3.2h-.2l-.3.2-.2.2-.3.1-.2.1-.2.2-.3.1-.2.1-.3.2-.2.1-.2.2-.3.1-.2.1-.2.2-.3.1-.2.2-.3.1-.2.1-.2.2-.3.1-.2.2-.2.1-.2.2-.3.1-.2.2-.2.1-.3.1-.2.2-.2.1-.2.2-.3.1-.2.2-.2.1-.2.2-.3.1-.2.2-.2.1-.2.2-.3.2-.2.1-.2.2-.4.3-.5.3-.4.3-.4.3-.5.3-.4.4-.4.3-.5.3-.4.3-.4.4-.4.3-.5.3-.4.3-.4.4-.4.3-.4.4-.4.3-.5.3-.4.4-.4.3-.4.4-.4.3-.4.4-.4.3-.4.4-.4.3-.4.4-.4.4-.4.3-.4.4-.4.3-.4.4-.4.4-.4.3-.4.4-.4.4-.4.4-.4.3-.4.4-.4.4-.4.4-.3.3-.4.4-.4.4-.4.4-.4.4-.4.4-.4.4-.4.3-.4.4-.4.4-.3.4-.4.4-.4.4-.4.4-.4.4-.8.8-.7.8-.8.8-.8.8-.8.9-.8.8-.8.8-1.5 1.7-1.6 1.6-.8.9-.8.8-.8.9-.8.8-.8.9-.9.8-.8.9-.4.4-.4.4-.4.4-.5.5-.4.4-.4.4-.4.5-.4.4-.5.4-.4.5h-.1l-.2.2-.1.1-.2.2-.1.1-.2.2-.2.2-.2.1-.2.2-.2.2-.2.2-.2.2-.2.2-.3.2-.2.2-.2.3-.3.2-.3.2-.2.3-.3.2-.3.2-.3.3-.3.2-.3.3-.3.2-.3.3-.3.2-.3.3-.3.3-.4.2-.3.3-.3.2-.3.3-.4.2-.3.3-.4.2-.3.3h-.2l-.2.2-.1.1-.2.1-.2.2h-.2l-.1.2-.2.1-.2.1-.2.1-.1.2h-.2l-.2.2-.2.1-.2.1-.2.1-.2.1-.1.1-.2.1-.2.1-.2.1-.2.1-.2.1-.2.1-.2.1-.2.1-.2.1-.3.1-.2.1-.2.1-.2.1-.3.1h-.2l-.3.2h-.2l-.3.1-.3.1h-.3l-.3.1h-.3l-.3.1h-.3l-.2.1H119.8l-.3-.1h-.2l-.2-.2h-.3l-.3-.1h-.2l-.3-.2h-.2l-.3-.2-.2-.1-.3-.1-.2-.1-.2-.1-.2-.2h-.2l-.2-.2h-.2l-.2-.2-.2-.1-.1-.1-.2-.2h-.2l-.2-.2-.2-.1-.2-.1-.2-.2h-.1l-.2-.2-.2-.1-.2-.1-.1-.2-.2-.1-.2-.1-.2-.2h-.1l-.2-.2-.2-.2h-.1l-.2-.2-.2-.2h-.1l-.2-.2-.1-.2h-.2l-.2-.2-.1-.2-.2-.1-.1-.1-.2-.2-.1-.1-.2-.2-.1-.1-.2-.1-.1-.2-.2-.1-.1-.2-.3-.2-.3-.3-.3-.3-.2-.3-.3-.3-.3-.3-.2-.2-.3-.3-.3-.3-.2-.3-.3-.3-.2-.3-.3-.3-.2-.2-.2-.3-.3-.3-.2-.3-.2-.3-.3-.3-.2-.2-.2-.3-.2-.3-.2-.3-.5-.5-.4-.5-.4-.6-.8-1-.4-.5-.4-.5-.3-.4-.2-.3-.2-.2-1.4-1.8-1.5-1.8-.7-1-.8-.9-.7-1-.8-.9-.7-.9-.8-1-.7-.9-.8-1-.7-.9-.8-1-.7-1-.8-.9-.7-1-.4-.5-.4-.5-.3-.4-.4-.5-.4-.5-.4-.5-.3-.5-.4-.5-.4-.5-.3-.5-.4-.5-.4-.5-.4-.5-.3-.5-.4-.5-.4-.5-.3-.5-.4-.5-.4-.5-.3-.6-.4-.5-.4-.5-.3-.5-.4-.5-.4-.5-.3-.5-.4-.5-.3-.6-.4-.5-.3-.5-.4-.5-.4-.5-.3-.6-.4-.5-.3-.5-.4-.5-.3-.6-.4-.5-.3-.5-.4-.6-.3-.5-.3-.5-.4-.6-.3-.5-.4-.5-.3-.6-.3-.5-.4-.5-.3-.6-.3-.5-.4-.6-.3-.5-.3-.5-.3-.6-.3-.5-.4-.6-.3-.5-.3-.6-.3-.5-.3-.6-.3-.5-.3-.6-.3-.6-.3-.5-.3-.6-.3-.5-.3-.6-.3-.5-.3-.6-.3-.6-.3-.5-.3-.6-.3-.6-.3-.5-.2-.6-.3-.6-.3-.5-.2-.6-.3-.6-.3-.6-.2-.5-.3-.6-.3-.6-.2-.6-.3-.6-.2-.5-.3-.6-.2-.6-.1-.3-.1-.3-.2-.3v-.3l-.2-.3-.1-.3-.1-.3-.1-.3-.2-.3v-.3l-.2-.3v-.2l-.3-.6-.2-.6-.2-.5-.2-.6-.2-.5-.2-.6-.2-.5-.2-.6-.2-.6-.2-.5-.4-1.2-.4-1-.4-1.2-.4-1.1-.4-1.2-.4-1-.3-1.2-.4-1.1-.4-1.2-.4-1-.2-.6-.2-.6-.2-.5-.2-.6-.2-.6-.2-.5-.2-.6-.2-.5-.2-.5-.2-.6-.2-.5-.2-.6-.2-.5-.2-.5-.2-.6-.2-.5-.2-.5-.2-.5-.3-.5-.2-.6-.2-.5-.2-.5-.2-.5-.2-.5-.2-.5-.3-.5-.2-.5v-.2l-.2-.3-.1-.2-.1-.2-.1-.3-.1-.2-.2-.3v-.2l-.2-.2v-.3l-.2-.2-.1-.2-.1-.3-.2-.2v-.2l-.1-.2-.2-.3v-.3l-.2-.3v-.2l-.1-.2v-.2l-.1-.2-.1-.3v-.2l-.1-.2v-.2l-.1-.2v-.2l-.1-.2v-.2l-.1-.2v-.2l-.1-.3v-.2l-.1-.2v-.2l-.1-.5-.1-.5-.1-.4-.1-.5v-.5l-.2-.4V508.5l-.1-.3v-.1l-.3-.3-.7-1-.4-.6-.1-.3-.2-.5-.1-.4-.1-.4-.1-.5-.1-.4v-.7l-.1-.2V500.5l.1-.3v-.3l.1-.3.2-.7.4-1 .8-1.3 1-1.1.2-.2.3-.3.4-.3.3-.2.3-.2.3-.2.3-.1.3-.1.3-.1.2-.1.2-.1.3-.1h.2l.2-.1.2-.1H46.6l.2-.1h.2l.1-.1h.4l.3-.1h.5l.3-.1h.8l.3-.1H58.3l.1-.1h.5l.2-.1H59.4l.2-.1H59.9l.2-.1h.1l.2-.1H60.7l.2-.1h.2l.2-.1h.1l.2-.1H61.9l.2-.1h.2l.1-.1.4-.1.3-.1.4-.1.3-.1.4-.2h.3l.4-.2.3-.1.4-.1.4-.2h.3l.4-.2.4-.1.3-.2.4-.1.4-.2h.3l.4-.2.8-.3.7-.3.8-.3.8-.3.8-.3.8-.3.4-.2.4-.1.4-.2.4-.1.4-.2.5-.1.4-.2.4-.1.4-.2.4-.1.5-.1.4-.2.4-.1.5-.2.4-.1.5-.1.4-.2.4-.1h.3l.2-.1h.2l.2-.1.5-.2h.4l.5-.2.4-.1.5-.1.4-.1.5-.1.4-.1.5-.1.4-.1.5-.1.5-.1.4-.1.5-.1h.5l.4-.2 1-.2.9-.1.9-.2 1-.2.8-.2 1-.2h.4l.4-.2h.5l.4-.1.5-.1.4-.1.4-.1.5-.1.4-.1.4-.1.4-.1.4-.1.4-.1.4-.1.4-.1.4-.1h.2l.2-.1h.2l.2-.1h.2v-.4l-.1-.2-.1-.3v-.3l-.1-.3-.1-.2v-.5l-.1-.2V477.8l-.1-.2v-.8l-.1-.2v-2.1l.1-.4.1-.3v-.4l.2-.4.1-.4.2-.5.2-.4.2-.4.2-.3.2-.2.1-.3.2-.2.2-.2.2-.3.2-.2.2-.2.2-.2.2-.2.1-.1.2-.2.2-.1.2-.1.2-.2.3-.2.2-.2.3-.1.2-.1.2-.2h.2l.3-.2.2-.1.2-.1.2-.1.2-.1.2-.1h.2l.2-.2h.2l.3-.2h.2l.2-.1.2-.1.2-.1.3-.1.2-.1h.2l.3-.2h.2l.3-.2.5-.1.5-.2.5-.2.5-.2.6-.2.5-.2.6-.1.5-.2.6-.2.6-.2.6-.2.6-.2.6-.2.6-.2.6-.1.6-.2.6-.2.6-.2.6-.2.6-.1.7-.2.6-.2.6-.2.6-.2.6-.1.5-.2.6-.1.6-.2.6-.2.5-.1.6-.2.5-.1.5-.1.5-.2.5-.1.5-.1.5-.2h.4l.5-.2h.4l.4-.2h.4l.4-.2h.3l.4-.1.3-.1h.4l.3-.1H137.2l1-.2.9-.2 1-.2.9-.1 1-.2.9-.2 1-.1.9-.2 1-.2.9-.1 1-.2.9-.2 1-.2.9-.1 1-.2.9-.2 1-.2.9-.2.9-.2 1-.1.9-.2 1-.2.9-.2 1-.2.9-.2.9-.2 1-.2.9-.2 1-.2.9-.2.9-.2 1-.2.9-.2 1-.2.9-.2.9-.2 1-.2.9-.2.9-.2 1-.2.9-.2 1-.2.8-.2 1-.3 1-.2.9-.2.9-.2 1-.2.9-.2.9-.3 1-.2.9-.2.9-.2 1-.2.9-.3.9-.2 1-.2.9-.2.9-.3 1-.2.9-.2.9-.3 1-.2.9-.2.9-.3 1-.2.9-.2.9-.3 1-.2.9-.2.9-.3 1-.2.9-.3.9-.2 1.9-.5 1.8-.5 2-.5 1.8-.5 1.8-.5 2-.5 1.8-.5 1.8-.5 2-.5 1.8-.5 1.9-.5 1.8-.5 1.9-.5 1.9-.5 1.9-.6 1.8-.5 2-.5 1.8-.5 1.9-.6 1.8-.5 2-.5 1.8-.6 1.9-.5 1.9-.5 1.9-.6 3.7-1 .3-.1.3-.1.3-.1.4-.1.4-.2h.4l1-.4 1.2-.4 1.3-.4 1.3-.4 1.5-.4 1.5-.5.8-.3.8-.2.8-.3.9-.2.8-.3.9-.2.8-.3 1-.3.8-.2 1-.3.8-.3 1-.2.8-.3 1-.3.9-.2.9-.3h.4l.5-.2.4-.1.5-.2h.4l.5-.2.4-.1.5-.1.4-.2h.5l.4-.2h.5l.4-.2.4-.1.5-.1.4-.1.4-.1.5-.1.4-.1.4-.1.4-.1.4-.1.5-.1h.4l.4-.2h.4l.4-.1.4-.1h.4l.4-.2h.4l.3-.1h.4l.4-.1h.4l.3-.1h.4l.4-.1h.3l.4-.1H298.4l.1-.1h1.8l.2-.1h.4zm-1.8 16.1h-.2l-.3.1h-.5l-.3.1h-.3l-.2.1h-.4l-.3.1h-.3l-.3.2h-.7l-.3.2h-.4l-.3.1-.4.1h-.3l-.4.2h-.4l-.4.1-.4.1-.3.1-.4.1-.4.1-.4.1-.4.1-.4.1-.5.1-.4.1-.4.2h-.4l-.4.2h-.5l-.4.2-.4.1-.4.1-.5.2-.8.2-.9.2-.9.3-.8.2-.9.3-.9.2-.8.3-.9.3-.9.2-.8.3-.8.2-.9.3-.8.2-.8.3-.8.2-.8.3-1.5.4-1.4.5-1.3.4-1.3.4-1.2.4-1 .3-.5.1-.4.2-.5.1-.3.1-.4.1-.3.1-3.8 1.1-2 .6-1.8.5-2 .5-1.8.6-2 .5-1.8.5-1.9.6-1.9.5-1.9.5-1.9.5-1.8.6-2 .5-1.8.5-2 .5-1.8.5-1.9.6-1.9.5-1.9.5-1.8.5-2 .5-1.8.5-2 .5-1.8.5-1.9.5-1.9.5-1 .2-.9.3-1 .2-.9.3-1 .2-.9.2-1 .3-.9.2-.9.3-1 .2-.9.2-1 .3-.9.2-1 .2-.9.3-1 .2-.9.2-1 .3-.9.2-1 .2-.9.2-1 .3-.9.2-1 .2-.9.2-1 .3-.9.2-1 .2-.9.2-1 .2-.9.3-1 .2-1 .2-.9.2-1 .2-.9.2-1 .2-.9.3-1 .2-.9.2-1 .2-1 .2-.9.2-1 .2-.9.2-1 .2-1 .2-.9.2-1 .2-.9.2-1 .2-1 .2-.9.2-1 .2-1 .1-.9.2-1 .2-1 .2-.9.2-1 .2-1 .2-.9.1-1 .2-1 .2-.9.2-1 .1-1 .2-1 .2-.9.2-1 .1-1 .2-1 .2-.9.1-1 .2H139.5l-.2.1h-.2l-.3.1h-.3l-.3.2h-.4l-.3.1-.4.1-.4.1-.5.2h-.4l-.5.2-.5.1-.5.1-.5.2-.5.1-.5.2-.5.1-.6.2-.5.1-.6.2-.6.1-.5.2-.6.2-.6.1-.6.2-.5.2-.6.1-.6.2-.6.2-.5.2-.6.1-.6.2-.5.2-.6.2-.5.1-.6.2-.5.2-.5.2-.5.1-.5.2-.4.1v.1l.1.4.1.3V481l.1.2v.5l.1.2v.5l.1.2v3.3l-.1.3-.1.3v.3l-.2.3v.4l-.2.3-.1.3-.2.4-.1.3-.2.4-.2.3-.1.2-.1.2-.1.1-.2.2-.1.2-.1.2-.2.1-.1.2-.2.2-.1.1-.2.2-.2.2-.1.1-.2.2-.2.1-.2.1-.1.2-.2.1-.2.1-.2.2h-.2l-.2.2-.2.1h-.2l-.2.2-.2.1-.3.1-.2.1-.2.1-.3.1-.2.1-.2.1-.3.1-.2.1-.2.1-.3.1-.2.1-.2.1h-.3l-.2.2h-.2l-.3.1-.2.1-.2.1h-.3l-.2.2h-.3l-.2.1-.2.1h-.3l-.2.1-.2.1h-.3l-.2.2h-.5l-.2.2h-.3l-.2.1h-.3l-.5.2-.4.1-.5.1-.5.2h-.5l-.5.2h-.5l-.5.2-.4.1-.5.1-.5.1-.5.1-.5.1-.5.1-.4.1-.5.1-1 .2-1 .2-.8.2-1 .2-.9.1-.9.2-.4.1h-.4l-.5.2h-.4l-.4.1-.4.1-.4.1-.4.1h-.4l-.4.2H88l-.3.2h-.4l-.3.1-.4.1-.3.1H86l-.1.1H85.7l-.4.2H85l-.4.2-.3.1-.4.1-.3.1-.4.1-.3.2h-.4l-.3.2-.4.1-.4.2h-.3l-.4.2-.4.2H80l-.4.2-.4.2-.7.3-.8.2-.8.3-.8.3-.8.3-.8.3-.4.2-.4.2-.4.1-.4.2-.4.1-.4.2-.4.1-.5.2-.4.1-.4.1-.5.2-.4.1-.4.2-.5.1-.4.2h-.5l-.4.2-.5.2h-.4l-.2.1-.3.1h-.2l-.2.1h-.3l-.2.1-.2.1h-.3l-.2.1H64l-.3.1h-.2l-.3.1h-.2l-.2.1h-.3l-.2.1H62l-.2.1h-.3l-.2.1h-.2l-.3.1h-.5l-.2.1h-.3l-.2.1H59l-.3.1h-.6v.4l.1.1v.4l.1.1v.4l.1.1V510.6l.1.1.2.3.1.3.1.2.2.3.1.3.1.3.2.3.1.2.1.3.2.3v.3l.2.3.3.5.2.6.3.6.2.5.3.6.2.6.2.5.3.6.2.6.2.6.3.5.2.6.2.6.2.6.3.6.2.5.2.6.2.6.2.6.2.6.2.5.3.6.2.6.2.6.2.6.2.5.2.6.4 1.2.4 1.1.4 1.2.4 1 .8 2.3.3 1.2.4 1 .4 1.2.4 1 .2.6.2.5.2.6.1.5.2.5.2.6.2.5.2.5.2.5.2.5v.3l.2.2v.3l.2.3v.2l.2.3v.2l.2.3v.2l.2.3v.2l.2.3.2.5.2.5.2.5.3.5.2.5.2.6.2.5.3.5.2.5.2.5.3.5.2.5.3.5.2.5.3.5.2.5.3.5.2.5.3.5.2.6.3.5.3.5.2.5.3.5.3.5.3.5.2.5.3.5.3.5.3.5.3.5.3.5.3.5.3.5.3.5.3.5.3.5.3.5.3.5.3.5.3.5.3.5.3.5.3.5.3.5.3.4.3.5.4.5.3.5.3.5.3.5.4.5.3.5.3.5.3.5.4.5.3.5.3.4.4.5.3.5.4.5.3.5.3.5.4.5.3.5.4.4.3.5.4.5.3.5.4.5.3.5.4.4.3.5.4.5.3.5.4.5.3.4.4.5.3.5.4.5.4.5.3.4.4.5.3.5.4.5.4.4.3.5.4.5.7 1 .7.9.8 1 .7.8.7 1 .8 1 .7.8.7 1 .8.9.7 1 .7.9.8.9.7.9 1.5 1.8 1.4 1.8.2.3.2.3.4.5.4.5.4.5.8 1 .4.5.4.5.4.5.2.2.2.3.2.2.2.3.2.2.2.2.1.3.2.2.2.2.2.3.2.2.2.2.2.2.2.2.2.2.2.2.1.2.2.2.2.2.2.2.2.2.2.2.2.2.1.2h.1l.1.1.1.1.1.1.1.1.2.2.2.1v.1h.1l.1.1.1.1.1.1h.2l.1-.1.1-.1h.1l.3-.3.2-.1.3-.2.2-.2.3-.2.2-.2.3-.2.2-.2.3-.2.2-.2.3-.2.2-.2.3-.2.2-.2.3-.2.2-.2.3-.2.2-.2.2-.2.2-.2.3-.2.2-.2.2-.2.2-.2.2-.1.1-.2.2-.2.2-.1.1-.2.2-.1.1-.1.2-.1v-.2h.2v-.1l.1-.1.5-.5.4-.4.4-.4.4-.4.4-.4.4-.4.4-.4.4-.4.4-.5.4-.4.8-.8.8-.8.8-.9.8-.8.8-.8.8-.9.8-.8 1.6-1.7 1.5-1.6.8-.9.8-.8.8-.8.8-.9.8-.8.8-.8.8-.8.4-.5.4-.4.5-.4.4-.4.4-.4.4-.4.4-.4.4-.5.4-.4.4-.4.4-.4.5-.4.4-.4.4-.4.4-.4.4-.4.4-.4.5-.4.4-.4.4-.5.4-.4.5-.4.4-.4.4-.4.5-.4.4-.4.5-.4.4-.4.4-.3.5-.4.4-.4.5-.4.4-.4.5-.4.4-.4.5-.4.4-.4.5-.4.5-.3.4-.4.5-.4.5-.4.4-.4.5-.3.5-.4.5-.4.5-.4.4-.3.5-.4.5-.4.5-.3.5-.4.5-.4.5-.3.5-.4.5-.3.3-.2.2-.2.3-.2.2-.1.3-.2.3-.2.2-.2.3-.1.2-.2.3-.2.3-.2.2-.1.3-.2.3-.2.2-.2.3-.1.3-.2.2-.2.3-.1.3-.2.2-.2.3-.1.3-.2.2-.2.3-.1.3-.2.3-.2.2-.1.3-.2.3-.2.3-.1.3-.2.2-.1.3-.2.3-.2.3-.1.3-.2.2-.1.3-.2.3-.2.3-.1.3-.2.3-.1.3-.2.3-.1.3-.2.2-.1.3-.2.3-.1.3-.2.3-.1.3-.2.3-.1.3-.2h.2l.3-.2.3-.1.3-.2h.2l.3-.2.3-.1.2-.1.3-.2h.3l.3-.2.2-.1.3-.1.3-.1.2-.1.3-.1.3-.1.2-.1.3-.1.3-.1.5-.2.5-.2.5-.2.5-.2.5-.2.5-.2.5-.2 1-.3 1-.3.5-.2.4-.2.5-.1.5-.2.4-.2.5-.1.4-.2.5-.2h.2l.2-.1.1-.1h.2l.3-.3.5-.2.4-.2.3-.2h.2l.3-.2.2-.2.3-.1.3-.1.3-.2.2-.1.3-.1.3-.2h.2l.1-.1h.2l.2-.2H208.3l.2-.2h.2l.2-.1h.3l.2-.2h.4l.3-.1h.4l.3-.1h2.6l.3.1.7.2.8.4 1 .5 1 .7.2.2.3.3.1.1.2.2v.1l.3.3.3.3.3.3.3.3.3.3.3.4.3.3.3.4.4.4.3.4.4.5.4.4.4.5.4.4.8 1 1 1 .8 1.1 1 1 .9 1.2.9 1.1 1.9 2.2 1.8 2.2 1 1 .8 1.1.5.7.3-.5.3-.4.1-.2.2-.2.1-.2.2-.2v-.2l.2-.2.2-.2.1-.2.2-.2.2-.3.2-.2.1-.2.3-.3.2-.2.2-.3.2-.3.2-.2.3-.3.2-.2.2-.3.2-.2.3-.3.2-.3.2-.2.3-.3.2-.2.2-.3.2-.2.5-.5.5-.5.4-.5.5-.5.4-.5.5-.5.5-.4.4-.5.5-.5.5-.5.4-.4.5-.5.5-.5.4-.5 1-.9.9-.9.9-1 .9-.8 1-1 .4-.4.4-.4.5-.5.4-.4.4-.5.5-.4.4-.5.4-.4.5-.5.4-.4.4-.5.4-.4.5-.5.4-.4.2-.2.2-.3.2-.2.2-.2.2-.2.2-.2.2-.3.2-.2.2-.2.2-.2.2-.3.2-.2.2-.2.2-.2.1-.3.2-.2.2-.2.2-.2.2-.3.2-.2.2-.2.1-.2.2-.3.2-.2.2-.2.2-.2.1-.3.2-.2.2-.2.2-.2.1-.3.2-.2.2-.2.1-.2.2-.3.1-.1v-.1l.1-.1v-.1l.2-.2v-.1l.3-.4.2-.4.6-.9.3-.5.3-.5.3-.6.4-.6.3-.6.2-.3.2-.3.2-.3.2-.4.2-.3.2-.3.2-.3.2-.3.2-.3.2-.4.2-.3.2-.3.2-.3.2-.3.2-.3.2-.3.3-.3.2-.3.2-.3.2-.3.1-.2.1-.1.1-.2.2-.1v-.1l.2-.2.1-.1.1-.2.1-.1.2-.2.1-.1.1-.2.2-.1v-.2l.2-.1.2-.2.1-.1.2-.2.1-.1.2-.2.2-.1.2-.2.2-.2.2-.1.3-.2.2-.2.3-.2.3-.2.4-.2.3-.1.3-.1.2-.1.3-.1.2-.1.3-.1h.3l.3-.1.3-.1h.4l.3-.1H282.2l.4.1h.3l.3.1h.3l.4.1h.3l.3.1h.3l.3.1.3.1h.4l.3.2h.3l.3.1.3.1h.3l.3.2h.3l.3.2h.3l.3.2h.3l.3.2h.3l.3.2h.3l.3.2.3.1.2.1.3.1.3.2h.3l.3.2.3.1.2.2.3.1.3.1.3.2h.3l.2.2.3.2.3.1.3.1.2.2.3.1.3.2.2.1.3.2.3.1.2.1.3.2.2.1.3.2.3.1.2.2.3.1.2.2.3.2.3.1.2.2.3.1.2.2.3.1.2.2.3.2.2.1.2.2.3.1.2.2.3.1.2.2.5.3.5.3.4.4.5.3.5.3.4.3.5.3.4.4.4.3.5.3.4.3.4.3.4.3.4.3.4.3.8.6.8.6.7.5.7.6.7.5h.1l.2.2.2.2.2.2.2.1.2.2v-.4l.3-.6.1-.6.1-.3.1-.3.1-.3.1-.3.1-.3.1-.3.1-.3.1-.3.2-.3v-.4l.2-.3v-.1l.1-.2v-.2l.2-.1v-.2l.1-.2v-.1l.1-.2.1-.2.1-.1v-.2l.2-.2v-.2l.2-.2v-.1l.2-.2v-.2l.2-.1.1-.3.2-.3.1-.2.2-.3v-.2l.2-.3.2-.3.1-.2.1-.3.2-.2.1-.3.1-.3.2-.2v-.3l.2-.3.1-.3.2-.2v-.3l.2-.3.1-.3.1-.3.2-.3v-.2l.2-.3.1-.3.1-.3.1-.3.1-.3.1-.3.2-.3v-.3l.2-.3v-.3l.2-.3v-.4l.2-.3v-.3l.2-.3v-.3l.2-.3v-.3l.2-.4v-.3l.2-.3v-.3l.1-.4.1-.3.1-.3.1-.3.1-.4.1-.3v-.3l.2-.4v-.3l.2-.4v-.3l.1-.3.1-.4.2-.7.1-.6.2-.7.2-.7.1-.7.2-.8.2-.7.3-1.4.3-1.4.2-.8.2-.7.2-.7.1-.7.2-.8.2-.7.2-.8.1-.7.2-.7.1-.4.1-.4.1-.3.1-.4.1-.4.1-.4.1-.3.1-.4.1-.4.1-.4.1-.3.1-.4.1-.4.1-.3.2-.4v-.4l.2-.4.1-.3.1-.4.1-.4.2-.4v-.3l.2-.4.1-.4.2-.4.1-.3.1-.4.2-.4.1-.4.1-.3.1-.3.1-.2.1-.3.1-.2v-.3l.2-.2v-.3l.2-.3v-.2l.1-.3.2-.6.2-.5.2-.6.4-1.2.2-.6.2-.6.2-.6v-.3l.2-.3v-.3l.2-.3.1-.3.1-.4.1-.3.1-.3.2-.3v-.4l.2-.3.1-.3.2-.3.1-.4.1-.3.2-.3.1-.4.2-.3.1-.3.2-.4.1-.3.2-.4.2-.3.1-.3.1-.2-.3-.2-.4-.2-.4-.3-.3-.2-.4-.3-.4-.3-.3-.2-.8-.5-.8-.6-.8-.5-.5-.3-.4-.3-.4-.3-.4-.3-.5-.3-.4-.3-.4-.3-.5-.3-.4-.3-.2-.1-.2-.2-.3-.2-.2-.1-.2-.2-.2-.2-.2-.1-.3-.2-.2-.2-.2-.1-.2-.2-.2-.2-.3-.2-.2-.1-.2-.2-.2-.2-.2-.2-.3-.2-.2-.1-.2-.2-.2-.2-.2-.2-.3-.2-.2-.2-.2-.2-.2-.2-.2-.2-.3-.2-.2-.2-.2-.2-.2-.2-.2-.2-.2-.3-.2-.2-.2-.2-.3-.2-.2-.2-.2-.3-.2-.2-.2-.2-.2-.3-.2-.2-.2-.2-.2-.3-.2-.2-.2-.3-.2-.2-.2-.3-.2-.2-.2-.3-.2-.3-.1-.2-.2-.3-.2-.3-.2-.3-.2-.3-.2-.3-.2-.3-.2-.4-.3-.3-.2-.4-.3-.4-.5-.9-.6-.9-1.2-2-.6-1-.7-1-.7-1.2-.7-1.1-.4-.6-.3-.6-.4-.6-.4-.5-.3-.6-.4-.6-.4-.6-.3-.5-.4-.6-.4-.6-.3-.5-.4-.6-.3-.5-.4-.6-.3-.5-.4-.5-.3-.5-.4-.5-.3-.5-.3-.5-.2-.2-.2-.3-.1-.2-.2-.2-.1-.2-.2-.2-.1-.2-.2-.2-.1-.2-.1-.2-.2-.2-.1-.2-.1-.1-.2-.2-.1-.2h-.2zm-249 78h.5l1-.1.8-.3.4-.1-2.6.6zm2.8-.6l.5-.2 1.2-.7.5-.5-2.2 1.4zm2.4-1.5l.3-.4.7-.8h-.1l-1 1.2zM45 495l-1.7.9-1.1.9-.7.7-.2.4 2-2 2.4-1-.7.1zm8.8 2.5l-.1-.1zm-.4-.5l-1.4-1.2-.6-.2 2 1.4zm-7.3-2.2H46h.8-.6z"/>
  <path fill="#df2c09" d="M38.7 319.6c2.8-3.4 2.2-14.4 4.2-19 6.3-14.8 11.8-33.2 20.1-47 13.1-22 21.5-47 34.3-69.3 22.7-39.7 78.1-90.5 119-111 14.1-7 27-17.2 41.7-23.5 7-3 15.3-4 22.2-7.4 2.5-1.2 21.2-11 25.6-6.7 2.9 3 .3 21.8 2 26.9 3.6 11 25.5 80 29.6 84 5.6 5.6 25.5-2 28.2-7.4 6-12-4.7-37-4.7-50.4 0-1.1-1.7-2.8-.7-3.4 7.6-3.7 17.3 2.8 25.6.7 20.5-5.1 80.4-5 94 8.8 3.2 3.1-8.3 24.1-10 27.5-13.5 27-13.9 58-23 85-4.3 13.2 26.3 17.8 32.4 24 1.1 1 3.5-.9 4-1.4a85.2 85.2 0 0017.5-35.6c7.4-36.7 25.5-71.4 36.3-107.6 3-9.7 5.3-31.6 14.8-36.3h1.4c2.6 0 42.7 25 50.4 28.9 9.3 4.6 17.6 14.9 24.2 21.5 13.6 13.6 32.8 24.8 47.8 39.7 8.4 8.4 20 23.3 30.2 33.6 11 11 13.4 33 23.5 43 2.2 2.2-54.2 27.5-49.7 36.3 2.5 5.1 8.3 9.6 10 14.8 3 8.6 15.4 47.3 18.2 55.8 1.9 5.6 5.1 25.6 7.3 47.3 2.2 22.2 3.3 46.3.8 59-1.8 9.1-8.6 42.9-10.8 45-2.9 3-17.5-7.9-20.8-8.7-9-2.3-19.5-4.9-29-6.7-14.6-3-29-15.8-44.3-18.9-10-2-22.7-8-32.3-8-1.4 0-8.7 23.5-6 26.2 3.8 3.8 12.4 5.7 17.5 7.4 7 2.3 13.9 8 20.8 11.4 28.3 14.2 58.4 24.2 86.7 38.3 6.2 3.1 47.7 17.5 48.5 18.9.7 1.5-3.8 35.7-5.1 39.6-14.2 42.5-22.4 55-65.5 76.7-5.1 2.5-29.7-24.6-33-29-6.3-8.3-48.7-49.2-51.8-47.7-6.6 3.3-12.6 10.3-20.1 13.5-4.5 1.9-15.8 3-18.9 6-10.5 10.6 15.2 38 25 47.8.4.5 2.2 2.4 2 2.7-12.2 12.1-38 17.7-49.1 28.9-.5.4 0 3.5 0 4 0 1.8 8.4 31.2 8.7 31.6 3.4 5.7 4.4 19 0 28-4 8-40.8 13.2-49 16-45.8 15.4-208.3 4-210.5-11a524 524 0 0111.4-38.4c6.6-17.6 10.9-36.1 17.5-53.8 7.6-20.3 21-38 29.6-57.8 9.8-23 24.1-56.9 39-76.6 2.4-3.3 5.6-16.6 8.7-18.2 20-10 43.5 3.3 66.8-10.8 4.4-2.6 27.5-15.7 37.4-26.8a86.3 86.3 0 0020.2-33c11-44.3-12.1-79-37.7-111-41-51.2-136.8-34.1-166 24.4-7.2 14.3-14.2 24.6-14.2 40.2 0 1.8 3 11.9 2 12.8-.9 1-37.5 8.5-41 9.4-26.3 6.6-55.1 4-82 6.7-3 .3-21 5.2-23.5 2.7-7.3-7.2 2.2-53.3-3.4-55.1-16-5.3-30-3.4-46.4-3.4-.6 0-2.3.4-2.7 0-10.1-10.1 6.4-21.3-16.8-33-3.8-1.8-33.6-3.3-33.6-4"/>
  <path fill="#df2c09" d="M366.4 76.2h1.1l.3.1h.8l.2.1h.8l.3.1h.5l.2.1h.3l.2.1h.5l.2.1h.3l.2.1h.2l.5.1.4.1.5.1.4.1h.5l.4.2.8.1.4.1.4.1h.4l.4.2h.3l.4.1h.5l.2.1H379.3l.2.1h.7l.1.1H381.2l.1.1H383.6v-.1h.2l.3-.1h.3l.3-.1.3-.1h.3l.3-.1.3-.1h.3l.3-.1.3-.1h.3l.3-.1h.3l.3-.1.3-.1h.4l.3-.1h.3l.3-.1h.4l.3-.1h.3l.4-.1h.3l.4-.1h.3l.4-.1h.3l.4-.1h.3l.4-.1h.3l.4-.1h.4l.3-.1h.4l.4-.1h.7l.4-.1h.4l.4-.1h.7l.4-.1h.8l.4-.1h.4l.4-.1H402.2l.4-.1h.8l.4-.1h.9l.4-.1H406.3l.5-.1H408.5l.4-.1H410.6l.5-.1h2.6l.5-.1h16.5l.5.1h1.9l.4.1h1.4l.5.1h1.4l.5.1h.9l.5.1h.9l.4.1h1l.4.1h.5l.5.1h.9l.4.1h.5l.5.1h.4l.5.1h.4l.5.1h.4l.5.1h.4l.5.1h.4l.5.1h.4l.5.1h.4l.5.1h.4l.5.2h.9l.4.1.4.1h.5l.4.1.4.1h.5l.4.1.4.1h.5l.4.2h.4l.4.1h.5l.4.2h.4l.4.1.4.1.5.1h.4l.4.2h.4l.4.1.4.1.4.1.4.1.4.1.4.1h.4l.4.2h.4l.4.2h.4l.4.2.4.1.4.1.4.1.3.1.4.1.4.1.4.1.4.2h.3l.4.2.4.1.3.1.4.2h.4l.3.2.4.1.3.2h.4l.4.2.3.2h.4l.3.2.3.2.4.1.3.2.4.1.3.2.3.1.4.2.3.1.3.2.3.1.4.2.3.2.3.1.3.2.3.2.3.1.4.2.3.2.3.2.3.2h.1l.2.2h.1l.2.2h.1l.2.2h.1l.1.2h.2l.1.2h.2l.1.2h.2l.1.2.2.1.1.1.1.1.2.1.1.1.2.2.2.2.2.1.1.1.1.1.2.2h.1l.1.2.2.1v.1l.2.2.2.1.2.3.3.2.2.3.2.3.2.3.2.3.2.3.1.2.2.3v.3l.2.3.1.2.1.3.1.3v.2l.1.3.1.2v.3l.1.2v.5l.1.2V95.6l.1.2V98.7l-.1.2v.4l-.1.2v.2l-.1.3v.3l-.1.3v.3l-.2.3v.3l-.1.3v.3l-.2.3v.3l-.1.3-.1.3-.1.3-.1.3-.1.3-.1.3-.1.3-.1.3-.1.3-.1.3-.2.3v.3l-.2.3v.3l-.2.3-.1.3-.1.3-.2.3v.3l-.2.4-.1.3-.2.3-.1.3-.1.3-.2.3v.3l-.2.3-.2.3v.3l-.2.3-.2.3v.3l-.4.6-.2.6-.3.6-.3.6-.3.6-.2.6-.3.5-.3.6-.3.5-.2.6-.3.5-.3.6-.2.5-.3.5-.2.5-.3.4-.2.5-.5.9-.4.8-.3.7-.4.6-.3.6-.2.4v.2l-.1.1-.2.3-.1.3-.2.3-.1.3-.2.3v.3l-.2.3-.2.3-.1.2-.1.3-.2.3-.1.3-.1.3-.2.3-.1.3-.1.3-.2.3-.1.3-.1.3-.2.3v.3l-.2.3-.1.3-.1.3-.2.3v.3l-.2.3-.1.3-.2.3v.4l-.2.3-.1.3-.1.3-.1.3-.1.3-.2.3v.3l-.2.3v.3l-.2.3-.1.3-.1.3-.1.3-.1.4-.1.3-.1.3-.2.3v.3l-.2.3v.3l-.2.3v.4l-.2.3v.3l-.2.3v.3l-.2.3v.3l-.2.4v.3l-.1.3-.1.3-.2.6-.2.7-.2.6-.2.7-.1.6-.2.6-.2.7-.2.6-.1.7-.2.6-.2.7-.1.6-.2.7-.1.6-.2.7-.2.6-.1.7-.2.6-.1.7-.2.6-.1.7-.2.7-.1.6-.1.7-.2.7-.1.6-.2.7-.1.6-.1.7-.2.7-.1.7-.2.6v.7l-.2.7-.2.6-.2 1.4-.3 1.3-.3 1.4-.2 1.3-.3 1.4-.5 2.7-.3 1.4-.2 1.3-.3 1.4-.3 1.3-.1.7-.2.7v.7l-.2.7-.2.7-.1.6-.2.7-.1.7-.1.7-.2.7-.1.7-.2.6-.1.7-.2.7-.2.7-.1.7-.2.6-.1.7-.2.7-.2.7-.1.7-.2.7-.2.6-.1.7-.2.7-.2.7-.2.7-.2.6-.2.7-.1.7-.2.7-.2.7-.2.6-.1.4-.1.3-.1.4-.1.3-.2.3v.4l-.2.3v.3l-.2.4v.3l-.2.4-.1.3-.1.3V210l.1.1v.1h.1v.1h.1v.1h.1v.1h.1v.1h.2v.1l.2.1v.1h.1v.1l.2.1.1.1h.1l.1.2h.1v.1h.2v.1l.2.1.2.1.1.1h.1l.1.2h.1l.2.1.2.2h.1l.1.1h.2v.1l.2.1.1.1h.2l.1.1.1.1.2.1h.1l.2.1.1.1.1.1h.2l.3.2.3.2.3.1.3.2.3.1.3.2.3.1.4.2.3.1.3.2.4.1.3.2.4.1.3.2.4.1.3.2.4.1.3.2.4.1.4.2.3.1.4.2.3.1.8.3.7.3.8.3 1.5.6.7.3.7.3.8.3.3.1.4.2.4.1.3.2.4.1.3.2.4.1.3.2.4.1.3.2.4.1.3.2.4.2.3.1.4.2.3.2.4.1.3.2h.1l.1-.3.2-.1.1-.2.2-.2.1-.2.2-.2.1-.2.2-.3.1-.2.1-.2.2-.2.1-.2.2-.2.1-.3.2-.2.1-.2.2-.3.1-.2.2-.2.1-.3.2-.2.1-.3.2-.2.1-.3.2-.2.1-.3.2-.2.1-.3.2-.3.1-.2.2-.3.1-.2.2-.3.1-.3.2-.3.1-.2.2-.3.1-.3.1-.3.2-.2.1-.3.2-.3.1-.3.2-.3.1-.2.1-.3.2-.3.1-.3.2-.3v-.3l.2-.2.2-.3v-.3l.2-.3.2-.3v-.3l.2-.3.1-.3.2-.3.1-.3.1-.2.1-.3.2-.3v-.3l.2-.3.1-.3.2-.3v-.3l.2-.3.1-.3.1-.2.1-.3.1-.3.1-.3.2-.3v-.3l.2-.3v-.3l.2-.2v-.3l.2-.3v-.3l.2-.3v-.2l.2-.3v-.3l.1-.3.1-.2.1-.3v-.3l.2-.2v-.3l.1-.3.1-.2v-.3l.2-.2v-.3l.1-.2v-.3l.1-.2.1-.3v-.2l.1-.3v-.2l.1-.2.1-.3v-.2l.1-.2v-.2l.1-.3v-.2l.1-.2v-.4l.2-.5v-.4l.2-.5v-.4l.1-.5.1-.4.1-.5.1-.4.1-.5.1-.4.1-.5.1-.4.1-.4.1-.5.2-.4v-.5l.2-.4v-.5l.2-.4v-.4l.2-.5.1-.4.1-.5.1-.4.1-.4.2-.5v-.4l.2-.5.1-.4.1-.4.1-.5.2-.4v-.5l.2-.4.1-.4.1-.5.2-.4.2-.9.3-.9.2-.8.3-.9.2-.9.3-.8.2-1 .3-.8.3-.8.2-1 .3-.8.3-.8.3-.9.3-.9.2-.8.3-.9.3-.8.3-.9.3-.9.3-.8.3-.9.3-.8.3-.9.3-.8.3-.9.3-.8.3-.9.3-.8.3-.9.3-.8.3-.9.3-.8.3-.9.3-.8.3-.9.3-.8.4-.8.3-.9.3-.8.3-.9.3-.8.3-.9.4-.8.6-1.7.6-1.7.7-1.6.6-1.7.7-1.7 1.3-3.3 1.3-3.3.6-1.7.6-1.7.7-1.6.6-1.7.7-1.6.3-.9.3-.8.3-.8.3-.9.3-.8.3-.8.3-.8.4-.9.3-.8.3-.8.3-.8.3-.9.3-.8.3-.8.3-.8.3-.9.3-.8.3-.8.2-.8.3-.9.3-.8.3-.8.3-.8.3-.9.3-.8.2-.8.3-.8.3-.9.3-.8.2-.8.3-.8.3-.9.2-.8.3-.8.2-.8.3-.9.2-.8.3-.8v-.4l.1-.2.1-.2v-.2l.1-.2V83l.1-.3.1-.2v-.2l.1-.3V82l.2-.5.1-.6.2-.5.1-.6.1-.6.2-.6.3-1.2.2-1.3.2-.7.1-.7.2-.7.2-.7.1-.7.2-.7.2-.7.1-.7.1-.3.1-.4.1-.4V69l.2-.4v-.4l.2-.3v-.4l.2-.4v-.3l.2-.4V66l.2-.4v-.3l.2-.4.1-.4.1-.3.1-.4.1-.4.1-.4.2-.3v-.4l.2-.4.1-.3.2-.4v-.4l.2-.4.1-.3.2-.4.1-.4.2-.3v-.4l.2-.4.2-.3.1-.4.2-.3.1-.4.2-.4.2-.3.1-.4.2-.3.2-.4.1-.3.1-.2.1-.2V54l.2-.2v-.1l.2-.2v-.2l.2-.2v-.1l.1-.2.1-.2.1-.1.1-.2.1-.2.1-.2.1-.1.2-.2v-.2l.2-.1v-.2l.2-.2v-.2l.2-.1.1-.2.1-.2.1-.1.2-.2V50l.2-.2.1-.2.1-.1.2-.2V49l.2-.1.1-.2.2-.1.1-.2.1-.2.2-.1.1-.2.2-.1v-.2l.2-.1.2-.2.1-.1.2-.2.1-.1.2-.2.1-.1.2-.2.1-.1.2-.2.2-.1.1-.2.2-.1.2-.2h.1l.2-.2.2-.2.2-.1.1-.1.2-.2h.2l.2-.2.2-.1.2-.2h.2l.1-.2.2-.1.2-.1.2-.1.2-.2h.3l.1-.1 1.8-.7 1.8-.2h2.4l.4.1h.3l.3.1h.3l.2.1.2.1h.2l.2.1h.1l.2.2H556.9l.3.2.3.1.2.1.3.1.3.2.3.1.2.1.3.2.3.1.3.2.3.1.3.2.4.2.3.1.3.2.4.2.3.2.4.2.3.2.4.2.4.2.4.2.3.2.8.5.9.5.8.5 1 .5.8.5 1 .5.9.6 1 .5 1 .6 1 .6 1 .6 1 .6 1 .6 1 .6 1.1.7 2.1 1.2 2.1 1.3 2.2 1.3 4.2 2.5 2 1.2 2 1.2 2 1.2 1 .5.8.6 1 .5.8.5.9.5.8.5.8.5.7.4.7.4.7.4.7.4.6.3.3.2.3.1.2.2.3.1.2.2h.2l.3.2.2.1.1.1h.2l.2.2h.1l.3.2.2.1.3.2.3.1.3.2.2.1.3.2.2.1.3.2.3.1.2.2.3.1.3.2.2.2.3.1.2.2.3.1.2.2.3.2.2.2.3.1.2.2.3.2.2.1.2.2.3.2.2.2.3.2.2.1.2.2.3.2.2.2.2.2.3.2.2.1.2.2.3.2.2.2.2.2.3.2.2.2.2.2.2.2.2.2.3.1.2.2.2.2.2.2.2.2.3.2.2.2.2.2.2.2.2.2.2.2.2.2.5.4.4.4.4.4.4.4.4.4.4.4.4.4.4.4.4.4.4.4.4.4.3.3.4.4.4.4.4.4.3.4.8.8.7.7 1.3 1.5.7.7.6.7.4.3.3.3.3.3.3.4.3.3.3.3.3.3.3.3.3.2.3.3.3.3.3.3.3.3.3.3.3.3.3.3.3.3.3.3.3.3.4.3.3.2.3.3.3.3.4.3.3.3.3.3.4.3.3.3.3.3.4.2.3.3.3.3.4.3.3.3.4.3.3.3.4.3.3.3.4.2.4.3.3.3.4.3.3.3.4.3.4.3.3.3.4.3.4.3.7.5.7.6.8.6.8.6.7.6.8.5.7.6.8.6 1.6 1.2 1.5 1.2 1.6 1.2.8.6.8.6.8.6.8.6.8.6.8.6.8.7.8.6.8.6.4.3.4.3.4.4.4.3.4.3.4.3.4.3.4.4.4.3.4.3.4.3.4.4.4.3.4.3.4.4.4.3.4.3.4.4.4.3.3.3.4.4.4.3.4.3.4.4.4.3.4.4.4.3.4.4.4.3.3.4.4.3.4.4.4.3.4.4.4.4.4.3.3.4.4.3.4.4.4.4.3.4.4.3.2.2.2.3.3.2.2.2.2.2.2.2.4.5.5.5.4.4.5.5.4.5.5.5.4.5.5.5.4.5.5.5.4.5.5.5.5.5.4.6.5.5.5.5.5.6.4.5.5.6 1 1 1 1.2.9 1.1 2 2.3 1 1.1.9 1.1 1 1.2.5.5.5.6.5.6.4.5.5.6.5.5.5.6.5.6.5.5.5.6.5.5.5.5.4.6.5.5.5.5.5.6.5.5.4.5.5.5.5.5.5.5.4.5.3.2.2.2.2.3.3.2.2.3.2.2.2.2.3.3.1.1.2.2.2.2.1.1.2.2.2.2.1.1.2.2.1.2.2.2.1.1.2.2.1.2.2.2.1.2.2.1.1.2.2.2.1.2.2.2.1.1.1.2.2.2.1.2.2.2.1.2.1.2.2.1v.2l.2.2.2.2v.2l.2.2.1.2.2.2v.2l.2.1.1.2.2.2v.2l.2.2.1.2.1.2.2.2v.2l.2.2.1.2.1.2.2.3.3.4.2.4.2.4.2.4.2.4.2.4.2.4.2.4.2.4.2.4.2.4.2.4.2.4.2.4.2.4.2.4.1.4.2.4.2.4.2.4.2.4.1.3.2.4.2.4.1.4.2.4.2.4.1.4.2.4.3.8.3.8.3.8.3.7.4.8.6 1.5.3.8.3.7.3.7.3.8.1.3.1.4.2.3.1.4.2.3.1.4.2.3.1.4.2.3.1.3.2.4.1.3.2.3.1.4.2.3.1.3.2.3.1.3.2.3.1.3.2.3.1.3.2.3.1.3.2.3.1.3.2.2.1.3.2.3.1.2.1.2.2.2v.1l.1.2.2.2v.1l.1.2h.1v.2l.2.1v.1l.1.1v.2h.2v.2h.1v.2l.2.1v.1l.1.1.1.1v.1l.2.1v.1l.1.1v.1l.2.1.1.2.2.2.1.1.1.1v.1l.1.1h.1l.1.2.2.1v.1l.2.2.3.3.4.5.4.6.3.6.3.6.3.7.1.6.1.7.1.6v1.7l-.2.5v.4l-.2.4-.1.4-.2.3-.1.4-.1.2-.2.3-.1.2-.2.3-.2.3-.2.3-.3.3-.2.3-.2.2-.2.2-.2.2-.2.2-.1.1-.2.2-.2.1-.1.1-.2.2-.2.1-.1.1-.2.2h-.1l-.2.2-.2.1-.1.1-.2.1-.2.1-.1.2h-.2l-.2.2-.1.1-.2.1-.4.2-.3.3-.4.2-.4.2-.4.3-.4.2-.4.3-.4.2-.4.3-.5.2-.4.3-.5.3-.4.2-.5.3-.5.3-.5.3-.5.2-1 .6-1.1.6-1.1.6-1.1.6-2.3 1.3-1.2.7-1.2.6-1.2.7-1.2.7-.6.3-.6.4-.6.3-.6.4-.6.3-.6.4-.7.3-.6.4-.6.4-.6.3-.6.4-.6.3-.6.4-.6.3-.6.4-.6.3-.6.4-.5.4-.6.3-.6.4-.6.3-.5.4-.6.3-.5.4-.6.3-.5.4-.5.3-.3.2-.2.1-.3.2-.3.2-.2.2-.3.1-.2.2-.2.2-.3.1-.2.2-.3.2-.2.1-.2.2-.3.1-.2.2-.2.2-.2.1-.2.2-.3.1-.2.2-.2.2-.2.1-.2.2-.2.1-.2.2-.1.1-.2.2-.2.1-.2.1-.2.2-.1.1-.2.2-.2.1-.1.1-.2.2-.1.1-.2.1-.1.2h-.2v.4l.2.2.1.2.2.2.2.2.1.2.2.2.4.4.3.5.4.4.4.5.4.5.2.2.2.2.2.3.2.3.2.2.2.3.2.3.2.2.2.3.2.3.2.3.3.3.1.2.2.2v.2l.2.1v.2l.2.1v.2l.2.1v.2l.2.2v.1l.2.2v.2l.2.1v.2l.2.2v.1l.1.2.1.2.1.2.1.2.1.1.1.2v.2l.2.2v.2l.1.2.1.2.1.2v.2l.2.2v.2l.1.2v.2l.2.2.3 1 .3 1 .4 1.2.5 1.4.5 1.5.5 1.6 1.1 3.5 1.3 4 1.3 4 2.9 8.8 2.8 8.7 1.3 4.2 1.3 3.9 1.2 3.5.5 1.6.5 1.5.4 1.3.4 1.2.3 1 .3 1v.1l.1.2.1.2v.2l.1.2v.2l.1.2.1.2v.2l.1.3v.2l.1.2v.2l.2.2v.5l.2.5v.5l.2.5.1.5.1.6.2.5v.6l.2.6.1.6.1.6.1.6.2.6v.7l.2.7.1.6.2.7v.8l.2.7.1.7.1.8.2.7.1.8.1.8.1.8.2.8.1.8.1.8.2.9v.8l.2.9.1.9.2.8v1l.2.8.1 1 .1.9.2.9v1l.2.9.1 1 .2.9v1l.2.9.1 1 .1 1 .1 1 .2 1v1l.2 1 .1 1 .1 1 .1 1 .1 1 .1 1 .1 1 .1 1 .2 1.1v1.1l.2 1v1.1l.2 1.1v1l.1 1.1.1 1.1.1 1 .1 1.1.1 1.1v1l.2 1.1v1.1l.1 1v1.1l.2 1.1v1l.1 1.1v1l.1 1.1v1.1l.1 1v1l.1 1.1v1l.1 1v2.1l.1.5v3.1l.1.5V417.6l-.1.4v1.8l-.1.4v1.3l-.1.4v.8l-.1.4v.9l-.1.4v.8l-.1.4v.4l-.1.4v.4l-.1.3v.4l-.1.4v.4l-.1.4v.3l-.1.4v.4l-.1.3v.4l-.2.4v.7l-.2.3-.4 2-.2 1.2-.3 1.3-.2 1.5-.4 1.5-.3 1.5-.3 1.7-.4 1.7-.4 1.8-.3 1.8-.2 1-.2.9-.2.9-.2 1-.2.9-.2 1-.2.9-.2.9-.3 1-.2.9-.2 1-.2.8-.2 1-.2.9-.2.9-.2.9-.2.8-.2.9-.2.9-.2.8-.2.8-.2.8-.2.8-.2.8-.1.3-.1.4-.1.4-.1.3-.1.4-.1.3-.1.4v.3l-.2.4v.3l-.2.3v.3l-.2.3v.3l-.1.3-.1.3-.1.3-.1.3-.1.3-.1.3v.2l-.2.3v.3l-.2.2v.3l-.2.2-.1.3-.1.3-.1.1v.2l-.1.1-.1.2v.1l-.2.2v.2l-.2.1v.2l-.2.2-.1.2-.2.2-.2.3-.2.2-.2.3-.3.3-.2.2-.3.2-.2.2-.3.2-.2.2-.3.2-.2.1-.3.2-.2.1-.3.2h-.3l-.2.2-.3.1-.2.1h-.3l-.2.2h-.3l-.2.1h-.2l-.3.1h-.4l-.3.1H704.5l-.2.1H702l-.2-.1h-.5l-.3-.1-.3-.1h-.3l-.2-.1-.3-.1h-.3l-.3-.2h-.2l-.3-.1-.2-.1-.3-.1h-.2l-.3-.2h-.2l-.3-.2h-.2l-.3-.2h-.2l-.3-.2h-.2l-.2-.2h-.3l-.2-.2-.3-.1-.2-.1-.2-.1-.3-.1-.2-.2h-.2l-.3-.2-.2-.1-.2-.1-.3-.1-.2-.2h-.2l-.3-.2-.4-.2-.5-.3-.4-.2-.5-.3-.4-.2-.4-.3-.5-.2-.4-.3-.4-.2-.4-.3-.5-.2-.8-.5-.7-.4-.8-.5-.3-.2-.4-.2-.3-.2-.3-.1-.3-.2-.3-.2-.3-.1-.2-.1-.1-.1h-.1l-.1-.1h-.1l-.1-.1h-.1l-.1-.1-1.5-.4-1.7-.4-1.8-.5-1.7-.4-1-.2-.8-.2-1-.3-.8-.2-1-.2-.9-.2-.9-.2-.9-.2-.9-.3-1-.2-.8-.2-1-.2-.8-.2-1-.2-.8-.2-1-.2-.8-.2-1-.2-.8-.2-1-.2-.8-.2-.9-.1-.8-.2-.9-.2h-.4l-.2-.1h-.2l-.2-.1h-.3l-.2-.1h-.2l-.2-.1h-.2l-.2-.1h-.2l-.2-.1h-.2l-.2-.1-.2-.1h-.2l-.2-.1-.4-.1-.4-.2h-.5l-.4-.2-.4-.1-.4-.2-.4-.1-.4-.2-.3-.1-.4-.1-.4-.2-.4-.1-.4-.2-.4-.1-.4-.2-.4-.2-.3-.1-.4-.2-.4-.1-.4-.2-.4-.2-.3-.1-.4-.2-.4-.2-.4-.2-.3-.1-.4-.2-.4-.2-.3-.2-.4-.1-.4-.2-.3-.2-.4-.2-.4-.2-.3-.1-.4-.2-.3-.2-.4-.2-.4-.2-.3-.2-.4-.2-.7-.3-.7-.4-.7-.4-.7-.3-.7-.4-1.4-.8-1.3-.7-.7-.4-.7-.3-.7-.4-.6-.3-.7-.4-.3-.2-.4-.1-.3-.2-.3-.2-.3-.1-.4-.2-.3-.2-.3-.1-.3-.2-.4-.1-.3-.2-.3-.2-.3-.1-.4-.2-.3-.1-.3-.2-.3-.1-.3-.1-.3-.2-.4-.1-.3-.2-.3-.1-.3-.1-.3-.2h-.3l-.3-.2-.3-.1-.4-.2h-.3l-.3-.2-.3-.1-.3-.1-.3-.1-.3-.1-.3-.1-.3-.1-.3-.1-.3-.1-.3-.1-.3-.1H612l-.1-.1h-.2l-.1-.1H611.3l-.1-.1h-.2l-.1-.1H610.6l-.2-.1h-.2l-.2-.1H609.7l-.1-.1h-.4l-.3-.1-.3-.1h-.3l-.2-.1h-.3l-.3-.1-.3-.1h-.2l-.3-.1-.3-.1h-.3l-.2-.2h-.6l-.3-.2h-.2l-.3-.1-.5-.2-.6-.1-.5-.2-.6-.1-.5-.2-.5-.2-.6-.1-.5-.2-.6-.2-.5-.1-.5-.2-1-.3-1.1-.4-1.1-.3-1-.4-.6-.1-.5-.2-.5-.2-.5-.1-.5-.2-.5-.1-.5-.2-.5-.1-.5-.2-.5-.1-.5-.2-.5-.1-.5-.1-.2-.1h-.2l-.3-.1-.2-.1h-.2l-.2-.1h-.3l-.2-.1h-.2l-.3-.1-.2-.1h-.2l-.2-.1h-.2l-.3-.1h-.4l-.2-.1h-.2l-.1.2v.2l-.2.2v.3l-.1.2v.3l-.2.2v.3l-.1.2-.1.3v.2l-.2.3v.2l-.1.3v.3l-.2.2v.3l-.1.3v.2l-.2.3v.3l-.1.2v.3l-.1.3-.1.3v.2l-.2.3v.5l-.2.3v.5l-.1.3-.1.3v.2l-.1.3v.2l-.1.3v.2l-.1.3v.2l-.1.3v.2l-.1.2v.3l-.1.2v.5l-.1.2v.4l-.1.2v.2h.2l.1.1h.1l.1.1h.1l.1.1h.1l.1.1.2.1.3.1.2.1h.2l.3.2h.2l.3.2h.2l.3.2h.3l.2.2h.3l.3.1.2.1.3.1.3.1.3.1.3.1h.2l.3.2h.3l.3.2.6.1.6.2 1.1.3.6.2.5.2.6.2h.3l.3.1.3.1.2.1.3.1h.3l.2.2h.2l.2.1h.3l.2.2h.2l.2.1.2.1h.2l.2.2h.2l.2.1.2.1.2.1.2.1h.2l.2.2h.2l.2.2h.2l.2.1.2.1.2.1.2.1.2.1.2.1.4.2.4.2.3.2.4.2.4.2.3.2.4.2.4.2.3.2.4.2.4.2.3.2.4.2.3.2.4.2.3.2.3.2.4.3.3.2.7.4.7.4 1.3.8.6.4.6.4.7.4.3.2.3.2.3.1.3.2.3.2.3.2.3.2.3.1.3.2.2.2.3.1.3.2.3.1.3.2.3.1.2.2.3.1.3.2.6.3.7.3.6.3.7.3.6.4.7.3.6.3.7.3.6.3.7.3.7.3.6.4.7.3.6.3.7.3.7.3.6.3.7.3.6.3.7.3.7.3.6.3.7.3.7.3.6.3.7.3.7.3.6.3.7.3.7.3.6.2.7.3.7.3.6.3.7.3.7.3 1.3.6 1.4.6 1.3.5 1.4.6 1.3.6 1.4.5 1.4.6 1.3.6 1.4.5 1.3.6 2.8 1.1 2.7 1.2 2.8 1.1 2.7 1.1 1.4.6 1.3.6 1.4.6 1.4.5 1.4.6 1.3.6 1.4.6 1.4.6 1.4.5 1.3.6.7.3.7.3.7.3.7.3.7.3.7.3.7.3.6.3.7.3.7.3.7.3.7.3.7.4.7.3.7.3.6.3.7.3.7.3.7.3.7.3.7.4.7.3.6.3.7.3.7.3.7.4.7.3.7.3.6.3.7.4.7.3.7.3.7.4.7.3.6.3.7.4h.2v.1h.2l.2.1.2.1.1.1h.2l.3.2h.2l.2.2h.3l.3.2.2.1.3.1.3.1.7.3.7.3.7.2.7.3.8.3.8.4.9.3.8.3 1 .3.9.4.9.3 1 .4 1 .4 1 .3 2 .8 2 .7 2.1.8 4.3 1.6 2 .8 2.1.7 2 .8 1 .3 1 .4 1 .4 1 .3.9.4.9.3.9.3.8.4.9.3.8.3.7.3.8.3.7.3.3.1.4.2h.3l.3.2.3.1.3.2h.3l.3.2.3.1.2.1.3.2h.3l.2.2.3.1.2.1.2.1.3.2h.2l.3.2.1.1h.2l.1.2h.2l.1.2.2.1.2.2.3.1.2.2.3.3.4.4.4.4.2.3.5.8.5.8v.3l.3.5v.4l.2.3v.6l.1.2V534.9l.1.3v3.7l-.1.3v.6l-.1.6v.6l-.1.7v.6l-.1.7-.1.7v.8l-.2.7v.8l-.1.8-.1.8-.1.8-.1.8-.1.8-.1.9-.1.8-.1 1-.2.8v.9l-.2.8v1l-.2.8-.1.9-.1.8-.2 1v.8l-.2.8-.1.9-.1.8-.2.9v.8l-.2.8-.1.8-.1.7-.2.8v.7l-.2.8-.1.7-.1.6-.1.7-.1.6-.1.6-.1.6-.1.5v.3l-.1.3v.2l-.1.3v.2l-.1.3v.2l-.1.2v.2l-.1.3-.1.2v.2l-.1.2v.3l-.2.2v.2l-.4 1-.3 1-.3 1-.4 1-.3 1-.3 1-.3.9-.4.9-.3 1-.3.8-.3 1-.4.8-.3 1-.3.8-.3.9-.3.8-.4.9-.1.4-.2.4-.1.5-.2.4-.2.4-.1.4-.2.4-.2.4-.1.4-.2.5-.1.4-.2.4-.2.4-.1.4-.2.4-.2.4-.1.4-.2.3-.2.4-.1.4-.2.4-.1.4-.2.4-.2.4-.2.4-.1.3-.2.4-.2.4-.1.4-.2.3-.2.4-.1.4-.2.3-.2.4-.2.4-.1.3-.2.4-.2.4-.2.3-.1.4-.2.3-.2.4-.2.3-.1.4-.2.3-.2.4-.2.3-.2.4-.2.3-.1.4-.2.3-.2.4-.2.3-.2.3-.2.4-.2.3-.2.4-.2.3-.2.3-.2.3-.2.4-.2.3-.1.3-.3.4-.2.3-.2.3-.2.3-.2.4-.2.3-.2.3-.2.3-.2.3-.2.3-.2.4-.2.3-.2.3-.3.3-.2.3-.2.3-.2.3-.2.3-.3.3-.2.3-.2.3-.2.3-.3.3-.2.3-.2.3-.3.3-.2.3-.2.3-.3.3-.2.3-.2.3-.3.3-.2.3-.3.3-.2.2-.3.3-.2.3-.3.3-.2.3-.3.3-.2.3-.3.2-.2.3-.3.3-.3.3-.2.2-.3.3-.2.3-.3.3-.3.2-.3.3-.2.3-.3.3-.3.2-.3.3-.2.3-.3.2-.3.3-.3.3-.3.2-.3.3-.2.2-.3.3-.3.3-.3.2-.3.3-.3.3-.3.2-.3.3-.3.2-.3.3-.3.2-.4.3-.3.2-.3.3-.3.2-.3.3-.3.3-.3.2-.4.3-.3.2-.3.3-.3.2-.4.3-.3.2-.3.2-.4.3-.3.2-.4.3-.3.2-.3.3-.4.2-.3.3-.4.2-.3.3-.4.2-.3.2-.4.3-.4.2-.3.3-.4.2-.4.3-.3.2-.4.2-.4.3-.3.2-.4.3-.4.2-.4.2-.4.3-.4.2-.3.3-.4.2-.4.3-.4.2-.4.2-.4.3-.4.2-.4.3-.4.2-.4.2-.5.3-.4.2-.4.3-.4.2-.4.2-.5.3-.4.2-.4.3-.4.2-.5.3-.4.2-.5.2-.4.3-.4.2-.5.3-.4.2-.5.3-.5.2-.4.3-.5.2-.4.3-.5.2-.5.3-.4.2-.5.2-.5.3-.5.2-.5.3-.5.3-.4.2-.5.3-.5.2-1 .5-1 .5-1.1.6h-.2l-.2.1-.2.1-.2.1h-.2l-.2.1-.2.1h-.2l-.4.2h-.4l-.4.1h-.3l-.4.1h-2.5l-.3-.1h-.3l-.2-.1h-.3l-.2-.1-.3-.1h-.2l-.2-.2h-.2l-.2-.1h-.3l-.2-.2h-.2l-.2-.1-.2-.1-.2-.1h-.2l-.1-.2h-.2l-.2-.2h-.2l-.2-.1-.2-.1-.1-.1-.2-.1-.2-.1-.2-.1-.2-.1-.1-.1-.2-.1-.2-.1-.2-.2h-.1l-.2-.2h-.2l-.1-.2-.2-.1-.2-.1-.1-.1-.2-.1-.2-.2h-.2l-.1-.2-.2-.1-.2-.1-.3-.3-.3-.2-.4-.3-.3-.3-.4-.2-.3-.3-.4-.3-.3-.2-.3-.3-.4-.3-.3-.3-.4-.3-.3-.3-.4-.3-.3-.3-.4-.3-.3-.3-.4-.3-.3-.3-.4-.3-.3-.4-.4-.3-.3-.3-.4-.3-.4-.4-.3-.3-.4-.3-.3-.4-.4-.3-.3-.3-.4-.4-.3-.3-.4-.3-.3-.4-.4-.3-.3-.4-.4-.3-.3-.4-.4-.3-.3-.4-.4-.3-.3-.3-.3-.4-.4-.3-.3-.4-.3-.3-.4-.4-.3-.3-.3-.3-.4-.4-.3-.3-.3-.4-.3-.3-.6-.6-.7-.7-.6-.6-.6-.7-.5-.6-.6-.6-.5-.6-.5-.6-.6-.6-.4-.5-.5-.5-.5-.5-.4-.5-.4-.5-.4-.4-.3-.5-.4-.4-.3-.4-.2-.1-.1-.2-.1-.2-.2-.2-.1-.1-.1-.2-.2-.2v-.1h-.1v-.1l-.1-.1-.2-.3-.2-.1-.1-.2-.2-.2-.2-.3-.2-.2-.2-.3-.3-.3-.2-.2-.3-.3-.3-.3-.3-.4-.3-.3-.3-.3-.3-.4-.3-.3-.4-.4-.3-.4-.4-.3-.3-.4-.4-.4-.4-.4-.4-.4-.4-.5-.4-.4-.4-.4-.5-.5-.4-.4-.5-.5-.4-.4-.5-.5-.4-.4-.5-.5-.5-.5-.4-.5-.5-.5-.5-.4-.5-.5-.5-.5-.5-.5-.5-.5-.5-.5-.5-.5-.6-.6-.5-.5-.5-.5-.5-.5-.6-.5-.5-.5-.5-.6-.6-.5-.5-.5-.6-.5-.5-.5-.6-.6-.5-.5-.5-.5-.6-.5-.5-.5-.6-.5-.5-.6-.6-.5-.5-.5-.6-.5-.5-.5-.5-.5-.6-.5-.5-.5-.6-.5-.5-.5-.5-.5-.6-.5-.5-.4-.5-.5-.5-.5-.5-.5-.5-.4-.6-.5-.5-.4-.5-.5-.4-.4-.5-.5-.5-.4-.5-.4-.5-.4-.4-.4-.5-.4-.4-.4-.5-.4-.4-.4-.5-.3-.4-.4-.4-.3-.4-.4-.4-.3-.4-.3-.4-.3-.3-.3-.4-.3-.3-.3-.4-.3-.3-.2-.3-.2h-.1l-.3.3-.2.2-.3.2-.3.2-.3.2-.2.2-.3.2-.3.2-.3.2-.6.5-.6.5-.6.4-.6.5-.7.5-.3.3-.3.2-.3.3-.4.2-.3.3-.3.2-.4.3-.3.2-.4.3-.3.2-.4.3-.4.2-.3.3-.4.2-.2.2h-.2l-.2.2-.2.1-.2.2h-.2l-.2.2-.2.1-.1.2h-.2l-.2.2-.3.1-.2.1-.2.2h-.2l-.2.2-.2.1-.2.1-.2.1-.2.2h-.2l-.2.2h-.3l-.2.2-.2.1-.2.1-.2.1-.3.1-.2.1-.2.1-.3.1-.2.1-.2.1h-.2l-.1.2h-.2l-.2.1h-.2l-.2.1h-.1l-.2.2h-.4l-.1.1h-.2l-.2.1-.3.1-.4.1-.3.1-.4.1-.3.1-.4.1-.4.1-.3.1h-.4l-.3.2h-.4l-.3.1-.4.1-.7.2-.7.1-.7.2-.7.2-.7.1h-.3l-.3.2h-.4l-.3.1-.3.1h-.3l-.3.2h-.3l-.3.1-.3.1h-.3l-.3.1-.2.1-.3.1h-.2l-.1.1h-.2l-.2.1-.2.1h-.1l-.1.1h-.2v.1H557.3v2.1h.1v.4l.1.2v.2l.1.1v.2l.1.1V603.8l.1.1v.2l.1.1v.2l.1.1v.2l.1.1v.2l.1.1.1.2v.1l.1.2.1.2v.1l.1.2.1.2v.1l.2.2v.2l.1.1.1.2v.2l.2.2v.1l.1.2.1.2.1.2.1.1.1.2.1.2.1.2.1.2.1.2.1.2.1.1.1.2.1.2.1.2.2.2v.2l.2.2v.2l.2.2.1.2.1.2.2.2v.2l.2.1.1.2.2.2v.2l.2.2.1.2.2.2.1.2.1.2.2.2.1.2.1.2.2.2.1.2.1.2.3.4.3.4.3.4.3.5.3.4.3.4.3.4.3.4.3.4.3.4.3.4.3.4.3.4.3.4.4.4.3.4.3.4.3.4.4.4.3.4.3.4.3.4.4.3.3.4.3.4.3.4.4.4.3.4.3.3.3.4.4.4.3.3.3.4.3.3.3.4.4.4.3.3.3.3.3.4.3.3.3.4.3.3.3.3.3.3.3.3.3.3.3.4.3.3.3.3.3.2.5.6.5.6.6.5.4.5.5.5.5.4.1.2.2.2.2.2.3.2.2.3.1.1.2.2v.1l.2.2.1.1.2.2.1.2.2.2.1.1.2.2.1.3.2.2.2.2v.2l.2.2v.2l.2.1.1.3.1.2.1.3.2.3.1.4.2.4v.6l.2.6v2.3l-.1.6-.2.6-.1.3-.3.7-.4.7-.4.7-.5.6-.2.2-.3.3-.2.2-.2.1-.1.2-.2.2-.2.2-.2.1-.2.2-.2.2-.1.1-.2.2-.2.2-.2.1-.2.2-.2.2-.2.1-.2.2-.2.1-.2.2-.2.2-.2.1-.2.2-.2.1-.2.2-.2.1-.2.2-.2.1-.2.2-.2.1-.2.2-.2.1-.2.2-.2.1-.2.1-.2.2-.2.1-.2.2-.2.1-.2.2h-.2l-.2.2-.3.2-.2.1-.2.1-.2.2-.2.1-.4.3-.4.2-.5.3-.4.3-.4.2-.5.3-.4.2-.4.3-.5.2-.4.3-.5.2-.4.2-.4.3-.5.2-.4.2-.5.3-.4.2-.5.2-.4.3-.5.2-.4.2-.5.2-.4.3-.4.2-.5.2-.4.2-.5.2-.4.2-.5.3-.4.2-.5.2-.9.4-.9.4-.9.4-.8.4-1 .5-1.7.8-.8.4-.9.4-.9.4-.8.4-.4.1-.4.2-.5.2-.4.2-.4.2-.4.2-.4.2-.4.2-.4.2-.4.2-.4.2-.4.2-.3.2-.4.2-.4.2-.4.2-.4.2-.3.2-.4.2-.3.2-.4.2-.3.2-.4.2-.3.2-.4.2-.3.2-.3.1-.4.2-.3.2-.3.2-.2.1-.1.1-.2.1-.1.1-.2.1-.1.1-.2.1-.1.1-.2.1-.1.1-.1.1-.2.1-.1.1-.2.1-.2.2h-.2l-.1.2h-.1l-.2.2-.2.2v.1l.1.3v.3l.2.4v.4l.2.5.1.4.1.5.2.5.1.6.2.5.1.6.2.6.1.6.2.7.2.6.4 1.3.3 1.4.4 1.4.4 1.4.4 1.4.4 1.5.4 1.4.4 1.3.4 1.4.4 1.3.3 1.2.4 1.2.3 1.1.3 1 .3 1 .2.7.2.7v.3l.1.2.2.3.1.2.1.2.1.3.2.2v.2l.2.3v.2l.2.3v.2l.2.2v.3l.1.2.1.3.1.2.1.3v.2l.2.3v.2l.1.3v.2l.2.3v.5l.2.2v.6l.1.2.1.3v.2l.1.3v.3l.1.2v.3l.1.3v.2l.1.3v.3l.1.3v.5l.1.3v.3l.1.2V718.3l.1.3v.8l.1.3v1.1l.1.3V726.7l-.1.3V727.9l-.1.3v.6l-.1.3v.3l-.1.3v.6l-.1.3v.3l-.1.3v.3l-.2.3v.6l-.1.3-.1.3v.3l-.1.3-.1.2v.3l-.2.3v.3l-.1.3-.1.3v.3l-.2.3v.3l-.2.3v.3l-.2.3v.3l-.2.3v.3l-.2.3-.1.3-.1.3-.2.3v.2l-.2.3-.1.3-.2.3-.1.3-.2.3-.1.3-.1.2-.2.3-.2.3-.1.2-.2.2-.2.3-.1.2-.2.2-.2.2-.1.3-.2.2-.2.1-.2.2-.2.2-.1.2-.2.2-.2.1-.2.2-.2.2-.2.1-.2.2-.1.1-.2.2-.2.1-.2.2-.2.1-.2.2-.2.1-.2.1-.2.2h-.2l-.2.2-.1.1-.2.2h-.2l-.2.2-.2.1-.2.1-.2.1-.2.2h-.2l-.2.2h-.2l-.3.2h-.2l-.2.2-.2.1-.2.1-.2.1-.2.1-.2.1-.2.1-.2.1-.2.1h-.3l-.2.2h-.2l-.2.2h-.2l-.3.2h-.2l-.2.1-.2.1-.2.1-.3.1-.2.1h-.2l-.2.2h-.3l-.4.2-.5.2-.5.2-.4.1-.5.2-.5.2-.5.1-.5.2-.4.1-.5.2-.5.2-.5.1-.5.2-.5.1-.5.2-.5.1-.5.1-.5.2-.6.1-.5.2-.5.1-.5.2h-.5l-.5.2-.5.2h-.6l-.5.2-.5.2h-.5l-.5.2-.6.1-.5.2-.5.1-.5.1-.5.1-.6.2h-.5l-.5.2-.5.1-1 .3-1 .2-1 .2-1 .2-1 .3-1 .2-1 .2-1.8.4-1.8.4-.9.2-.8.1-.8.2-.8.2-.8.2-.7.1-.7.2h-.3l-.3.1-.4.1h-.3l-.3.2h-.2l-.3.1h-.3l-.2.1h-.3l-.2.2h-.4l-.2.1h-.1l-.2.1h-.1l-.2.1-.3.1-.3.1-.3.1-.3.1-.3.1-.3.1h-.3l-.4.2h-.3l-.3.2h-.3l-.4.2h-.3l-.3.1-.4.1-.3.1-.3.1h-.4l-.3.2h-.4l-.3.1-.4.1-.3.1-.4.1h-.3l-.4.2h-.3l-.4.1h-.4l-.3.2h-.4l-.4.1-.3.1h-.4l-.4.1-.4.1h-.3l-.4.2h-.4l-.4.1h-.4l-.4.1-.3.1h-.4l-.4.1-.4.1h-.4l-.4.1-.4.1h-.4l-.4.1-.4.1h-.4l-.5.1h-.4l-.4.1-.4.1h-.4l-.4.1h-.5l-.4.1h-.4l-.4.1-.5.1h-.4l-.4.1h-.4l-.5.1h-.4l-.5.1-.8.1-1 .1-.8.1-1 .1-.8.1h-1l-.9.2h-.9l-1 .2h-.8l-1 .1h-1l-.9.2h-1l-1 .1h-.9l-1 .1-1 .1h-1l-1 .1h-1l-1 .1-1 .1h-1l-1 .1h-1l-1 .1h-2l-1 .1h-1.1l-1 .1h-3.2l-1 .1h-2.1l-1.2.1H422l-1.1.1H400.9l-1.2-.1H396.4l-1.1-.1H393l-1.1-.1h-2.3l-1-.1h-2.3l-1.2-.1h-1l-1.2-.1h-1.1l-1.1-.1h-1.2l-1-.1h-1.2l-1.1-.1H375l-1.2-.1h-1l-1.2-.2h-2.2l-1.1-.1-1.1-.1h-1.1l-1.1-.1-1.1-.1h-1.1l-1.1-.2h-1l-1.2-.1h-1l-1.1-.2h-1.1l-1.1-.1-1-.1H353l-1-.2h-1l-1.1-.1-1.1-.1-1-.1-1.1-.1-1-.1-1.1-.1h-1l-1-.2h-1.1l-1-.2h-1l-1-.2h-1l-1-.2h-1.1l-1-.2-1-.1-1-.1-1-.1-1-.1-1-.1-.9-.2h-1l-.9-.2-1-.1-.9-.1-1-.1-.9-.2h-.9l-1-.2-.8-.1-1-.1-.9-.2-.9-.1-.8-.1-1-.2h-.8l-.9-.2-.8-.1-.9-.2-.8-.1-.9-.1-.8-.2-.8-.1-.9-.2h-.8l-.8-.2-.8-.2-.8-.1-.8-.2-.7-.1-.8-.1-.8-.2-.7-.1-.7-.2-.8-.1-.7-.2-.7-.1-.7-.2-.7-.1-.7-.2-.7-.2-.7-.1-.6-.2h-.4l-.3-.1-.3-.1h-.4l-.3-.2h-.3l-.3-.1-.3-.1-.3-.1h-.4l-.3-.2h-.3l-.3-.1-.3-.1-.3-.1h-.3l-.3-.2h-.3l-.3-.1-.2-.1-.3-.1-.3-.1h-.3l-.3-.2h-.3l-.2-.2h-.3l-.3-.1-.2-.1-.3-.1-.3-.1-.2-.1h-.3l-.3-.2h-.2l-.3-.2h-.2l-.3-.2h-.2l-.3-.2h-.2l-.3-.2h-.2l-.2-.2h-.3l-.2-.2h-.3l-.2-.2h-.2l-.3-.2-.2-.1-.2-.1-.2-.1-.3-.1-.2-.2h-.2l-.2-.2-.2-.1-.3-.1-.2-.2h-.2l-.2-.2-.2-.1-.2-.2-.2-.1-.2-.2-.3-.1-.2-.2-.2-.1-.2-.2-.2-.1-.2-.2-.2-.2-.2-.2-.2-.1-.2-.2-.2-.2-.2-.2-.2-.2-.2-.3-.2-.2-.2-.2-.2-.3-.2-.2-.2-.3-.1-.2-.1-.2-.1-.1-.1-.2-.1-.1v-.2l-.2-.2v-.1l-.1-.2-.1-.1v-.2l-.2-.2v-.2l-.1-.1v-.2l-.1-.2-.1-.2v-.2l-.1-.2v-.2l-.1-.2v-.4l-.1-.2v-.3l-.1-.4v-2.3l.1-.2v-.3l.1-.2v-.4l.1-.2v-.2l.1-.2v-.3l.1-.2v-.2l.2-.3v-.4l.2-.6.2-.5.1-.6.2-.5.1-.7.2-.6.2-.6.2-.7.2-.7.2-.7.2-.8.2-.7.2-.8.3-.7.2-.8.2-.8.3-.8.2-.9.3-.8.2-.8.3-.8.2-.9.5-1.6.6-1.7.5-1.7.5-1.6.5-1.6.5-1.5.4-1.5.5-1.5.4-1.3.2-.6.2-.7.2-.6.2-.5.2-.6.1-.5.2-.5.1-.4.2-.5.1-.4.2-.3v-.4l.2-.3v-.3l.2-.4.2-.4.1-.4.2-.4.1-.4.2-.4.1-.4.2-.4.1-.4.2-.4v-.4l.2-.4.3-.8.3-.8.3-.8.2-.8.3-.9.3-.8.3-.8.2-.8.3-.8.3-.9.2-.8.3-.8.2-.9.3-.8.3-.8.2-.9.3-.8.2-.8.3-.9.2-.8.6-1.7.5-1.7.5-1.7.5-1.7.5-1.7.5-1.7.3-.8.2-.9.3-.8.2-.9.3-.8.3-.9.2-.9.3-.8.3-.9.3-.8.2-.9.3-.8.3-.9.3-.9.3-.8.2-.9.3-.8.3-.9.3-.9.3-.8.2-.4.1-.5.2-.4.1-.4.2-.5.1-.4.2-.4.1-.5.2-.4.2-.4.1-.4.2-.5.2-.5.2-.5.2-.5.2-.5.2-.5.2-.5.2-.5.2-.5.2-.5.2-.5.2-.5.2-.5.2-.5.2-.5.3-.5.2-.5.2-.4.2-.5.3-.5.2-.5.2-.5.2-.5.3-.4.2-.5.2-.5.3-.5.2-.4.2-.5.3-.5.2-.5.2-.4.3-.5.2-.5.3-.4.2-.5.3-.5.2-.4.2-.5.3-.5.2-.4.3-.5.2-.5.3-.4.2-.5.3-.4.2-.5.3-.5.2-.4.5-1 .5-.8.5-1 .5-.8.6-1 .5-.8.5-1 .5-.8 1-1.8 1-1.8 1-1.7.5-.9.5-.9.5-.8.5-1 .5-.8.5-.9.5-.8.4-1 .3-.3.2-.5.2-.4.3-.4.2-.5.2-.4.3-.4.2-.5.2-.4.3-.5.2-.4.2-.4.2-.5.3-.4.2-.4.2-.5.2-.4.3-.4.2-.5.2-.4.2-.4.2-.5.2-.4.2-.4.2-.5.2-.4.2-.4.2-.5.2-.4.2-.4.2-.5.2-.4.2-.4.2-.5.2-.4.2-.4 1.9-4.5 1-2.3.5-1.2.5-1.2.5-1.2.6-1.2.5-1.2.5-1.2.6-1.3.5-1.2.6-1.3.5-1.2.6-1.3.5-1.3.6-1.3.6-1.3.6-1.3.6-1.3.6-1.3.3-.6.3-.7.3-.6.3-.7.3-.7.3-.6.3-.7.3-.6.3-.7.3-.6.3-.7.3-.7.3-.6.3-.7.3-.6.4-.7.3-.7.3-.6.3-.7.3-.6.4-.7.3-.6.3-.7.3-.7.3-.6.4-.7.3-.6.3-.7.3-.6.4-.7.3-.6.3-.7.4-.6.3-.7.3-.6.4-.6.3-.7.3-.6.4-.6.3-.7.3-.6.4-.6.3-.7.4-.6.3-.6.4-.6.3-.7.3-.6.4-.6.3-.6.4-.6.3-.6.4-.6.3-.6.4-.6.3-.6.4-.6.3-.6.4-.6.3-.6.4-.6.4-.5.3-.6.4-.6.3-.6.4-.5.3-.6.4-.5.4-.6.3-.5.4-.6.4-.5.3-.6.4-.5.4-.5.3-.6.4-.5.2-.2.2-.3.1-.3.2-.2.2-.3.2-.2.2-.3.2-.2.2-.3v-.1h.1v-.2l.1-.1v-.1l.1-.1v-.1l.1-.1v-.2h.1l.1-.3.1-.3.1-.2.2-.3v-.3l.2-.3.1-.3.1-.3.1-.3.2-.3.1-.4.3-.7.5-1.4.3-.8.1-.4.2-.4.1-.4.2-.3.1-.4.2-.4.1-.4.2-.4.1-.4.2-.4.2-.4.1-.4.2-.3v-.3l.2-.1v-.2l.2-.2v-.2l.1-.2.1-.2.1-.2.1-.2.1-.2.1-.2.1-.2.1-.2.1-.1.1-.2.1-.2.2-.2v-.2l.2-.2.1-.2.1-.2.2-.2v-.2l.2-.2.2-.2.1-.2.2-.2.1-.2.2-.2.2-.2.2-.2.2-.3.2-.2.2-.2.3-.2.2-.2.2-.1v-.2h.2l.2-.2h.1l.2-.2.2-.1.1-.1.2-.1.2-.1.2-.1.2-.1.3-.2.3-.1.3-.2.3-.1.3-.1.3-.2h.2l.3-.2.3-.1.3-.2h.3l.3-.2.3-.1.3-.1.3-.1.3-.1.3-.1.3-.1.3-.1.3-.1.2-.1.3-.1.3-.1.3-.1h.3l.3-.2h.3l.3-.1.3-.1h.3l.3-.2h.6l.3-.2h.5l.3-.1.3-.1h.3l.3-.1h.3l.3-.1h.3l.3-.1h.3l.2-.1h.3l.3-.1h.6l.3-.1h.6l.2-.1h.6l.3-.1h.6l.3-.1h1.1l.3-.1H401.8l.3-.1h3l.6-.1h6.5l1 .1h2.1l1.1.1h3.1l.5.1h7.3l.2-.1h1.2l.2-.1h1l.2-.1h.8l.2-.1h.7l.2-.1h.5l.3-.1h.4l.3-.1h.2l.2-.1h.5l.2-.1h.3l.2-.1h.2l.3-.1h.2l.2-.1h.2l.3-.1h.2l.2-.1h.3l.2-.1h.2l.3-.1.2-.1h.2l.2-.1h.3l.2-.2h.2l.2-.1h.3l.2-.1.2-.1h.3l.2-.2h.2l.2-.1.3-.1h.2l.2-.2h.2l.3-.1.2-.1.2-.1.2-.1.3-.1.2-.1.2-.1.3-.1.2-.1.2-.1.2-.1.3-.1.2-.1.2-.2h.2l.3-.2h.2l.2-.2.2-.1.3-.2h.2l.2-.2.3-.1.2-.2.2-.1.3-.2.4-.2.6-.4 1.4-.8.9-.5.9-.5.4-.3.5-.3.6-.3.5-.4.5-.3.6-.3.6-.4.5-.3.6-.4.7-.4.6-.4.6-.4.6-.4.7-.4.6-.4.7-.4.7-.5.7-.4.6-.4.7-.5.4-.2.3-.2.3-.3.4-.2.3-.2.4-.3.3-.2.4-.2.3-.3.4-.2.3-.3.4-.2.3-.2.3-.3.4-.2.3-.3.4-.2.3-.3.4-.2.3-.2.3-.3.4-.2.3-.3.3-.2.4-.3.3-.2.3-.3.4-.2.3-.3.3-.2.3-.3.4-.2.3-.3.3-.2.3-.3.3-.2.3-.3.3-.2.3-.3.3-.2.3-.3.3-.2.3-.2.3-.3.3-.2.2-.3.3-.2.3-.3.2-.2.3-.2.3-.3.2-.2.3-.2.2-.3.2-.2.3-.2.2-.3.2-.2.2-.2.3-.2.2-.2.2-.3.2-.2.1-.2.3-.3.3-.3.2-.3.3-.3.3-.3.2-.3.3-.3.2-.3.3-.3.2-.3.3-.3.2-.2.3-.3.2-.3.3-.3.2-.3.2-.3.3-.3.2-.3.2-.3.2-.2.3-.3.2-.3.2-.3.2-.3.2-.3.3-.2.2-.3.2-.3.2-.3.2-.2.2-.3.2-.3.2-.3.2-.2.2-.3.2-.3.2-.3.2-.2.1-.3.2-.3.2-.2.2-.3.2-.2.2-.3.1-.3.2-.2.2-.3.1-.2.2-.3.2-.2.1-.3.2-.3.2-.2.1-.3.2-.2.1-.3.2-.2.1-.2.2-.3.1-.2.2-.3.1-.2.2-.2v-.3l.2-.2.2-.3.1-.2.1-.2.2-.3v-.2l.2-.2.1-.2.2-.3v-.2l.2-.2.1-.2.1-.3.1-.2.2-.2v-.2l.2-.2v-.2l.2-.2v-.2l.2-.3v-.2l.2-.2v-.2l.2-.2v-.2l.2-.2v-.2l.1-.2.1-.2.1-.2v-.1l.2-.2v-.2l.1-.2v-.2l.2-.2v-.1l.1-.2v-.2l.1-.2.1-.2v-.1l.1-.2.1-.2v-.1l.1-.2v-.2l.1-.1v-.2l.1-.1v-.2l.1-.1v-.2l.1-.1v-.2l.1-.1v-.2l.1-.2V425.2l.1-.1.1-.5.2-.5v-.5l.2-.4v-.5l.2-.5v-.5l.2-.4v-.5l.2-.5v-.4l.1-.5.1-.5.1-.4v-.5l.2-.5v-.4l.1-.5v-.4l.1-.5.1-.5v-.4l.1-.5v-.4l.1-.5v-.4l.1-.5v-.4l.1-.5v-.9l.1-.4v-.9l.1-.5v-2.2l.1-.5V400.6l-.1-.5v-1.3l-.1-.4v-.8l-.1-.5v-.4l-.1-.4v-.9l-.1-.4v-.4l-.1-.5v-.4l-.2-.4v-.8l-.1-.5-.1-.4v-.4l-.1-.4-.1-.4v-.5l-.2-.4v-.4l-.1-.4-.1-.4v-.4l-.2-.5v-.4l-.2-.4v-.4l-.1-.4-.1-.4-.1-.4-.1-.5-.1-.4-.1-.4-.2-.4v-.4l-.2-.4v-.4l-.2-.4-.1-.4-.1-.4-.1-.5-.2-.4v-.4l-.2-.4-.1-.4-.2-.4-.1-.4-.1-.4-.2-.4-.1-.4-.1-.4-.2-.4-.1-.4-.2-.4-.1-.4-.2-.4-.1-.4-.2-.4-.1-.4-.2-.4-.1-.4-.2-.4-.1-.4-.2-.4-.2-.4-.1-.4-.2-.4-.2-.4-.1-.4-.2-.4-.2-.4-.1-.4-.2-.4-.2-.4-.2-.4-.2-.4-.1-.4-.2-.4-.2-.4-.2-.4-.2-.4-.2-.4-.2-.4-.2-.4-.1-.4-.2-.3-.2-.4-.2-.4-.2-.4-.2-.4-.2-.4-.2-.4-.3-.4-.2-.4-.2-.4-.2-.4-.2-.3-.2-.4-.2-.4-.2-.4-.2-.4-.3-.4-.2-.4-.2-.4-.2-.4-.3-.3-.2-.4-.2-.4-.2-.4-.3-.4-.2-.4-.2-.4-.3-.3-.2-.4-.2-.4-.3-.4-.2-.4-.2-.4-.3-.4-.2-.3-.2-.4-.3-.4-.2-.4-.3-.4-.2-.3-.3-.4-.2-.4-.3-.4-.2-.4-.3-.4-.2-.3-.3-.4-.2-.4-.3-.4-.2-.4-.3-.3-.3-.4-.2-.4-.3-.4-.2-.4-.3-.3-.3-.4-.2-.4-.3-.4-.3-.4-.2-.3-.3-.4-.3-.4-.2-.4-.3-.3-.3-.4-.2-.4-.3-.4-.3-.3-.3-.4-.5-.8-.6-.7-.5-.8-.6-.7-.5-.8-.6-.7-.6-.8-.5-.7-.6-.8-.6-.7-.6-.8-.5-.7-.6-.7-.6-.8-.6-.7-.6-.8-.6-.7-.5-.8-.6-.7-.6-.7-.2-.3-.3-.3-.2-.2-.2-.3-.2-.3-.2-.2-.3-.3-.2-.2-.2-.3-.2-.2-.2-.3-.3-.3-.2-.2-.2-.3-.3-.2-.2-.2-.2-.3-.3-.2-.2-.3-.2-.2-.3-.3-.2-.2-.2-.2-.3-.3-.2-.2-.3-.2-.2-.3-.3-.2-.2-.2-.2-.3-.3-.2-.2-.2-.3-.2-.2-.3-.3-.2-.2-.2-.3-.2-.2-.2-.3-.2-.3-.3-.2-.2-.3-.2-.2-.2-.3-.2-.2-.2-.3-.2-.3-.2-.2-.2-.3-.2-.3-.2-.2-.2-.3-.2-.3-.2-.2-.2-.3-.2-.3-.2-.2-.2-.3-.2-.3-.2-.3-.2-.2-.2-.3-.1-.3-.2-.3-.2-.2-.2-.3-.2-.3-.1-.3-.2-.3-.2-.2-.2-.3-.2-.3-.1-.3-.2-.3-.2-.3-.1-.3-.2-.3-.2-.2-.1-.3-.2-.3-.2-.3-.1-.3-.2-.3-.1-.3-.2-.3-.1-.3-.2-.3-.2-.3-.1-.3-.2-.3-.1-.3-.2-.3-.1-.3-.1-.3-.2-.3-.1-.3-.2-.3-.1-.3-.2h-.3l-.3-.2-.3-.2-.3-.1-.3-.1-.3-.2h-.3l-.4-.2-.3-.1-.3-.2-.3-.1-.3-.1-.3-.1-.3-.2h-.4l-.3-.2-.3-.1-.3-.1-.3-.2h-.3l-.4-.2h-.3l-.3-.2-.3-.1-.3-.1-.4-.1-.3-.1-.3-.1-.3-.1-.4-.1-.3-.1-.3-.1-.3-.1-.4-.1-.3-.1-.3-.1-.4-.1-.3-.1h-.3l-.3-.2h-.4l-.3-.1-.3-.1-.4-.1-.3-.1h-.3l-.4-.2h-.3l-.3-.1h-.4l-.3-.2h-.4l-.3-.1h-.3l-.4-.2h-.6l-.4-.2h-.7l-.3-.1-.4-.1h-.3l-.3-.1h-.4l-.3-.1h-.4l-.3-.1-.4-.1h-.3l-.3-.1h-.7l-.4-.1h-.3l-.4-.1h-.3l-.4-.1h-.7l-.3-.1h-.4l-.3-.1h-1.1l-.3-.1h-.7l-.4-.1h-1l-.4-.1H406.7l-.3-.1H396.8l-.4.1h-1.1l-.3.1h-1.1l-.4.1h-.7l-.3.1h-.8l-.3.1h-.4l-.3.1h-.8l-.3.1h-.4l-.3.1h-.4l-.3.1h-.4l-.4.1h-.3l-.4.1h-.3l-.4.1h-.4l-.3.1h-.4l-.3.2h-.7l-.4.1-.4.1h-.3l-.4.1-.3.1h-.4l-.3.1-.4.1h-.4l-.3.2h-.4l-.3.1h-.4l-.3.2h-.4l-.3.1-.4.1h-.3l-.4.2h-.4l-.3.1-.4.1-.3.1-.4.1-.3.1h-.4l-.3.2h-.4l-.3.2h-.4l-.3.2h-.4l-.3.2h-.4l-.3.2h-.4l-.3.2h-.4l-.3.2-.4.1-.3.1-.4.1-.3.1-.4.1-.3.2h-.3l-.4.2-.3.1-.4.1-.3.1-.4.2h-.3l-.4.2-.3.1-.3.1-.4.2-.3.1-.4.1-.3.2h-.3l-.4.2-.3.2h-.3l-.4.2-.3.2h-.4l-.3.2-.3.2-.4.1-.3.1-.3.2-.4.1-.3.2-.3.1-.4.2-.3.1-.3.2-.4.1-.3.2-.3.1-.3.2-.4.1-.3.2-.3.1-.3.2-.4.1-.3.2-.3.2-.3.1-.4.2-.3.1-.3.2-.3.2-.3.1-.4.2-.3.2-.3.1-.3.2-.3.2-.4.2-.3.1-.3.2-.3.2-.3.2-.3.1-.3.2-.3.2-.4.2-.3.2-.3.1-.3.2-.3.2-.3.2-.3.2-.3.2-.3.2-.3.1-.3.2-.3.2-.3.2-.3.2-.3.2-.3.2-.3.2-.3.2-.3.2-.3.2-.3.2-.3.2-.3.2-.3.2-.3.2-.3.2-.2.2-.3.2-.3.2-.3.2-.3.3-.3.2-.3.2-.2.2-.3.2-.3.2-.3.2-.3.3-.2.2-.3.2-.3.2-.3.2-.3.3-.2.2-.3.2-.3.2-.2.3-.3.2-.3.2-.2.2-.3.3-.3.2-.2.2-.3.3-.3.2-.2.2-.3.3-.3.2-.2.2-.3.3-.2.2-.3.2-.2.3-.3.2-.2.3-.3.2-.2.3-.3.2-.2.2-.3.3-.2.2-.3.3-.2.2-.3.3-.2.2-.3.3-.2.2-.2.3-.3.2-.2.3-.2.3-.3.2-.2.3-.2.2-.3.3-.2.3-.2.2-.3.3-.2.2-.2.3-.2.3-.3.2-.2.3-.2.3-.2.2-.2.3-.2.3-.3.2-.2.3-.2.3-.2.3-.2.2-.2.3-.2.3-.2.3-.2.2-.2.3-.2.3-.2.3-.2.3-.2.2-.2.3-.2.3-.2.3-.2.3-.2.3-.2.3-.2.2-.2.3-.2.3-.2.3-.2.3-.1.3-.2.3-.2.3-.2.3-.2.3-.1.3-.2.3-.2.3-.2.3-.1.3-.2.3-.2.3-.1.3-.2.3-.2.3-.1.3-.2.3-.2.3-.1.3-.2.3-.1.3-.2.3-.3.7-.4.7-.3.7-.4.6-.3.7-.3.6-.4.7-.3.6-.7 1.3-.6 1.2-.6 1.2-.3.6-.3.6-.3.6-.3.6-.3.5-.3.6-.3.6-.3.6-.3.5-.1.3-.1.3-.2.2-.1.3-.1.3-.2.3v.2l-.2.3-.1.3-.2.3v.2l-.2.3-.1.3-.1.2-.2.3v.3l-.2.2-.1.3-.1.3-.1.2-.1.3-.1.3-.1.2-.1.3-.1.3-.1.2-.1.3-.1.3-.1.2-.1.3-.1.2-.1.3-.1.3v.2l-.2.3v.3l-.1.2-.1.3-.1.2v.3l-.1.3-.1.2-.1.3v.3l-.1.2-.1.3v.2l-.1.3-.1.3v.2l-.1.3v.3l-.1.2v.3l-.1.3v.3l-.1.2v.3l-.1.3v.2l-.1.3v.3l-.1.3v.5l-.1.3V376.8l-.1.2V378l-.1.3V381l.1.2v.4l.2.4v.5l.3 1 .3 1v.6l.2.6.1.5.1.6v.3l.2.3v.5l.1.3v.3l.1.3v.3l.1.3v.2l.1.3v.6l.1.3v.9l.1.2V394l-.1.2v.4l-.1.3-.1.4-.1.4-.2.4-.2.5-.3.6-.3.5-.3.4-.2.3-.3.3-.4.4-.5.5-.5.4-.4.2-.3.2-.3.2h-.2l-.2.2h-.2l-.3.2h-.2l-.3.2h-.2l-.2.1h-.2l-.2.1-.2.1h-.3l-.2.1h-.2l-.2.1-.3.1h-.2l-.5.2-.6.2-.6.1-.6.1-.6.2-.6.2-.7.1-.7.2-.8.2-.7.1-.8.2-.8.2-.8.2-.8.2-.9.2-.8.2-1 .2-1.7.3-1.8.4-1.8.4-1.8.4-1.9.4-1.8.4-1.7.4-3.4.8-3.2.6-2.7.6-1.2.3-1 .2-1 .2-.7.2h-.3l-.2.1h-.4l-.3.1-.3.1-.3.1h-.3l-.4.2h-.3l-.3.1-.4.1h-.3l-.3.1-.4.1h-.3l-.3.2h-.4l-.3.1h-.3l-.3.1-.4.1h-.3l-.3.1-.4.1h-.3l-.7.2-.6.1-.7.1-.7.1-.6.2h-.7l-.6.2h-.7l-.7.2h-.6l-.7.2h-.7l-.6.2h-.7l-.7.1-.6.1-.7.1h-.7l-.6.2h-.7l-.7.1h-.6l-.7.1-.7.1h-.6l-.7.1-.6.1h-.7l-.7.1h-.6l-.7.1h-.7l-.6.1h-.7l-.7.1h-.6l-.7.1H221.4l-.7.1H219.4l-.7.1h-.6l-.7.1H215.4l-.6.1h-1.4l-.6.1h-2l-1.3.1h-1.3l-1.3.1h-2.6l-2.6.2H197.8l-1.3.1h-2.6l-1.3.1h-1.3l-1.2.1h-1.9l-.7.1h-1.2l-.7.1h-1.9l-.6.1H182l-.7.1h-.6l-.6.1H178.7l-.6.1h-.6l-.6.1h-.6l-.6.1h-.6l-.7.1h-.6l-.6.1h-.6l-.6.1h-.6v.1h-.5l-.3.1h-.2l-.3.1-.3.1-.6.1-.8.2-.7.1-.9.2-.9.2-.9.2-.4.1-.5.1-.5.1-.5.1-.5.1h-.5l-.5.2h-.5l-.5.2h-.6l-.5.2h-.5l-.5.2h-.5l-.6.1-.5.1h-.5l-.3.1h-.5l-.2.1h-.5l-.3.1h-.5l-.3.1h-.7l-.3.1h-1.5l-.3.1H148.1l-.2-.1h-.3l-.3-.1h-.5l-.1-.1h-.4l-.1-.1h-.2l-.2-.1h-.1l-.2-.1h-.2l-.2-.1-.2-.1h-.2l-.2-.2h-.2l-.2-.1-.2-.1-.2-.1-.2-.2h-.2l-.3-.2-.2-.2-.2-.1-.2-.2-.3-.2-.2-.2-.3-.2-.2-.2-.1-.2h-.1l-.2-.2v-.1l-.2-.2-.1-.1-.1-.1-.1-.2h-.1l-.1-.2-.1-.2h-.1l-.1-.2v-.1l-.2-.2v-.1l-.2-.3-.2-.2-.1-.3-.2-.3-.1-.2-.2-.3v-.2l-.2-.3-.1-.3-.1-.2-.1-.3-.1-.2-.1-.3-.1-.2v-.3l-.2-.2v-.3l-.1-.3-.1-.2v-.3l-.1-.2-.1-.3v-.2l-.1-.3v-.2l-.1-.3v-.2l-.1-.3v-.3l-.1-.2v-.3l-.1-.2v-.5l-.1-.3v-.3l-.1-.2v-.5l-.1-.3v-.8l-.1-.3v-1.1l-.1-.2V401.7l-.1-.3V390l.1-.6V387.6l.1-.6v-1.2l.1-.6v-.6l.1-1.2v-1.2l.2-1.2v-1.2l.2-2.3v-1.2l.1-1.1v-1.1l.1-.5V372l.1-.6v-1.9l.1-.5V363.6h-.2l-.4-.2h-.3l-.3-.1-.3-.1h-.3l-.4-.1-.3-.1h-.3l-.3-.1-.3-.1h-.4l-.3-.1-.3-.1h-.3l-.3-.1h-.4l-.3-.1h-.3l-.3-.1h-.3l-.3-.1h-.4l-.3-.1h-.6l-.3-.1h-.4l-.3-.1h-.6l-.3-.1h-1l-.3-.1h-1l-.3-.1h-1.3l-.4-.1H120.5l-.3-.1h-9.3l-1.4.1h-3l-1.4.1h-3.8l-.8.1H97l-.2.1H93.5l-.3-.1-.3-.1h-.3l-.3-.2-.4-.1-.4-.2-.5-.2-.4-.3-.6-.3-.5-.4-.4-.4-.3-.3-.2-.2-.2-.2-.1-.1-.2-.2-.2-.2-.1-.2-.2-.2-.1-.2-.2-.2-.1-.2-.2-.2-.1-.2-.2-.2-.1-.2-.2-.2-.1-.2-.1-.2-.2-.2-.1-.2-.1-.2-.1-.2-.2-.2v-.2l-.2-.2-.1-.2-.1-.2-.1-.2-.1-.2-.1-.2-.1-.2v-.2l-.2-.3v-.2l-.2-.2v-.2l-.1-.2v-.2l-.2-.2v-.4l-.2-.2v-.4l-.1-.2v-.2l-.1-.3v-.2l-.1-.2v-.2l-.1-.2v-.2l-.1-.2V348.4l-.1-.2V347.6l-.1-.2v-.8l-.1-.1V339.3l.1-.2V336.2l-.1-.1v-.4l-.1-.1V335.2l-.1-.1v-.2l-.1-.1v-.1l-.1-.1v-.2h-.1v-.1l-.1-.1v-.1l-.1-.1v-.1h-.1v-.2H82v-.1H82v-.2h-.1v-.1l-.1-.1h-.1v-.2h-.1v-.1h-.1l-.1-.1v-.1h-.1l-.1-.2-.2-.1v-.1h-.1l-.1-.2h-.1v-.1l-.2-.1v-.1l-.2-.1-.2-.2H80l-.1-.2h-.1l-.1-.1-.2-.1v-.1l-.2-.1-.1-.1-.2-.1-.1-.1-.2-.1-.1-.1-.2-.1-.1-.1-.2-.1-.1-.1-.2-.2h-.2l-.1-.2h-.2l-.2-.2H77l-.1-.2-.2-.1-.2-.1-.2-.1-.2-.1-.2-.2h-.2l-.2-.2-.3-.1-.2-.1-.2-.1h-.1l-.1-.1H74l-.1-.1h-.4l-.2-.1H73l-.2-.1h-.4l-.3-.1H72l-.3-.1h-.5l-.3-.1h-.5l-.3-.1h-.6l-.6-.2H68l-.6-.1h-.7l-.7-.2h-1.4l-.7-.2h-.7l-.7-.1h-.8l-.7-.1-.7-.1h-.8l-.7-.1-1.5-.2H56l-2.8-.3-1.4-.1-1.3-.1-1.2-.1h-.6l-.5-.1h-.6l-.5-.1h-.5l-.5-.1h-.4l-.4-.1h-.5l-.2-.1h-.1l-1.7 1.4-2.6 1h-2.7l-2.7-.8-2.1-1.8-1.5-2.3-.5-2.8.4-2.7 1.4-2.4h-.1v.1l-.1.1v.1h-.1v.1V314.6l.1-.1V314.2h.1v-.4l.1-.2V313.3l.1-.1v-.4l.1-.3v-.2l.1-.3v-.3l.1-.3v-.6l.1-.3v-.3l.1-.4v-.3l.1-.7.1-.7v-.7l.2-.7v-.8l.1-.3v-.4l.1-.4v-.3l.1-.4v-.4l.1-.4v-.3l.1-.4.1-.4v-.4l.1-.2v-.2l.1-.2v-.2l.1-.2V300.6l.1-.2v-.2l.1-.2.1-.2v-.2l.1-.2v-.3l.1-.2.1-.2v-.2l.2-.2v-.2l.1-.2.1-.2v-.2l.2-.4.2-.3.3-.7.3-.7.2-.7.3-.7.3-.6.3-.8.3-.7.3-.7.2-.7.3-.7.3-.8.3-.7.3-.7.3-.8.2-.7.6-1.5.6-1.5.6-1.6.6-1.5.6-1.6.3-.7.3-.8.3-.8.3-.8.3-.7.3-.8.3-.8.3-.8.3-.8.3-.8.3-.7.3-.8.4-.8.3-.8.3-.8.2-.4.1-.3.2-.4.2-.4.1-.4.2-.4.2-.4.2-.4.1-.4.2-.3.2-.4.1-.4.2-.4.2-.4.2-.4.1-.4.2-.3.2-.4.2-.4.2-.4.1-.4.2-.3.2-.4.2-.4.2-.4.2-.3.2-.4.1-.4.2-.4.2-.3.2-.4.2-.4.2-.4.2-.3.2-.4.2-.4.2-.3.2-.4.2-.4.2-.3.2-.4.2-.3.2-.4.2-.4.3-.3.2-.4.3-.5.2-.5.3-.4.3-.5.3-.5.3-.5.3-.5.3-.5.2-.5.3-.5.3-.5.3-.5.3-.5.2-.6.3-.5.3-.5.3-.5.2-.5.3-.5.3-.5.2-.5.3-.6.3-.5.2-.5.3-.5.3-.5.2-.6.3-.5.3-.5.2-.5.3-.6.2-.5.3-.5.3-.5.2-.6.3-.5.2-.5.3-.6.2-.5.3-.5.2-.6.3-.5.3-.6.2-.5.5-1 .5-1.2.5-1 .5-1.1.5-1.1.5-1.1.5-1.1.5-1.1 1-2.2 1-2.2 1-2.2.5-1.1.5-1.2.5-1 .5-1.2.5-1 .6-1.2.5-1.1.5-1.1.5-1.1.5-1.2.3-.5.3-.6.2-.5.3-.6.3-.5.2-.6.3-.6.3-.5.2-.6.3-.5.3-.6.3-.5.2-.6.3-.6.3-.5.3-.6.3-.5.2-.6.3-.5.3-.6.3-.5.3-.6.3-.5.3-.6.2-.5.3-.6.3-.6.3-.5.3-.5.3-.6.3-.5.3-.6.3-.5.3-.6.4-.5.3-.6.3-.5.2-.5.3-.5.3-.5.3-.5.3-.4.3-.5.3-.5.3-.5.3-.5.3-.5.3-.5.4-.5.3-.5.3-.5.3-.5.4-.5.3-.5.3-.5.4-.5.3-.5.3-.6.4-.5.3-.5.4-.5.3-.5.4-.5.3-.5.4-.5.3-.5.4-.5.4-.5.3-.5.4-.5.4-.5.4-.5.3-.6.4-.5.4-.5.4-.5.4-.5.3-.5.4-.5.4-.5.4-.5.4-.6.4-.5.4-.5.4-.5.4-.5.4-.5.4-.5.5-.5.4-.5.4-.6.4-.5.4-.5.4-.5.5-.5.4-.5.4-.5.5-.6.4-.5.4-.5.5-.5.4-.5.4-.5.5-.5.4-.5.5-.6.4-.5.4-.5.5-.5.5-.5.4-.5.5-.5.4-.5.5-.6.4-.5.5-.5.5-.5.4-.5.5-.5.5-.5.4-.5.5-.5.5-.5.4-.6.5-.5.5-.5.5-.5.5-.5.4-.5.5-.5.5-.5.5-.5.5-.5.5-.5.4-.5.5-.5.5-.5.5-.5.5-.5.5-.5.5-.5.5-.5.5-.5.5-.5.5-.5.5-.5.5-.5.5-.5.5-.5.5-.5.5-.5.6-.5.5-.5.5-.5.5-.5.5-.5.5-.5.5-.4.5-.5.6-.5.5-.5.5-.5.5-.5.5-.5.6-.4.5-.5.5-.5.5-.5.6-.5.5-.4.5-.5.5-.5.6-.5.5-.4.5-.5.6-.5.5-.5.5-.4.5-.5.6-.5.5-.4.5-.5.6-.5.5-.4.6-.5.5-.5.5-.4.6-.5.5-.4.5-.5.6-.4.5-.5.6-.4.5-.5.5-.4.6-.5.5-.4.6-.5.5-.4.5-.5.6-.4.5-.4.6-.5.5-.4.5-.5.6-.4.5-.4.6-.5.5-.4.6-.4.5-.4.5-.5.6-.4.5-.4.6-.4.5-.4.6-.5.5-.4.6-.4.5-.4.5-.4.6-.4.5-.4.6-.4.5-.4.6-.4.5-.4.5-.4.6-.4.5-.4.6-.4.5-.4.6-.4.5-.4.5-.4.6-.3.5-.4.6-.4.5-.4.5-.4.6-.3.5-.4.6-.4.5-.3.5-.4.6-.4.5-.3.6-.4.5-.3.5-.4.6-.4.5-.3.5-.4.6-.3.5-.3.5-.4.6-.3.5-.4.5-.3.6-.3.5-.4.5-.3.5-.3.6-.3.5-.4.5-.3.6-.3.5-.3.5-.3.5-.3.5-.3.6-.3.5-.3.5-.3.5-.3.6-.3.5-.3.5-.3.5-.3.5-.3.5-.3.6-.3.5-.2.5-.3.5-.3.5-.2.5-.3.5-.3.5-.2.5-.3.5-.3.5-.2.4-.2.3-.1.3-.2.3-.1.3-.2.3-.2.3-.1.3-.2.3-.1.3-.2.3-.2.3-.1.3-.2.3-.2.4-.1.3-.2.3-.2.3-.2.3-.1.3-.2.3-.2.3-.2.6-.3.6-.4.7-.3.6-.4.6-.4.6-.4.7-.3.6-.4.6-.4.6-.4.7-.4.6-.3.6-.4 1.3-.8 1.3-.8 1.2-.8 1.3-.8.7-.4.6-.4.7-.4.6-.4.7-.4.6-.4.7-.4.7-.4.6-.4.7-.4.7-.4.6-.4.7-.4.4-.2.3-.2.3-.1.4-.2.3-.2.4-.2.3-.2.4-.2.3-.2.3-.2.4-.2.3-.2.4-.2.3-.1.4-.2.3-.2.4-.2.4-.2.3-.2.4-.1.3-.2.4-.2.3-.2.4-.2.4-.1.3-.2.4-.2.4-.2.3-.1.4-.2.4-.2.3-.2.4-.1.4-.2.3-.2.4-.1.4-.2.4-.1.2-.1.2-.1h.2l.2-.2h.2l.2-.1.2-.1.2-.1.4-.1.4-.2.4-.1.4-.2.3-.1.4-.1.4-.2.4-.1.4-.1.4-.2h.4l.4-.2.3-.1.4-.1.4-.1.4-.1.4-.1.3-.1.4-.2h.4l.7-.3.7-.1 1.4-.4.7-.2.7-.2.4-.1.3-.1.3-.1.3-.1h.4l.3-.2h.3l.3-.2h.3l.4-.2h.3l.3-.2h.3l.3-.2h.3l.2-.2h.3l.3-.2h.1l.2-.1h.1l.2-.1h.1l.1-.1h.2l.1-.1.1-.1h.2v-.1h.2l.1-.1h.2l.1-.1.1-.1h.2v-.1h.2l.1-.1.3-.2.3-.2.5-.2.6-.3.3-.1.3-.2.3-.2.4-.1.4-.2.4-.2.4-.2.4-.2.5-.2.4-.2.5-.2.5-.3.4-.2.5-.2.6-.2.5-.2.5-.3.5-.2.3-.1.3-.1.3-.1.2-.1.3-.2h.3l.3-.2h.3l.2-.2.3-.1.3-.1.3-.1.3-.1.3-.1.3-.1.3-.1.3-.2h.2l.3-.2h.3l.3-.2h.3l.3-.1.3-.1.3-.1.3-.1.3-.1.3-.1h.3l.3-.2h.3l.4-.1.3-.1h.3l.3-.1.3-.1h.3l.3-.2h.6l.3-.1h.4l.3-.1h.3l.3-.1h.7l.1-.1h1.7l.2-.1H304l.2.1h.5l.2.1h.4l.2.1h.2l.2.1h.2l.2.1h.2l.2.1.2.1h.2l.3.2h.2l.2.1.2.1.2.1.2.1.3.1.2.1.2.2h.2l.2.2.2.2.3.1.2.2.2.1.2.2.2.2.2.2.2.1.2.2.2.2.2.2.1.2.2.2.2.2.1.2.1.2.2.2v.2l.2.1.1.2.1.2.1.2.1.2v.1l.2.2v.2l.1.1v.2l.2.1v.4l.1.1v.2l.1.1.1.2v.3l.2.3v.2l.1.3v.3l.1.3.1.2v.3l.1.3v.5l.1.3v.2l.1.3v.8l.1.3v.8l.1.2V42.4l.1.3V59.4l.1.1v.6l.2.5.3.7.2.7.3.8.6 1.8.6 2.1 1.6 4.9 1 2.7.9 3 1 3 1 3.3.6 1.7.5 1.7.6 1.7.6 1.7.5 1.8.6 1.7.6 1.8.6 1.8.6 1.8.6 1.8.6 1.8.6 1.7.6 1.8.6 1.8.6 1.8.6 1.7.6 1.8.6 1.7.6 1.7.2.8.3.8.3.8.3.9.3.8.3.8.2.7.3.8.3.8.3.8.2.7.3.7.3.8.2.7.3.7.2.7.3.7.2.6.3.7.2.6.3.7.2.6.2.6.2.6.3.5.2.6.2.5.2.5.2.5.2.5.2.5.2.4.1.4.2.4.2.4.1.4.1.1v.2l.2.1v.2H343.4l.1.1h1.8l.2-.1h.4l.2-.1h.4l.2-.1h.5l.2-.1h.2l.2-.1h.2l.2-.1h.3l.2-.1h.2l.2-.1.3-.1h.2l.2-.1.3-.1h.2l.2-.2h.2l.3-.1h.2l.2-.2h.2l.3-.1.2-.1h.2l.2-.2h.3l.2-.1.2-.1.2-.1.2-.1.2-.1.3-.1h.2l.2-.2h.2l.2-.2h.2l.2-.2h.2l.1-.2h.2l.2-.2h.2l.2-.1.1-.1.2-.1.2-.1.1-.1.2-.1.1-.1h.1l.2-.2h.1l.1-.2h.2v-.1h.2v-.2h.2v-.1h.1v-.1h.1v-.1h.1v-.2h.1V134.7h.1V134.4l.1-.1V134l.1-.1V133.7l.1-.1v-.4l.1-.1v-.6l.1-.2V131.1l.1-.2V126.7l-.1-.1V125.7l-.1-.4v-.4l-.1-.3v-.4l-.1-.4v-.4l-.1-.3v-.4l-.1-.4v-.4l-.1-.4-.1-.4v-.4l-.1-.4-.1-.4v-.4l-.2-.4v-.5l-.1-.4-.1-.4v-.4l-.2-.4v-.5l-.1-.4-.1-.4-.1-.4-.1-.5v-.4l-.3-.8-.2-.9-.2-.9-.1-.8-.2-.9-.2-.9-.4-1.7-.2-.9-.2-.9-.2-.8-.2-.9v-.4l-.2-.5v-.4l-.2-.4v-.5l-.1-.4-.1-.4-.1-.5v-.4l-.2-.4v-.4l-.1-.5-.1-.4V98l-.2-.4V97l-.1-.4v-.4l-.1-.4v-.4l-.1-.5-.1-.4v-.4l-.1-.4v-.9l-.1-.4V92l-.1-.2v-1.4l-.2-.3V90l-.1-.2v-.1l-.2-.2v-.2l-.1-.2v-.2l-.1-.3-.1-.2V88l-.2-.3v-.8l-.1-.4V85l.1-.5v-.3l.1-.3.1-.4.1-.3.1-.3.2-.3.1-.3.2-.3.1-.3.2-.4.2-.3.2-.2.3-.3.2-.3.2-.3.3-.2.2-.2.3-.2.3-.2.2-.2.3-.2.2-.1.3-.2h.2l.2-.2h.1l.2-.1.2-.1h.1l.2-.1.1-.1h.2l.2-.1.1-.1h.2l.1-.1h.2l.1-.1h.2l.2-.1.1-.1h.2l.1-.1h.4l.1-.1h.2l.1-.1H360.7l.2-.1h.2l.1-.1h.5l.3-.1.3-.1h.6l.3-.1h.6l.3-.1h2.3zm-67.4-33h-.4l-.2.2h-.4l-.2.1-.2.1h-.3l-.2.2h-.2l-.2.1h-.2l-.3.2h-.2l-.2.1-.3.1h-.2l-.2.2h-.2l-.3.1-.2.1-.2.1-.3.1-.2.1-.2.1h-.3l-.2.2h-.2l-.3.2h-.2l-.4.3-.5.2-.4.1-.5.2-.4.2-.4.2-.5.2-.4.2-.4.2-.4.2-.3.1-.4.2-.4.2-.3.2-.3.1-.3.2-.3.1-.3.2-.5.2-.4.2-.4.2-.3.2h-.2l-.2.2h-.2l-.2.2h-.2l-.2.2h-.2l-.3.1-.2.1-.2.1-.2.1h-.2l-.2.2h-.2l-.2.1-.2.1-.2.1h-.2l-.2.2h-.2l-.4.2-.4.1-.4.2-.4.1-.4.2-.4.1-.4.1-.3.2h-.4l-.4.2-.4.1-.4.1-.4.1-.4.2h-.3l-.4.2h-.4l-.4.2-.7.2-.7.2-1.5.4-.7.2-.7.2h-.3l-.3.2h-.4l-.3.1-.3.1-.4.1-.3.1-.3.1-.3.1-.3.1-.3.1-.4.1-.3.1-.3.1-.3.1-.2.1-.3.1-.3.1-.3.1-.3.1h-.1l-.1.1h-.2l-.1.1-.1.1h-.2l-.1.1h-.1l-.4.2-.3.1-.3.2-.3.1-.3.2-.3.1-.3.1-.3.2-.4.1-.3.2-.3.1-.3.2-.3.1-.3.2-.3.1-.4.2-.3.2-.3.1-.3.2-.3.1-.3.2-.3.2-.3.1-.3.2-.4.2-.3.1-.3.2-.3.2-.3.1-.3.2-.3.2-.3.1-.4.2-.3.2-.3.2-.3.2-.3.1-.3.2-.6.4-.7.3-.6.4-.6.4-.6.3-.7.4-.6.4-.6.4-.6.4-.7.3-.6.4-.6.4-.7.4-1.2.8-1.3.8-1.3.8-1.3.8-.6.4-.7.4-.6.4-.7.4-.6.4-.7.4-.6.4-.7.3-.6.4-.7.4-.7.4-.6.4-.7.4-.3.2-.4.2-.3.2-.4.2-.3.2-.3.2-.4.1-.3.2-.4.2-.3.2-.4.2-.3.2-.3.2-.4.2-.3.1-.4.2-.3.2-.4.2-.3.2-.4.1-.3.2-.4.2-.5.2-.4.3-.5.2-.4.2-.5.3-.5.2-.4.3-.5.2-.4.3-.5.2-.5.3-.5.2-.4.3-.5.3-.5.2-.5.3-.4.3-.5.2-.5.3-.5.3-.5.3-.5.3-.4.2-.5.3-.5.3-.5.3-.5.3-.5.3-.5.3-.5.3-.5.3-.5.3-.5.3-.5.4-.5.3-.5.3-.5.3-.5.3-.5.4-.5.3-.5.3-.5.4-.5.3-.5.3-.5.4-.5.3-.5.3-.5.4-.5.3-.5.4-.5.3-.5.4-.6.3-.5.4-.5.4-.5.3-.5.4-.5.4-.5.3-.6.4-.5.4-.5.3-.5.4-.5.4-.5.4-.6.3-.5.4-.5.4-.5.4-.5.4-.5.4-.6.4-.5.4-.5.4-.5.3-.5.4-.6.4-.5.4-.5.5-.5.4-.5.4-.6.4-.5.4-.5.4-.5.4-.5.4-.6.4-.5.4-.5.5-.5.4-.5.4-.6.4-.5.5-.5.4-.5.4-.5.4-.5.5-.6.4-.5.4-.5.5-.5.4-.5.4-.5.5-.6.4-.5.4-.5.5-.5.4-.5.5-.5.4-.5.5-.6.4-.5.5-.5.4-.5.5-.5.4-.5.5-.5.4-.5.5-.5.4-.5.5-.6.4-.5.5-.5.5-.5.4-.5.5-.5.4-.5.5-.5.5-.5.4-.5.5-.5.5-.5.4-.5.5-.5.5-.5.4-.5.5-.4.5-.5.5-.5.4-.5.5-.5.5-.5.5-.5.4-.5.5-.5.5-.4.5-.5.4-.5.5-.5.5-.5.5-.4.4-.5.5-.5.5-.5.5-.4.5-.5.5-.5.4-.5.5-.4.5-.5.5-.5.5-.4.5-.5.4-.4.5-.5.5-.5.5-.4.5-.5.5-.4.5-.5.4-.4.5-.5.5-.4.5-.5.5-.4.5-.4.5-.5.4-.4.5-.5.5-.4.5-.4.5-.5.5-.4.5-.4.5-.4.4-.5.5-.4.5-.4.5-.4.5-.4.5-.5.5-.4.5-.4.4-.4.5-.4.5-.4.5-.4.5-.4.5-.4.5-.4.4-.4.5-.4.5-.4.5-.4.5-.4.5-.3.4-.4.5-.4.5-.4.5-.3.5-.4.4-.4.5-.4.5-.3.5-.4.5-.3.4-.4.5-.4.5-.3.5-.4.4-.3.5-.4.5-.3.5-.3.4-.4.5-.3.5-.4.5-.3.4-.3.5-.3.5-.4.4-.3.5-.3.5-.3.4-.3.5-.3.4-.3.5-.4.5-.3.4-.3.5-.3.4-.2.5-.3.5-.3.4-.3.5-.3.4-.3.5-.2.4-.3.5-.3.4-.3.4-.2.5-.3.4-.2.5-.3.4-.2.5-.3.5-.3.5-.3.5-.3.5-.3.5-.2.5-.3.5-.3.5-.3.5-.2.5-.3.6-.3.5-.3.5-.2.5-.3.5-.3.5-.2.6-.3.5-.3.5-.2.5-.3.6-.3.5-.2.5-.3.5-.3.6-.2.5-.3.5-.2.6-.3.5-.3.5-.2.6-.3.5-.2.5-.3.6-.2.5-.3.6-.5 1-.5 1.1-.5 1.1-.5 1.1-.5 1-.5 1.2-.5 1-.5 1.2-.5 1-.5 1.2-1 2.2-1 2.2-1 2.2-.5 1.1-.5 1.1-.5 1.1-.5 1.2-.6 1-.5 1.2-.5 1-.5 1.2-.3.6-.2.5-.3.6-.3.5-.2.6-.3.5-.3.6-.2.5-.3.6-.3.6-.2.5-.3.6-.3.5-.2.6-.3.5-.3.6-.3.5-.2.6-.3.5-.3.6-.3.5-.3.6-.3.5-.2.6-.3.5-.3.6-.3.5-.3.6-.3.5-.3.6-.3.5-.3.6-.3.5-.3.6-.3.5-.3.5-.3.6-.3.5-.3.6-.3.5-.4.5-.3.6-.3.5-.3.5-.2.3-.2.3-.1.3-.2.3-.2.3-.2.3-.1.4-.2.3-.2.3-.1.3-.2.3-.2.3-.2.3-.1.3-.2.4-.2.3-.1.3-.2.3-.2.4-.1.3-.2.3-.1.4-.2.3-.2.3-.1.4-.2.3-.2.3-.1.4-.2.3-.1.4-.2.3-.2.4-.1.3-.2.4-.1.3-.2.4-.1.3-.2.4-.2.3-.1.4-.2.3-.1.4-.2.4-.1.3-.2.4-.1.3-.3.8-.3.7-.4.7-.3.8-.3.7-.3.8-.2.7-.3.8-.3.7-.3.8-.3.7-.3.8-.3.7-.3.8-.3.8-.6 1.5-.6 1.5-.5 1.5-.6 1.6-.6 1.5-.3.8-.3.7-.3.8-.3.7-.3.8-.3.7-.3.8-.3.7-.3.8-.3.7-.3.8-.3.7-.3.8-.3.7-.3.7-.1.4-.2.3V304H50v.4l-.1.1v.4l-.1.1v.2l-.1.3v.5l-.1.2v.3l-.1.3v.6l-.1.3v.3l-.1.3v.4l-.1.7h.9l.5.1 1.2.1 1.3.1 1.3.1 2.8.3 1.5.1 1.5.1.7.1h.8l.7.1.8.1h.8l.7.1.8.1h.7l.7.2h.8l.7.1h.7l.7.2h.7l.7.1.6.1h.7l.3.1h.3l.4.1h.3l.3.1h.6l.3.1h.3l.3.1h.2l.3.1h.3l.3.1h.2l.3.1h.3l.2.1.3.1h.3l.2.1.3.1h.3l.2.2h.3l.3.1.2.1h.1l.2.1h.2l.1.2h.2l.2.1.2.1.3.2.3.1.3.2.3.1.3.2.3.2.3.1.3.2.3.1.2.2.3.2.3.1.3.2.2.1.3.2.3.2.2.1.3.2.2.2.3.1.2.2.3.2.2.1.3.2.2.2.2.1.3.2.2.2.2.1.3.2.2.2.2.2.2.1.2.2.2.2.2.2.3.2.2.1.2.2.2.2.2.2.2.2.1.2.2.1.2.2.2.2.2.2.2.2.1.2.2.2.2.2.2.2.1.2.2.2.2.2.1.2.2.2.1.2.2.2.1.2.2.2.1.2.1.2.2.2.1.2.2.2v.2l.2.2.1.2.1.2.2.3v.2l.2.2.1.2.1.2.1.2.1.2.1.2.1.2.1.3v.2l.2.2v.2l.1.2.1.2.1.2v.2l.1.3.1.2v.2l.1.2.1.2v.2l.1.2v.2l.1.2v.2l.1.2v.2l.1.2v.4l.1.2v.4l.1.2v.4l.1.2v.8l.1.2v1.2l.1.2V341.3l-.1.5V345.7h5.7l1.4-.1 3-.1h4.4l.7-.1H123.2l.3.1h1.6l.3.1H126.6l.4.1h.7l.4.1h.8l.4.1h.4l.4.1h.8l.3.1h.4l.4.1h.4l.4.1.4.1h.4l.4.1h.4l.4.2h.8l.4.2h.4l.4.1.4.1h.4l.4.2h.4l.4.1.4.1.4.1.4.1.5.1.4.1.4.1.4.1.4.1.4.2h.4l.4.2.4.1.5.1.4.2h.4l.4.2.4.2.5.1h.2l.3.2.2.1.3.1.2.1.3.2.2.1.2.1.2.2.2.1.3.2.2.1.1.2.2.1.2.2.2.1.1.2.2.2.1.1.2.2.1.1.1.2.1.2.2.1v.2l.2.1v.2l.2.2.2.2.1.3.2.3.1.3.1.3.1.2.2.3v.2l.1.3.1.2.1.3v.2l.1.3.1.2v.2l.1.3v.2l.1.2v.5l.1.2v.2l.1.2v.7l.1.2v.7l.1.2v1.4l.1.2v9.1l-.1.5V373.9l-.1.5v.6l-.1 1.1v1.2l-.2 1.1-.1 2.4v1.1l-.1 1.2-.1 1.2v1.2l-.1.6v1.1l-.1.6v1.7l-.1.6V391.8l-.1.6V402.4l.1.2v.9l.1.2v.7l.1.2v.1H153.5l.2-.1H154.3l.2-.1h.5l.4-.2h.4l.5-.1h.4l.5-.2h.5l.4-.1.5-.1.4-.1.5-.1h.5l.4-.2h.5l.4-.2h.5l.9-.2.8-.2.8-.2.8-.2.8-.1.7-.2h.3l.4-.1h.3l.3-.1h.3l.3-.1.3-.1h.6l.2-.1H170.5l.6-.2H172.4l.7-.1h.6l.7-.1h.6l.7-.1h.7l.6-.1h.7l.6-.1h.7l.6-.1H181l.7-.1H182.9l.7-.1H184.9l.6-.1H186.8l.7-.1H189.5l1.3-.1h1.3l1.3-.1h2.6l1.3-.1h1.3l2.6-.1 2.6-.1h2.6l1.3-.1h1.3l1.2-.1h2l.6-.1H214.1l.6-.1h1.9l.7-.1h1.2l.7-.1h1.2l.7-.1h.6l.6-.1H223.6l.6-.1h.6l.7-.1h.6l.6-.1h.6l.6-.1h.7l.6-.2h1.2l.6-.1.6-.1h.7l.6-.1.6-.1h.6l.6-.2h.6l.6-.1h.6l.6-.2h.6l.6-.1.6-.1.6-.1.6-.1.6-.1.6-.1.6-.1.6-.1.6-.1.6-.1.6-.1.3-.1h.3l.3-.1h.3l.3-.1.3-.1h.2l.3-.1h.3l.3-.1.3-.1h.3l.3-.1.3-.1h.3l.3-.1.3-.1h.2l.3-.1.3-.1h.3l.3-.2h.5l.3-.2h.4l.8-.2 1-.2 1-.3 1.2-.2 2.8-.6 3-.7 3.5-.7 1.7-.4 1.8-.4 1.8-.4 1.9-.4 1.8-.4 1.8-.4 1.7-.4.9-.2.8-.1.8-.2.8-.2.8-.2.8-.2.8-.1.7-.2.7-.2-.1-.6-.2-1-.1-.5-.2-.5v-.5l-.1-.2v-.3l-.1-.2v-.5l-.1-.2v-.2l-.1-.3v-.5l-.1-.3v-5.2l.1-.4v-.8l.1-.4v-.4l.1-.4v-.8l.1-.4.1-.4v-.4l.1-.3v-.4l.1-.4.1-.4v-.4l.1-.3.1-.4v-.4l.2-.4v-.3l.1-.4.1-.4.1-.3.1-.4v-.4l.2-.3v-.4l.2-.3v-.4l.2-.4v-.3l.2-.4v-.3l.2-.4.1-.3.1-.4.1-.3.1-.3.2-.4v-.3l.2-.4.1-.3.1-.3.2-.4v-.3l.2-.4.1-.3.2-.3.1-.3.1-.4.2-.3.1-.3.1-.4.2-.3.1-.3.2-.3v-.4l.2-.3.2-.3.1-.3.2-.3.1-.4.2-.3.1-.3.1-.3.2-.3.1-.3.2-.4.1-.3.2-.3.2-.3.3-.6.3-.6.3-.7.3-.6.3-.6.3-.6.3-.6.3-.6.4-.7.6-1.2.7-1.2.6-1.3.3-.6.4-.6.3-.7.3-.6.3-.6.3-.6.4-.7.3-.6.2-.4.2-.4.2-.4.2-.3.2-.4.2-.4.2-.3.2-.4.2-.4.2-.3.2-.4.2-.4.2-.3.2-.4.2-.4.2-.3.2-.4.2-.3.3-.4.2-.3.2-.4.2-.3.2-.4.3-.4.2-.3.2-.3.3-.4.2-.3.2-.4.3-.3.2-.4.2-.3.3-.4.2-.3.2-.3.3-.4.2-.3.3-.3.2-.4.3-.3.2-.3.3-.4.2-.3.3-.3.2-.4.3-.3.2-.3.3-.3.3-.3.2-.4.3-.3.3-.3.2-.3.3-.3.3-.4.2-.3.3-.3.3-.3.2-.3.3-.3.3-.3.3-.3.2-.3.3-.3.3-.3.3-.3.3-.3.3-.3.2-.3.3-.3.3-.3.3-.3.3-.3.3-.3.3-.3.3-.3.3-.3.3-.3.3-.3.3-.3.3-.2.3-.3.3-.3.3-.3.3-.3.3-.2.3-.3.3-.3.3-.3.3-.2.3-.3.3-.3.3-.3.4-.2.3-.3.3-.3.3-.2.3-.3.3-.3.4-.2.3-.3.3-.2.3-.3.3-.3.4-.2.3-.3.3-.2.3-.3.4-.2.3-.3.3-.2.4-.3.3-.2.3-.3.4-.2.3-.2.3-.3.4-.2.3-.3.4-.2.3-.2.3-.3.4-.2.3-.2.4-.3.3-.2.3-.2.4-.3.3-.2.4-.2.3-.2.4-.3.3-.2.4-.2.3-.2.4-.2.3-.3.4-.2.3-.2.4-.2.4-.2.3-.2.4-.2.3-.2.4-.3.3-.2.4-.2.4-.2.3-.2.4-.2.4-.2.3-.2.4-.2.4-.2.3-.2.4-.2.4-.1.3-.2.4-.2.4-.2.3-.2.4-.2.4-.2.3-.2.4-.1.4-.2.4-.2.3-.2.4-.2.4-.1.4-.2.3-.2.4-.2.4-.1.4-.2.4-.2.3-.1.4-.2.4-.2.4-.1.4-.2.3-.1.4-.2.4-.2.4-.1.4-.2.4-.1.4-.2.3-.1.4-.2.4-.1.4-.2.4-.1.4-.2.4-.1.4-.2.4-.1.3-.2.4-.1.4-.1.4-.2.4-.1.4-.1.4-.2.4-.1.4-.1.4-.2.4-.1.4-.1.4-.2h.4l.4-.2.4-.1.4-.1.4-.2h.4l.4-.2.4-.1.4-.1.4-.1.4-.1.4-.2h.4l.4-.2h.4l.4-.2h.4l.4-.2h.4l.4-.2h.4l.4-.2h.4l.4-.2h.4l.4-.2h.4l.4-.1.4-.1.4-.1.4-.1h.4l.4-.2h.4l.5-.1.4-.1h.4l.4-.2h.4l.4-.1h.4l.4-.2h.8l.4-.2h.9l.4-.2h.8l.4-.1h.4l.4-.1.4-.1h.4l.4-.1h.5l.4-.1h.4l.4-.1h.8l.4-.1h.4l.4-.1h.9l.4-.1h.8l.4-.1h.8l.4-.1h1.3l.4-.1h1.6l.5-.1H408.6l.4.1h1.3l.4.1h.8l.4.1h.8l.4.1h.8l.4.1h.4l.5.1h.4l.4.1h.8l.4.1.4.1h.4l.4.1h.4l.4.1h.4l.4.1.4.1h.4l.4.1.4.1h.4l.4.1.4.1h.4l.4.2h.4l.4.1h.4l.4.2h.4l.4.1.4.1.4.1h.4l.4.2h.4l.4.2h.4l.4.2h.4l.4.2h.4l.4.2h.4l.4.2h.3l.4.2h.4l.4.2.4.1.4.1.4.1.4.2h.4l.3.2.4.1.4.1.4.2h.4l.4.2.4.2h.3l.4.2.4.1.4.2.4.1.3.2.4.1.4.1.4.2.4.1.3.2.4.1.4.2.4.1.3.2.4.1.4.2.4.2.3.1.4.2.4.1.3.2.4.2.4.1.3.2.4.2.4.2.4.1.3.2.4.2.3.2.4.1.4.2.3.2.4.2.3.2.4.2.4.2.3.2.4.2.3.1.4.2.3.2.4.2.3.2.4.3.3.2.4.2.3.2.4.2.3.2.4.2.3.2.4.2.3.3.4.2.3.2.3.2.4.3.3.2.4.2.3.2.3.3.4.2.3.2.3.3.4.2.3.3.3.2.4.3.3.2.3.2.3.3.4.2.3.3.3.3.3.2.3.3.4.2.3.3.3.3.3.2.3.3.3.3.4.2.3.3.3.3.3.2.3.3.3.3.3.3.3.3.3.2.3.3.3.3.3.3.3.3.3.3.3.3.3.3.3.3.3.3.3.3.3.3.2.3.3.3.3.3.3.3.3.3.3.3.2.3.3.4.3.3.3.3.3.3.2.3.3.4.3.3.2.3.3.3.3.4.6.7.6.8.6.8.6.7.6.8.6.7.6.8.6.8.6.8.6.7.6.8.6.8.6.8.6.7.6.8.5.8.6.8.6.8.6.8.6.7.3.4.2.4.3.4.3.4.3.4.3.4.3.4.3.4.2.4.3.4.3.4.3.4.3.4.3.4.2.5.3.4.3.4.3.4.2.4.3.4.3.4.3.4.2.4.3.4.3.4.3.4.2.4.3.5.3.4.2.4.3.4.3.4.2.4.3.4.2.5.3.4.3.4.2.4.3.4.2.4.3.5.2.4.3.4.3.4.2.5.3.4.2.4.3.4.2.4.2.5.3.4.2.4.3.5.2.4.3.4.2.4.2.5.3.4.2.4.2.5.3.4.2.4.2.5.3.4.2.4.2.5.2.4.2.5.3.4.2.4.2.5.2.4.2.5.2.4.3.5.2.4.2.4.2.5.2.4.2.5.2.4.2.5.2.4.2.5.2.4.2.5.2.4.2.5.2.5.1.4.2.5.2.4.2.5.2.4.2.5.1.5.2.4.2.5.2.5.1.4.2.5.2.4.1.5.2.5.1.5.2.4.2.5.1.5.2.4.1.5.2.5.1.5.2.4v.5l.2.5.2.5.1.4.1.5.2.5.1.5.1.5.2.4v.5l.2.5.1.5.1.5.1.5.2.5v.5l.2.4v.5l.2.5v.5l.2.5v.5l.2.5v.5l.1.5.1.5.1.5.1.5v.5l.2.5v.5l.1.5v.5l.1.5.1.5v.5l.1.5v.5l.1.6v.5l.1.5v.5l.1.5v1l.1.5v1.1l.1.5v2.1l.1.5v6.3l-.1.6v1.6l-.1.5v.5l-.1.6v.5l-.1.5v.6l-.1.5v.6l-.1.5-.1.6v.5l-.1.5-.1.6v.5l-.2.6v.5l-.1.6-.1.5-.1.6-.1.5-.1.6-.1.5-.1.6-.1.5-.1.6-.2.5v.6l-.2.6-.1.5-.2.6v.5l-.2.6-.2.6v.4l-.1.2-.1.3v.2l-.1.2v.2l-.2.3v.2l-.1.2v.3l-.2.2v.2l-.1.3v.2l-.2.3v.2l-.1.2-.1.3-.1.2-.1.3-.1.2v.3l-.2.2v.2l-.2.3v.2l-.2.3v.2l-.2.3-.1.2-.1.3-.1.3-.1.2-.2.3v.2l-.2.3-.1.2-.1.3-.1.3-.2.2-.1.3-.1.3-.2.2v.3l-.2.3-.2.2-.1.3-.1.3-.2.2-.1.3-.2.3-.1.3-.2.2-.1.3-.2.3-.1.3-.2.3-.1.2-.2.3-.2.3-.1.3-.2.3-.2.3-.1.2-.2.3-.2.3-.1.3-.2.3-.2.3-.2.3-.2.3-.1.3-.2.3-.2.3-.2.3-.2.3-.2.3-.2.3-.2.3-.2.3-.2.3-.2.3-.2.3-.2.3-.2.3-.2.3-.2.3-.3.3-.2.3-.2.3-.2.3-.2.3-.3.3-.2.4-.2.3-.3.3-.2.3-.2.3-.3.3-.2.4-.3.3-.2.3-.3.3-.2.3-.3.4-.2.3-.3.3-.2.3-.3.3-.2.4-.3.3-.3.3-.2.3-.3.4-.3.3-.3.3-.2.4-.3.3-.3.3-.3.4-.3.3-.3.3-.2.3-.3.4-.3.3-.3.4-.3.3-.2.1-.1.2-.3.3-.3.3-.3.3-.3.3-.3.3-.3.3-.3.4-.3.3-.3.3-.3.3-.3.3-.3.3-.4.3-.3.3-.3.3-.4.2-.3.3-.3.3-.4.3-.3.3-.3.3-.4.3-.3.3-.4.3-.3.3-.4.3-.4.2-.3.3-.4.3-.3.3-.4.3-.3.3-.4.2-.4.3-.3.3-.4.3-.4.3-.4.2-.3.3-.4.3-.4.3-.3.2-.4.3-.4.3-.4.2-.3.3-.4.3-.4.2-.4.3-.3.3-.4.2-.4.3-.4.3-.3.2-.4.3-.4.2-.3.3-.4.2-.4.3-.4.2-.3.3-.4.2-.4.3-.7.4-.7.5-.7.5-.7.4-.7.5-.7.4-.7.5-.7.4-.7.4-.6.4-.6.4-.7.4-.6.4-.6.3-.6.4-.5.3-.6.4-.5.3-.5.3-.5.3-1 .6-.8.5-1.5.8-.5.3-.5.3-.3.2-.3.2-.3.1-.3.2-.3.2-.4.2-.3.2-.3.1-.3.2-.3.2-.4.1-.3.2-.3.1-.3.2-.4.2-.3.1-.3.2-.3.1-.3.1-.4.2-.3.1-.3.2h-.3l-.4.2-.3.1-.3.2h-.3l-.3.2-.4.1-.3.1-.3.2h-.3l-.3.2h-.4l-.3.2h-.3l-.3.2h-.3l-.4.2h-.3l-.3.2h-.3l-.3.1-.4.1-.3.1-.3.1h-.3l-.3.2h-.3l-.4.1h-.3l-.3.1-.3.1h-.3l-.3.1-.4.1h-.3l-.3.1h-.3l-.3.1h-.3l-.3.1h-.3l-.3.1h-.4l-.3.1h-.3l-.3.1h-.6l-.3.1h-.3l-.3.1H432l-.3.1h-.6l-.3.1H429.9l-.3.1H428l-.3.1h-2.4l-.5.1H417l-1-.1h-3.2l-1-.1h-3.6l-.5-.1H402.6l-.3.1H401l-.2.1H399.9l-.2.1h-.8l-.3.1h-.4l-.2.1h-.4l-.2.1H396.8l-.2.1h-.2l-.2.1h-.4l-.2.1h-.2l-.2.1h-.2l-.2.1h-.4l-.2.1h-.2l-.2.1h-.2l-.2.1-.2.1h-.1l-.2.1h-.2l-.2.1h-.2l-.2.1-.2.1h-.2l-.1.1-.2.1h-.2l-.2.1-.2.1h-.2l-.1.2h-.2l-.2.1h-.2V504.5h-.1v.2l-.1.1v.1l-.1.1-.1.1v.2l-.1.1v.1l-.2.3-.1.3-.1.3-.2.3v.3l-.2.3-.1.3-.2.4-.1.3-.1.3-.2.4-.1.3-.1.4-.3.7-.5 1.5-.3.7-.2.4-.1.4-.1.3-.2.4-.1.4-.2.3-.1.4-.2.4-.1.3-.2.4-.1.3v.2l-.2.2v.2l-.1.1-.1.2-.1.2v.2l-.2.1v.2l-.1.2-.1.2-.1.1-.1.2-.1.2-.1.2-.2.2v.2l-.2.2-.1.2-.2.2-.1.2-.1.1-.2.3-.2.2-.1.2-.2.2-.2.3-.1.2-.2.2-.1.2-.2.2-.2.3-.3.4-.3.5-.3.5-.4.4-.3.5-.3.5-.3.5-.4.5-.3.5-.3.5-.3.5-.4.5-.3.5-.3.5-.3.6-.4.5-.3.5-.3.6-.3.5-.4.6-.3.5-.3.6-.3.5-.4.6-.3.5-.3.6-.3.6-.4.6-.3.5-.3.6-.3.6-.4.6-.3.6-.3.6-.3.6-.4.6-.3.6-.3.6-.3.6-.3.6-.4.6-.3.6-.3.6-.3.6-.3.6-.3.6-.4.7-.3.6-.3.6-.3.6-.3.7-.3.6-.3.6-.4.7-.3.6-.3.6-.3.7-.3.6-.3.6-.3.7-.3.6-.3.6-.3.7-.3.6-.3.7-.3.6-.3.6-.3.7-.3.6-.3.7-.3.6-.3.6-.3.7-.3.6-.3.7-.3.6-.3.6-.6 1.3-.5 1.3-.6 1.3-.6 1.2-.5 1.3-.6 1.3-.5 1.2-.6 1.3-.5 1.2-.6 1.2-.5 1.3-.5 1.2-.6 1.2-.5 1.2-.5 1.2-.5 1.2-.5 1.1-1 2.3-1.9 4.5-.2.5-.2.5-.2.4-.3.5-.2.5-.2.5-.2.5-.2.5-.3.5-.2.4-.2.5-.2.5-.3.5-.2.5-.2.4-.3.5-.2.5-.2.5-.3.4-.2.5-.3.5-.2.4-.2.5-.3.5-.2.4-.3.5-.2.5-.3.4-.2.5-.3.4-.2.5-.2.5-.3.4-.2.5-.3.4-.2.5-.5.9-.6 1-.5.8-.5 1-.5.8-.5 1-.5.8-.5.9-1 1.8-1 1.7-1 1.8-.5.9-.5.9-.5.8-.5 1-.5.8-.5.9-.5.8-.5 1-.2.4-.2.4-.3.4-.2.5-.3.4-.2.4-.2.5-.3.4-.2.4-.2.5-.2.4-.3.4-.2.5-.2.4-.2.4-.3.5-.2.4-.2.4-.2.5-.2.4-.3.4-.2.5-.2.4-.2.5-.2.4-.2.4-.2.5-.2.4-.2.4-.2.5-.2.4-.2.4-.2.5-.2.4-.2.4-.2.5-.2.4-.2.5-.2.4-.2.4-.1.5-.2.4-.2.4-.2.5-.1.4-.2.5-.2.4-.1.5-.2.3-.1.4-.2.4-.1.4-.2.4-.1.4-.2.4-.1.4-.2.4-.1.5-.1.4-.2.4-.3.8-.2.8-.3.8-.3.8-.3.8-.2.8-.3.9-.3.8-.2.8-.3.8-.3.9-.2.8-.3.8-.2.8-.3.9-.3.8-.2.9-.3.8-.2.8-.3.9-.5 1.7-.5 1.6-.5 1.7-.5 1.7-.5 1.7-.5 1.7-.3.9-.3.8-.2.9-.3.8-.3.9-.2.9-.3.8-.3.9-.2.8-.3.9-.3.8-.2.9-.3.9-.3.8-.3.9-.3.8-.3.9-.3.9-.3.8-.3.9-.1.4-.2.4-.1.5-.2.4-.1.4-.2.5-.1.4-.2.4-.1.4-.2.5-.2.4-.1.4v.2l-.1.2-.1.2-.1.3-.2.4v.4l-.2.4-.2.4-.1.5-.2.5-.2.6-.2.6-.2.6-.2.6-.4 1.3-.4 1.4-.5 1.5-.5 1.5-.5 1.6-.4 1.6-.6 1.6-.5 1.6-.5 1.7-.2.8-.3.8-.2.8-.2.8-.3.8-.2.8-.3.8-.2.8-.2.7-.2.8-.2.7-.2.7-.2.7-.2.7-.2.6-.2.6-.1.6-.2.6h.2l.1.1.2.1h.1l.2.1.2.1h.2l.1.1.2.1h.2l.2.1.2.1h.2l.2.2h.4l.2.2h.2l.2.1h.2l.3.1.2.1h.2l.3.2h.4l.3.2h.2l.3.1h.2l.3.1.2.1h.3l.3.2h.2l.3.1h.3l.3.1.2.1h.3l.3.2h.3l.3.1h.3l.6.2.6.2h.6l.6.2.7.2.6.1.7.2h.6l.7.2.7.2.7.1.7.1.7.2.7.1.8.1.7.2.8.1.7.1.8.2.8.1.8.1.8.2h.8l.8.2.8.1.8.2h.8l.9.2.8.1.9.2h.9l.8.2.9.1.9.1.9.2h.9l.9.2.9.1.9.1 1 .1.8.1 1 .2h1l.9.2h1l.9.2h1l.9.2h1l1 .2 1 .1 1 .1h1l1 .2h1l1 .2h1l1 .2h1l1 .1 1 .1 1 .1 1 .1 1.1.1h1l1.1.2h1l1.1.1 1 .1h1.1l1 .2h1.1l1.1.1h1l1.1.2h2.2l1 .2h2.2l1.1.1 1.1.1h1.1l1 .1h1.2l1 .1h1.2l1 .1 1.2.1h1l1.1.1h2.2l1.1.1h1.1l1.1.1h2.3l1 .1h1.2l1 .1H395.8l1 .1H400.2l1 .1h5.5l1.1.1h18.1l1.1-.1h3.1l1-.1h2l1.1-.1h2l1-.1h2l1-.1h1l1-.1h1l1-.1h.9l1-.1.9-.1h1l.9-.1h1l.8-.2h1.9l.9-.2h.9l.9-.1h.9l.9-.2h.8l1-.1.8-.1.8-.1h.9l.8-.2h.9l.8-.2h.8l.4-.1h.4l.4-.1h.4l.4-.1h.4l.4-.1h.4l.4-.1h.4l.4-.1h.3l.4-.1.4-.1h.4l.3-.1h.4l.4-.1h.4l.3-.1.4-.1h.3l.4-.1h.4l.3-.1.4-.1h.3l.4-.1.3-.1h.3l.4-.1h.3l.3-.2h.7l.3-.2h.7l.3-.2h.6l.3-.2h.3l.3-.1h.3l.3-.1.3-.1h.3l.3-.2h.3l.3-.1h.3l.3-.1.2-.1h.3l.3-.2h.2l.3-.1h.3l.2-.2h.3l.2-.1h.3l.2-.2h.3l.2-.1h.2l.3-.2h.2l.3-.2h.3l.3-.1.3-.1.3-.1h.3l.3-.2h.3l.3-.1.4-.1.3-.1h.3l.4-.2h.3l.4-.1.3-.1.4-.1.8-.2.7-.1.8-.2.8-.2.9-.2.8-.2.9-.2 1.8-.4 1.8-.4 1-.2 1-.2.9-.2 1-.2 1-.2 1-.2.9-.3h.5l.5-.2.5-.1.5-.1.5-.1.4-.2h.5l.5-.2.5-.1.5-.1.5-.2h.5l.5-.2.4-.1.5-.2h.5l.5-.2.4-.1.5-.2h.5l.4-.2.5-.1.4-.2.5-.1.4-.1.5-.2.4-.1.4-.1.5-.2.4-.1.4-.1.4-.2.4-.1.4-.1.4-.2.4-.1.3-.1.4-.2.4-.1h.2l.1-.1.2-.1h.2l.1-.1.2-.1h.2l.1-.1.2-.1h.1l.2-.1.2-.1h.1l.1-.1.2-.1h.1l.2-.1h.1l.1-.2H529.4l.1-.1.2-.1.2-.1h.1l.1-.1h.1l.1-.2h.2l.1-.1h.1v-.1h.2v-.1h.1l.1-.1.1-.1h.1l.1-.1v-.1l.2-.1V732.8l.1-.2v-.1l.1-.2.1-.1v-.2l.1-.1v-.2l.1-.2v-.1l.1-.2v-.2l.1-.1v-.2l.1-.2v-.1l.1-.2v-.2l.1-.2V729.5l.1-.2v-.2l.1-.2V728.6l.1-.2V727.8l.1-.2V727.3l.1-.2v-.8l.1-.2v-1.2l.1-.2V720.3l-.1-.2V719.4l-.1-.2v-.5l-.1-.2v-.5l-.1-.2V717.5l-.1-.2V717l-.1-.1V716.6l-.1-.2V716.1l-.1-.1v-.1l-.1-.2v-.2l-.1-.1v-.2l-.1-.2v-.1l-.1-.1v-.2l-.1-.1v-.1l-.1-.1v-.1l-.1-.2v-.1h-.1v-.2h-.1v-.1l-.3-.4-.2-.5-.2-.5-.1-.3-.1-.2v-.3l-.1-.2-.1-.3-.1-.3-.1-.3-.2-.7-.3-.8-.3-1-.3-1-.3-1.1-.3-1.2-.4-1.3-.4-1.3-.4-1.4-.4-1.4-.4-1.4-.4-1.4-.4-1.4-.4-1.5-.4-1.4-.4-1.4-.3-1.3-.2-.7-.2-.7-.2-.6-.1-.6-.2-.6-.2-.6-.1-.6-.1-.5-.2-.6-.1-.5-.1-.5-.2-.4v-.5l-.2-.4v-.4l-.1-.4-.1-.3v-.2l-.1-.2v-.4l-.1-.2v-.4l-.1-.3v-1l-.1-.3v-1.2l-.1-.2V673l.1-.2v-.3l.1-.3.1-.3.1-.4.1-.4.2-.5.3-.5.3-.6.3-.4.2-.3.3-.4.3-.3.3-.3.1-.1.2-.2.2-.2.2-.1.1-.2.2-.1.2-.2.2-.2.1-.1.2-.2.2-.1.2-.2.2-.1.2-.2.1-.2.2-.1.2-.2.2-.1.2-.2.2-.1.2-.1.2-.2.2-.1.1-.2.2-.1.2-.2.2-.1.2-.1.2-.2.2-.1.2-.1.2-.2.2-.1.2-.2h.2l.2-.2.2-.2h.2l.2-.2.2-.1.2-.2.2-.1.2-.1.4-.3.4-.2.4-.3.5-.2.4-.3.4-.2.4-.3.4-.2.5-.2.4-.3.4-.2.4-.2.5-.3.4-.2.4-.2.5-.2.4-.2.4-.3.5-.2.4-.2.4-.2.5-.2.4-.3.4-.2.5-.2.4-.2.5-.2.4-.2.4-.2.5-.2.9-.4.9-.5.8-.4 1-.4 1.7-.8.8-.4 1-.4.8-.4.8-.4.9-.4.4-.2.4-.2.5-.2.4-.2.4-.2.4-.2.4-.2.4-.2.4-.2.4-.2.5-.2.4-.2.4-.2.3-.2.4-.2.4-.2.4-.2.4-.2.4-.2.4-.2.3-.2.4-.2.4-.3.3-.2.4-.2.3-.2.4-.2.3-.2.4-.2.3-.2.4-.2.1-.1.2-.1-.2-.3-.3-.3-.3-.4-.3-.3-.4-.4-.3-.3-.3-.4-.3-.3-.4-.4-.3-.4-.3-.3-.4-.4-.3-.4-.4-.4-.3-.4-.4-.3-.3-.4-.4-.4-.3-.4-.4-.4-.3-.5-.4-.4-.4-.4-.3-.4-.4-.4-.3-.5-.4-.4-.4-.4-.3-.5-.4-.4-.3-.4-.4-.5-.3-.4-.4-.5-.4-.4-.3-.5-.4-.4-.3-.5-.4-.5-.3-.4-.4-.5-.3-.4-.3-.5-.4-.5-.3-.5-.4-.4-.3-.5-.3-.5-.2-.2-.2-.3-.1-.2-.2-.2-.1-.3-.2-.2-.2-.3-.1-.2-.2-.2-.1-.3-.2-.2-.1-.3-.2-.2-.1-.3-.2-.2-.2-.2-.1-.3-.2-.2-.1-.3-.1-.2-.2-.3-.1-.2-.2-.3-.1-.2-.2-.3-.1-.2-.1-.2-.2-.3-.1-.2-.2-.3v-.2l-.2-.3-.2-.2v-.3l-.2-.2-.1-.3-.2-.2v-.3l-.2-.2-.1-.3-.2-.2v-.3l-.2-.3-.1-.2-.1-.3-.1-.2-.1-.3-.2-.2v-.3l-.2-.2v-.3l-.2-.2v-.3l-.2-.3v-.2l-.2-.3v-.2l-.1-.3-.1-.3-.1-.2-.1-.3-.1-.3v-.2l-.2-.3v-.2l-.1-.3v-.3l-.1-.2-.1-.3v-.3l-.1-.3-.1-.2v-.3l-.1-.3v-.3l-.1-.2v-.3l-.1-.3v-.5l-.1-.3v-.6l-.1-.3V598.4l.1-.3v-.3l.1-.3v-.3l.2-.3v-.4l.1-.2V596l.1-.1v-.2l.1-.1v-.2l.1-.1v-.2l.1-.1v-.2l.1-.1v-.2l.1-.1v-.2l.1-.1.1-.2v-.1l.1-.2.1-.1v-.2l.1-.1.1-.2v-.1l.2-.1v-.2l.1-.1v-.2l.2-.1v-.2l.1-.1.1-.1.1-.2.1-.1v-.2l.2-.1v-.1l.2-.2v-.1l.2-.1v-.2l.2-.1v-.1l.2-.2.2-.2v-.1l.2-.2.1-.1.1-.1.1-.1.1-.2h.1l.2-.2.1-.1.2-.2.2-.2.2-.2.3-.2.2-.2.2-.2.2-.1.2-.2.2-.1.2-.2h.2l.3-.2.2-.1.2-.2h.2l.2-.2h.2l.2-.2h.2l.2-.2h.2l.2-.2h.2l.2-.1.2-.1.2-.1h.2l.2-.2h.1l.2-.1h.2l.2-.2h.4l.2-.2h.4l.2-.2h.4l.4-.2.3-.1.4-.1.4-.1.4-.1.4-.1.4-.1.4-.1.3-.1.4-.1.4-.1.4-.1h.3l.4-.2.8-.1.7-.2.7-.2.7-.1.6-.2h.4l.3-.1.3-.1h.3l.3-.1.3-.1h.2l.3-.1.2-.1h.3l.2-.1.2-.1H566.7l.1-.1h.1l.2-.1h.2v-.1h.2l.1-.1h.2v-.1h.2l.1-.1.1-.1h.2v-.1h.2l.1-.1.2-.1.2-.1.1-.1h.2v-.2h.2l.1-.1h.2l.1-.2h.1l.2-.1h.1l.1-.2h.2v-.1l.2-.1.2-.1h.1l.1-.2h.2v-.2l.4-.1.2-.2.3-.2.3-.2.3-.2.3-.2.2-.2.3-.2.3-.2.3-.3.3-.2.3-.2.3-.2.3-.3.6-.4.6-.5.6-.5.6-.5.6-.4.4-.3.3-.2.3-.3.3-.2.4-.3.3-.2.3-.3.4-.2.3-.3.4-.2.3-.2.4-.3.3-.2.2-.1.2-.2h.2l.1-.2.2-.1.2-.1.2-.2h.2l.2-.2.2-.1.2-.1.2-.1.1-.1.2-.2h.2l.2-.2h.2l.2-.2.2-.1.2-.1.3-.1.3-.2.3-.1.5-.2.4-.2h.5l.4-.2h.8l.3-.1h1.7l.3.1h.2l.4.1.3.1.4.1.3.1.2.1.3.1.2.1.3.1.2.2h.2l.2.2h.2l.2.2h.2l.2.2h.1l.2.2.2.1.2.1.2.1.1.1.2.1.2.2h.2l.1.2.2.1.2.1.2.2.1.1.2.1.2.2h.2l.2.2.2.2.3.2.4.3.4.3.4.3.4.4.4.3.4.3.4.4.5.3.4.4.4.3.5.4.4.4.5.4.5.4.4.4.5.4.5.4.5.4.5.4.5.5.5.4.5.5.5.4.5.5.5.4.5.5.6.5.5.5.5.5.6.4.5.5.6.5.5.5.5.5.6.5.5.6.6.5.6.5.5.5.6.5.5.5.6.6.5.5.6.5.6.6.5.5.6.5.5.5.6.6.6.5.5.5.6.6.5.5.6.5.5.6.6.5.5.5.6.6.5.5.5.5.6.5.5.6.5.5.5.5.6.5.5.5.5.5.5.5.5.5.5.5.5.5.4.5.5.5.5.5.5.4.4.5.5.5.4.4.5.5.4.4.4.5.4.4.4.4.4.4.4.5.4.4.4.4.4.4.3.4.4.3.3.4.4.4.3.3.3.4.3.3.3.4.3.3.3.3.2.3.3.3.3.3.2.3.2.3.3.3v.1l.2.2.1.1v.1l.1.1h.1v.2h.1l.1.2h.1l.1.2.1.1.3.4.3.3.3.4.3.3.4.5.4.4.4.5.4.5.5.5.4.5.5.5.5.6.6.6.5.6.5.5.6.7.6.6.6.6.3.3.3.3.3.3.3.4.3.3.3.3.3.3.3.3.4.4.3.3.3.3.3.3.3.4.3.3.4.3.3.3.3.3.3.4.4.3.3.3.3.3.3.3.4.3.3.3.3.3.3.3.3.3.4.3.3.3.3.3.3.3.3.3.3.3.3.3.3.2.3.3.4.3.3.2.2.3.3.2.3.3.3.2.3.3.3.2.3.2.2.2.3.2.3.3.2.1.3.2.2.2.2.2.3.2h.1l.1.1.1.1h.1l.1.2h.1l.1.1h.1l.1.1.3-.1.5-.3.4-.2.5-.3.5-.2.4-.3.5-.2.5-.2.4-.3.5-.2.4-.2.5-.3.4-.2.4-.2.5-.3.4-.2.4-.2.4-.3.5-.2.4-.2.4-.3.4-.2.4-.2.4-.2.4-.3.4-.2.4-.2.4-.2.4-.3.4-.2.4-.2.4-.2.4-.3.3-.2.4-.2.4-.2.3-.2.4-.3.4-.2.3-.2.4-.2.3-.2.4-.3.3-.2.4-.2.3-.2.4-.2.3-.2.4-.3.3-.2.3-.2.3-.2.4-.2.3-.2.3-.3.3-.2.3-.2.4-.2.3-.2.3-.2.3-.2.3-.2.3-.3.3-.2.3-.2.3-.2.3-.2.3-.2.2-.2.3-.2.3-.3.3-.2.3-.2.2-.2.3-.2.3-.2.2-.2.3-.2.3-.3.2-.2.3-.2.3-.2.2-.2.3-.2.2-.2.3-.2.2-.3.3-.2.2-.2.3-.2.2-.2.2-.2.3-.2.2-.3.2-.2.3-.2.2-.2.2-.2.3-.2.2-.3.2-.2.2-.2.2-.2.3-.2.2-.2.2-.3.2-.2.2-.2.2-.2.2-.3.2-.2.2-.2.3-.2.2-.2.2-.3.2-.2.2-.2.2-.2.2-.3.1-.2.2-.2.2-.3.2-.2.2-.2.2-.3.2-.2.2-.2.2-.3.2-.2.1-.2.2-.3.2-.2.2-.3.2-.2.1-.2.2-.3.2-.2.2-.3.2-.2.1-.3.2-.2.2-.3.1-.2.2-.3.2-.2.2-.3.1-.3.2-.2.2-.3.1-.2.2-.3.2-.3.1-.2.2-.3.2-.3.1-.2.2-.3.1-.3.2-.3.2-.2.1-.3.2-.3.1-.3.2-.3.2-.3.1-.2.2-.3.1-.3.2-.3.2-.3.1-.3.2-.3.1-.3.2-.3.1-.3.2-.3.1-.3.2-.3.1-.4.2-.3.1-.3.2-.3.2-.3.1-.4.2-.3.1-.3.2-.3.1-.4.2-.3.1-.3.2-.4.1-.3.2-.3.1-.4.2-.3.1-.4.2-.3.1-.4.2-.3.1-.4.2-.4.1-.3.2-.4.1-.4.2-.3.1-.4.2-.4.1-.4.2-.3.1-.4.2-.4.1-.4.2-.4.1-.4.2-.4.1-.4.2-.3.3-.9.3-.8.3-.8.3-.8.3-.9.3-.8.3-1 .3-.8.3-.9.3-.9.3-.9.4-1 .3-.8.3-1 .3-1 .4-1 .3-.8v-.5l.1-.2V571.5l.1-.2v-.4l.1-.2.1-.5.1-.5.1-.5.1-.6.1-.6.1-.6.1-.7.1-.7.1-.7.1-.7.2-.7v-.8l.2-.8.1-.7.1-.9.1-.8.1-.8.2-.8v-.9l.2-.8.1-.9.1-.8.1-.9.2-.8v-.9l.2-.8v-.9l.2-.8v-.9l.2-.8v-.8l.2-.8v-.8l.2-.7v-.8l.1-.7.1-.7v-.7l.1-.7.1-.6v-.5l-.2-.1-.7-.3-.7-.3-.8-.3-.8-.3-.8-.3-.9-.3-.9-.4-.9-.3-.9-.3-1-.4-1-.4-.9-.3-2-.8-2-.7-2.2-.8-4.2-1.6-2-.7-2.2-.8-2-.8-1-.3-1-.4-1-.4-1-.3-.9-.4-.9-.3-.9-.4-.9-.3-.8-.3-.8-.3-.8-.3-.8-.3-.7-.3-.7-.3-.3-.1-.4-.2h-.3l-.3-.2-.3-.1-.3-.2h-.3l-.2-.2-.3-.1-.3-.1-.2-.1-.3-.2h-.2l-.3-.2h-.2l-.2-.2-.7-.3-.6-.4-.7-.3-.6-.3-.7-.3-.6-.3-.7-.3-.7-.4-.6-.3-.7-.3-.6-.3-.7-.3-.6-.3-.7-.3-.7-.3-.6-.3-.7-.3-.6-.3-.7-.3-.7-.3-.6-.4-.7-.3-.7-.3-.6-.2-.7-.3-.7-.3-.6-.3-.7-.3-.7-.3-.6-.3-.7-.3-.7-.3-.7-.3-.6-.3-.7-.3-.7-.3-1.3-.5-1.4-.6-1.3-.6-1.4-.6-1.3-.5-1.4-.6-1.3-.6-1.4-.5-1.4-.6-1.3-.6-2.8-1.1-2.7-1.1-2.7-1.2-2.8-1.1-1.4-.6-1.3-.6-1.4-.5-1.4-.6-1.4-.6-1.3-.6-1.4-.5-1.4-.6-1.4-.6-1.3-.6-.7-.3-.7-.3-.7-.3-.7-.3-.7-.3-.6-.3-.7-.3-.7-.3-.7-.3-.7-.3-.7-.3-.7-.3-.7-.3-.6-.3-.7-.3-.7-.3-.7-.4-.7-.3-.7-.3-.7-.3-.6-.3-.7-.3-.7-.3-.7-.4-.7-.3-.7-.3-.6-.3-.7-.4-.7-.3-.7-.3-.7-.4-.6-.3-.7-.3-.7-.4-.7-.3-.7-.3-.4-.2-.3-.2-.4-.2-.4-.2-.3-.2-.4-.2-.4-.2-.3-.2-.4-.2-.4-.2-.3-.2-.4-.2-.3-.3-.4-.2-.3-.2-.3-.2-.4-.2-.3-.2-.7-.4-.7-.4-.6-.4-1.3-.8-.6-.4-.7-.4-.3-.2-.3-.2-.3-.2-.3-.2-.3-.1-.3-.2-.3-.2-.3-.2-.3-.1-.3-.2-.3-.2-.3-.1-.2-.2-.3-.1-.3-.2-.3-.1-.3-.2-.2-.1-.3-.2H590.6l-.1-.1-.1-.1h-.2l-.1-.1-.1-.1h-.2v-.1h-.2l-.1-.1h-.2v-.1h-.2l-.1-.1h-.2v-.1h-.2l-.1-.1h-.2v-.1h-.2l-.1-.1h-.2l-.2-.1h-.2l-.2-.2h-.2l-.2-.1h-.2l-.3-.1-.5-.2-.5-.2-.6-.1-1.1-.4-.7-.2-.6-.1-.3-.1-.3-.1-.3-.1-.4-.2h-.3l-.3-.2h-.4l-.3-.2-.4-.1-.3-.1-.3-.1-.4-.2h-.3l-.4-.2-.3-.1-.4-.2-.3-.1-.4-.2-.4-.1-.3-.1-.4-.2-.3-.1-.2-.1-.2-.1h-.2l-.1-.2h-.2l-.2-.1-.2-.1-.1-.1-.2-.1h-.2l-.2-.2h-.2l-.1-.2h-.2l-.2-.2h-.2l-.2-.2h-.1l-.2-.2h-.2l-.2-.2h-.1l-.2-.2-.2-.1-.2-.1-.2-.1-.1-.2h-.2l-.2-.2-.2-.1-.1-.1-.2-.2-.2-.1-.2-.1-.1-.2-.2-.1-.2-.2-.2-.1-.1-.2-.2-.1-.2-.2-.1-.1-.2-.2-.2-.2-.2-.2-.3-.3-.2-.3-.2-.3-.2-.3-.2-.3-.2-.2-.1-.3-.2-.3v-.2l-.2-.3v-.2l-.2-.2v-.3l-.1-.2v-.2l-.1-.2-.1-.2v-.4l-.1-.2v-.2l-.1-.2v-.5l-.1-.2v-1.3l-.1-.2v-2.4l.1-.3V453.6l.1-.3v-.2l.1-.3v-.6l.1-.3v-.4l.1-.3v-.3l.1-.3v-.3l.1-.3.1-.3v-.3l.1-.3v-.3l.2-.3v-.7l.2-.3v-.3l.1-.3v-.3l.1-.3.1-.4v-.3l.2-.3v-.3l.1-.3.1-.3v-.4l.2-.3v-.3l.1-.3.1-.3.1-.3v-.3l.2-.3v-.4l.2-.3v-.3l.1-.3.1-.3.1-.3.1-.3v-.3l.2-.3v-.3l.2-.3v-.2l.1-.3.1-.3.1-.3.1-.3.1-.3.1-.2v-.3l.2-.3v-.2l.2-.3v-.3l.1-.2.1-.3.1-.2.1-.3.1-.2.1-.3v-.2l.2-.2v-.3l.2-.2v-.2l.2-.2v-.3l.1-.2.1-.2.1-.2.1-.2.1-.2.1-.2.1-.3.1-.2.1-.2.2-.2v-.2l.2-.3.2-.2.1-.3.2-.2.1-.2.1-.1.2-.2.1-.2.2-.1.1-.2.2-.2.3-.3.2-.2.3-.2.4-.3.4-.3.4-.3.6-.2.3-.2.7-.2.9-.2 1-.1H581.3l.3.1H582.6l.3.1h.3l.3.1h.6l.3.1h.3l.3.1h.3l.2.1h.3l.3.1h.3l.3.1h.3l.3.1.3.1h.3l.2.1.3.1h.3l.3.1.3.1h.3l.2.1.3.1h.3l.3.2h.3l.3.1h.2l.3.2h.3l.6.2.5.1.6.2.5.2.6.1.5.2.6.2.5.1.6.2.5.2.6.2.5.1.6.2 1 .3 1 .4 1.1.3 1 .4.5.1.5.2.5.1.5.2.5.1.5.2.5.1.5.2.4.1.5.1.5.2h.4l.2.1.3.1h.2l.2.1h.2l.2.1h.2l.3.1h.2l.2.1h.2l.2.1h.2l.2.1h.2l.4.1h.2l.2.1h.2l.3.1h.2l.2.1h.2l.2.1h.2l.2.1h.3l.2.1h.2l.2.1.2.1h.2l.2.1h.2l.3.1.4.2.4.1.4.1.4.2.4.1.4.1.4.2.4.1.4.2.4.1.4.2.4.1.4.2.4.1.4.2.4.2.4.1.4.2.4.2.4.1.4.2.3.2.4.1.4.2.4.2.4.2.3.1.4.2.4.2.4.2.3.2.4.1.4.2.3.2.4.2.4.2.3.2.4.2.3.1.4.2.7.4.7.4.7.4.7.3.7.4 1.4.8 1.4.7.7.4.7.3.6.4.7.3.7.4.3.1.3.2.3.2.4.2.3.1.3.2.3.1.4.2.3.2.3.1.3.2.3.1.4.2.3.1.3.2.3.1.3.2.3.1.3.2.3.1.3.1.3.2.4.1.3.1.3.2h.3l.3.2.3.1.3.1.2.1.3.2h.3l.3.2h.3l.3.2h.3l.3.2h.3l.2.1.3.1.3.1H654.8l.1.1h.2l.1.1H655.5l.1.1H656l.1.1H656.3l.1.1h.4l.2.1.9.2.9.2.9.2 1 .2.8.2 1 .2.9.2 1 .2.9.2.9.2 1 .2.9.2.9.2 1 .2.9.3.9.2 1 .2.9.2.9.3 1 .2.8.2 1 .2.9.2.9.3 1.8.4 1.8.5 1.7.4 1.8.4.2.1h.3l.3.2h.2l.3.1.2.1.2.1.2.1h.2l.2.2h.2l.2.1.1.1.2.1.2.1.2.1h.1l.2.2h.2l.2.2.3.2.4.2.3.2.4.2.4.2.3.2.4.2.4.2.8.5.7.4.8.5.4.2.4.2.4.3.4.2.4.2.4.2.3.2.4.3.4.2.4.2.4.2v-.4l.2-.3.2-.7.1-.8.2-.7.2-.8.2-.8.2-.8.2-.8.2-.9.2-.8.2-1 .2-.8.2-.9.2-.9.2-.9.2-1 .2-.8.2-1 .2-.9.2-1 .2-.8.2-1 .2-.9.2-.9.2-.9.4-1.8.4-1.7.3-1.7.3-1.7.4-1.6.3-1.4.3-1.4.2-1.3.3-1.2.4-2v-.5l.1-.2v-.6l.1-.2v-.3l.1-.3v-.3l.1-.3v-.6l.1-.3v-.6l.1-.4v-.3l.1-.3v-1l.1-.4v-.7l.1-.3V420l.1-.4V418l.1-.3v-2.9l.1-.4V402.3l-.1-.5v-2l-.1-1v-1l-.1-1v-1l-.1-1v-1l-.1-1v-1l-.1-1-.1-1v-1l-.1-1.1-.1-1v-1l-.2-1.1v-1l-.1-1-.1-1.1-.1-1-.1-1v-1.1l-.2-1v-1l-.2-1.1v-1l-.2-1v-1.1l-.2-1v-1l-.2-1v-1l-.2-1-.1-1-.1-1-.1-1-.1-1-.1-.9-.2-1v-1l-.2-.9-.1-.9-.1-1-.1-.9-.2-.9v-1l-.2-.8-.1-1-.1-.8-.2-.9v-.9l-.2-.8-.1-.9-.1-.8-.2-.9v-.8l-.2-.8-.1-.8-.1-.8-.2-.8v-.7l-.2-.8-.1-.7-.1-.7-.2-.8v-.6l-.2-.7-.1-.7-.1-.7-.1-.6-.1-.6-.2-.6v-.6l-.2-.6v-.6l-.2-.5-.1-.5-.1-.5-.1-.5-.1-.5-.1-.4-.1-.5-.1-.4v-.3l-.2-.4V328.1l-.1-.2V327.6l-.1-.1V327.2h-.1v-.2l-.1-.2v-.2l-.4-.8-.3-1.1-.4-1.2-.5-1.4-.4-1.4-.6-1.7-1.1-3.5-1.3-3.9-1.3-4.1-2.8-8.8-2.9-8.7-1.3-4.2-1.3-3.8-1.1-3.6-.6-1.6-.4-1.5-.5-1.3-.4-1.2-.3-1-.3-1v-.1h-.1v-.2l-.1-.1v-.1l-.1-.1v-.1l-.1-.1v-.1l-.1-.1-.1-.2v-.1h-.1v-.1l-.1-.1v-.1h-.1v-.2h-.1v-.1h-.1l-.2-.3v-.1l-.2-.2-.1-.2-.2-.2-.1-.1-.1-.2-.2-.2-.1-.2-.2-.2-.2-.2-.1-.2-.2-.2-.3-.4-.4-.5-.4-.4-.4-.5-.3-.5-.2-.2-.2-.2-.2-.3-.2-.2-.3-.3-.2-.3-.2-.2-.2-.3-.2-.3-.2-.2-.2-.3-.2-.3-.2-.3-.2-.3-.2-.3-.1-.1-.1-.2-.1-.2-.1-.1-.1-.2-.1-.1-.1-.2-.1-.2-.1-.1-.1-.2-.1-.2-.1-.1-.1-.2-.1-.2v-.1l-.2-.2v-.2l-.2-.2v-.2l-.2-.2v-.3l-.2-.2v-.3l-.1-.2-.1-.2v-.3l-.2-.2v-.5l-.1-.3v-.4l-.1-.3V250.8l.1-.2v-.5l.1-.2v-.2l.1-.1v-.2l.1-.2v-.2l.2-.2V248.5l.1-.2.1-.2v-.1l.1-.2.1-.2v-.1l.2-.2v-.1l.1-.2v-.1l.2-.2v-.1l.1-.2.1-.1v-.2h.2v-.2l.1-.2h.1l.1-.2.1-.2.2-.2.1-.3.2-.2.2-.2.2-.3.2-.2.2-.2.2-.3.1-.2.2-.2.2-.2.2-.2.2-.3.2-.2.2-.2.3-.2.2-.2.2-.2.2-.2.2-.2.2-.2.2-.2.3-.2.2-.2.2-.2.2-.2.3-.2.2-.2.2-.2.3-.2.2-.2.3-.2.2-.2.2-.2.3-.2.2-.1.3-.2.2-.2.3-.2.3-.2.2-.2.3-.2.2-.2.3-.2.3-.2.2-.2.3-.2.3-.2.3-.2.2-.1.3-.2.3-.2.3-.2.3-.2.2-.2.3-.2.3-.2.3-.2.3-.2.3-.2.6-.3.6-.4.5-.4.6-.4.7-.4.6-.4.6-.3.6-.4.6-.4.6-.4.7-.4.6-.3.6-.4.6-.4.7-.4.6-.3.6-.4.7-.4.6-.3.6-.4.7-.4.6-.3.6-.4.7-.4.6-.3.6-.4.7-.3 1.2-.7 1.2-.7 1.2-.7 1.2-.6 2.3-1.3 1.1-.6 1-.6 1.1-.6 1-.6.5-.3.5-.2.4-.3.5-.3h.2l-.1-.3-.2-.2-.2-.3-.2-.4-.2-.4-.2-.3-.2-.4-.2-.4-.2-.4-.2-.4-.2-.3-.2-.4-.2-.4-.2-.4-.2-.4-.1-.4-.2-.4-.2-.3-.2-.4-.2-.4-.1-.4-.2-.4-.2-.4-.1-.4-.2-.4-.2-.3-.1-.4-.2-.4-.2-.4-.1-.4-.2-.4-.1-.4-.4-.7-.3-.8-.3-.8-.3-.7-.6-1.6-.3-.7-.3-.8-.3-.7-.3-.8-.3-.7-.2-.4-.1-.3-.2-.4-.1-.3-.2-.4-.1-.3-.2-.4-.1-.4-.2-.3-.1-.3-.2-.4-.1-.3-.2-.4-.1-.3-.2-.3-.1-.4-.2-.3-.2-.3-.1-.3-.2-.4-.1-.3-.2-.3-.2-.3-.1-.3-.2-.3-.1-.3-.2-.3-.2-.3-.1-.3-.2-.3v-.1l-.2-.1v-.2l-.1-.1-.1-.2-.2-.2v-.2h-.1l-.1-.2-.1-.2h-.1v-.2l-.2-.1v-.2h-.1l-.1-.2-.1-.1v-.2h-.2v-.2l-.2-.1v-.1l-.1-.2h-.1l-.1-.2v-.1l-.2-.1v-.1l-.1-.1-.1-.2h-.1l-.1-.2h-.1v-.2h-.2v-.2h-.2v-.2h-.1l-.1-.2h-.1l-.1-.2-.2-.2-.2-.2-.3-.3-.3-.3-.2-.2-.3-.3-.2-.2-.3-.3-.2-.3-.3-.2-.5-.6-.5-.5-.5-.5-.5-.6-.6-.5-.5-.6-.5-.6-.5-.5-.5-.6-.5-.5-.5-.6-.5-.6-.6-.6-.5-.5-.5-.6-.5-.6-.5-.6-.5-.5-.5-.6-.5-.6-.5-.6-.5-.5-1-1.2-1-1.2-1-1.1-2-2.3-.9-1-1-1.2-.9-1-.4-.6-.5-.5-.5-.5-.4-.5-.5-.6-.4-.5-.5-.5-.4-.5-.4-.4-.5-.5-.4-.5-.4-.5-.4-.4-.4-.4-.4-.5-.4-.4-.4-.4-.4-.4-.4-.4-.2-.2-.2-.2-.2-.2-.1-.2-.2-.2-.2-.2-.3-.3-.4-.3-.3-.3-.3-.4-.4-.3-.3-.3-.3-.3-.4-.3-.3-.4-.3-.3-.4-.3-.3-.3-.4-.3-.3-.3-.4-.4-.3-.3-.4-.3-.3-.3-.4-.3-.4-.3-.3-.3-.4-.3-.3-.3-.4-.3-.4-.4-.3-.3-.4-.3-.4-.3-.3-.3-.4-.3-.4-.3-.3-.3-.4-.3-.4-.3-.4-.3-.3-.3-.4-.3-.4-.3-.4-.3-.3-.3-.4-.3-.4-.3-.8-.6-.7-.6-.8-.6-.8-.6-.8-.6-.7-.6-.8-.6-.8-.6-.8-.6-1.5-1.2-1.6-1.2-1.6-1.1-.8-.6-.7-.6-.8-.6-.8-.6-.8-.6-.8-.7-.7-.6-.8-.6-.4-.3-.4-.3-.4-.3-.4-.3-.4-.3-.3-.3-.4-.3-.4-.3-.4-.3-.4-.3-.4-.4-.3-.3-.4-.3-.4-.3-.4-.3-.3-.3-.4-.3-.4-.4-.4-.3-.3-.3-.4-.3-.4-.3-.4-.4-.3-.3-.4-.3-.4-.3-.3-.4-.4-.3-.3-.3-.4-.4-.4-.3-.3-.3-.4-.4-.3-.3-.4-.3-.3-.4-.4-.3-.3-.3-.4-.4-.3-.3-.4-.4-.3-.3-.3-.4-.4-.3-.3-.3-.4-.4-.3-.4-.3-.3-.7-.7-.7-.7-1.4-1.5-.7-.7-.7-.8-.3-.3-.4-.4-.3-.4-.4-.3-.3-.4-.4-.3-.3-.4-.4-.4-.3-.3-.4-.4-.3-.3-.4-.4-.3-.3-.4-.4-.4-.3-.3-.3-.2-.2-.2-.2-.1-.1-.2-.2-.2-.2-.2-.1-.2-.2-.1-.1-.2-.2-.2-.2-.2-.1-.1-.2-.2-.1-.2-.2-.2-.1-.2-.2-.1-.1-.2-.2-.2-.1-.2-.2-.1-.1-.2-.2h-.2l-.2-.2-.1-.2-.2-.1-.2-.1-.2-.2-.1-.1-.2-.1-.2-.2h-.2l-.1-.2-.2-.1-.2-.1-.2-.2h-.1l-.2-.2-.2-.1-.1-.1-.2-.1-.2-.1-.1-.2h-.2l-.2-.2h-.1l-.2-.2h-.2l-.1-.1-.2-.1-.2-.1-.1-.1-.2-.1h-.1l-.2-.2h-.2l-.2-.2h-.2l-.3-.2-.3-.2-.2-.1-.3-.1-.3-.2-.3-.2-.2-.1-.3-.2-.4-.2-.3-.1-.6-.4-.7-.4-.8-.4-.7-.5-.8-.4-.8-.5-.8-.5-1-.5-.8-.5-1-.6-.8-.5-1-.6-2-1.1-2-1.2-2-1.3-4.2-2.5-2.2-1.3-2-1.2-2.2-1.3-1-.6-1-.6-1-.6-1-.6-1-.6-1-.6-1-.5-1-.6-.9-.5-.9-.6-.9-.5-.8-.5-.8-.4-.8-.5-.8-.4-.4-.2-.3-.2-.4-.2-.3-.2-.3-.2-.4-.2-.3-.1-.3-.2h-.1v.2h-.1v.1l-.1.1-.1.2-.1.1v.1l-.1.1v.1l-.1.1v.1l-.1.1v.1l-.1.1-.1.1v.1l-.1.1v.1l-.1.1v.1l-.1.1-.1.3-.1.2-.1.2-.2.2v.3l-.2.2v.3l-.2.2v.3l-.2.2v.3l-.2.3-.1.3-.1.2-.1.3-.1.3-.1.3-.1.3-.1.2-.1.3v.3l-.2.3v.3l-.2.3v.3l-.2.4v.3l-.1.3-.1.3-.1.3-.1.3-.1.3-.1.4v.3l-.2.3v.3l-.1.3-.1.4-.1.3v.3l-.2.4v.3l-.1.3-.2.7-.1.6-.2.7-.2.6-.1.7-.2.7-.1.6-.1.7-.3 1.3-.3 1.2-.2.6-.1.7-.1.6-.2.6-.1.6-.2.6v.3l-.1.3-.1.3v.2l-.1.3-.1.3-.1.3v.3l-.1.3-.1.2-.1.3v.3l-.4.9-.2.8-.3.9-.3.9-.2.8-.3.9-.3.9-.3.8-.2.9-.3.9-.3.8-.3.9-.3.8-.3.9-.3.8-.3 1-.3.8-.3.8-.3.9-.3.8-.3.9-.3.8-.3.9-.3.8-.3.9-.3.8-.3.9-.3.8-.3.9-.3.8-.4.9-.3.8-.3.8-.3.9-.3.8-.4.9-.3.8-.3.9-.6 1.6-.7 1.7-.6 1.7-.7 1.7-.6 1.6-1.3 3.4-1.3 3.3-.6 1.7-.7 1.6-.6 1.7-.7 1.6-.6 1.7-.3.8-.3.8-.3.9-.3.8-.3.8-.4.9-.3.8-.3.8-.3.8-.3.9-.3.8-.3.8-.3.8-.3.9-.3.8-.3.8-.3.8-.3.8-.3.9-.2.8-.3.8-.3.8-.3.9-.3.8-.2.8-.3.8-.3.9-.3.8-.2.8-.3.8-.3.8-.2.9-.3.8-.2.8-.3.8-.3.9-.2.8-.2.8-.3.8-.2.8-.3.9-.2.8-.2.8-.2.4v.4l-.2.4v.4l-.2.5-.1.4-.1.4-.1.4-.1.4-.1.4-.2.4v.4l-.2.4v.5l-.2.4v.4l-.2.4v.4l-.2.4v.4l-.2.4v.4l-.2.5v.4l-.2.4v.4l-.2.4v.4l-.1.4-.1.4-.1.5-.1.4v.4l-.2.4v.4l-.1.4-.1.4-.1.5v.2l-.1.4-.1.3v.3l-.1.3-.1.3-.1.3v.3l-.2.3v.4l-.1.3-.1.3v.3l-.2.3v.4l-.2.3v.3l-.1.3-.1.4-.1.3-.1.3-.1.3-.1.4-.2.3v.3l-.2.3v.4l-.2.3-.1.3-.1.4-.1.3-.2.3v.4l-.2.3-.1.4-.1.3-.2.3-.1.4-.1.3-.2.3v.4l-.2.3-.2.4v.3l-.2.3-.2.4-.1.3-.1.3-.2.4-.1.3-.2.4-.1.3-.2.3-.1.4-.2.3-.1.4-.2.3-.1.3-.2.4-.1.3-.2.3-.1.4-.2.3-.2.3-.1.4-.2.3-.2.3-.1.4-.2.3-.1.3-.2.4-.2.3-.2.3-.1.3-.2.4-.2.3-.1.3-.2.3-.2.4-.2.3-.1.3-.2.3-.2.3-.2.3-.2.4-.1.3-.2.3-.2.3-.2.3-.2.3-.2.3-.1.3-.2.3-.2.3-.2.3-.2.3-.2.3-.2.3-.2.3-.2.3-.1.3-.2.3-.2.2-.2.3-.2.3-.2.3-.2.3-.2.2-.2.3-.2.3-.2.2-.2.3-.2.3-.3.2-.2.3-.2.3-.2.2-.2.3-.2.2-.2.3-.2.2-.3.3-.2.2-.2.2-.2.3-.2.2-.3.2-.2.3-.2.1-.2.2-.1.2-.2.1-.2.2-.2.2-.2.1-.2.2-.3.2-.2.1-.1.1-.1.1h-.2l-.1.2h-.2l-.1.2h-.2l-.1.1-.2.1-.1.1-.2.1-.2.1-.2.1-.2.1h-.2l-.2.2h-.2l-.2.2h-.3l-.2.1-.3.1-.2.1h-.3l-.3.1-.3.1h-.4l-.3.1H478.4l-.3-.1h-.2l-.3-.1-.2-.1h-.3l-.2-.2h-.3l-.2-.2-.3-.1-.2-.1-.3-.2-.2-.1-.3-.1-.2-.2-.3-.2-.2-.1-.2-.2-.2-.2-.2-.2-.2-.1v-.1h-.1l-.1-.1h-.1v-.1h-.1l-.1-.1h-.2v-.1h-.1v-.1h-.2v-.1h-.1l-.1-.1h-.1l-.1-.1-.2-.1-.2-.1-.3-.1-.2-.1-.2-.2h-.3l-.2-.2-.3-.1-.3-.1-.2-.2h-.3l-.3-.2-.3-.1-.3-.2h-.4l-.3-.2-.3-.2h-.3l-.7-.4-.7-.2-.7-.3-1.5-.6-.8-.3-.7-.3-.8-.3-.4-.2-.4-.1-.4-.2-.4-.2-.4-.1-.4-.2-.4-.2-.4-.1-.4-.2-.4-.2-.4-.1-.4-.2-.4-.2-.4-.2-.4-.2-.4-.2-.4-.1-.4-.2-.4-.2-.4-.2-.4-.2-.4-.2-.4-.2-.2-.1-.2-.2h-.2l-.2-.2h-.2l-.2-.2h-.2l-.2-.2-.2-.1-.2-.1-.2-.1-.2-.2h-.2l-.2-.2-.2-.1-.2-.1-.2-.1-.2-.2h-.1l-.2-.2-.2-.1-.2-.2h-.2l-.2-.2-.2-.2h-.2l-.2-.2-.1-.2h-.2l-.2-.2-.2-.2-.2-.1-.2-.2-.2-.1-.1-.2-.2-.1-.2-.2-.2-.1-.2-.2-.1-.1-.2-.2-.2-.1-.2-.2-.1-.2-.2-.1-.2-.2-.1-.2-.2-.2-.2-.2-.2-.1-.1-.2-.2-.2-.1-.2-.2-.2-.2-.2-.1-.2-.2-.2-.1-.2-.2-.2-.1-.2-.2-.2-.1-.3-.2-.2-.1-.2-.1-.2-.2-.3-.1-.2-.1-.3-.1-.2-.2-.3v-.2l-.2-.3-.1-.2-.1-.3-.1-.2-.1-.3-.1-.3v-.3l-.2-.2v-.3l-.1-.3v-.3l-.1-.3-.1-.3v-.3l-.1-.3v-.6l-.1-.3V208.1l.1-.3v-.3l.1-.3v-.3l.1-.3v-.2l.2-.3v-.3l.1-.3.1-.3v-.3l.2-.3v-.3l.2-.3v-.3l.2-.3v-.3l.2-.3v-.3l.2-.3v-.3l.1-.3.1-.3.1-.3.1-.3.2-.6.2-.6.2-.6.1-.7.2-.6.2-.6.1-.6.2-.7.2-.6.1-.6.2-.6.1-.7.2-.6.1-.6.2-.7.1-.6.2-.7.1-.6.2-.6.1-.7.2-.6.1-.7.2-.6.1-.7.1-.6.2-.7.1-.6.2-.7.1-.7.1-.6.2-.7.1-.6.1-.7.3-1.3.3-1.4.2-1.3.3-1.4.5-2.7.3-1.3.2-1.4.3-1.3.3-1.4.2-1.4.2-.7.1-.7.2-.7.1-.6.1-.7.2-.7.1-.7.2-.7.1-.7.2-.7.1-.7.2-.7.1-.7.2-.7.1-.7.2-.7.1-.7.2-.7.2-.7.1-.7.2-.7.2-.6.1-.7.2-.7.2-.7.2-.7.2-.7.1-.7.2-.7.2-.7.2-.7.2-.7.2-.7.2-.7.2-.7.1-.4.1-.3.1-.4.1-.3.2-.4v-.3l.2-.4v-.3l.2-.4.1-.3.1-.4.1-.3.1-.4.2-.3v-.4l.2-.3.1-.4.1-.3.1-.4.2-.3v-.4l.2-.3.1-.4.2-.3v-.4l.2-.3.1-.4.2-.3.1-.4.1-.3.2-.4.1-.3.1-.4.2-.3.1-.3.1-.4.2-.3.1-.4.2-.3.1-.4.2-.3.1-.4.1-.3.2-.4.1-.3.2-.4.1-.3.2-.3.1-.4.2-.3.2-.4.1-.3.2-.4.1-.3.2-.4.2-.3.1-.3.2-.4.1-.3.2-.4.2-.3.2-.4v-.2l.2-.2.2-.5.3-.6.4-.6.3-.7.4-.8.5-.8.2-.5.2-.4.2-.5.3-.4.2-.5.3-.5.2-.5.3-.5.2-.5.3-.5.2-.6.3-.5.2-.5.3-.6.2-.5.3-.5.2-.6.1-.2.2-.3v-.3l.2-.2.1-.3.1-.3.1-.2.1-.3.2-.2v-.3l.2-.3v-.2l.2-.3v-.2l.2-.3v-.2l.2-.2v-.3l.2-.2v-.3l.1-.2.1-.2v-.2l.2-.3v-.2l.1-.2v-.2l.1-.2.1-.2h-.2l-.1-.2h-.2l-.2-.2h-.2l-.2-.1-.2-.1-.2-.1-.2-.1-.2-.1-.2-.1-.3-.1-.2-.1-.2-.1-.2-.1-.3-.1-.2-.1-.3-.1-.2-.1-.3-.1-.2-.1-.3-.1h-.3l-.2-.2h-.3l-.3-.2h-.3l-.3-.2h-.2l-.3-.1-.3-.1-.3-.1-.3-.1h-.3l-.3-.2h-.4l-.3-.2h-.3l-.3-.1-.3-.1h-.4l-.3-.2h-.3l-.4-.1-.3-.1h-.3l-.4-.2h-.3l-.4-.1-.3-.1h-.4l-.3-.1-.4-.1h-.4l-.3-.2h-.4l-.3-.1h-.4l-.4-.1-.4-.1h-.3l-.4-.1-.4-.1h-.4l-.4-.1h-.4l-.3-.1-.4-.1h-.4l-.4-.1h-.4l-.4-.1h-.4l-.4-.2h-.8l-.4-.1h-.4l-.4-.1h-.5l-.4-.1h-.4l-.4-.1h-.8l-.4-.1h-.5l-.4-.1h-.4l-.4-.1h-.9l-.4-.1h-.4l-.4-.1h-.9l-.4-.1h-.9l-.4-.1h-1.3l-.5-.1h-.8l-.5-.1H433.2l-.4-.1H431l-.4-.1h-2.7l-.4-.1H411.7l-.4.1h-2l-.4.1H407.7l-.4.1h-1.6l-.4.1h-.7l-.4.1h-1.1l-.4.1h-.7l-.4.1h-.7l-.4.1h-.7l-.3.1h-.7l-.3.1h-.4l-.3.1h-.7l-.3.1h-.6l-.4.1h-.3l-.3.1h-.3l-.3.1h-.6l-.3.1h-.3l-.3.1h-.3l-.3.1h-.2l-.3.1h-.3l-.2.1h-.6l-.2.1h-.3l-.2.1h-.3l-.2.1h-.3l-.2.1h-.2l-.2.1h-.3l-.2.1h-.2l-.2.1h-.2l-.2.1H387.2l-.1.1H386.8l-.2.1h-.2l-.3.1h-.3l-.3.1h-.6l-.3.1H383.7l-.3.1H379.5l-.3-.1h-.5l-.3-.1h-.5l-.3-.1h-.5l-.2-.1h-.5l-.2-.1h-.3l-.2-.1h-.3l-.4-.1-.5-.1-.4-.1-.5-.1-.4-.1h-.4l-.9-.3h-.4l-.4-.1-.4-.1h-.3l-.4-.2h-.7l-.1-.1v.6l.1.3v.4l.1.3v.4l.1.3v.4l.1.3.1.4v.3l.1.4.1.4v.4l.2.4v.3l.1.4.1.4v.4l.2.4v.4l.1.4.2.9.2.8.2.8.2.9.4 1.7.2.9.2.9.2.9.2.9.2.9.2.9v.4l.2.5v.5l.1.4.1.5.1.4.1.5.1.5.1.4v.5l.2.4v.5l.1.5.1.4.1.5v.5l.2.4v.5l.1.5v.4l.1.5.1.5v.5l.1.4v.5l.1.5v.4l.1.5v.5l.1.4v.7l.1.3V127.6l.1.2v5.2l-.1.2v.7l-.1.3v.5l-.1.2v.5l-.1.2v.5l-.1.2v.2l-.1.3v.2l-.1.2v.3l-.1.2v.2l-.1.3-.1.2v.2l-.1.3-.1.2v.2l-.1.3-.1.2-.1.2v.3l-.2.2v.2l-.1.3-.1.2-.1.2-.1.3-.1.2-.1.2-.1.3-.1.2-.2.2v.2l-.2.2v.2l-.2.2v.1l-.2.2v.2l-.2.1-.1.2-.1.2-.1.1-.1.2-.1.1-.2.1v.2l-.2.1-.1.2h-.1l-.1.2-.2.2-.2.2-.1.1-.1.1-.1.2h-.2v.2l-.2.1-.1.1-.2.1v.1l-.2.2h-.1l-.1.2h-.2l-.1.2-.2.2-.3.2-.2.2-.3.2-.3.2-.2.1-.3.2-.3.2-.2.2-.3.2-.3.1-.2.2-.3.2-.3.1-.3.2-.3.2-.2.1-.3.2-.3.1-.3.2-.3.2-.3.1-.3.2-.3.1-.3.2-.3.1-.3.1-.3.2-.3.1-.4.2h-.3l-.3.2-.3.2h-.3l-.3.2-.4.1-.3.2h-.3l-.3.2-.4.1-.3.1-.3.2h-.4l-.3.2h-.3l-.4.2-.3.1-.3.1-.4.1-.3.1h-.4l-.3.2h-.3l-.4.2h-.3l-.4.1-.3.1h-.4l-.3.2h-.7l-.4.2h-.7l-.3.1h-.4l-.3.1h-.4l-.3.1h-.7l-.4.1H344.1l-.1.1H341.6l-.2-.1H340.7l-.2-.1h-.4l-.2-.1h-.4l-.2-.1H339l-.2-.1h-.2l-.2-.1h-.2l-.2-.1h-.2l-.2-.1h-.2l-.2-.2h-.4l-.1-.2h-.2l-.2-.1-.2-.1h-.2l-.2-.2h-.2l-.2-.2h-.2l-.2-.2h-.2l-.2-.2h-.2l-.2-.2-.2-.1-.2-.2h-.2l-.2-.2-.1-.2h-.2l-.2-.2-.2-.2-.2-.1-.2-.2-.2-.2-.1-.1-.2-.2-.3-.3-.2-.3-.2-.2-.2-.3-.2-.2-.1-.2-.2-.2-.1-.2-.1-.2-.2-.2v-.2l-.2-.2v-.2l-.2-.2v-.1l-.2-.2v-.2l-.2-.2v-.2l-.2-.2v-.2l-.2-.2v-.2l-.2-.2v-.2l-.2-.3v-.2l-.2-.2-.2-.5-.2-.4-.2-.5-.2-.5-.2-.5-.2-.5-.2-.6-.3-.5-.2-.6-.2-.6-.2-.6-.3-.6-.2-.6-.3-.6-.2-.7-.3-.6-.2-.7-.3-.7-.2-.7-.3-.7-.2-.7-.3-.7-.3-.8-.3-.7-.2-.8-.3-.8-.3-.7-.3-.8-.2-.8-.3-.8-.3-.8-.3-.9-.3-.8-.3-.8-.3-.9-.3-.8-.6-1.7-.6-1.8-.6-1.7-.6-1.8-.6-1.8-.6-1.8-.6-1.8-.6-1.8-.6-1.8-.6-1.8-.6-1.8-.6-1.8-.6-1.7-.6-1.8-.5-1.8-.6-1.7-.6-1.7-.5-1.7-.6-1.7-1-3.2-1-3.2-1-3-.9-2.7-1.6-4.9-.7-2-.5-1.8-.3-.8-.2-.7-.2-.6-.2-.6V65l-.1-.2-.1-.3v-.3l-.2-.2v-.6l-.1-.3V63l-.1-.3v-.2l-.1-.3v-.5l-.1-.3v-.7l-.1-.3v-1.5l-.1-.2V43.2h-.2zm246.5 662.4h-.1zM521.7 678zM51 312.8l1 2.6-.8-2.3-.4-.8-1-1.1-.5-.5 1.7 2zm-2-2.3l.2.1-.2-.1z"/>
</svg>
