<svg xmlns="http://www.w3.org/2000/svg" fill-rule="evenodd" stroke-linecap="round" stroke-linejoin="round" stroke-miterlimit="1.5" clip-rule="evenodd" viewBox="0 0 400 400">
  <defs/>
  <path fill="#eea800" stroke="#eea800" d="M47.4 335V103S62.8 74 89 88.5C115.1 103 200 174.7 200 174.7l115-86.2s30.5-11.7 32 14.5c1.4 26.3 0 232 0 232s-41.4 26.5-50.7 0c-12.2-34.4 3.1-160.3-5-160.3-8.3 0-91.3 64.7-91.3 64.7l-93-64.7V335s-27.8 36.6-59.6 0z"/>
  <path fill="#eea800" stroke="#eea800" d="M124.3 326V217.8l73.2 53.5 72.8-53.5V326L200 386l-75.7-60z"/>
  <ellipse cx="202.4" cy="75.7" fill="#eea800" stroke="#eea800" stroke-width=".9" rx="52.3" ry="52.8" transform="matrix(1.06194 0 0 1.05364 -15 -10)"/>
</svg>
