<svg xmlns="http://www.w3.org/2000/svg" fill-rule="evenodd" stroke-linecap="round" stroke-linejoin="round" stroke-miterlimit="1.5" clip-rule="evenodd" viewBox="0 0 401 402">
  <defs/>
  <ellipse cx="114.7" cy="156.6" fill="#00698c" stroke="#00698c" rx="37.7" ry="34.1" transform="matrix(.93164 0 0 1 4.7 -5.5)"/>
  <ellipse cx="114.7" cy="156.6" fill="none" stroke="#00698c" stroke-width="10.1" rx="37.7" ry="34.1" transform="matrix(.93164 0 0 1 4.7 -101)"/>
  <ellipse cx="114.7" cy="156.6" fill="none" stroke="#00698c" stroke-width="10.1" rx="37.7" ry="34.1" transform="matrix(.93164 0 0 1 93.3 -5.5)"/>
  <ellipse cx="114.7" cy="156.6" fill="none" stroke="#00698c" stroke-width="10.1" rx="37.7" ry="34.1" transform="matrix(.93164 0 0 1 188.8 -5.5)"/>
  <ellipse cx="114.7" cy="156.6" fill="none" stroke="#00698c" stroke-width="10.1" rx="37.7" ry="34.1" transform="matrix(.93164 0 0 1 93.3 87.3)"/>
  <ellipse cx="114.7" cy="156.6" fill="none" stroke="#00698c" stroke-width="10.1" rx="37.7" ry="34.1" transform="matrix(.93164 0 0 1 188.8 87.3)"/>
  <ellipse cx="114.7" cy="156.6" fill="none" stroke="#00698c" stroke-width="10.1" rx="37.7" ry="34.1" transform="matrix(.93164 0 0 1 93.3 179.9)"/>
  <ellipse cx="114.7" cy="156.6" fill="none" stroke="#00698c" stroke-width="10.1" rx="37.7" ry="34.1" transform="matrix(.93164 0 0 1 188.8 179.9)"/>
  <ellipse cx="114.7" cy="156.6" fill="#00698c" stroke="#00698c" rx="37.7" ry="34.1" transform="matrix(.93164 0 0 1 188.8 -101)"/>
  <ellipse cx="114.7" cy="156.6" fill="#00698c" stroke="#00698c" rx="37.7" ry="34.1" transform="matrix(.93164 0 0 1 93.3 -101)"/>
  <ellipse cx="114.7" cy="156.6" fill="#00698c" stroke="#00698c" rx="37.7" ry="34.1" transform="matrix(.93164 0 0 1 4.7 176.2)"/>
  <ellipse cx="114.7" cy="156.6" fill="#00698c" stroke="#00698c" rx="37.7" ry="34.1" transform="matrix(.93164 0 0 1 4.7 85.9)"/>
</svg>
