<?xml version="1.0" encoding="UTF-8" standalone="no"?>
<!DOCTYPE svg PUBLIC "-//W3C//DTD SVG 1.1//EN" "http://www.w3.org/Graphics/SVG/1.1/DTD/svg11.dtd">
<svg width="100%" height="100%" viewBox="0 0 720 397" version="1.1" xmlns="http://www.w3.org/2000/svg" xmlns:xlink="http://www.w3.org/1999/xlink" xml:space="preserve" xmlns:serif="http://www.serif.com/" style="fill-rule:evenodd;clip-rule:evenodd;stroke-linejoin:round;stroke-miterlimit:2;">
    <g id="Artboard1" transform="matrix(0.981645,0,0,0.901385,-37.508,-151.816)">
        <rect x="38.209" y="168.425" width="733.177" height="439.531" style="fill:none;"/>
        <g transform="matrix(1.0187,0,0,1.1094,-12.2071,139.886)">
            <path d="M79.499,373.085C79.582,373.745 100.751,349.531 103.021,346.86C115.703,331.94 128.801,317.343 141.547,302.472C192.214,243.361 243.912,186.614 303.187,135.807C323.315,118.555 343.248,99.689 364.326,83.881C370.547,79.215 375.669,73.375 381.076,67.968C389.486,59.558 391.964,58.743 391.964,60.43C391.964,63.673 390.671,56.983 391.964,60.43C396.989,73.831 391.964,105.715 391.964,125.535C391.964,135.831 396.209,155.791 390.289,167.632C379.332,189.545 351.23,210.041 334.175,227.096C288.422,272.849 250.019,325.489 204.361,371.148C182.696,392.813 143.328,382.381 114.747,379.523C107.682,378.817 101.184,374.516 93.809,375.336C91.653,375.575 79.499,373.085 79.499,373.085Z" style="fill:rgb(25,57,137);"/>
            <path d="M391.851,51.424L393.64,51.718L393.649,51.721L394.992,52.236L395.001,52.241L395.963,52.8L395.973,52.807L396.655,53.324L396.917,53.546L397.35,53.979L397.67,54.345L397.919,54.66L398.119,54.937L398.276,55.171L398.276,55.172L398.439,55.396L398.689,55.782L398.909,56.166L399.103,56.547L399.268,56.915L399.409,57.272L399.531,57.624L399.633,57.963L399.717,58.287L399.756,58.468L399.772,58.514L399.846,58.738L399.92,58.963L399.991,59.189L400.061,59.415L400.128,59.642L400.195,59.869L400.26,60.097L400.323,60.325L400.385,60.554L400.445,60.783L400.504,61.014L400.561,61.244L400.617,61.476L400.672,61.708L400.725,61.941L400.777,62.174L400.828,62.408L400.878,62.643L400.926,62.878L400.973,63.113L401.019,63.35L401.064,63.587L401.108,63.825L401.15,64.064L401.192,64.303L401.232,64.542L401.272,64.783L401.31,65.025L401.347,65.266L401.384,65.508L401.419,65.752L401.453,65.996L401.487,66.24L401.519,66.486L401.551,66.731L401.582,66.979L401.611,67.226L401.64,67.474L401.668,67.723L401.695,67.972L401.722,68.223L401.747,68.473L401.772,68.725L401.795,68.977L401.819,69.23L401.841,69.49L401.883,69.993L401.922,70.505L401.958,71.02L401.992,71.537L402.022,72.058L402.05,72.58L402.075,73.106L402.098,73.634L402.118,74.164L402.136,74.697L402.151,75.232L402.164,75.77L402.175,76.31L402.184,76.853L402.19,77.397L402.194,77.944L402.197,78.493L402.197,79.045L402.195,79.598L402.192,80.153L402.187,80.71L402.18,81.269L402.171,81.829L402.16,82.392L402.148,82.956L402.135,83.522L402.12,84.089L402.103,84.657L402.085,85.228L402.066,85.799L402.045,86.372L402.023,86.946L402,87.521L401.975,88.097L401.95,88.673L401.923,89.251L401.896,89.83L401.867,90.409L401.837,90.989L401.807,91.57L401.775,92.151L401.743,92.732L401.71,93.317L401.642,94.479L401.572,95.644L401.499,96.808L401.424,97.972L401.348,99.134L401.271,100.294L401.193,101.451L401.114,102.605L400.957,104.897L400.803,107.168L400.727,108.292L400.653,109.409L400.581,110.516L400.512,111.615L400.445,112.703L400.381,113.78L400.32,114.848L400.291,115.373L400.263,115.898L400.236,116.419L400.21,116.937L400.185,117.451L400.161,117.961L400.139,118.468L400.117,118.971L400.097,119.469L400.078,119.964L400.061,120.455L400.044,120.941L400.029,121.422L400.016,121.899L400.004,122.371L399.993,122.839L399.985,123.301L399.977,123.759L399.971,124.211L399.967,124.658L399.965,125.099L399.964,125.53L399.964,125.728L399.966,125.928L399.969,126.132L399.974,126.343L399.979,126.56L399.986,126.783L399.994,127.01L400.003,127.243L400.013,127.48L400.025,127.724L400.038,127.971L400.051,128.223L400.066,128.481L400.082,128.742L400.099,129.008L400.116,129.273L400.155,129.83L400.197,130.398L400.242,130.981L400.29,131.578L400.341,132.189L400.393,132.811L400.505,134.098L400.621,135.428L400.739,136.794L400.798,137.495L400.857,138.203L400.915,138.92L400.971,139.644L401.026,140.376L401.08,141.114L401.131,141.855L401.155,142.234L401.179,142.611L401.202,142.989L401.225,143.369L401.246,143.749L401.267,144.132L401.287,144.515L401.305,144.9L401.323,145.286L401.34,145.673L401.355,146.061L401.369,146.45L401.383,146.841L401.394,147.232L401.405,147.625L401.414,148.018L401.422,148.412L401.428,148.806L401.433,149.202L401.436,149.598L401.437,149.995L401.437,150.393L401.435,150.792L401.432,151.191L401.426,151.59L401.419,151.991L401.409,152.391L401.398,152.793L401.385,153.194L401.369,153.596L401.351,153.998L401.331,154.401L401.309,154.804L401.284,155.208L401.257,155.611L401.228,156.015L401.195,156.419L401.161,156.823L401.123,157.227L401.083,157.631L401.04,158.036L400.994,158.441L400.944,158.846L400.892,159.25L400.837,159.654L400.779,160.059L400.717,160.463L400.652,160.867L400.583,161.271L400.512,161.666L400.473,161.877L400.435,162.079L400.395,162.281L400.355,162.482L400.314,162.684L400.272,162.886L400.228,163.087L400.184,163.288L400.139,163.49L400.093,163.691L400.046,163.892L399.997,164.093L399.948,164.294L399.897,164.495L399.846,164.696L399.793,164.896L399.74,165.097L399.685,165.297L399.629,165.497L399.572,165.697L399.513,165.898L399.454,166.097L399.393,166.296L399.331,166.496L399.268,166.695L399.204,166.894L399.138,167.093L399.071,167.292L399.003,167.49L398.934,167.689L398.863,167.886L398.791,168.084L398.717,168.282L398.642,168.48L398.566,168.676L398.489,168.873L398.41,169.07L398.33,169.266L398.248,169.462L398.164,169.658L398.08,169.853L397.993,170.048L397.906,170.243L397.816,170.437L397.726,170.631L397.633,170.824L397.54,171.017L397.446,171.205L397.297,171.503L397.148,171.795L396.997,172.087L396.845,172.378L396.692,172.669L396.537,172.959L396.38,173.248L396.222,173.537L396.063,173.825L395.902,174.114L395.739,174.401L395.576,174.687L395.411,174.973L395.244,175.259L395.076,175.544L394.907,175.829L394.736,176.113L394.564,176.396L394.391,176.679L394.216,176.961L394.04,177.244L393.863,177.525L393.685,177.806L393.505,178.086L393.324,178.366L393.142,178.646L392.959,178.924L392.774,179.203L392.588,179.481L392.401,179.758L392.213,180.035L392.023,180.312L391.833,180.588L391.641,180.863L391.448,181.138L391.254,181.413L391.059,181.687L390.863,181.961L390.666,182.235L390.468,182.507L390.269,182.779L390.068,183.051L389.866,183.323L389.664,183.594L389.461,183.864L389.256,184.134L389.05,184.404L388.844,184.674L388.636,184.942L388.428,185.211L388.218,185.479L388.008,185.746L387.797,186.014L387.584,186.28L387.371,186.547L387.157,186.813L386.942,187.078L386.727,187.343L386.51,187.608L386.292,187.872L386.074,188.136L385.855,188.4L385.635,188.663L385.414,188.925L385.192,189.188L384.97,189.45L384.746,189.711L384.522,189.973L384.297,190.233L384.072,190.494L383.845,190.754L383.615,191.017L383.162,191.532L382.703,192.048L382.241,192.564L381.776,193.077L381.309,193.59L380.839,194.1L380.367,194.61L379.892,195.118L379.415,195.624L378.936,196.129L378.455,196.633L377.972,197.136L377.487,197.637L377,198.136L376.511,198.634L376.02,199.131L375.528,199.627L375.034,200.121L374.539,200.613L374.042,201.105L373.544,201.595L373.045,202.083L372.544,202.571L372.043,203.057L371.54,203.541L371.037,204.025L370.532,204.507L370.027,204.987L369.521,205.467L369.015,205.945L368.508,206.421L368,206.896L367.493,207.37L366.984,207.843L366.476,208.314L365.968,208.784L365.459,209.253L364.951,209.72L364.442,210.186L363.934,210.65L363.426,211.113L362.917,211.577L361.905,212.495L360.893,213.409L359.885,214.317L358.88,215.22L357.879,216.118L355.896,217.894L353.935,219.65L352.967,220.518L352.007,221.38L351.056,222.236L350.114,223.086L349.181,223.931L348.721,224.349L348.263,224.767L347.807,225.183L347.355,225.598L346.906,226.01L346.459,226.422L346.017,226.831L345.577,227.239L345.141,227.645L344.709,228.049L344.28,228.451L343.855,228.852L343.434,229.25L343.017,229.647L342.604,230.042L342.195,230.435L341.79,230.827L341.389,231.216L340.993,231.603L340.602,231.988L340.215,232.371L339.829,232.756L339.303,233.282L338.775,233.813L338.247,234.343L337.72,234.875L337.193,235.407L336.667,235.94L336.142,236.474L335.617,237.008L335.092,237.543L334.569,238.079L334.046,238.615L333.523,239.151L333.001,239.689L332.479,240.227L331.958,240.765L331.438,241.305L330.918,241.844L330.399,242.385L329.88,242.926L329.362,243.467L328.844,244.009L328.326,244.552L327.81,245.095L327.295,245.638L326.262,246.729L325.233,247.82L324.205,248.914L323.18,250.01L322.156,251.108L321.134,252.208L320.114,253.31L319.095,254.414L318.078,255.52L317.063,256.628L316.049,257.738L315.037,258.849L314.026,259.963L313.016,261.078L312.008,262.194L311.002,263.313L309.996,264.433L308.992,265.555L307.989,266.678L306.987,267.803L305.987,268.929L304.987,270.056L303.989,271.185L302.992,272.316L301.995,273.447L301,274.58L300.005,275.715L299.012,276.85L298.019,277.987L297.026,279.124L296.035,280.263L295.044,281.403L294.054,282.544L293.065,283.685L292.076,284.828L291.088,285.972L290.1,287.116L289.112,288.261L288.125,289.407L287.139,290.553L285.166,292.85L283.195,295.148L281.224,297.448L279.254,299.749L275.312,304.358L271.368,308.968L269.393,311.275L267.418,313.581L265.44,315.886L263.46,318.19L262.468,319.343L261.476,320.495L260.484,321.646L259.49,322.797L258.496,323.948L257.501,325.098L256.504,326.247L255.507,327.397L254.509,328.545L253.51,329.693L252.51,330.84L251.508,331.987L250.506,333.132L249.502,334.277L248.496,335.421L247.49,336.565L246.482,337.707L245.473,338.849L244.462,339.989L243.45,341.128L242.436,342.267L241.421,343.404L240.404,344.54L239.385,345.675L238.365,346.809L237.343,347.941L236.319,349.072L235.294,350.202L234.266,351.33L233.237,352.457L232.205,353.583L231.172,354.707L230.136,355.829L229.099,356.95L228.059,358.069L227.017,359.187L225.973,360.302L224.927,361.416L223.878,362.529L222.829,363.637L222.301,364.193L221.774,364.747L221.247,365.301L220.718,365.854L220.19,366.407L219.66,366.959L219.13,367.51L218.599,368.061L218.068,368.612L217.536,369.162L217.003,369.711L216.47,370.26L215.936,370.809L215.402,371.357L214.866,371.904L214.33,372.451L213.794,372.997L213.256,373.543L212.718,374.088L212.179,374.633L211.64,375.176L211.1,375.72L210.559,376.263L210.013,376.81L209.865,376.957L209.712,377.108L209.558,377.258L209.404,377.407L209.249,377.556L209.094,377.704L208.939,377.851L208.782,377.996L208.626,378.142L208.469,378.286L208.311,378.43L208.153,378.572L207.995,378.713L207.835,378.855L207.676,378.994L207.516,379.134L207.355,379.272L207.195,379.409L207.033,379.546L206.871,379.682L206.709,379.817L206.546,379.951L206.383,380.084L206.219,380.217L206.055,380.348L205.891,380.479L205.726,380.609L205.561,380.738L205.395,380.866L205.228,380.994L205.062,381.12L204.895,381.246L204.727,381.371L204.559,381.495L204.391,381.618L204.223,381.741L204.054,381.862L203.877,381.988L203.544,382.222L203.202,382.458L202.859,382.69L202.515,382.919L202.168,383.145L201.821,383.368L201.472,383.588L201.121,383.804L200.77,384.017L200.417,384.227L200.062,384.433L199.707,384.637L199.35,384.837L198.992,385.034L198.632,385.229L198.272,385.419L197.911,385.607L197.548,385.792L197.184,385.974L196.819,386.153L196.453,386.329L196.086,386.501L195.718,386.671L195.349,386.838L194.979,387.002L194.608,387.163L194.236,387.321L193.863,387.477L193.49,387.629L193.116,387.779L192.74,387.926L192.364,388.07L191.987,388.211L191.609,388.349L191.231,388.485L190.851,388.618L190.471,388.749L190.091,388.876L189.71,389.002L189.327,389.124L188.944,389.244L188.561,389.362L188.177,389.477L187.792,389.589L187.407,389.699L187.022,389.806L186.635,389.911L186.248,390.014L185.86,390.114L185.473,390.211L185.084,390.307L184.695,390.4L184.305,390.491L183.915,390.579L183.525,390.665L183.134,390.749L182.742,390.831L182.35,390.91L181.958,390.988L181.566,391.063L181.173,391.136L180.779,391.207L180.385,391.275L179.991,391.342L179.597,391.407L179.201,391.469L178.806,391.53L178.411,391.589L178.015,391.645L177.618,391.7L177.222,391.753L176.825,391.804L176.428,391.853L176.031,391.9L175.633,391.945L175.235,391.989L174.837,392.031L174.439,392.071L174.04,392.109L173.641,392.145L173.242,392.18L172.844,392.213L172.444,392.244L172.045,392.274L171.645,392.302L171.245,392.328L170.845,392.353L170.445,392.376L170.044,392.398L169.644,392.418L169.243,392.437L168.842,392.454L168.442,392.469L168.041,392.483L167.64,392.496L167.239,392.507L166.837,392.517L166.436,392.526L166.035,392.533L165.634,392.538L165.232,392.543L164.83,392.546L164.429,392.547L164.027,392.548L163.626,392.547L163.225,392.545L162.823,392.541L162.421,392.537L162.02,392.531L161.618,392.524L161.217,392.516L160.815,392.506L160.414,392.496L160.012,392.484L159.611,392.472L159.21,392.458L158.809,392.443L158.408,392.427L158.007,392.41L157.606,392.392L157.205,392.373L156.805,392.353L156.404,392.333L156.004,392.311L155.604,392.288L155.204,392.264L154.804,392.24L154.404,392.214L154.004,392.188L153.605,392.161L153.206,392.133L152.807,392.104L152.408,392.074L152.009,392.043L151.607,392.012L150.816,391.947L150.021,391.88L149.227,391.809L148.434,391.736L147.643,391.66L146.853,391.582L146.064,391.502L145.277,391.419L144.491,391.334L143.707,391.248L142.924,391.159L142.144,391.069L141.365,390.977L140.587,390.884L139.813,390.79L139.04,390.694L138.268,390.597L137.5,390.5L136.733,390.401L135.969,390.302L135.208,390.202L134.449,390.101L133.691,390L132.188,389.798L130.695,389.595L127.747,389.193L126.292,388.996L124.853,388.802L123.426,388.612L122.721,388.519L122.019,388.428L121.321,388.338L120.627,388.25L119.938,388.163L119.253,388.079L118.573,387.996L117.898,387.916L117.227,387.838L116.561,387.762L115.901,387.688L115.245,387.617L114.595,387.549L113.928,387.481L113.722,387.46L113.495,387.434L113.27,387.407L113.045,387.379L112.822,387.349L112.601,387.317L112.381,387.284L112.163,387.25L111.945,387.215L111.73,387.178L111.516,387.14L111.303,387.101L111.091,387.06L110.881,387.019L110.673,386.977L110.467,386.934L110.26,386.89L110.056,386.845L109.853,386.799L109.651,386.752L109.452,386.705L109.253,386.657L109.056,386.609L108.852,386.558L108.472,386.46L108.089,386.358L107.712,386.254L107.34,386.149L106.972,386.043L106.61,385.937L106.252,385.83L105.9,385.722L105.552,385.615L105.206,385.507L104.54,385.296L103.886,385.088L103.251,384.885L102.628,384.687L102.328,384.593L102.03,384.5L101.737,384.41L101.448,384.322L101.163,384.237L100.882,384.155L100.606,384.076L100.334,384L100.067,383.928L99.804,383.858L99.536,383.79L99.417,383.76L99.291,383.73L99.165,383.7L99.041,383.671L98.917,383.643L98.795,383.616L98.674,383.589L98.554,383.564L98.435,383.54L98.317,383.516L98.2,383.494L98.084,383.472L97.969,383.451L97.857,383.432L97.744,383.413L97.632,383.395L97.522,383.378L97.412,383.362L97.303,383.347L97.197,383.333L97.091,383.32L96.985,383.308L96.88,383.296L96.777,383.286L96.675,383.277L96.573,383.268L96.472,383.261L96.372,383.254L96.273,383.248L96.175,383.243L96.078,383.239L95.981,383.236L95.885,383.234L95.79,383.233L95.696,383.232L95.602,383.233L95.51,383.234L95.416,383.237L95.324,383.24L95.233,383.244L95.142,383.249L95.052,383.254L94.961,383.261L94.871,383.269L94.782,383.277L94.62,383.295L94.44,383.312L94.207,383.329L93.994,383.341L93.795,383.348L93.608,383.351L93.429,383.352L93.26,383.351L93.099,383.348L92.941,383.343L92.769,383.336L92.488,383.322L92.196,383.303L91.908,383.28L91.621,383.254L91.335,383.226L91.048,383.196L90.757,383.163L90.465,383.127L90.168,383.09L89.869,383.051L89.567,383.01L89.26,382.966L88.95,382.922L88.638,382.875L88.322,382.827L88.005,382.778L87.684,382.728L87.361,382.676L87.033,382.622L86.387,382.515L85.733,382.403L85.081,382.29L84.435,382.175L83.797,382.06L83.172,381.945L82.562,381.832L81.973,381.721L81.408,381.614L80.871,381.511L80.364,381.413L79.892,381.321L79.078,381.16L78.449,381.034L78.238,380.992L78.192,380.988L78.095,380.963L77.912,380.926L77.921,380.917L76.759,380.61L76.753,380.608L75.001,379.708L73.522,378.407L73.518,378.403L72.499,376.961L71.821,375.33L71.819,375.323L71.513,372.615L72.134,369.962L73.61,367.67L75.658,366.093L75.279,366.317L74.921,366.56L74.673,366.749L74.531,366.866L74.453,366.934L74.417,366.967L74.41,366.973L74.425,366.959L74.459,366.926L74.507,366.879L74.561,366.825L74.724,366.66L74.915,366.463L75.138,366.231L75.389,365.966L75.665,365.672L75.965,365.35L76.287,365.003L76.629,364.632L76.99,364.239L77.368,363.824L77.764,363.39L78.174,362.938L78.599,362.469L79.037,361.983L79.486,361.485L80.421,360.443L81.392,359.357L82.393,358.235L83.415,357.085L84.452,355.916L85.496,354.737L86.54,353.555L87.576,352.381L88.596,351.221L89.594,350.086L90.562,348.984L91.493,347.922L92.378,346.91L93.212,345.957L93.985,345.071L94.692,344.26L95.323,343.534L95.872,342.902L96.329,342.373L96.685,341.961L96.935,341.668L97.525,340.975L98.125,340.27L99.325,338.866L100.527,337.463L101.73,336.062L102.935,334.663L104.141,333.266L105.349,331.871L106.557,330.478L107.766,329.086L108.976,327.696L110.186,326.307L111.396,324.919L112.607,323.533L113.819,322.147L116.24,319.379L118.66,316.614L121.078,313.851L123.493,311.088L124.698,309.708L125.902,308.327L127.105,306.946L128.306,305.565L129.506,304.183L130.704,302.801L131.899,301.418L133.093,300.035L134.284,298.651L135.475,297.263L136.663,295.878L137.854,294.491L139.045,293.104L140.236,291.719L141.428,290.335L142.621,288.951L143.814,287.568L145.008,286.186L146.202,284.805L147.397,283.425L148.593,282.045L149.789,280.667L150.986,279.289L152.184,277.913L153.382,276.537L154.581,275.163L155.781,273.789L156.981,272.416L158.182,271.044L159.385,269.674L160.587,268.304L161.791,266.935L162.996,265.567L164.201,264.201L165.408,262.835L166.615,261.471L167.823,260.107L169.032,258.745L170.242,257.383L171.454,256.023L172.666,254.664L173.879,253.306L175.093,251.949L176.308,250.593L177.524,249.238L178.742,247.885L179.96,246.533L181.18,245.181L182.401,243.832L183.623,242.483L184.846,241.135L186.071,239.789L187.296,238.444L188.523,237.1L189.751,235.758L190.981,234.416L192.212,233.076L193.444,231.737L194.677,230.4L195.912,229.064L197.148,227.729L198.386,226.395L199.625,225.063L200.865,223.732L202.107,222.403L203.351,221.075L204.595,219.748L205.842,218.423L207.09,217.099L208.339,215.776L209.59,214.455L210.843,213.135L212.097,211.817L213.353,210.5L214.611,209.185L215.87,207.871L217.131,206.559L218.393,205.248L219.658,203.939L220.924,202.631L222.192,201.324L223.461,200.02L224.733,198.716L226.006,197.415L227.281,196.115L228.558,194.816L229.837,193.519L231.117,192.224L232.4,190.93L233.684,189.638L234.971,188.347L236.259,187.059L237.55,185.771L238.842,184.486L240.137,183.202L241.433,181.92L242.732,180.639L244.032,179.361L245.335,178.084L246.64,176.808L247.947,175.535L249.256,174.263L250.568,172.993L251.881,171.724L253.197,170.458L254.515,169.193L255.835,167.93L257.157,166.669L258.482,165.41L259.809,164.153L261.139,162.897L262.471,161.643L263.805,160.391L265.14,159.142L265.81,158.517L266.48,157.893L267.15,157.27L267.821,156.647L268.493,156.025L269.165,155.403L269.838,154.781L270.511,154.16L271.185,153.54L271.86,152.92L272.535,152.3L273.211,151.681L273.888,151.063L274.565,150.445L275.243,149.827L275.921,149.21L276.6,148.594L277.28,147.978L277.96,147.362L278.641,146.747L279.323,146.132L280.005,145.518L280.688,144.905L281.372,144.292L282.056,143.679L282.741,143.067L283.427,142.456L284.113,141.844L284.8,141.234L285.487,140.624L286.176,140.014L286.865,139.405L287.554,138.797L288.244,138.189L288.935,137.582L289.627,136.975L290.319,136.368L291.012,135.762L291.706,135.157L292.401,134.552L293.096,133.948L293.791,133.344L294.488,132.741L295.185,132.138L295.883,131.536L296.582,130.934L297.281,130.333L297.977,129.736L298.915,128.931L299.849,128.126L300.784,127.319L301.718,126.51L302.654,125.698L303.589,124.884L304.525,124.068L305.461,123.249L306.398,122.429L307.336,121.607L308.273,120.783L309.211,119.958L311.09,118.302L312.971,116.642L314.855,114.977L316.742,113.309L318.632,111.638L320.525,109.966L322.422,108.293L323.372,107.456L324.323,106.619L325.275,105.783L326.229,104.947L327.183,104.111L328.139,103.276L329.095,102.442L330.053,101.608L331.012,100.775L331.973,99.943L332.934,99.112L333.897,98.283L334.862,97.454L335.828,96.627L336.795,95.802L337.764,94.978L338.734,94.156L339.706,93.336L340.679,92.517L341.655,91.701L342.631,90.887L343.61,90.075L344.588,89.267L345.081,88.861L345.572,88.458L346.064,88.056L346.556,87.654L347.048,87.252L347.541,86.852L348.035,86.452L348.529,86.053L349.023,85.655L349.518,85.257L350.014,84.86L350.51,84.464L351.006,84.068L351.503,83.674L352,83.28L352.498,82.887L352.997,82.495L353.496,82.104L353.995,81.714L354.495,81.324L354.996,80.936L355.497,80.548L355.998,80.161L356.501,79.775L357.003,79.39L357.507,79.007L358.011,78.624L358.515,78.242L359.02,77.861L359.513,77.491L359.776,77.292L360.026,77.101L360.275,76.908L360.523,76.713L360.771,76.516L361.019,76.317L361.266,76.116L361.512,75.913L361.759,75.709L362.004,75.502L362.25,75.294L362.495,75.084L362.74,74.871L362.984,74.658L363.228,74.442L363.473,74.225L363.716,74.006L363.96,73.785L364.204,73.562L364.447,73.338L364.69,73.112L364.933,72.885L365.176,72.656L365.419,72.426L365.662,72.194L365.905,71.96L366.148,71.725L366.391,71.489L366.634,71.251L366.878,71.012L367.121,70.772L367.365,70.53L367.609,70.287L367.85,70.045L368.342,69.55L368.832,69.054L369.323,68.553L369.816,68.048L370.31,67.541L371.309,66.511L372.314,65.474L372.822,64.95L373.334,64.425L373.849,63.898L374.368,63.37L374.892,62.841L375.418,62.312L375.827,61.905L376.227,61.509L376.619,61.123L377.003,60.747L377.38,60.382L377.749,60.026L378.111,59.68L378.467,59.343L378.815,59.016L379.156,58.698L379.49,58.389L379.819,58.089L380.141,57.797L380.456,57.514L380.766,57.239L381.07,56.973L381.369,56.714L381.662,56.463L381.951,56.22L382.235,55.984L382.515,55.754L382.79,55.532L383.062,55.317L383.331,55.108L383.597,54.904L383.861,54.707L384.123,54.515L384.384,54.328L384.645,54.147L384.906,53.969L385.169,53.796L385.421,53.636L385.568,53.545L385.704,53.463L385.84,53.382L385.978,53.302L386.118,53.222L386.26,53.142L386.404,53.064L386.55,52.987L386.699,52.91L386.852,52.834L387.007,52.759L387.168,52.684L387.284,52.631L387.739,52.322L387.746,52.318L389.757,51.594L389.764,51.592L391.843,51.423L391.851,51.424ZM385.762,74.603L385.274,75.099L384.784,75.601L384.291,76.106L383.797,76.616L382.796,77.648L381.786,78.69L381.273,79.217L380.757,79.745L380.237,80.275L379.712,80.807L379.185,81.338L378.915,81.608L378.647,81.875L378.378,82.143L378.106,82.41L377.834,82.678L377.56,82.946L377.284,83.214L377.007,83.481L376.729,83.749L376.448,84.017L376.166,84.285L375.882,84.552L375.597,84.819L375.31,85.085L375.02,85.352L374.729,85.618L374.437,85.883L374.142,86.148L373.845,86.413L373.546,86.677L373.245,86.94L372.942,87.203L372.636,87.464L372.329,87.725L372.019,87.986L371.707,88.245L371.393,88.503L371.076,88.761L370.757,89.017L370.436,89.272L370.112,89.526L369.786,89.779L369.457,90.031L369.139,90.271L368.644,90.643L368.162,91.006L367.681,91.371L367.199,91.737L366.718,92.104L366.238,92.472L365.757,92.841L365.277,93.211L364.797,93.582L364.317,93.955L363.837,94.328L363.358,94.703L362.879,95.079L362.4,95.455L361.921,95.833L361.443,96.212L360.964,96.592L360.486,96.973L360.008,97.354L359.531,97.737L359.053,98.121L358.576,98.505L358.099,98.891L357.622,99.277L357.145,99.664L356.668,100.053L356.192,100.442L355.716,100.831L355.24,101.222L354.766,101.612L353.813,102.4L352.862,103.188L351.912,103.98L350.963,104.775L350.014,105.573L349.066,106.373L348.118,107.176L347.171,107.982L346.224,108.79L345.277,109.6L344.331,110.412L343.386,111.227L342.44,112.044L341.495,112.862L340.551,113.683L339.606,114.505L338.662,115.328L337.718,116.153L336.774,116.98L335.831,117.807L334.887,118.636L333.944,119.466L333.001,120.297L331.113,121.961L329.227,123.628L327.34,125.296L325.452,126.965L323.563,128.634L321.674,130.302L319.784,131.968L318.837,132.8L317.89,133.632L316.943,134.462L315.996,135.292L315.048,136.121L314.099,136.948L313.15,137.774L312.2,138.598L311.249,139.422L310.298,140.243L309.346,141.063L308.397,141.877L307.705,142.471L307.017,143.063L306.33,143.655L305.643,144.247L304.957,144.84L304.272,145.433L303.588,146.028L302.904,146.622L302.221,147.217L301.538,147.813L300.856,148.409L300.175,149.006L299.494,149.603L298.814,150.201L298.135,150.799L297.456,151.398L296.778,151.997L296.1,152.597L295.424,153.198L294.748,153.799L294.072,154.4L293.397,155.002L292.723,155.605L292.049,156.208L291.376,156.812L290.704,157.416L290.032,158.02L289.36,158.626L288.69,159.231L288.02,159.837L287.35,160.444L286.682,161.051L286.013,161.659L285.346,162.267L284.679,162.876L284.012,163.485L283.347,164.095L282.681,164.705L282.017,165.316L281.353,165.928L280.689,166.539L280.026,167.152L279.364,167.764L278.702,168.378L278.041,168.992L277.38,169.606L276.72,170.221L276.062,170.835L274.743,172.068L273.428,173.302L272.116,174.538L270.805,175.776L269.496,177.016L268.19,178.257L266.886,179.501L265.584,180.746L264.284,181.994L262.986,183.243L261.69,184.494L260.396,185.747L259.105,187.002L257.815,188.259L256.527,189.518L255.241,190.778L253.957,192.04L252.676,193.305L251.396,194.57L250.117,195.838L248.841,197.107L247.567,198.379L246.294,199.651L245.024,200.926L243.755,202.203L242.488,203.481L241.222,204.761L239.959,206.042L238.697,207.325L237.437,208.61L236.178,209.897L234.921,211.185L233.666,212.475L232.413,213.767L231.161,215.06L229.91,216.355L228.662,217.651L227.414,218.949L226.169,220.249L224.925,221.55L223.682,222.853L222.441,224.157L221.201,225.463L219.963,226.771L218.726,228.08L217.491,229.391L216.257,230.703L215.025,232.016L213.793,233.331L212.563,234.648L211.335,235.966L210.108,237.286L208.882,238.607L207.657,239.929L206.433,241.253L205.211,242.578L203.99,243.905L202.77,245.233L201.552,246.563L200.334,247.894L199.118,249.226L197.902,250.56L196.688,251.895L195.475,253.231L194.263,254.569L193.052,255.908L191.842,257.248L190.633,258.59L189.425,259.933L188.218,261.277L187.012,262.623L185.807,263.97L184.602,265.318L183.399,266.667L182.197,268.018L180.995,269.37L179.794,270.723L178.594,272.077L177.395,273.432L176.197,274.789L174.999,276.147L173.802,277.506L172.606,278.866L171.41,280.227L170.216,281.59L169.022,282.953L167.828,284.318L166.635,285.684L165.443,287.05L164.252,288.418L163.06,289.787L161.87,291.158L160.68,292.529L159.491,293.901L158.302,295.274L157.113,296.648L155.925,298.024L154.738,299.4L153.551,300.777L152.364,302.156L151.178,303.535L149.992,304.915L148.806,306.296L147.619,307.681L146.418,309.08L145.213,310.479L144.008,311.877L142.801,313.273L141.593,314.667L140.384,316.059L139.174,317.45L137.964,318.839L136.754,320.227L135.543,321.615L133.121,324.384L130.7,327.151L128.28,329.916L125.863,332.679L124.656,334.06L123.45,335.441L122.246,336.821L121.042,338.202L119.841,339.584L118.641,340.965L117.442,342.347L116.246,343.729L115.052,345.112L113.86,346.496L112.67,347.881L111.483,349.267L110.298,350.655L109.707,351.347L109.108,352.052L108.824,352.384L108.439,352.831L107.963,353.381L107.401,354.028L106.759,354.766L106.044,355.587L105.262,356.482L104.421,357.444L103.528,358.465L102.59,359.535L101.615,360.646L100.609,361.79L99.58,362.958L98.536,364.143L97.482,365.336L96.427,366.527L95.802,367.233L95.932,367.233L96.175,367.237L96.417,367.242L96.657,367.25L96.897,367.259L97.135,367.271L97.372,367.285L97.608,367.301L97.842,367.318L98.074,367.338L98.305,367.359L98.535,367.382L98.764,367.407L98.991,367.433L99.216,367.461L99.441,367.49L99.664,367.521L99.885,367.553L100.105,367.587L100.323,367.622L100.54,367.658L100.756,367.696L100.97,367.734L101.183,367.774L101.394,367.815L101.604,367.856L101.813,367.899L102.02,367.943L102.225,367.987L102.43,368.033L102.632,368.079L102.833,368.126L103.034,368.174L103.233,368.222L103.438,368.273L103.82,368.37L104.205,368.472L104.585,368.575L104.96,368.68L105.329,368.786L105.694,368.892L106.054,368.999L106.408,369.107L106.758,369.214L107.103,369.322L107.446,369.429L108.107,369.639L108.754,369.846L109.384,370.047L110.001,370.242L110.296,370.334L110.591,370.425L110.881,370.514L111.166,370.599L111.448,370.682L111.724,370.762L111.996,370.839L112.264,370.912L112.527,370.982L112.794,371.051L112.914,371.081L113.041,371.112L113.166,371.142L113.291,371.172L113.414,371.2L113.536,371.228L113.656,371.254L113.775,371.28L113.895,371.305L114.013,371.329L114.129,371.351L114.244,371.373L114.357,371.394L114.471,371.414L114.583,371.433L114.693,371.451L114.804,371.469L114.912,371.485L115.02,371.5L115.127,371.515L115.232,371.528L115.336,371.541L115.44,371.552L115.565,371.565L116.241,371.634L116.943,371.708L117.646,371.784L118.352,371.862L119.06,371.943L119.77,372.026L120.483,372.111L121.197,372.197L121.913,372.286L122.631,372.376L123.351,372.467L124.073,372.56L124.797,372.654L125.524,372.75L126.976,372.943L128.437,373.14L129.904,373.339L132.851,373.741L134.331,373.942L135.815,374.142L136.556,374.24L137.299,374.339L138.043,374.436L138.786,374.533L139.53,374.629L140.275,374.724L141.019,374.817L141.763,374.909L142.508,375L143.252,375.089L143.996,375.177L144.74,375.263L145.484,375.347L146.226,375.429L146.969,375.509L147.711,375.587L148.452,375.662L149.192,375.735L149.932,375.806L150.67,375.874L151.408,375.94L152.144,376.003L152.883,376.063L153.246,376.091L153.612,376.119L153.979,376.147L154.345,376.173L154.71,376.199L155.076,376.224L155.44,376.248L155.804,376.271L156.168,376.293L156.532,376.315L156.894,376.336L157.257,376.355L157.619,376.374L157.98,376.392L158.341,376.409L158.702,376.425L159.061,376.441L159.421,376.455L159.78,376.468L160.138,376.48L160.496,376.492L160.852,376.502L161.209,376.511L161.565,376.519L161.92,376.527L162.275,376.533L162.629,376.538L162.982,376.542L163.334,376.545L163.686,376.547L164.038,376.548L164.388,376.547L164.737,376.546L165.086,376.543L165.434,376.539L165.782,376.535L166.129,376.528L166.475,376.521L166.819,376.513L167.164,376.503L167.507,376.492L167.85,376.48L168.191,376.467L168.532,376.453L168.872,376.437L169.211,376.42L169.549,376.401L169.887,376.382L170.223,376.361L170.558,376.339L170.893,376.315L171.226,376.291L171.558,376.265L171.89,376.237L172.221,376.208L172.55,376.178L172.878,376.147L173.205,376.114L173.532,376.08L173.857,376.044L174.181,376.007L174.505,375.969L174.826,375.929L175.147,375.888L175.467,375.845L175.786,375.801L176.103,375.756L176.42,375.709L176.735,375.661L177.049,375.611L177.362,375.56L177.673,375.507L177.984,375.453L178.293,375.397L178.601,375.34L178.908,375.281L179.213,375.221L179.518,375.159L179.821,375.096L180.122,375.031L180.423,374.965L180.722,374.897L181.02,374.828L181.316,374.757L181.611,374.684L181.906,374.61L182.198,374.534L182.489,374.457L182.779,374.379L183.068,374.298L183.356,374.216L183.641,374.133L183.926,374.048L184.209,373.961L184.491,373.873L184.771,373.783L185.05,373.691L185.328,373.598L185.604,373.503L185.879,373.407L186.153,373.308L186.425,373.209L186.696,373.107L186.965,373.004L187.233,372.899L187.499,372.793L187.765,372.684L188.028,372.575L188.291,372.463L188.552,372.35L188.811,372.235L189.069,372.118L189.326,372L189.581,371.879L189.835,371.757L190.088,371.634L190.339,371.508L190.589,371.381L190.837,371.252L191.084,371.121L191.33,370.988L191.574,370.854L191.817,370.717L192.059,370.579L192.299,370.439L192.538,370.297L192.775,370.153L193.011,370.007L193.246,369.86L193.479,369.71L193.712,369.559L193.943,369.405L194.172,369.249L194.401,369.092L194.634,368.928L194.74,368.852L194.853,368.771L194.965,368.689L195.078,368.607L195.19,368.524L195.3,368.442L195.412,368.358L195.523,368.274L195.633,368.189L195.743,368.104L195.853,368.018L195.963,367.932L196.072,367.845L196.181,367.758L196.289,367.67L196.398,367.581L196.506,367.492L196.613,367.403L196.721,367.313L196.828,367.222L196.935,367.131L197.041,367.039L197.147,366.947L197.253,366.854L197.358,366.761L197.464,366.666L197.569,366.571L197.673,366.476L197.778,366.381L197.882,366.284L197.986,366.187L198.089,366.089L198.192,365.991L198.295,365.893L198.397,365.793L198.5,365.693L198.602,365.592L198.709,365.486L199.232,364.963L199.759,364.434L200.286,363.904L200.812,363.373L201.337,362.842L201.862,362.31L202.386,361.777L202.91,361.244L203.433,360.711L203.956,360.176L204.478,359.641L205,359.105L205.521,358.569L206.041,358.032L206.561,357.494L207.081,356.956L207.6,356.417L208.118,355.878L208.636,355.338L209.153,354.797L209.67,354.256L210.187,353.714L210.703,353.172L211.217,352.63L212.247,351.541L213.275,350.451L214.301,349.359L215.325,348.265L216.347,347.169L217.367,346.07L218.386,344.97L219.403,343.868L220.418,342.763L221.432,341.657L222.445,340.548L223.455,339.438L224.465,338.326L225.473,337.213L226.48,336.097L227.485,334.98L228.489,333.861L229.492,332.741L230.494,331.619L231.495,330.495L232.494,329.37L233.492,328.243L234.49,327.115L235.486,325.986L236.482,324.855L237.476,323.723L238.47,322.59L239.463,321.455L240.455,320.319L241.446,319.183L242.437,318.045L243.427,316.905L244.416,315.765L245.405,314.624L246.393,313.482L247.381,312.339L248.368,311.195L249.355,310.05L250.342,308.905L251.328,307.759L253.3,305.464L255.271,303.166L257.241,300.867L259.211,298.565L263.153,293.957L267.097,289.346L269.072,287.04L271.048,284.733L273.027,282.427L275.007,280.122L276,278.969L276.992,277.817L277.985,276.665L278.979,275.513L279.974,274.362L280.97,273.211L281.967,272.061L282.964,270.911L283.963,269.762L284.963,268.613L285.964,267.465L286.967,266.318L287.97,265.171L288.975,264.026L289.981,262.88L290.989,261.736L291.997,260.593L293.008,259.45L294.019,258.309L295.033,257.168L296.048,256.029L297.064,254.89L298.082,253.753L299.102,252.617L300.124,251.482L301.147,250.348L302.172,249.216L303.199,248.085L304.228,246.955L305.259,245.827L306.292,244.7L307.327,243.574L308.364,242.45L309.403,241.328L310.444,240.207L311.487,239.088L312.533,237.971L313.581,236.855L314.632,235.741L315.683,234.63L316.212,234.073L316.74,233.518L317.268,232.964L317.797,232.41L318.327,231.857L318.857,231.304L319.388,230.751L319.92,230.199L320.452,229.648L320.985,229.097L321.519,228.546L322.053,227.996L322.588,227.447L323.124,226.898L323.66,226.349L324.197,225.802L324.735,225.254L325.273,224.708L325.812,224.161L326.352,223.616L326.892,223.071L327.434,222.526L327.976,221.982L328.521,221.436L328.939,221.019L329.364,220.599L329.791,220.179L330.222,219.758L330.655,219.336L331.092,218.914L331.532,218.492L331.974,218.069L332.419,217.645L332.867,217.221L333.318,216.797L333.771,216.371L334.226,215.945L334.685,215.519L335.145,215.092L335.607,214.664L336.072,214.236L336.539,213.807L337.008,213.377L337.479,212.947L337.952,212.516L338.428,212.083L339.381,211.22L340.342,210.352L341.31,209.482L342.282,208.609L343.259,207.733L345.223,205.974L347.201,204.203L348.191,203.315L349.183,202.424L350.175,201.53L351.166,200.634L352.159,199.734L352.652,199.285L353.146,198.834L353.64,198.383L354.133,197.931L354.625,197.479L355.117,197.026L355.607,196.572L356.097,196.118L356.586,195.664L357.073,195.209L357.56,194.753L358.045,194.298L358.528,193.841L359.01,193.384L359.491,192.927L359.97,192.469L360.447,192.011L360.923,191.553L361.396,191.094L361.868,190.634L362.338,190.175L362.805,189.715L363.271,189.254L363.734,188.794L364.194,188.333L364.653,187.871L365.109,187.41L365.562,186.948L366.012,186.486L366.46,186.024L366.905,185.561L367.347,185.099L367.786,184.636L368.221,184.173L368.654,183.71L369.084,183.247L369.51,182.783L369.932,182.32L370.351,181.856L370.767,181.393L371.179,180.93L371.59,180.463L371.79,180.235L371.991,180.003L372.192,179.771L372.392,179.54L372.59,179.308L372.788,179.076L372.984,178.845L373.18,178.614L373.375,178.382L373.568,178.151L373.761,177.919L373.952,177.688L374.143,177.457L374.332,177.225L374.52,176.994L374.707,176.763L374.893,176.532L375.078,176.301L375.261,176.07L375.444,175.84L375.625,175.609L375.805,175.378L375.985,175.148L376.163,174.917L376.339,174.687L376.514,174.457L376.689,174.227L376.862,173.996L377.034,173.766L377.204,173.537L377.373,173.307L377.541,173.078L377.708,172.848L377.874,172.619L378.038,172.39L378.201,172.161L378.362,171.932L378.523,171.703L378.682,171.475L378.84,171.246L378.996,171.018L379.15,170.79L379.304,170.562L379.456,170.335L379.607,170.107L379.757,169.88L379.905,169.653L380.051,169.426L380.197,169.199L380.341,168.973L380.483,168.747L380.624,168.521L380.764,168.295L380.902,168.069L381.038,167.844L381.174,167.619L381.308,167.394L381.44,167.169L381.571,166.945L381.7,166.721L381.828,166.497L381.954,166.273L382.079,166.051L382.202,165.828L382.324,165.605L382.444,165.382L382.563,165.16L382.68,164.939L382.796,164.717L382.91,164.496L383.022,164.275L383.131,164.059L383.175,163.969L383.218,163.882L383.26,163.794L383.301,163.706L383.343,163.616L383.384,163.525L383.424,163.433L383.464,163.34L383.504,163.246L383.544,163.151L383.584,163.054L383.622,162.958L383.661,162.859L383.7,162.759L383.738,162.659L383.775,162.558L383.813,162.455L383.85,162.352L383.886,162.247L383.923,162.141L383.959,162.035L383.994,161.927L384.029,161.818L384.064,161.708L384.098,161.599L384.132,161.487L384.166,161.373L384.199,161.26L384.232,161.145L384.264,161.03L384.296,160.913L384.328,160.795L384.359,160.677L384.39,160.557L384.42,160.437L384.45,160.316L384.479,160.194L384.508,160.07L384.537,159.945L384.564,159.821L384.592,159.695L384.619,159.568L384.646,159.441L384.672,159.312L384.698,159.182L384.724,159.052L384.748,158.921L384.771,158.798L384.821,158.523L384.866,158.253L384.91,157.981L384.953,157.705L384.993,157.426L385.031,157.144L385.068,156.86L385.103,156.572L385.136,156.283L385.167,155.99L385.197,155.695L385.224,155.397L385.25,155.097L385.274,154.794L385.296,154.489L385.317,154.182L385.336,153.873L385.353,153.562L385.369,153.249L385.383,152.934L385.395,152.617L385.406,152.298L385.415,151.978L385.422,151.656L385.428,151.332L385.433,151.007L385.436,150.681L385.437,150.353L385.437,150.024L385.436,149.693L385.433,149.362L385.429,149.029L385.424,148.695L385.418,148.36L385.41,148.024L385.401,147.688L385.391,147.351L385.379,147.013L385.367,146.674L385.353,146.335L385.339,145.995L385.323,145.655L385.307,145.314L385.289,144.973L385.271,144.632L385.251,144.29L385.231,143.948L385.21,143.606L385.189,143.264L385.166,142.925L385.119,142.237L385.07,141.553L385.018,140.87L384.965,140.189L384.91,139.509L384.854,138.831L384.797,138.157L384.681,136.812L384.565,135.483L384.451,134.175L384.396,133.523L384.343,132.879L384.291,132.239L384.242,131.604L384.196,130.975L384.153,130.355L384.132,130.04L384.112,129.731L384.094,129.424L384.076,129.118L384.06,128.813L384.044,128.509L384.03,128.207L384.017,127.906L384.005,127.605L383.994,127.307L383.985,127.009L383.978,126.712L383.972,126.416L383.967,126.121L383.965,125.828L383.964,125.54L383.965,125.037L383.967,124.536L383.972,124.033L383.979,123.526L383.987,123.016L383.997,122.504L384.009,121.988L384.022,121.47L384.036,120.949L384.053,120.426L384.07,119.9L384.089,119.371L384.11,118.84L384.131,118.306L384.154,117.77L384.178,117.232L384.203,116.691L384.23,116.149L384.257,115.604L384.285,115.057L384.315,114.508L384.345,113.955L384.408,112.851L384.474,111.737L384.543,110.617L384.614,109.492L384.687,108.362L384.762,107.228L384.839,106.089L384.994,103.807L385.151,101.515L385.229,100.369L385.307,99.224L385.383,98.079L385.458,96.937L385.531,95.797L385.602,94.66L385.671,93.528L385.737,92.397L385.768,91.838L385.799,91.278L385.829,90.719L385.859,90.162L385.887,89.606L385.914,89.053L385.941,88.501L385.966,87.952L385.99,87.404L386.013,86.859L386.035,86.317L386.056,85.777L386.075,85.239L386.094,84.704L386.11,84.172L386.126,83.643L386.14,83.116L386.152,82.593L386.164,82.073L386.173,81.556L386.181,81.043L386.188,80.533L386.192,80.027L386.195,79.525L386.197,79.026L386.197,78.531L386.195,78.041L386.191,77.555L386.185,77.073L386.178,76.596L386.168,76.123L386.157,75.655L386.144,75.192L386.128,74.734L386.111,74.28L386.11,74.251L385.762,74.603ZM78.478,365.117L77.082,365.457L76.235,365.796L75.908,365.963L78.361,365.166L80.035,365.214L79.351,365.099L78.478,365.117Z" style="fill:rgb(25,57,137);"/>
        </g>
        <g transform="matrix(1.0187,0,0,1.1094,-12.2071,139.886)">
            <path d="M401.176,219.558C401.22,221.837 398.897,218.721 401.176,218.721C411.521,218.721 477.519,207.06 479.065,207.833C479.775,208.188 489.952,250.335 492.465,254.734C513.727,291.941 551.154,297.147 587.942,284.884C615.213,275.794 640.705,250.022 640.705,221.233C640.705,220.994 668.713,223.788 687.606,222.071C691.582,221.709 719.893,215.917 721.107,219.558C726.27,235.048 705.911,286.112 698.617,299.241C651.271,384.465 512.733,411.068 448.702,328.742C435.255,311.454 401.176,219.558 401.176,219.558Z" style="fill:rgb(25,57,137);"/>
            <path d="M478.979,199.799L479.219,199.806L479.498,199.823L479.835,199.853L480.263,199.91L480.826,200.018L481.474,200.195L482.061,200.409L482.33,200.529L483.624,201.259L483.632,201.265L484.801,202.253L484.811,202.263L485.43,202.979L485.629,203.237L485.928,203.697L486.128,204.044L486.271,204.317L486.381,204.542L486.481,204.762L486.598,205.037L486.7,205.298L486.786,205.53L486.863,205.747L486.934,205.956L487.003,206.164L487.07,206.374L487.138,206.588L487.206,206.809L487.275,207.035L487.345,207.271L487.419,207.519L487.566,208.026L487.723,208.576L487.888,209.161L488.061,209.784L488.242,210.442L488.431,211.134L488.627,211.86L488.831,212.617L489.042,213.405L489.26,214.223L489.715,215.934L490.193,217.742L490.691,219.631L491.735,223.598L492.275,225.647L492.822,227.719L493.375,229.802L493.652,230.841L493.929,231.878L494.205,232.91L494.481,233.934L494.755,234.95L495.028,235.956L495.298,236.949L495.567,237.927L495.832,238.889L496.094,239.833L496.352,240.756L496.605,241.657L496.854,242.534L497.098,243.384L497.336,244.206L497.569,245L497.682,245.381L497.793,245.755L497.903,246.121L498.011,246.478L498.117,246.825L498.221,247.163L498.322,247.49L498.422,247.807L498.518,248.112L498.613,248.407L498.704,248.689L498.793,248.959L498.879,249.217L498.961,249.461L499.04,249.691L499.115,249.906L499.186,250.106L499.253,250.288L499.314,250.454L499.37,250.6L499.419,250.726L499.461,250.828L499.493,250.906L499.495,250.91L499.639,251.161L499.869,251.555L500.099,251.946L500.331,252.333L500.563,252.718L500.797,253.1L501.032,253.479L501.268,253.855L501.506,254.228L501.744,254.599L501.984,254.966L502.224,255.331L502.466,255.692L502.709,256.051L502.952,256.407L503.197,256.76L503.443,257.11L503.69,257.458L503.938,257.802L504.188,258.144L504.438,258.483L504.689,258.819L504.941,259.153L505.194,259.483L505.449,259.811L505.704,260.137L505.96,260.459L506.218,260.779L506.476,261.096L506.735,261.41L506.996,261.722L507.257,262.031L507.519,262.337L507.782,262.641L508.046,262.942L508.311,263.24L508.577,263.536L508.844,263.829L509.112,264.12L509.381,264.408L509.651,264.693L509.922,264.976L510.193,265.256L510.466,265.533L510.739,265.808L511.014,266.081L511.289,266.351L511.565,266.618L511.843,266.883L512.121,267.146L512.4,267.406L512.679,267.663L512.96,267.918L513.242,268.171L513.524,268.421L513.808,268.668L514.092,268.914L514.377,269.156L514.663,269.397L514.95,269.635L515.238,269.87L515.527,270.104L515.816,270.335L516.106,270.563L516.398,270.789L516.69,271.013L516.983,271.234L517.277,271.454L517.571,271.67L517.867,271.885L518.163,272.097L518.461,272.307L518.759,272.514L519.058,272.72L519.357,272.923L519.658,273.124L519.96,273.322L520.262,273.519L520.565,273.713L520.869,273.905L521.174,274.094L521.48,274.282L521.786,274.467L522.094,274.65L522.402,274.831L522.711,275.01L523.021,275.186L523.332,275.361L523.643,275.533L523.955,275.703L524.269,275.871L524.582,276.036L524.898,276.2L525.214,276.362L525.53,276.521L525.847,276.678L526.165,276.833L526.485,276.987L526.805,277.138L527.125,277.286L527.447,277.433L527.769,277.578L528.092,277.721L528.417,277.861L528.741,278L529.067,278.136L529.394,278.271L529.721,278.403L530.049,278.534L530.378,278.662L530.708,278.788L531.038,278.912L531.37,279.035L531.702,279.155L532.035,279.273L532.369,279.389L532.703,279.504L533.039,279.616L533.375,279.726L533.712,279.834L534.05,279.941L534.389,280.045L534.728,280.147L535.069,280.248L535.41,280.346L535.752,280.442L536.094,280.537L536.438,280.629L536.782,280.72L537.127,280.808L537.473,280.895L537.82,280.979L538.167,281.062L538.515,281.143L538.864,281.222L539.214,281.299L539.565,281.374L539.915,281.447L540.267,281.518L540.62,281.587L540.974,281.654L541.328,281.72L541.683,281.783L542.039,281.844L542.395,281.904L542.753,281.962L543.111,282.018L543.47,282.071L543.829,282.123L544.189,282.174L544.55,282.222L544.912,282.268L545.274,282.313L545.637,282.355L546.001,282.396L546.365,282.435L546.73,282.471L547.096,282.506L547.463,282.54L547.83,282.571L548.198,282.6L548.567,282.628L548.936,282.654L549.306,282.677L549.677,282.699L550.048,282.72L550.42,282.738L550.792,282.754L551.165,282.769L551.54,282.781L551.914,282.792L552.289,282.801L552.665,282.809L553.041,282.814L553.418,282.818L553.795,282.819L554.174,282.819L554.552,282.817L554.932,282.813L555.312,282.808L555.692,282.8L556.073,282.791L556.455,282.78L556.837,282.767L557.22,282.753L557.603,282.736L557.987,282.718L558.371,282.698L558.756,282.676L559.142,282.652L559.527,282.627L559.914,282.6L560.301,282.571L560.688,282.54L561.076,282.507L561.465,282.473L561.854,282.437L562.243,282.399L562.633,282.36L563.023,282.318L563.414,282.275L563.805,282.23L564.197,282.183L564.589,282.135L564.982,282.085L565.374,282.033L565.768,281.979L566.161,281.924L566.556,281.867L566.95,281.808L567.345,281.747L567.741,281.685L568.136,281.621L568.533,281.556L568.929,281.488L569.326,281.419L569.723,281.348L570.12,281.276L570.518,281.201L570.916,281.125L571.315,281.048L571.714,280.968L572.113,280.887L572.512,280.805L572.912,280.72L573.312,280.634L573.712,280.547L574.113,280.457L574.514,280.366L574.915,280.273L575.316,280.179L575.718,280.083L576.12,279.986L576.522,279.886L576.924,279.785L577.326,279.683L577.729,279.579L578.132,279.473L578.535,279.365L578.939,279.256L579.342,279.146L579.746,279.033L580.15,278.919L580.554,278.804L580.958,278.687L581.362,278.568L581.767,278.448L582.171,278.326L582.576,278.203L582.981,278.078L583.386,277.951L583.791,277.823L584.196,277.693L584.602,277.562L585.007,277.429L585.41,277.295L585.698,277.199L585.984,277.101L586.269,277.003L586.555,276.902L586.841,276.801L587.126,276.698L587.412,276.593L587.697,276.488L587.983,276.381L588.268,276.272L588.554,276.162L588.838,276.051L589.123,275.938L589.408,275.824L589.693,275.709L589.977,275.592L590.261,275.474L590.546,275.355L590.83,275.234L591.113,275.112L591.397,274.989L591.68,274.864L591.963,274.738L592.247,274.611L592.529,274.482L592.812,274.352L593.094,274.221L593.376,274.088L593.657,273.954L593.939,273.819L594.22,273.683L594.5,273.545L594.781,273.406L595.061,273.266L595.34,273.124L595.62,272.982L595.899,272.838L596.177,272.692L596.455,272.546L596.733,272.398L597.011,272.249L597.288,272.099L597.564,271.947L597.84,271.795L598.116,271.641L598.392,271.486L598.666,271.329L598.94,271.172L599.214,271.013L599.487,270.853L599.761,270.692L600.033,270.53L600.305,270.366L600.576,270.202L600.847,270.036L601.117,269.869L601.386,269.701L601.655,269.532L601.924,269.362L602.192,269.19L602.459,269.018L602.726,268.844L602.992,268.669L603.258,268.493L603.522,268.316L603.787,268.138L604.05,267.959L604.313,267.778L604.576,267.596L604.837,267.414L605.097,267.231L605.358,267.046L605.617,266.86L605.876,266.673L606.134,266.485L606.391,266.296L606.647,266.107L606.903,265.916L607.158,265.724L607.413,265.53L607.666,265.336L607.919,265.141L608.171,264.945L608.421,264.748L608.672,264.55L608.921,264.351L609.17,264.151L609.418,263.95L609.664,263.748L609.91,263.545L610.155,263.341L610.399,263.136L610.643,262.93L610.885,262.723L611.127,262.516L611.367,262.307L611.607,262.098L611.846,261.887L612.084,261.676L612.32,261.464L612.556,261.251L612.791,261.036L613.025,260.821L613.258,260.606L613.49,260.389L613.721,260.171L613.951,259.953L614.18,259.733L614.407,259.514L614.634,259.293L614.86,259.07L615.085,258.848L615.309,258.624L615.531,258.4L615.753,258.175L615.973,257.949L616.192,257.722L616.411,257.495L616.628,257.267L616.844,257.037L617.058,256.807L617.272,256.577L617.485,256.345L617.696,256.113L617.906,255.88L618.115,255.647L618.323,255.413L618.53,255.177L618.735,254.942L618.939,254.705L619.143,254.467L619.345,254.23L619.545,253.991L619.744,253.752L619.942,253.512L620.139,253.271L620.335,253.03L620.529,252.787L620.722,252.545L620.914,252.301L621.104,252.058L621.293,251.813L621.482,251.567L621.668,251.321L621.853,251.075L622.037,250.828L622.22,250.58L622.401,250.332L622.581,250.083L622.759,249.834L622.936,249.584L623.112,249.333L623.286,249.082L623.459,248.83L623.631,248.577L623.801,248.325L623.97,248.071L624.137,247.817L624.303,247.563L624.468,247.307L624.631,247.052L624.792,246.796L624.952,246.54L625.111,246.282L625.268,246.025L625.424,245.767L625.578,245.508L625.731,245.249L625.883,244.99L626.032,244.73L626.18,244.47L626.327,244.209L626.473,243.947L626.616,243.686L626.759,243.424L626.899,243.161L627.038,242.899L627.176,242.635L627.312,242.371L627.446,242.108L627.579,241.843L627.711,241.577L627.841,241.312L627.969,241.047L628.095,240.781L628.22,240.515L628.344,240.247L628.466,239.981L628.586,239.713L628.704,239.446L628.821,239.177L628.937,238.908L629.05,238.64L629.162,238.371L629.273,238.102L629.382,237.831L629.489,237.561L629.594,237.292L629.698,237.021L629.8,236.75L629.9,236.479L629.999,236.207L630.096,235.936L630.191,235.664L630.285,235.392L630.377,235.119L630.467,234.846L630.556,234.573L630.643,234.299L630.728,234.026L630.811,233.753L630.893,233.478L630.973,233.205L631.051,232.93L631.128,232.655L631.202,232.381L631.275,232.105L631.347,231.829L631.416,231.555L631.484,231.279L631.55,231.002L631.614,230.726L631.676,230.45L631.736,230.174L631.795,229.897L631.852,229.62L631.908,229.343L631.961,229.066L632.013,228.788L632.062,228.51L632.11,228.233L632.156,227.955L632.201,227.677L632.243,227.398L632.284,227.12L632.323,226.841L632.36,226.562L632.395,226.283L632.428,226.004L632.459,225.725L632.489,225.445L632.517,225.166L632.542,224.886L632.566,224.605L632.589,224.325L632.609,224.045L632.627,223.765L632.643,223.484L632.658,223.204L632.67,222.923L632.681,222.641L632.69,222.36L632.696,222.079L632.701,221.797L632.704,221.515L632.705,221.206L632.91,219.436L633.501,217.755L633.502,217.752L634.762,215.877L636.496,214.428L636.5,214.426L638.175,213.64L638.181,213.638L639.107,213.39L639.115,213.388L639.821,213.275L640.088,213.245L640.505,213.223L640.773,213.218L640.995,213.219L641.28,213.226L641.56,213.237L641.838,213.251L642.13,213.267L642.444,213.287L642.783,213.308L643.15,213.332L643.962,213.388L645.926,213.524L647.067,213.602L648.306,213.685L649.64,213.772L650.337,213.816L651.056,213.861L651.796,213.906L652.554,213.952L653.331,213.997L654.125,214.042L654.935,214.086L655.762,214.13L656.603,214.174L657.458,214.216L658.326,214.257L659.207,214.297L660.099,214.336L661.002,214.372L661.914,214.408L662.835,214.441L663.764,214.472L664.7,214.501L665.642,214.527L666.592,214.551L667.064,214.562L667.541,214.572L668.018,214.582L668.496,214.591L668.974,214.599L669.453,214.606L669.933,214.612L670.413,214.618L670.893,214.622L671.373,214.626L671.853,214.629L672.333,214.631L672.812,214.632L673.291,214.632L673.77,214.631L674.248,214.629L674.725,214.626L675.202,214.622L675.677,214.617L676.151,214.611L676.624,214.604L677.096,214.596L677.566,214.587L678.035,214.576L678.502,214.565L678.967,214.552L679.431,214.538L679.892,214.523L680.351,214.506L680.807,214.489L681.261,214.47L681.713,214.449L682.162,214.428L682.608,214.405L683.051,214.381L683.491,214.356L683.927,214.329L684.361,214.301L684.79,214.271L685.217,214.241L685.639,214.208L686.057,214.175L686.472,214.14L686.867,214.105L686.892,214.102L686.924,214.099L686.978,214.093L687.039,214.085L687.242,214.058L687.485,214.024L687.774,213.982L688.103,213.932L688.47,213.874L688.869,213.811L689.3,213.741L689.758,213.666L690.761,213.5L693.037,213.122L694.292,212.914L695.607,212.698L696.289,212.588L696.981,212.477L697.684,212.365L698.397,212.253L699.12,212.141L699.849,212.029L700.586,211.918L701.327,211.808L702.073,211.699L702.823,211.592L703.574,211.487L704.327,211.385L705.08,211.285L705.828,211.189L706.207,211.141L706.582,211.095L706.956,211.05L707.329,211.006L707.702,210.962L708.073,210.92L708.443,210.879L708.812,210.84L709.18,210.801L709.546,210.764L709.911,210.728L710.274,210.693L710.635,210.659L710.995,210.628L711.352,210.597L711.708,210.568L712.062,210.541L712.414,210.516L712.764,210.492L713.111,210.47L713.457,210.449L713.8,210.431L714.142,210.414L714.481,210.4L714.818,210.388L715.153,210.378L715.487,210.37L715.818,210.364L716.148,210.361L716.476,210.361L716.803,210.364L717.129,210.369L717.454,210.378L717.779,210.389L718.103,210.405L718.428,210.424L718.741,210.446L718.917,210.461L719.081,210.476L719.246,210.492L719.411,210.509L719.577,210.527L719.745,210.548L719.913,210.569L720.082,210.593L720.253,210.618L720.425,210.646L720.599,210.675L720.775,210.707L720.953,210.741L721.133,210.778L721.315,210.818L721.501,210.861L721.69,210.907L721.882,210.957L722.077,211.011L722.277,211.07L722.48,211.134L722.688,211.203L722.902,211.278L723.12,211.36L723.343,211.45L723.572,211.547L723.807,211.654L724.049,211.771L724.297,211.899L724.553,212.041L724.813,212.196L725.079,212.365L725.352,212.551L725.63,212.756L725.911,212.98L726.198,213.227L726.485,213.497L726.771,213.79L727.055,214.11L727.332,214.454L727.601,214.824L727.86,215.222L728.101,215.643L728.322,216.083L728.524,216.548L728.665,216.935L728.747,217.184L728.797,217.339L728.845,217.494L728.892,217.649L728.937,217.802L728.981,217.958L729.024,218.116L729.069,218.284L729.145,218.578L729.22,218.89L729.289,219.199L729.355,219.509L729.416,219.82L729.474,220.131L729.527,220.442L729.577,220.754L729.622,221.065L729.665,221.377L729.703,221.689L729.739,222.001L729.771,222.314L729.8,222.628L729.826,222.942L729.849,223.258L729.869,223.574L729.887,223.891L729.901,224.208L729.913,224.525L729.923,224.844L729.929,225.164L729.934,225.484L729.935,225.806L729.935,226.129L729.932,226.452L729.927,226.776L729.919,227.102L729.909,227.429L729.897,227.756L729.883,228.085L729.867,228.415L729.849,228.746L729.829,229.077L729.806,229.411L729.782,229.745L729.756,230.081L729.728,230.417L729.698,230.755L729.666,231.095L729.632,231.435L729.597,231.776L729.559,232.119L729.52,232.462L729.479,232.807L729.437,233.153L729.392,233.5L729.346,233.849L729.298,234.199L729.249,234.549L729.198,234.901L729.146,235.255L729.091,235.609L729.036,235.965L728.978,236.321L728.919,236.678L728.859,237.037L728.797,237.397L728.734,237.759L728.669,238.121L728.603,238.484L728.535,238.847L728.466,239.213L728.395,239.58L728.323,239.947L728.25,240.315L728.175,240.685L728.099,241.055L728.022,241.425L727.943,241.798L727.863,242.171L727.782,242.545L727.699,242.921L727.616,243.296L727.531,243.673L727.444,244.05L727.357,244.428L727.268,244.808L727.178,245.188L727.087,245.568L726.995,245.95L726.902,246.333L726.807,246.715L726.712,247.099L726.615,247.484L726.517,247.869L726.419,248.254L726.319,248.641L726.218,249.028L726.116,249.414L726.013,249.802L725.909,250.191L725.804,250.58L725.698,250.97L725.591,251.36L725.483,251.754L725.265,252.532L725.043,253.316L724.817,254.101L724.588,254.887L724.356,255.675L724.121,256.463L723.882,257.252L723.641,258.041L723.396,258.831L723.149,259.62L722.9,260.41L722.647,261.199L722.392,261.988L722.135,262.776L721.876,263.564L721.615,264.35L721.351,265.135L721.086,265.919L720.819,266.701L720.55,267.481L720.28,268.259L720.008,269.036L719.735,269.809L719.461,270.58L719.185,271.349L718.909,272.114L718.631,272.876L718.353,273.635L718.074,274.391L717.794,275.142L717.514,275.89L717.234,276.633L716.953,277.372L716.672,278.107L716.39,278.837L716.109,279.562L715.829,280.281L715.548,280.996L715.267,281.705L714.987,282.408L714.708,283.105L714.429,283.797L714.151,284.482L713.874,285.16L713.598,285.832L713.323,286.497L713.049,287.155L712.777,287.805L712.505,288.449L712.235,289.084L711.967,289.712L711.701,290.332L711.436,290.943L711.173,291.546L710.912,292.141L710.653,292.727L710.396,293.304L710.141,293.872L709.889,294.431L709.639,294.98L709.391,295.52L709.147,296.05L708.904,296.57L708.664,297.081L708.428,297.58L708.194,298.071L707.962,298.55L707.734,299.019L707.509,299.478L707.286,299.926L707.067,300.363L706.85,300.79L706.637,301.206L706.426,301.611L706.218,302.005L706.013,302.389L705.81,302.763L705.613,303.122L705.315,303.655L705.018,304.183L704.718,304.709L704.416,305.233L704.112,305.756L703.806,306.278L703.497,306.798L703.187,307.317L702.874,307.834L702.56,308.349L702.243,308.864L701.924,309.376L701.603,309.887L701.28,310.397L700.955,310.905L700.627,311.412L700.298,311.917L699.967,312.421L699.634,312.923L699.298,313.424L698.961,313.923L698.622,314.42L698.28,314.917L697.937,315.411L697.591,315.904L697.244,316.395L696.894,316.885L696.543,317.374L696.19,317.861L695.835,318.346L695.478,318.83L695.118,319.312L694.757,319.793L694.394,320.272L694.03,320.75L693.663,321.226L693.294,321.7L692.924,322.173L692.551,322.645L692.177,323.115L691.801,323.583L691.423,324.05L691.044,324.515L690.662,324.978L690.279,325.441L689.893,325.901L689.507,326.36L689.118,326.817L688.727,327.273L688.335,327.727L687.941,328.18L687.545,328.631L687.147,329.08L686.748,329.528L686.346,329.974L685.944,330.419L685.539,330.862L685.133,331.303L684.725,331.743L684.315,332.181L683.903,332.618L683.49,333.053L683.076,333.486L682.659,333.918L682.241,334.349L681.821,334.777L681.4,335.204L680.977,335.63L680.552,336.053L680.126,336.475L679.698,336.896L679.268,337.315L678.837,337.732L678.405,338.148L677.971,338.562L677.535,338.974L677.098,339.385L676.659,339.794L676.218,340.202L675.776,340.607L675.333,341.012L674.887,341.414L674.441,341.815L673.993,342.214L673.543,342.612L673.092,343.008L672.64,343.402L672.186,343.795L671.73,344.186L671.273,344.575L670.815,344.963L670.355,345.349L669.894,345.733L669.431,346.116L668.967,346.497L668.502,346.876L668.035,347.254L667.566,347.63L667.097,348.004L666.626,348.377L666.153,348.748L665.679,349.117L665.204,349.485L664.727,349.851L664.25,350.215L663.77,350.577L663.29,350.938L662.808,351.298L662.325,351.655L661.84,352.011L661.355,352.365L660.867,352.717L660.379,353.068L659.889,353.417L659.399,353.764L658.906,354.11L658.413,354.454L657.918,354.796L657.422,355.136L656.925,355.475L656.427,355.812L655.928,356.147L655.427,356.481L654.925,356.813L654.422,357.143L653.918,357.471L653.412,357.798L652.905,358.123L652.398,358.446L651.889,358.768L651.379,359.087L650.867,359.405L650.355,359.722L649.841,360.036L649.327,360.349L648.811,360.66L648.294,360.97L647.777,361.277L647.257,361.583L646.737,361.887L646.216,362.189L645.694,362.49L645.171,362.789L644.646,363.086L644.121,363.381L643.595,363.675L643.068,363.966L642.539,364.256L642.01,364.545L641.479,364.831L640.948,365.116L640.415,365.399L639.882,365.68L639.348,365.959L638.812,366.237L638.276,366.513L637.739,366.786L637.201,367.059L636.662,367.329L636.122,367.598L635.58,367.865L635.039,368.13L634.496,368.393L633.952,368.654L633.408,368.914L632.862,369.172L632.316,369.428L631.769,369.682L631.221,369.935L630.672,370.185L630.122,370.434L629.571,370.681L629.02,370.926L628.468,371.17L627.914,371.411L627.361,371.651L626.806,371.889L626.25,372.125L625.694,372.359L625.137,372.592L624.579,372.823L624.021,373.051L623.461,373.278L622.901,373.503L622.34,373.727L621.779,373.948L621.216,374.168L620.653,374.385L620.09,374.601L619.525,374.815L618.959,375.028L618.394,375.238L617.827,375.446L617.26,375.653L616.692,375.858L616.124,376.06L615.554,376.262L614.984,376.461L614.414,376.658L613.842,376.853L613.271,377.047L612.698,377.239L612.125,377.428L611.551,377.616L610.977,377.802L610.402,377.986L609.827,378.169L609.251,378.349L608.674,378.527L608.097,378.704L607.519,378.879L606.941,379.051L606.362,379.222L605.783,379.391L605.203,379.558L604.622,379.724L604.042,379.887L603.46,380.048L602.878,380.208L602.296,380.365L601.713,380.521L601.129,380.674L600.546,380.826L599.961,380.976L599.376,381.124L598.791,381.27L598.206,381.414L597.619,381.556L597.033,381.696L596.446,381.835L595.858,381.971L595.27,382.105L594.682,382.238L594.094,382.368L593.505,382.497L592.915,382.623L592.326,382.748L591.736,382.87L591.145,382.991L590.554,383.11L589.963,383.227L589.372,383.341L588.78,383.454L588.188,383.565L587.595,383.674L587.003,383.781L586.409,383.886L585.816,383.989L585.223,384.09L584.629,384.189L584.034,384.286L583.44,384.381L582.845,384.474L582.25,384.565L581.655,384.654L581.06,384.741L580.464,384.826L579.868,384.909L579.272,384.99L578.676,385.069L578.079,385.146L577.483,385.221L576.886,385.294L576.289,385.364L575.692,385.433L575.094,385.5L574.497,385.565L573.899,385.628L573.301,385.689L572.703,385.747L572.105,385.804L571.507,385.859L570.909,385.911L570.31,385.962L569.712,386.011L569.113,386.057L568.515,386.101L567.916,386.144L567.317,386.184L566.718,386.222L566.119,386.259L565.52,386.293L564.921,386.325L564.322,386.355L563.723,386.383L563.124,386.409L562.525,386.432L561.925,386.454L561.326,386.474L560.727,386.491L560.128,386.506L559.529,386.52L558.93,386.531L558.331,386.54L557.732,386.547L557.133,386.552L556.534,386.555L555.936,386.556L555.337,386.554L554.738,386.551L554.14,386.545L553.542,386.537L552.943,386.527L552.345,386.515L551.747,386.501L551.149,386.485L550.551,386.467L549.953,386.446L549.356,386.423L548.759,386.399L548.162,386.372L547.564,386.343L546.968,386.311L546.371,386.278L545.774,386.242L545.178,386.205L544.582,386.165L543.986,386.123L543.391,386.078L542.795,386.032L542.2,385.984L541.605,385.933L541.011,385.88L540.417,385.825L539.823,385.768L539.228,385.708L538.635,385.646L538.042,385.583L537.449,385.517L536.856,385.448L536.264,385.378L535.672,385.305L535.08,385.23L534.489,385.153L533.898,385.074L533.307,384.993L532.717,384.909L532.127,384.823L531.538,384.735L530.949,384.645L530.36,384.552L529.771,384.457L529.184,384.36L528.596,384.261L528.009,384.159L527.422,384.055L526.836,383.949L526.25,383.841L525.665,383.731L525.08,383.618L524.495,383.503L523.911,383.385L523.328,383.266L522.745,383.144L522.163,383.02L521.581,382.894L520.999,382.765L520.418,382.634L519.838,382.501L519.258,382.365L518.679,382.227L518.1,382.087L517.522,381.945L516.944,381.8L516.367,381.653L515.791,381.504L515.215,381.353L514.64,381.199L514.065,381.042L513.491,380.884L512.918,380.723L512.345,380.56L511.773,380.395L511.201,380.227L510.631,380.057L510.06,379.884L509.491,379.709L508.922,379.532L508.354,379.353L507.787,379.171L507.22,378.987L506.654,378.8L506.089,378.612L505.524,378.42L504.961,378.227L504.397,378.031L503.835,377.833L503.273,377.632L502.713,377.429L502.153,377.224L501.594,377.016L501.035,376.806L500.478,376.593L499.921,376.378L499.365,376.161L498.81,375.942L498.256,375.72L497.702,375.495L497.15,375.268L496.598,375.039L496.047,374.807L495.498,374.573L494.949,374.337L494.4,374.098L493.853,373.857L493.307,373.613L492.761,373.367L492.217,373.119L491.674,372.868L491.131,372.614L490.589,372.359L490.049,372.1L489.509,371.84L488.97,371.577L488.433,371.311L487.896,371.043L487.36,370.773L486.826,370.5L486.292,370.225L485.759,369.947L485.228,369.667L484.698,369.384L484.168,369.099L483.64,368.811L483.112,368.522L482.586,368.229L482.061,367.934L481.537,367.637L481.014,367.337L480.493,367.034L479.972,366.73L479.453,366.422L478.934,366.113L478.417,365.8L477.901,365.486L477.386,365.168L476.873,364.849L476.36,364.527L475.849,364.202L475.339,363.875L474.83,363.545L474.323,363.213L473.816,362.878L473.311,362.541L472.808,362.201L472.305,361.859L471.804,361.514L471.304,361.167L470.805,360.817L470.308,360.465L469.812,360.11L469.317,359.753L468.823,359.393L468.332,359.031L467.841,358.666L467.351,358.299L466.863,357.929L466.377,357.556L465.892,357.181L465.408,356.804L464.925,356.424L464.444,356.041L463.965,355.656L463.486,355.269L463.01,354.878L462.534,354.486L462.061,354.091L461.588,353.693L461.117,353.292L460.648,352.889L460.18,352.484L459.713,352.076L459.248,351.665L458.785,351.252L458.323,350.837L457.863,350.419L457.404,349.998L456.947,349.575L456.491,349.149L456.037,348.72L455.584,348.289L455.133,347.856L454.684,347.42L454.236,346.981L453.79,346.54L453.345,346.096L452.903,345.65L452.462,345.201L452.022,344.749L451.584,344.295L451.148,343.839L450.713,343.379L450.28,342.917L449.849,342.453L449.419,341.986L448.992,341.517L448.566,341.045L448.141,340.57L447.719,340.093L447.298,339.613L446.879,339.13L446.461,338.645L446.046,338.158L445.632,337.668L445.22,337.175L444.81,336.68L444.401,336.182L443.995,335.681L443.59,335.178L443.187,334.673L442.786,334.165L442.38,333.645L442.179,333.383L441.972,333.109L441.766,332.831L441.562,332.549L441.357,332.262L441.154,331.972L440.951,331.678L440.748,331.379L440.545,331.076L440.342,330.768L440.14,330.456L439.937,330.14L439.733,329.819L439.529,329.493L439.324,329.163L439.119,328.828L438.914,328.489L438.708,328.145L438.501,327.796L438.293,327.443L438.085,327.085L437.875,326.722L437.666,326.355L437.455,325.983L437.243,325.607L437.031,325.226L436.817,324.841L436.603,324.451L436.388,324.056L436.172,323.657L435.955,323.254L435.738,322.847L435.519,322.435L435.299,322.018L435.079,321.598L434.858,321.173L434.635,320.744L434.412,320.311L434.188,319.873L433.964,319.432L433.738,318.986L433.511,318.537L433.284,318.083L433.056,317.626L432.827,317.165L432.597,316.7L432.366,316.231L432.135,315.759L431.903,315.283L431.67,314.803L431.436,314.319L431.202,313.833L430.967,313.342L430.731,312.848L430.494,312.351L430.257,311.851L430.019,311.347L429.779,310.838L429.301,309.817L428.82,308.782L428.336,307.734L427.85,306.676L427.362,305.606L426.873,304.526L426.381,303.436L425.888,302.336L425.393,301.227L424.897,300.109L424.4,298.984L423.901,297.85L423.402,296.709L422.902,295.561L422.401,294.406L421.9,293.246L421.399,292.08L420.897,290.909L420.395,289.733L419.894,288.554L419.392,287.37L418.891,286.184L418.391,284.994L417.891,283.802L417.392,282.609L416.894,281.414L416.398,280.218L415.902,279.022L415.408,277.826L414.916,276.63L414.425,275.435L413.937,274.242L413.45,273.05L412.966,271.861L412.484,270.675L412.004,269.492L411.527,268.313L411.054,267.139L410.583,265.969L410.115,264.804L409.65,263.645L409.189,262.492L408.732,261.345L408.278,260.206L407.829,259.074L407.383,257.951L406.942,256.836L406.505,255.729L406.072,254.632L405.221,252.47L404.391,250.35L403.581,248.278L402.794,246.256L402.031,244.29L401.293,242.383L400.581,240.537L399.897,238.758L399.241,237.05L398.615,235.415L398.021,233.857L397.459,232.382L396.93,230.991L396.437,229.69L395.98,228.481L395.56,227.369L395.179,226.357L395.082,226.098L394.985,226.01L394.662,225.683L394.371,225.358L394.109,225.036L393.866,224.709L393.644,224.38L393.439,224.048L393.248,223.707L393.071,223.357L392.907,222.996L392.755,222.617L392.617,222.225L392.493,221.813L392.384,221.375L392.294,220.913L392.233,220.483L392.203,220.176L392.185,219.909L392.174,219.637L392.172,219.362L392.179,219.071L392.197,218.773L392.224,218.474L392.264,218.165L392.316,217.844L392.382,217.523L392.462,217.194L392.559,216.857L392.671,216.518L392.8,216.178L392.946,215.838L393.11,215.497L393.29,215.162L393.487,214.83L393.705,214.5L393.934,214.185L394.179,213.877L394.44,213.58L394.711,213.298L394.994,213.03L395.287,212.775L395.587,212.538L395.891,212.318L396.199,212.114L396.511,211.927L396.82,211.757L397.128,211.604L397.437,211.465L397.743,211.341L398.041,211.232L398.336,211.136L398.627,211.052L398.91,210.98L399.186,210.919L399.459,210.867L399.723,210.824L399.981,210.79L400.232,210.763L400.477,210.744L400.715,210.73L400.948,210.723L401.116,210.721L401.234,210.72L401.301,210.719L401.378,210.718L401.464,210.716L401.559,210.712L401.663,210.708L401.776,210.704L401.886,210.698L402.156,210.683L402.444,210.664L402.757,210.642L403.094,210.616L403.453,210.586L403.834,210.552L404.236,210.514L404.658,210.473L405.098,210.428L405.558,210.379L406.035,210.327L406.528,210.272L407.039,210.213L407.566,210.151L408.108,210.086L408.665,210.018L409.237,209.947L409.824,209.873L410.424,209.797L411.037,209.717L411.664,209.635L412.302,209.55L412.953,209.462L413.616,209.372L414.29,209.28L414.975,209.185L415.671,209.088L416.374,208.989L417.817,208.784L419.294,208.572L420.804,208.352L422.345,208.126L423.913,207.893L425.506,207.654L427.121,207.411L428.756,207.163L430.406,206.911L432.07,206.656L433.745,206.397L435.427,206.137L437.115,205.875L438.805,205.611L442.182,205.083L445.535,204.557L448.842,204.037L452.082,203.528L455.232,203.034L458.271,202.56L459.743,202.331L461.179,202.109L462.576,201.894L463.932,201.687L465.245,201.487L466.512,201.296L467.73,201.115L468.897,200.943L470.01,200.781L471.066,200.63L471.576,200.558L472.069,200.489L472.548,200.424L473.011,200.361L473.459,200.301L473.893,200.244L474.311,200.19L474.714,200.14L475.102,200.092L475.475,200.048L475.834,200.007L476.179,199.969L476.512,199.934L476.833,199.903L477.145,199.875L477.452,199.85L477.757,199.829L478.049,199.813L478.227,199.805L478.396,199.8L478.575,199.797L478.767,199.796L478.979,199.799ZM472.293,216.617L471.214,216.774L470.076,216.942L468.883,217.12L467.638,217.307L466.344,217.504L465.003,217.709L463.619,217.922L462.194,218.142L460.733,218.369L457.705,218.842L454.563,219.335L451.326,219.843L448.017,220.363L444.659,220.89L441.273,221.42L439.575,221.685L437.879,221.948L436.188,222.21L434.502,222.47L432.827,222.727L431.163,222.981L429.514,223.231L427.883,223.477L426.272,223.718L424.683,223.954L423.12,224.184L421.585,224.407L420.081,224.623L418.612,224.832L417.888,224.934L417.175,225.033L416.472,225.13L415.779,225.225L415.095,225.318L414.422,225.409L413.76,225.497L413.109,225.582L412.47,225.665L412.044,225.72L412.413,226.693L412.971,228.157L413.561,229.702L414.181,231.324L414.832,233.02L415.511,234.785L416.218,236.616L416.95,238.509L417.707,240.459L418.488,242.465L419.291,244.52L420.115,246.623L420.959,248.769L421.387,249.855L421.82,250.952L422.258,252.057L422.7,253.171L423.145,254.292L423.595,255.421L424.048,256.557L424.505,257.699L424.965,258.847L425.428,260L425.894,261.159L426.363,262.322L426.835,263.488L427.309,264.658L427.786,265.832L428.265,267.008L428.746,268.185L429.229,269.365L429.714,270.545L430.2,271.726L430.688,272.908L431.177,274.088L431.667,275.268L432.158,276.447L432.65,277.624L433.142,278.798L433.635,279.97L434.128,281.138L434.622,282.302L435.115,283.463L435.608,284.618L436.101,285.769L436.594,286.913L437.085,288.051L437.576,289.183L438.066,290.307L438.554,291.424L439.041,292.532L439.527,293.632L440.011,294.722L440.493,295.803L440.973,296.873L441.451,297.933L441.927,298.982L442.4,300.018L442.87,301.043L443.337,302.054L443.801,303.053L444.263,304.04L444.491,304.524L444.72,305.008L444.947,305.487L445.173,305.963L445.399,306.435L445.623,306.902L445.847,307.367L446.069,307.826L446.29,308.282L446.51,308.734L446.729,309.181L446.947,309.624L447.164,310.062L447.379,310.496L447.594,310.926L447.807,311.351L448.018,311.771L448.229,312.186L448.438,312.597L448.645,313.002L448.852,313.402L449.057,313.798L449.26,314.188L449.462,314.573L449.662,314.953L449.86,315.327L450.057,315.696L450.253,316.059L450.446,316.417L450.638,316.768L450.828,317.115L451.016,317.454L451.203,317.788L451.387,318.116L451.569,318.438L451.75,318.753L451.928,319.062L452.104,319.364L452.278,319.66L452.449,319.949L452.618,320.231L452.785,320.506L452.949,320.774L453.11,321.034L453.269,321.287L453.424,321.533L453.577,321.771L453.727,322.001L453.873,322.223L454.016,322.437L454.156,322.642L454.292,322.84L454.424,323.028L454.551,323.207L454.675,323.377L454.794,323.538L454.908,323.689L455.024,323.84L455.369,324.282L455.724,324.731L456.08,325.178L456.437,325.622L456.796,326.064L457.157,326.504L457.519,326.941L457.882,327.375L458.247,327.808L458.614,328.238L458.982,328.666L459.351,329.091L459.722,329.514L460.095,329.934L460.469,330.353L460.844,330.769L461.221,331.182L461.599,331.593L461.979,332.002L462.36,332.409L462.743,332.813L463.127,333.215L463.512,333.615L463.899,334.012L464.287,334.407L464.677,334.8L465.068,335.19L465.46,335.578L465.854,335.964L466.249,336.348L466.646,336.729L467.044,337.108L467.443,337.485L467.844,337.859L468.246,338.231L468.649,338.601L469.053,338.968L469.459,339.334L469.867,339.697L470.275,340.057L470.685,340.416L471.097,340.772L471.509,341.126L471.923,341.478L472.338,341.827L472.754,342.175L473.172,342.52L473.591,342.863L474.011,343.203L474.432,343.542L474.855,343.878L475.279,344.212L475.704,344.543L476.13,344.873L476.558,345.2L476.987,345.525L477.417,345.848L477.848,346.169L478.281,346.487L478.714,346.803L479.149,347.117L479.585,347.429L480.022,347.739L480.461,348.046L480.9,348.352L481.341,348.655L481.783,348.956L482.226,349.254L482.67,349.551L483.116,349.845L483.562,350.137L484.01,350.427L484.458,350.715L484.908,351.001L485.359,351.285L485.811,351.566L486.264,351.845L486.718,352.122L487.174,352.397L487.63,352.67L488.087,352.941L488.546,353.209L489.006,353.475L489.466,353.74L489.928,354.002L490.391,354.262L490.855,354.519L491.32,354.775L491.785,355.029L492.252,355.28L492.72,355.529L493.189,355.776L493.659,356.021L494.13,356.264L494.602,356.505L495.074,356.744L495.548,356.98L496.023,357.215L496.499,357.447L496.976,357.678L497.453,357.906L497.932,358.132L498.411,358.356L498.892,358.577L499.374,358.797L499.856,359.015L500.339,359.23L500.823,359.444L501.308,359.655L501.794,359.864L502.281,360.072L502.769,360.277L503.258,360.48L503.747,360.681L504.237,360.88L504.729,361.076L505.221,361.271L505.714,361.464L506.207,361.654L506.702,361.843L507.197,362.029L507.694,362.214L508.191,362.396L508.689,362.576L509.187,362.754L509.687,362.931L510.187,363.105L510.688,363.277L511.19,363.447L511.693,363.614L512.196,363.78L512.7,363.944L513.205,364.106L513.71,364.266L514.217,364.423L514.723,364.579L515.231,364.732L515.74,364.884L516.249,365.033L516.759,365.181L517.269,365.326L517.781,365.47L518.293,365.611L518.805,365.75L519.319,365.888L519.833,366.023L520.347,366.156L520.862,366.287L521.378,366.417L521.895,366.544L522.412,366.669L522.93,366.792L523.448,366.913L523.967,367.032L524.487,367.15L525.007,367.265L525.528,367.378L526.049,367.489L526.571,367.598L527.093,367.705L527.617,367.81L528.14,367.913L528.664,368.014L529.189,368.113L529.714,368.21L530.24,368.305L530.766,368.399L531.292,368.49L531.82,368.579L532.347,368.666L532.876,368.751L533.404,368.834L533.934,368.915L534.463,368.994L534.993,369.072L535.524,369.147L536.055,369.22L536.586,369.291L537.118,369.361L537.65,369.428L538.183,369.493L538.716,369.557L539.249,369.618L539.783,369.678L540.318,369.735L540.852,369.791L541.387,369.844L541.922,369.896L542.458,369.945L542.994,369.993L543.53,370.039L544.067,370.083L544.604,370.125L545.142,370.164L545.679,370.202L546.217,370.238L546.756,370.272L547.294,370.305L547.833,370.335L548.372,370.363L548.912,370.389L549.451,370.414L549.991,370.436L550.532,370.456L551.072,370.475L551.612,370.492L552.153,370.506L552.695,370.519L553.236,370.53L553.777,370.539L554.319,370.546L554.861,370.551L555.403,370.554L555.945,370.556L556.487,370.555L557.03,370.552L557.573,370.548L558.116,370.542L558.658,370.533L559.201,370.523L559.745,370.511L560.288,370.497L560.831,370.481L561.375,370.463L561.918,370.444L562.462,370.422L563.006,370.399L563.55,370.373L564.094,370.346L564.638,370.317L565.182,370.286L565.726,370.253L566.27,370.218L566.814,370.182L567.358,370.143L567.902,370.103L568.446,370.061L568.99,370.017L569.534,369.971L570.078,369.923L570.622,369.873L571.166,369.821L571.71,369.768L572.253,369.713L572.797,369.656L573.341,369.597L573.885,369.536L574.428,369.473L574.972,369.408L575.515,369.342L576.058,369.274L576.602,369.204L577.145,369.132L577.687,369.058L578.23,368.982L578.773,368.905L579.315,368.826L579.857,368.745L580.4,368.662L580.942,368.577L581.483,368.49L582.025,368.402L582.566,368.312L583.107,368.22L583.648,368.126L584.189,368.03L584.729,367.933L585.27,367.833L585.81,367.732L586.349,367.629L586.889,367.525L587.428,367.418L587.967,367.31L588.506,367.2L589.044,367.088L589.582,366.974L590.12,366.859L590.657,366.741L591.194,366.622L591.731,366.502L592.268,366.379L592.804,366.255L593.339,366.128L593.875,366L594.409,365.871L594.944,365.739L595.479,365.606L596.013,365.471L596.546,365.334L597.079,365.196L597.612,365.055L598.144,364.913L598.676,364.769L599.207,364.624L599.738,364.476L600.268,364.327L600.799,364.177L601.328,364.024L601.857,363.87L602.385,363.714L602.914,363.556L603.441,363.396L603.968,363.235L604.495,363.072L605.021,362.907L605.547,362.741L606.071,362.573L606.596,362.403L607.12,362.231L607.643,362.058L608.166,361.883L608.688,361.706L609.21,361.528L609.731,361.348L610.251,361.166L610.771,360.982L611.29,360.797L611.809,360.61L612.327,360.421L612.844,360.231L613.361,360.039L613.877,359.845L614.392,359.65L614.907,359.453L615.421,359.254L615.935,359.053L616.447,358.851L616.959,358.648L617.47,358.442L617.981,358.235L618.491,358.026L619,357.816L619.509,357.604L620.016,357.39L620.523,357.174L621.029,356.957L621.535,356.738L622.039,356.518L622.543,356.296L623.046,356.072L623.549,355.847L624.05,355.62L624.551,355.391L625.051,355.161L625.55,354.929L626.048,354.696L626.545,354.461L627.042,354.224L627.537,353.985L628.032,353.745L628.526,353.504L629.019,353.261L629.511,353.016L630.003,352.769L630.493,352.521L630.983,352.271L631.471,352.02L631.959,351.767L632.446,351.513L632.931,351.257L633.416,350.999L633.9,350.74L634.383,350.479L634.865,350.217L635.346,349.953L635.826,349.687L636.305,349.42L636.783,349.151L637.26,348.881L637.736,348.609L638.211,348.336L638.685,348.061L639.158,347.784L639.63,347.506L640.101,347.227L640.571,346.945L641.039,346.663L641.507,346.378L641.974,346.092L642.439,345.805L642.904,345.516L643.367,345.226L643.829,344.934L644.291,344.64L644.751,344.345L645.209,344.049L645.667,343.751L646.124,343.451L646.579,343.15L647.033,342.847L647.487,342.543L647.939,342.237L648.39,341.93L648.839,341.621L649.288,341.311L649.735,340.999L650.181,340.686L650.626,340.371L651.069,340.055L651.512,339.738L651.953,339.418L652.393,339.098L652.831,338.776L653.269,338.452L653.705,338.127L654.14,337.801L654.573,337.473L655.006,337.143L655.437,336.812L655.866,336.48L656.295,336.146L656.722,335.81L657.147,335.474L657.572,335.135L657.995,334.796L658.417,334.455L658.837,334.112L659.256,333.768L659.674,333.422L660.09,333.075L660.505,332.727L660.919,332.377L661.331,332.026L661.742,331.674L662.151,331.319L662.559,330.964L662.966,330.607L663.371,330.249L663.775,329.889L664.177,329.528L664.578,329.165L664.977,328.802L665.375,328.436L665.771,328.069L666.166,327.701L666.56,327.332L666.952,326.961L667.342,326.589L667.731,326.215L668.119,325.84L668.504,325.464L668.889,325.086L669.272,324.706L669.653,324.326L670.033,323.944L670.412,323.56L670.788,323.176L671.163,322.79L671.537,322.402L671.909,322.014L672.279,321.623L672.648,321.232L673.016,320.839L673.381,320.445L673.745,320.049L674.108,319.652L674.469,319.254L674.828,318.855L675.185,318.454L675.541,318.051L675.896,317.648L676.248,317.243L676.599,316.837L676.948,316.429L677.296,316.021L677.642,315.61L677.986,315.199L678.329,314.786L678.669,314.372L679.009,313.956L679.346,313.54L679.682,313.122L680.016,312.702L680.348,312.282L680.678,311.86L681.007,311.437L681.334,311.012L681.659,310.586L681.983,310.159L682.304,309.731L682.624,309.301L682.943,308.87L683.259,308.438L683.573,308.004L683.886,307.57L684.197,307.133L684.506,306.696L684.813,306.258L685.119,305.818L685.422,305.377L685.724,304.934L686.024,304.491L686.322,304.046L686.618,303.6L686.913,303.152L687.205,302.703L687.496,302.254L687.784,301.802L688.071,301.35L688.356,300.896L688.639,300.441L688.92,299.985L689.199,299.528L689.476,299.069L689.752,298.609L690.025,298.148L690.296,297.686L690.566,297.223L690.833,296.758L691.099,296.292L691.362,295.824L691.621,295.361L691.77,295.09L691.924,294.807L692.084,294.508L692.25,294.192L692.422,293.861L692.6,293.515L692.783,293.155L692.97,292.78L693.163,292.392L693.361,291.99L693.563,291.575L693.769,291.148L693.979,290.708L694.193,290.255L694.411,289.792L694.632,289.317L694.857,288.83L695.085,288.333L695.316,287.825L695.551,287.306L695.787,286.777L696.027,286.239L696.269,285.691L696.514,285.133L696.761,284.567L697.011,283.991L697.262,283.407L697.515,282.814L697.77,282.213L698.027,281.604L698.286,280.988L698.545,280.363L698.807,279.732L699.069,279.094L699.333,278.448L699.597,277.797L699.862,277.139L700.128,276.474L700.395,275.804L700.662,275.129L700.93,274.447L701.198,273.761L701.466,273.069L701.734,272.373L702.002,271.673L702.27,270.968L702.538,270.258L702.805,269.545L703.072,268.828L703.338,268.108L703.603,267.385L703.867,266.659L704.131,265.93L704.393,265.198L704.654,264.464L704.914,263.728L705.172,262.991L705.429,262.251L705.684,261.51L705.938,260.768L706.189,260.026L706.439,259.282L706.686,258.538L706.931,257.794L707.174,257.049L707.414,256.305L707.652,255.561L707.887,254.818L708.119,254.076L708.348,253.335L708.575,252.596L708.798,251.857L709.018,251.121L709.234,250.387L709.448,249.655L709.657,248.926L709.863,248.2L710.066,247.473L710.164,247.116L710.263,246.756L710.36,246.398L710.457,246.04L710.552,245.684L710.647,245.328L710.74,244.972L710.832,244.619L710.924,244.266L711.014,243.914L711.103,243.564L711.19,243.215L711.277,242.867L711.363,242.52L711.447,242.174L711.53,241.83L711.612,241.487L711.693,241.145L711.772,240.806L711.851,240.467L711.928,240.13L712.004,239.794L712.078,239.459L712.151,239.128L712.223,238.796L712.294,238.467L712.363,238.14L712.431,237.814L712.497,237.489L712.563,237.167L712.626,236.847L712.689,236.528L712.75,236.212L712.809,235.898L712.867,235.584L712.924,235.273L712.98,234.965L713.033,234.659L713.085,234.355L713.136,234.052L713.186,233.752L713.234,233.454L713.28,233.16L713.325,232.867L713.368,232.577L713.41,232.289L713.45,232.003L713.488,231.719L713.525,231.44L713.561,231.162L713.595,230.887L713.627,230.615L713.658,230.345L713.687,230.079L713.714,229.815L713.74,229.554L713.764,229.297L713.787,229.043L713.808,228.791L713.827,228.543L713.845,228.298L713.861,228.056L713.876,227.818L713.889,227.583L713.9,227.352L713.91,227.124L713.918,226.9L713.925,226.679L713.93,226.463L713.93,226.45L713.816,226.457L713.539,226.476L713.256,226.497L712.968,226.519L712.676,226.542L712.378,226.568L712.076,226.594L711.77,226.623L711.459,226.652L711.145,226.683L710.828,226.716L710.507,226.75L710.182,226.785L709.855,226.821L709.525,226.858L709.192,226.897L708.857,226.937L708.52,226.977L708.18,227.019L707.843,227.061L707.15,227.15L706.457,227.242L705.759,227.337L705.059,227.435L704.357,227.535L703.655,227.638L702.953,227.742L702.255,227.847L701.559,227.954L700.868,228.061L700.184,228.169L699.506,228.276L698.837,228.384L698.18,228.49L696.891,228.701L695.657,228.906L693.379,229.285L692.354,229.454L691.868,229.534L691.405,229.608L690.964,229.679L690.544,229.744L690.144,229.805L689.763,229.861L689.399,229.913L689.058,229.957L688.873,229.98L688.697,230.001L688.516,230.02L688.345,230.036L687.852,230.08L687.371,230.121L686.887,230.16L686.402,230.197L685.915,230.232L685.425,230.265L684.934,230.297L684.441,230.328L683.946,230.356L683.45,230.383L682.952,230.408L682.452,230.432L681.952,230.455L681.449,230.476L680.946,230.495L680.441,230.513L679.936,230.53L679.429,230.545L678.921,230.559L678.413,230.572L677.904,230.583L677.394,230.593L676.884,230.602L676.373,230.61L675.862,230.616L675.351,230.622L674.839,230.626L674.327,230.629L673.816,230.631L673.304,230.632L672.793,230.632L672.282,230.631L671.772,230.629L671.262,230.626L670.752,230.622L670.243,230.617L669.735,230.611L669.228,230.604L668.722,230.597L668.217,230.588L667.713,230.579L667.211,230.569L666.71,230.558L666.207,230.547L665.215,230.522L664.228,230.494L663.249,230.464L662.278,230.431L661.317,230.397L660.366,230.36L659.427,230.321L658.499,230.281L657.584,230.24L656.684,230.197L655.797,230.153L654.926,230.108L654.071,230.063L653.234,230.017L652.414,229.971L651.613,229.924L650.831,229.877L650.071,229.831L649.331,229.785L648.611,229.739L648.076,229.704L648.068,229.761L648.01,230.142L647.949,230.523L647.886,230.904L647.82,231.284L647.752,231.663L647.682,232.041L647.609,232.419L647.534,232.796L647.457,233.172L647.377,233.547L647.295,233.923L647.21,234.298L647.123,234.672L647.034,235.044L646.943,235.416L646.849,235.789L646.753,236.16L646.655,236.529L646.555,236.899L646.452,237.268L646.347,237.635L646.24,238.003L646.131,238.369L646.019,238.735L645.906,239.1L645.79,239.464L645.672,239.828L645.552,240.19L645.43,240.552L645.306,240.913L645.179,241.274L645.051,241.633L644.921,241.992L644.788,242.35L644.653,242.707L644.517,243.063L644.378,243.419L644.237,243.773L644.095,244.126L643.951,244.479L643.804,244.831L643.655,245.183L643.505,245.533L643.353,245.882L643.198,246.231L643.042,246.579L642.883,246.926L642.724,247.271L642.562,247.616L642.398,247.961L642.232,248.305L642.064,248.647L641.895,248.988L641.724,249.328L641.551,249.669L641.376,250.008L641.2,250.345L641.022,250.682L640.841,251.018L640.659,251.354L640.476,251.688L640.29,252.021L640.104,252.353L639.915,252.685L639.724,253.016L639.532,253.345L639.338,253.674L639.143,254.001L638.945,254.328L638.746,254.654L638.546,254.978L638.344,255.302L638.14,255.626L637.934,255.947L637.728,256.267L637.519,256.588L637.309,256.907L637.097,257.225L636.884,257.542L636.669,257.858L636.453,258.173L636.235,258.487L636.015,258.8L635.795,259.112L635.572,259.423L635.348,259.733L635.123,260.041L634.896,260.349L634.667,260.656L634.437,260.962L634.206,261.267L633.974,261.571L633.74,261.874L633.504,262.176L633.267,262.476L633.028,262.776L632.789,263.074L632.548,263.372L632.305,263.668L632.062,263.964L631.816,264.258L631.57,264.552L631.322,264.844L631.073,265.135L630.822,265.425L630.57,265.714L630.317,266.002L630.063,266.289L629.807,266.575L629.55,266.859L629.292,267.143L629.032,267.426L628.772,267.707L628.51,267.987L628.247,268.266L627.982,268.545L627.717,268.822L627.45,269.097L627.182,269.372L626.913,269.646L626.642,269.918L626.37,270.19L626.098,270.46L625.824,270.729L625.549,270.997L625.273,271.264L624.996,271.529L624.718,271.794L624.438,272.057L624.157,272.319L623.875,272.58L623.593,272.84L623.309,273.098L623.024,273.356L622.738,273.612L622.451,273.868L622.163,274.121L621.874,274.374L621.584,274.626L621.293,274.876L621.001,275.125L620.708,275.373L620.414,275.62L620.118,275.865L619.822,276.11L619.525,276.353L619.227,276.595L618.928,276.835L618.628,277.075L618.327,277.313L618.025,277.55L617.722,277.786L617.419,278.02L617.114,278.253L616.809,278.485L616.503,278.716L616.196,278.945L615.887,279.174L615.578,279.401L615.269,279.626L614.958,279.851L614.646,280.074L614.334,280.295L614.021,280.516L613.706,280.735L613.392,280.953L613.076,281.169L612.76,281.385L612.442,281.599L612.125,281.811L611.805,282.023L611.486,282.233L611.166,282.441L610.844,282.649L610.523,282.855L610.2,283.059L609.877,283.263L609.553,283.465L609.228,283.665L608.902,283.865L608.576,284.063L608.249,284.259L607.922,284.454L607.594,284.648L607.265,284.84L606.935,285.031L606.605,285.221L606.274,285.409L605.943,285.596L605.611,285.781L605.277,285.965L604.944,286.148L604.61,286.329L604.275,286.509L603.94,286.687L603.605,286.864L603.268,287.039L602.931,287.214L602.593,287.386L602.255,287.557L601.916,287.727L601.577,287.895L601.237,288.062L600.897,288.227L600.556,288.391L600.215,288.553L599.873,288.714L599.53,288.873L599.187,289.031L598.844,289.187L598.501,289.342L598.156,289.495L597.811,289.647L597.466,289.797L597.12,289.946L596.774,290.093L596.427,290.239L596.08,290.383L595.732,290.525L595.384,290.666L595.036,290.806L594.687,290.944L594.337,291.08L593.988,291.215L593.638,291.348L593.288,291.479L592.937,291.609L592.586,291.738L592.234,291.864L591.883,291.989L591.531,292.113L591.178,292.235L590.825,292.355L590.474,292.473L590.015,292.625L589.558,292.775L589.101,292.923L588.643,293.069L588.186,293.214L587.728,293.357L587.27,293.499L586.812,293.638L586.354,293.776L585.896,293.913L585.437,294.047L584.978,294.18L584.52,294.311L584.061,294.44L583.602,294.568L583.143,294.694L582.684,294.818L582.224,294.941L581.765,295.061L581.306,295.18L580.846,295.297L580.386,295.413L579.927,295.526L579.467,295.638L579.007,295.748L578.547,295.856L578.087,295.962L577.627,296.067L577.167,296.169L576.707,296.27L576.246,296.369L575.786,296.466L575.326,296.562L574.866,296.655L574.405,296.746L573.945,296.836L573.485,296.924L573.024,297.01L572.564,297.094L572.104,297.176L571.644,297.256L571.183,297.334L570.723,297.411L570.263,297.485L569.803,297.558L569.343,297.628L568.883,297.697L568.423,297.763L567.962,297.828L567.502,297.891L567.043,297.952L566.583,298.01L566.123,298.067L565.664,298.122L565.204,298.175L564.745,298.225L564.285,298.274L563.826,298.321L563.367,298.365L562.908,298.408L562.449,298.449L561.991,298.487L561.532,298.523L561.074,298.558L560.615,298.59L560.157,298.62L559.699,298.648L559.241,298.674L558.783,298.698L558.326,298.72L557.869,298.74L557.412,298.757L556.955,298.772L556.498,298.786L556.041,298.797L555.585,298.806L555.129,298.812L554.673,298.817L554.217,298.819L553.762,298.819L553.307,298.817L552.852,298.813L552.397,298.806L551.943,298.798L551.489,298.787L551.035,298.774L550.582,298.758L550.128,298.74L549.675,298.721L549.222,298.698L548.77,298.674L548.318,298.647L547.866,298.618L547.415,298.586L546.964,298.553L546.513,298.517L546.063,298.478L545.613,298.438L545.164,298.395L544.715,298.349L544.266,298.301L543.817,298.251L543.369,298.199L542.922,298.144L542.475,298.087L542.028,298.027L541.581,297.965L541.136,297.9L540.69,297.833L540.245,297.764L539.801,297.692L539.357,297.618L538.913,297.541L538.47,297.462L538.028,297.381L537.586,297.297L537.144,297.21L536.703,297.121L536.262,297.029L535.823,296.935L535.383,296.839L534.945,296.739L534.507,296.638L534.069,296.534L533.632,296.427L533.195,296.318L532.76,296.206L532.325,296.091L531.89,295.974L531.456,295.855L531.023,295.733L530.59,295.608L530.158,295.481L529.727,295.351L529.296,295.218L528.866,295.083L528.437,294.945L528.009,294.805L527.582,294.662L527.154,294.516L526.728,294.368L526.303,294.217L525.878,294.063L525.455,293.907L525.032,293.748L524.609,293.586L524.188,293.421L523.767,293.254L523.347,293.085L522.928,292.912L522.51,292.737L522.093,292.559L521.677,292.378L521.262,292.195L520.847,292.009L520.434,291.82L520.021,291.628L519.609,291.434L519.199,291.237L518.789,291.037L518.38,290.835L517.972,290.629L517.566,290.421L517.16,290.211L516.755,289.997L516.351,289.78L515.948,289.561L515.547,289.339L515.147,289.115L514.747,288.887L514.348,288.657L513.951,288.423L513.555,288.187L513.16,287.949L512.766,287.707L512.373,287.463L511.982,287.216L511.591,286.966L511.202,286.713L510.814,286.457L510.427,286.199L510.041,285.937L509.657,285.673L509.273,285.406L508.891,285.137L508.511,284.864L508.131,284.589L507.753,284.31L507.376,284.029L507.001,283.746L506.626,283.459L506.253,283.169L505.881,282.877L505.511,282.581L505.142,282.283L504.775,281.982L504.409,281.679L504.044,281.372L503.68,281.062L503.318,280.75L502.957,280.435L502.598,280.117L502.24,279.796L501.884,279.472L501.529,279.146L501.175,278.816L500.823,278.484L500.473,278.149L500.123,277.811L499.776,277.47L499.43,277.126L499.085,276.78L498.742,276.43L498.401,276.078L498.061,275.723L497.722,275.365L497.385,275.004L497.05,274.64L496.716,274.274L496.383,273.905L496.053,273.532L495.723,273.157L495.396,272.779L495.07,272.398L494.746,272.015L494.423,271.629L494.102,271.239L493.782,270.847L493.464,270.452L493.148,270.054L492.834,269.653L492.521,269.25L492.209,268.843L491.9,268.433L491.592,268.021L491.285,267.606L490.981,267.188L490.678,266.768L490.376,266.344L490.077,265.917L489.779,265.488L489.483,265.056L489.189,264.62L488.896,264.182L488.605,263.742L488.316,263.298L488.028,262.851L487.742,262.402L487.458,261.95L487.176,261.494L486.896,261.036L486.617,260.575L486.34,260.112L486.064,259.645L485.791,259.175L485.507,258.682L485.422,258.529L485.331,258.361L485.248,258.201L485.171,258.048L485.098,257.898L485.03,257.752L484.964,257.611L484.894,257.454L484.78,257.194L484.666,256.921L484.555,256.647L484.447,256.372L484.341,256.093L484.236,255.811L484.131,255.522L484.026,255.228L483.921,254.926L483.815,254.618L483.709,254.304L483.601,253.981L483.493,253.65L483.383,253.313L483.273,252.968L483.161,252.614L483.048,252.254L482.934,251.886L482.818,251.51L482.701,251.127L482.583,250.737L482.464,250.34L482.344,249.935L482.221,249.521L481.975,248.683L481.724,247.816L481.469,246.924L481.209,246.011L480.946,245.077L480.68,244.124L480.411,243.154L480.139,242.167L479.864,241.167L479.588,240.154L479.311,239.13L479.032,238.098L478.752,237.058L478.472,236.013L478.192,234.964L477.912,233.913L477.356,231.815L476.804,229.73L476.262,227.674L475.218,223.706L474.722,221.824L474.248,220.031L473.799,218.338L473.585,217.538L473.379,216.768L473.3,216.473L472.293,216.617ZM393.507,217.644L393.434,217.885L393.375,218.105L393.327,218.307L393.287,218.499L393.257,218.673L393.233,218.832L393.214,218.983L393.2,219.121L393.19,219.244L393.183,219.355L393.179,219.459L393.177,219.554L393.177,219.638L393.177,219.651L393.507,217.644L393.507,217.644Z" style="fill:rgb(25,57,137);"/>
        </g>
    </g>
</svg>
