<svg xmlns="http://www.w3.org/2000/svg" fill-rule="evenodd" stroke-linejoin="round" stroke-miterlimit="2" clip-rule="evenodd" viewBox="0 0 400 400">
  <defs/>
  <path fill="#00529b" d="M37.8 334.7s5-.7 7.4-1.6a223 223 0 0014.1-5.8c8.6-3.8 17.7-7.5 26.6-10.7 5.9-2.2 10.8-6.3 16.8-8 8.8-2.7 16.1-7.5 25-10.2 28-8.4 74.2-14.1 102.5-7 13 3.2 34 5.6 39 20.5 1.5 4.3-5.4 7.4-7.7 9.7-9.7 9.7-20 19.7-30.3 28.6-4.4 3.9-8.4 7.9-13.4 10.8l-4.7 2.7c-9.4-9.4-16.3-19.3-32-20.9-9.6-1-20.2 2.3-29.6 4-17.8 3.3-34.9 7.2-52.8 9.5a101 101 0 01-46-5.4 24 24 0 01-11.5-9.4c-1-1.4-4.2-6.8-3.4-6.8z"/>
  <path fill="#00529b" d="M199.5 284.5H205l.5.1h2.1l.4.1h1.6l.4.1h1.3l.4.1h.8l.4.1h.8l.4.1h.8l.4.1h.8l.4.1h.4l.4.1h.4l.4.1h.4l.4.1h.4l.4.1h.3l.4.1h.4l.4.1h.4l.4.1h.3l.4.1h.4l.4.2h.7l.4.1.4.1h.3l.4.1.4.1h.4l.3.2h.4l.3.1h.4l.4.2h.3l.4.1h.3l.4.2h.3l.4.1.3.1.4.1h.3l.3.2h.3l.3.1.6.1.7.2.6.1.7.2.6.1.7.2 1.4.3.7.2.7.1.8.2.7.1.7.2.8.2h.3l.4.2h.4l.4.1.3.1.4.1.4.1.4.1.3.1.4.1.4.1.4.1.4.1.3.1.4.1.4.1.4.2h.4l.3.2.4.1.4.1.4.1.4.2h.3l.4.2.4.1.4.2.4.1.3.1.4.2.4.1.4.1.3.2.4.1.4.2.4.1.3.2.4.2.4.1h.1l.2.2h.2l.2.1.2.1.2.1.1.1h.2l.2.2h.2l.2.1.1.1.2.1.2.1.2.1.1.1.2.1h.2l.2.2h.1l.2.2h.2l.2.2h.1l.2.2h.2l.2.2h.1l.2.2.2.1.1.1.2.1.2.1.1.1.2.1.2.2h.1l.2.2.2.1.1.1.2.1.1.1.2.2h.2l.1.2.2.1.1.2h.2l.2.2.1.1.2.2h.1l.2.2.1.2h.2l.1.2.2.2h.1l.2.2.1.2.2.1v.1l.2.2.2.1.1.2.2.1.1.2.1.1.2.2.1.1.1.2.2.1.1.2.1.1.2.2v.1l.2.2.1.2.2.1v.2l.2.2.1.1.2.2v.2l.2.1.1.2.1.2.1.1.1.2.1.2.2.2v.2l.2.1v.2l.2.2v.2l.2.2v.2l.2.1v.2l.2.2v.2l.1.2.1.2.1.2v.2l.2.2v.2l.1.2.1.2v.2l.2.2v.2l.1.2v.2l.1.2v.2l.1.2v.4l.1.2V314.6l-.1.1v.2l-.1.2v.2l-.1.1v.2l-.1.2-.1.1v.2l-.1.1-.1.2v.2l-.2.1v.1l-.1.2-.1.1v.2l-.2.1v.1l-.1.2h-.1l-.1.2-.1.1-.1.2h-.1l-.1.2-.1.1v.1l-.2.1v.1l-.2.2-.2.2-.2.2-.2.2-.2.2-.2.2h-.1l-.1.1-.1.1-.2.2-.2.2-.2.2-.2.1-.2.2-.2.2-.2.1-.2.2-.2.1-.2.2-.2.1-.2.2-.4.2-.4.3-.3.2-.3.3h-.2l-.1.2-.2.1-.1.1-.1.1-.1.1h-.1l-.1.2h-.1l-.1.1h-.1v.1l-1 1-.9.8-.9 1-.9.9-1 .9-.9 1-.9.8-1 1-.9.9-1 .9-.9.9-1 .9-.9 1-1 .8-.9 1-1 .9-.9.9-1 .9-.9.9-1 .9-1 .9-.4.4-.5.5-.5.4-.5.4-.4.5-.5.4-.5.5-.5.4-.5.5-.5.4-.4.4-.5.5-.5.4-.5.4-.5.5-.5.4-.5.4-.4.5-.5.4-.5.4-.5.4-.5.5-.4.3-.4.4-.4.3-.4.4-.8.7-.8.7-.4.4-.4.4-.4.3-.4.4-.4.4-.5.3-.4.4-.2.2-.2.2-.2.1-.2.2-.2.2-.3.2-.2.2-.2.1-.2.2-.2.2-.3.2-.2.1-.2.2-.2.2-.3.2-.2.1-.2.2-.3.2-.2.1-.2.2-.3.2-.2.2-.3.1-.2.2-.2.1-.3.2-.2.2-.3.1-.2.2-.3.1-.2.2-.3.2-.3.1-.2.1-.1.1-.2.1-.6.4-.8.4-.4.3-.4.2-.4.3-.4.2-.4.2-.2.1-.2.1-.1.1-.2.1-.2.1h-.1l-.2.2H214.4l-.2.2h-.2l-.5.1h-1l-.4-.1-.5-.1-.4-.2-.4-.3-.3-.3-.3-.3-.2-.2-.4-.4-.5-.5-.4-.4-.4-.5-.5-.4-.4-.5-.4-.4-.8-.9-.9-.9-.4-.4-.4-.4-.4-.4-.4-.5-.4-.4-.4-.4-.4-.4-.2-.2-.2-.2-.2-.2-.2-.2-.2-.2-.2-.2-.2-.2-.2-.2-.2-.2-.2-.1-.2-.2-.2-.2-.2-.2-.2-.2-.2-.2-.2-.2-.2-.1-.2-.2-.2-.2-.3-.2-.2-.1-.2-.2-.2-.2-.2-.2-.2-.1-.2-.2-.2-.2-.2-.1-.2-.2-.2-.2-.3-.1-.2-.2-.2-.1-.2-.2-.2-.1-.2-.2-.3-.1-.2-.2-.2-.1-.2-.2-.2-.1-.3-.1-.2-.2-.2-.1-.2-.1-.3-.2-.2-.1-.2-.1-.3-.2h-.2l-.2-.2-.3-.1-.2-.1-.3-.2h-.2l-.2-.2-.3-.1-.2-.1-.3-.1-.2-.1h-.2v-.1h-.2l-.1-.1h-.2l-.1-.1h-.1l-.2-.1h-.1l-.1-.1h-.2l-.1-.1h-.1l-.2-.1h-.2l-.2-.1h-.1l-.1-.1h-.2l-.1-.1H186.4l-.1-.1h-.2l-.1-.1H185.7l-.1-.1H185.3l-.2-.1H184.8l-.1-.1H184.4l-.2-.1H184l-.1-.1h-.5l-.1-.1h-.5l-.2-.1h-.4l-.2-.1h-.7l-.1-.1h-1l-.2-.1H173.6l-.2.1h-.7l-.2.1h-.7l-.2.1H171l-.3.1h-.2l-.4.1h-.5l-.4.2h-.5l-.4.1h-.5l-.5.2h-.4l-.5.1-.4.1-.5.1h-.4l-.5.2h-.5l-.4.2h-.5l-.5.2h-.4l-1 .2-.9.2-.9.2-1 .2-.8.2-1 .2-.4.1-.5.1-.4.1-.5.1-.5.1-.4.1-.5.1h-.4l-.5.2h-.4l-.9.2-.8.2-.8.1-.9.2-.8.1-.8.2-.8.1-.9.2-1.6.3-1.7.3-1.6.3-1.6.4-3.3.6-3.3.7-1.6.3-1.7.3-1.6.3-1.7.3-.8.2-.8.1-.8.2-.9.2-.8.1-.8.2-.8.1-.9.2-.8.1-.8.2-.8.1-.9.2-.8.1-.8.1-.9.2-.8.1-.8.2-.9.1-.8.1-.8.2-.9.1-.8.1-.8.2h-.9l-.8.2-.9.1-.8.1-.9.2h-.8l-.9.2-.8.1-.9.1h-.4l-.4.1H98l-.4.1h-.8l-.4.1h-.4l-.4.1h-.8l-.4.1H93l-.4.1H91.5l-.4.1H87.7l-.4.1H83l-.4-.1H81l-.3-.1h-.8l-.3-.1h-1.1l-.4-.1h-.3l-.4-.1h-.7l-.4-.1H76l-.4-.1h-.4l-.3-.1h-.4l-.3-.1h-.4l-.3-.1H73l-.4-.1h-.3l-.4-.1h-.3l-.4-.2h-.7l-.4-.1-.3-.1h-.4l-.3-.1-.4-.1h-.3l-.4-.2h-.4l-.3-.1H67l-.3-.2h-.4l-.3-.1h-.4l-.4-.2H65l-.4-.1-.3-.1-.4-.1h-.4l-.3-.2h-.4l-.3-.2H62l-.4-.1-.3-.1-.4-.1-.4-.1-.3-.1-.4-.1-.4-.1-.3-.1-.4-.1-.4-.1-.7-.2-.8-.2-.7-.2-.8-.3-.7-.2-.8-.2-.7-.2-.8-.3-.8-.2h-.1l-.1-.1H51l-.1-.1h-.2l-.1-.1h-.1l-.2-.1-.2-.1h-.2v-.1l-.2-.1h-.1l-.2-.1h-.1l-.1-.1-.2-.1-.2-.1h-.1l-.2-.1v-.1h-.2l-.1-.1-.1-.1h-.2l-.2-.2-.3-.2-.2-.1-.2-.2-.3-.1-.2-.2-.2-.1-.3-.2-.2-.1-.2-.2-.2-.2-.3-.1-.2-.2-.2-.2-.2-.1-.2-.2-.3-.2-.2-.2-.2-.2-.2-.1-.2-.2-.2-.2-.2-.2-.2-.2-.2-.2-.2-.2-.2-.2-.2-.2-.2-.2-.2-.2-.2-.2-.1-.2-.2-.2-.2-.2-.2-.2-.2-.2-.1-.2-.2-.2-.2-.2-.1-.2-.2-.2-.2-.2-.1-.2-.2-.2-.1-.2-.2-.3-.1-.2-.2-.2-.1-.2-.2-.2v-.2l-.2-.1-.1-.2-.2-.3-.1-.2-.2-.2-.1-.3-.2-.3-.1-.2-.2-.3-.2-.3-.2-.3-.1-.3-.2-.3-.2-.3-.2-.3-.1-.4-.2-.3v-.1l-.1-.2-.1-.1-.1-.2v-.1l-.1-.2-.1-.1v-.2l-.1-.1-.1-.2v-.1l-.1-.2-.1-.1v-.2l-.1-.1v-.2l-.1-.2v-.2l-.1-.2V334l.1-.3.1-.3.3-.5.2-.4.4-.4.5-.3.4-.3.6-.2.4-.2h.5-.2.6l.4-.2h.7l.2-.1h.3l.3-.1h.2l.3-.1.3-.1h.3l.3-.1h.3l.2-.2h.3l.3-.1H42.7v-.1H43l.1-.1h.2l.2-.1h.2v-.1h.2l1-.4.8-.3.9-.4.9-.3.8-.3.5-.2.4-.2.4-.1.5-.2.4-.2.4-.2.5-.1.4-.2.4-.2.5-.2.4-.1.4-.2.5-.2.4-.2.4-.2.5-.1.4-.2.4-.2.4-.2.5-.2.4-.2.4-.2.8-.4.9-.3.8-.4.8-.3.8-.4.9-.4.8-.3.8-.4.9-.3.8-.4.8-.3.9-.4.8-.3.9-.4.8-.3.8-.4.9-.3.8-.4.9-.3.8-.3.9-.4.8-.3.9-.3.8-.3.9-.4.8-.3.8-.3.9-.3.8-.3.9-.3.8-.3.9-.4H85l.1-.1.3-.1.2-.1.3-.1.2-.1.2-.1.3-.1.2-.1.2-.2h.3l.2-.2.3-.1.2-.1.2-.1.3-.2.2-.1.3-.1.2-.2h.3l.2-.2.3-.2.2-.1.3-.1.5-.3.5-.3 1-.6.5-.3.5-.2.3-.2.2-.1.3-.2.3-.1.3-.2.2-.1.3-.2.3-.1.3-.1.2-.2.3-.1.3-.2.3-.1.3-.1.3-.2.3-.1.3-.1.3-.2h.3l.3-.2.3-.1h.1l.2-.1.1-.1h.2l.1-.1h.2l.2-.1h.1l.2-.1h.1l.2-.1h.2l.1-.1h.2l.2-.2H102.2l.2-.1h.2l.2-.1.2-.1h.2l.2-.1.2-.1h.2l.1-.1.4-.2.4-.1.4-.1.3-.2.4-.1.4-.2.3-.1.4-.2.4-.1.4-.2.3-.1.4-.2.4-.1.3-.2.4-.2.4-.1.4-.2.3-.2.4-.1.4-.2.7-.4.8-.3.7-.4.8-.3.7-.4.8-.3.4-.2.4-.2.4-.1.4-.2.4-.2.3-.1.4-.2.4-.2.4-.2.4-.1.4-.2.4-.2.5-.1.4-.2.4-.2.4-.1.4-.2.4-.1.4-.2.5-.1.2-.1h.2l.2-.2h.2l.2-.1h.3l.2-.1.2-.1h.2l.2-.1.2-.1h.3l.6-.3.7-.2.7-.2.7-.2.7-.2.7-.2.7-.2.7-.2.8-.2.7-.1.7-.2.8-.2.7-.2.8-.2.7-.2.8-.2.8-.1.7-.2.8-.2.8-.2.8-.1.7-.2.8-.2.8-.1.8-.2.8-.2.8-.1.9-.2.8-.2.8-.1.8-.2.8-.1.9-.2.8-.1.8-.2.9-.1.8-.2.9-.1.8-.2h.9l.8-.2.9-.2h.8l.9-.2.9-.1.8-.2h.9l.9-.2.8-.1.9-.1.9-.2h.8l1-.2h.8l.9-.2h.8l1-.2h.8l.9-.2h.9l.9-.1.8-.1 1-.1h.8l.9-.1.9-.1h.9l.8-.2h1.8l.9-.1h.9l.4-.1h1.3l.5-.1H189.5l.5-.1h2.2l.4-.1h4.8l.4-.1H199.5zm-.8 7.3H193.7l-.5.1h-2.5l-.4.1H188.6l-.5.1H186.4l-.4.1h-.9l-.8.1h-.9l-.8.1-.9.1h-.9l-.8.1-.9.1h-.8l-.9.2h-.9l-.8.1-.9.1-.8.1-.9.1h-.8l-.9.2h-.9l-.8.2-.9.1-.8.1-.9.1-.8.1-.9.1-.8.2h-.9l-.8.2-.8.1-.9.1-.8.2-.8.1-.9.1-.8.2-.8.1-.9.1-.8.2-.8.1-.8.2-.8.1-.8.2-.8.1-.8.2-.8.1-.8.2-.8.1-.8.2-.8.2-.8.1-.7.2-.8.1-.8.2-.7.2-.8.1-.7.2-.8.2-.7.2-.8.1-.7.2-.7.2-.7.2-.8.2-.7.1-.7.2-.7.2-.7.2-.6.2-.7.2-.7.2-.7.1-.6.2-.7.2-.6.2h-.2l-.2.1-.2.1h-.2l-.2.1h-.2l-.2.1-.1.1h-.2l-.2.1-.2.1h-.2l-.4.2-.4.1-.3.2-.4.1-.4.2-.3.1-.4.2-.4.1-.4.2-.3.1-.4.2-.4.1-.3.2-.4.2-.4.1-.4.2-.3.1-.4.2-.4.2-.4.2-.7.3-.8.3-.7.4-.8.3-.7.4-.8.3-.4.2-.4.2-.4.2-.3.1-.4.2-.4.2-.4.2-.4.1-.4.2-.4.2-.4.1-.4.2-.4.2-.4.1-.4.2-.5.2-.4.1-.4.2-.4.1-.4.2h-.2l-.3.1h-.2l-.2.2h-.2l-.2.1h-.2l-.2.1-.3.1h-.2l-.2.1-.2.1H103.5v.1h-.2l-.1.1H102.9v.1h-.2l-.1.1h-.1l-.1.1h-.2l-.3.2h-.3l-.2.2h-.2l-.3.2h-.2l-.2.2-.3.1-.2.1-.3.1-.2.2h-.2l-.3.2-.2.1-.3.2h-.2l-.3.2-.2.2h-.2l-.3.2-.2.2-.5.2-.5.3-1 .6-.6.3-.5.3-.3.1-.2.2-.3.1-.3.1-.2.2-.3.1-.3.2-.2.1-.3.2-.3.1-.3.1-.3.2-.2.1-.3.2-.3.1-.3.1-.3.2H89l-.3.2-.3.1-.3.2h-.3l-.2.1-.1.1h-.2l-.1.1-.9.3-.8.3-.8.3-.9.3-.8.4-.8.3-.8.3-.9.3-.8.3-.8.3-.9.4-.8.3-.8.3-.9.3-.8.4-.8.3-.9.3-.8.4-.8.3-.8.4-.9.3-.8.3-.8.4-.8.3-.8.4-.8.3-.8.4-.9.3-.8.4-.8.4-.8.3-.8.4-.4.2-.4.2-.5.2-.5.2-.4.2-.5.2-.4.2-.5.2-.4.1-.4.2-.5.2-.4.2-.5.2-.4.2-.5.2-.4.1-.5.2-.4.2-.5.2-.4.1-.5.2-.4.2-1 .3-.8.4-1 .3-.8.4-1 .3-.2.1H46l-.1.1h-.2l-.2.1h-.1l-.2.1H45l-.1.1h-.2l-.1.1h-.4l-.3.2h-.3l-.4.1H43l.1.3.2.2.1.3.2.2.1.2.1.2.1.2.2.2v.1l.1.1.1.2.1.2.1.1.2.2v.1l.2.2.1.2.1.1.2.2v.1l.2.2.1.1.2.2.1.2.1.1.2.2.1.1.2.2.1.2.1.1.2.2.1.1.2.2.1.1.2.2.1.1.2.2.2.1.1.1.2.2.1.1.2.2.1.1.2.1.2.2h.1l.2.2.2.1.1.2h.2l.1.2.2.1.2.1.1.1.2.1.2.2h.1l.2.2h.2l.1.1h.1v.1h.2v.1h.1l.1.1h.2v.1h.2v.1h.2v.1h.1l.2.1h.1l.2.1h.1v.1H53.7v.1l.8.2.8.3.7.2.8.2.7.2.7.2.7.2.8.2.7.2.3.1.4.1.3.1.4.1.3.1.4.1h.3l.4.2h.3l.4.2h.3l.4.1.3.1.4.1h.3l.3.2h.4l.3.1.4.1h.3l.3.1.4.1.3.1h.3l.4.1.3.1h.4l.3.1.3.1h.4l.3.1.3.1h.3l.4.1h.3l.3.1h.4l.3.1.3.1h.4l.3.1h.3l.4.1h.3l.3.1h.7l.3.1h.3l.4.1h.6l.4.1h.6l.4.1h.6l.4.1h1l.3.1h1.3l.4.1H92.2l.4-.1h1.1l.4-.1h.7l.4-.1h.4l.3-.1h.8l.4-.1h.4l.4-.1h.3l.9-.2h.8l.8-.2h.8l.9-.2.8-.1.8-.1.8-.2h.9l.8-.2.8-.1.8-.2h.8l.9-.2.8-.2.8-.1.8-.1.8-.2.8-.1.9-.2.8-.1.8-.1.8-.2.8-.1.8-.2.9-.1.8-.2.8-.1.8-.2.8-.1.8-.2.9-.2 1.6-.3 1.6-.3 1.7-.3 1.6-.3 3.3-.7 3.3-.6 1.6-.3 1.7-.4 1.6-.3 1.7-.3.8-.2.8-.1.9-.2.8-.1.8-.2.9-.1.8-.2.8-.1.5-.1.4-.1h.4l.5-.2h.4l.4-.1.5-.1.4-.1.5-.1.4-.1 1-.2.8-.2 1-.2.9-.2 1-.2.9-.2.4-.1.5-.1.5-.1.5-.1.5-.1h.4l.5-.2h.5l.5-.2h.5l.5-.1.4-.1.5-.1.5-.1h.5l.5-.2h.5l.5-.1h.5l.2-.1h.8l.2-.1h.5l.3-.1h.7l.3-.1h1l.2-.1h2l.3-.1h4l.2.1h.8l.2.1h.8l.2.1h.5l.2.1h.4l.2.1h.4l.2.1h.4l.1.1h.4l.2.1h.2l.2.1H186.4l.2.1h.2l.2.1h.2l.1.1h.4l.2.1h.2l.1.1h.2l.2.1h.1l.2.1h.2l.2.1h.1l.2.1.2.1h.1l.2.1h.2l.1.1h.2l.2.1.1.1h.2l.2.1h.1l.2.1.2.1h.1l.2.1.1.1.4.1.3.2.3.1.3.1.3.2.3.1.3.2.3.1.3.2.3.1.3.2.3.1.3.2.3.2.2.1.3.2.3.2.3.1.3.2.2.2.3.2.3.1.2.2.3.2.3.2.2.1.3.2.2.2.3.2.3.2.2.2.3.2.2.2.2.2.3.2.2.2.3.2.2.2.3.2.2.2.2.2.3.2.2.2.2.2.3.2.2.2.2.2.2.2.3.2.2.2.2.2.2.2.3.3.2.2.2.2.2.2.2.2.2.2.3.2.2.2.4.5.4.4.5.4.4.5.4.4.4.5.4.4.9.9.8.8.4.5.4.4.4.4.2.2h.1l.4-.3.8-.4.5-.4h.3l.1-.2.3-.1.2-.1.2-.2h.2l.2-.2.2-.1.2-.2.2-.1.2-.1.2-.2.2-.1.2-.2.2-.1.2-.1.2-.2.2-.1.2-.2.2-.1.2-.2.2-.1.2-.2.2-.1.2-.2.2-.1.2-.2.2-.2.2-.1.2-.2.2-.1.2-.2.2-.2.2-.1.2-.2.2-.2.4-.3.3-.3.4-.4.4-.3.4-.4.4-.3.4-.4.8-.7.8-.8.5-.3.4-.4.4-.4.4-.3.5-.5.5-.4.4-.4.5-.4.5-.4.5-.5.4-.4.5-.4.5-.4.5-.5.5-.4.4-.4.5-.5.5-.4.5-.4.4-.5.5-.4.5-.4.5-.5.4-.4.5-.5.5-.4 1-.9.9-.9 1-.9.9-.9 1-.9.9-.9 1-.9.9-.9 1-.9.9-.9.9-.9 1-.9.9-.9.9-.9 1-1 .8-.8 1-1 .9-.8.9-1 .9-.9 1-.9v-.1l.2-.1.1-.2h.1l.2-.2.2-.1.2-.2.1-.1.2-.2.2-.1.2-.1.1-.2.2-.1.4-.3.3-.2.4-.3.3-.3h.2l.2-.2.2-.1.1-.2h.2l.2-.2.1-.1.2-.2h.1l.2-.2.1-.1.2-.2.2-.1v-.1l.1-.1h.1v-.1h.1v-.1h.1v-.1h.1v-.1h.1v-.1l.1-.1.1-.1v-.1h.1v-.1l.1-.1v-.1h.1v-.7l-.1-.1v-.2l-.1-.1-.1-.1v-.2l-.1-.1v-.1l-.1-.2-.1-.2-.1-.1v-.2l-.1-.1-.1-.1v-.1l-.1-.2h-.1v-.2l-.1-.1-.1-.2-.2-.2v-.1l-.1-.1v-.1l-.2-.2-.1-.2-.1-.1v-.1l-.2-.1v-.1l-.1-.2h-.1l-.1-.2h-.1v-.2l-.2-.1v-.1l-.2-.1v-.1l-.2-.1v-.1l-.1-.1-.1-.1-.1-.1-.1-.1-.1-.1-.1-.1-.1-.1-.2-.2-.2-.1v-.1l-.2-.1v-.1l-.2-.1-.1-.1-.1-.1-.1-.1-.1-.1-.2-.1v-.1l-.2-.1-.1-.1h-.1l-.2-.2-.2-.2h-.1l-.1-.1-.2-.1v-.1l-.2-.1h-.1l-.2-.2h-.1l-.1-.2h-.2l-.1-.1-.1-.1h-.2l-.1-.2h-.1l-.2-.1-.1-.1-.1-.1h-.2l-.1-.2h-.2l-.1-.1-.1-.1h-.2l-.1-.2h-.2l-.1-.1h-.2l-.1-.2h-.2l-.1-.1h-.2l-.1-.2h-.2l-.1-.1h-.2l-.1-.1-.2-.1h-.1l-.2-.2H253.7l-.3-.2-.3-.2-.3-.1-.4-.1-.3-.2h-.3l-.3-.2-.4-.1-.3-.2h-.3l-.4-.2-.3-.1-.3-.1-.4-.2h-.3l-.4-.2h-.3l-.4-.2-.3-.1-.4-.1-.3-.1-.4-.1-.3-.1-.4-.1-.3-.1-.4-.1-.3-.1-.4-.1-.3-.1-.4-.1h-.4l-.3-.2h-.4l-.3-.2h-.4l-.3-.1-.4-.1-.4-.1h-.3l-.7-.3-.7-.1-.8-.2-.7-.1-.7-.2-.7-.2-1.4-.3-.6-.1-.7-.2-.7-.1-.7-.2-.6-.1-.7-.2h-.3l-.3-.1-.4-.1h-.3l-.3-.2h-.3l-.3-.1-.4-.1h-.3l-.3-.2h-.7l-.3-.2h-.3l-.4-.1h-.3l-.3-.1-.4-.1h-.3l-.4-.1h-.3l-.3-.1-.4-.1h-.3l-.4-.1h-.3l-.4-.1h-.4l-.3-.1-.4-.1h-.3l-.4-.1h-.3l-.4-.1h-.7l-.4-.1h-.4l-.3-.1h-.4l-.4-.1h-.7l-.4-.1h-.4l-.4-.1h-.7l-.4-.1h-.8l-.4-.1h-1.1l-.4-.1H209.6l-.4-.1h-1.6l-.4-.1h-2l-.4-.1H198.7zM38 338.4h.4-.4zM115.5 247.6c-.8-.8 7.3-15 8.8-17.1 4.1-5.9 8.8-11.4 12.4-17.5 7.5-12.7 16.2-24.5 23.9-37 4-6.6 8.8-16.8 15.5-20.9 11.8-7.1 26.6-6.1 40-7 11-.8 33-3 43.6 0 9.7 2.7 32.4 7.8 42.8 16.4 6 5 18 12 20.7 20 5.2 15.6-.9 40.5-6.2 55.4a385 385 0 00-5.4 16.1c-.8 2.7-3.1 4.7-3.7 3.4a19 19 0 00-4.4-6c-6.9-7-11.4-13.4-20.1-18.6-22-12.8-46.3-12.5-71-10.4-22.4 2-54.4 9.9-75.7 17.5-6.2 2.2-11.6 2.9-17.5 4.4-.4.1-3.4 1.6-3.7 1.3z"/>
  <path fill="#00529b" d="M244.5 143H250.5l.4.1h1.1l.3.1h.7l.4.1h.6l.4.1h.7l.3.1h.3l.4.1h.3l.3.1h.3l.4.1h.3l.3.1h.3l.3.1.3.1h.3l.3.1.3.1h.3l.3.2h.3l.4.2.5.1.5.1.5.2 1.1.3 1.2.3 1.2.3 1.2.3.7.2.6.2.7.1.7.2.7.2.7.2.7.2.7.2.8.2.7.2.8.2.7.3.8.2.7.2.4.1.4.2h.4l.4.2.4.1.4.1.3.2h.4l.4.2.4.1.4.2h.4l.4.2.4.1.4.2.4.1.4.1.4.2.4.1.3.2.4.1.4.1.4.2.4.1.4.2.4.1.4.2.4.1.4.2.3.1.4.2.4.1.4.2.4.1.4.2.4.1.3.2.4.2.4.1.4.2.3.2.4.1.4.2.4.2.3.1.4.2.3.2.4.2.4.1.3.2.4.2.3.2.4.2.3.2.4.2.3.1.4.2.3.2.3.2.4.2.3.2.3.2.3.2.2.1.2.1.1.1.2.1.1.1.2.1.2.1.1.1.2.2h.1l.2.2h.1l.2.2h.1l.2.2.1.1.2.1.1.1.2.1.1.2h.2l.1.2h.1l.2.2.1.1.2.1.1.1.1.2h.2l.1.2.3.2.3.2.3.3.3.2.3.2.3.3.4.2.3.3.4.3.3.2.7.6.8.5.7.6.4.3.4.3.4.2.4.3.4.3.4.3.4.4.4.3.4.3.4.3.4.3.4.3.4.4.3.1.2.2.2.2.2.1.2.2.2.2.2.1.2.2.2.2.1.1.2.2.2.2.2.2.2.1.2.2.2.2.2.2.2.2.2.1.2.2.2.2.2.2.1.2.2.2.2.1.2.2.2.2.1.2.2.2.2.2.2.2.1.2.2.2.2.2.2.2.1.2.2.1.2.3.1.2.2.2.1.2.2.2.1.2.2.2.1.2.2.2.1.2.2.2.1.2.1.3.2.2.1.2.1.2.2.2v.3l.2.2.1.2.1.3.1.2v.1l.1.1v.1l.1.2.1.2v.1l.1.1v.1l.1.2.1.2v.1l.1.2v.2l.1.2.1.2v.2l.1.2v.2l.1.2.1.2v.2l.1.2v.3l.1.2v.2l.1.2v.2l.1.2v.2l.1.3v.2l.1.2v.2l.1.2v.2l.1.3v.4l.1.2v.5l.1.2v.2l.1.2v.7l.1.2v.5l.1.2V192.7l.1.2v1l.1.2v1.4l.1.2V203.3l-.1.5v1l-.1.4v1l-.1.5v.5l-.1.5v.5l-.1.4v.5l-.2.5v1l-.1.5-.1.5v.4l-.1.5-.1.5-.1.5v.5l-.2.5v.4l-.1.5-.1.5v.5l-.2.5v.5l-.2.4v.5l-.1.5-.1.5-.1.4-.1.5-.1.5-.1.5-.1.4-.2.5v.5l-.2.4v.5l-.2.5-.1.4-.1.5-.1.5-.1.4-.1.5-.2.4v.5l-.2.4-.1.5-.1.4-.2.5v.4l-.2.5-.1.4-.1.4-.2.5v.4l-.2.4-.1.4-.2.5-.1.4-.1.4-.1.4-.2.4-.1.5-.1.4-.2.4v.4l-.2.4-.1.4-.2.4-.1.4-.1.3-.2.4v.4l-.2.4-.2.4v.3l-.2.4-.1.4-.2.3-.3 1-.4 1-.3 1-.4 1-.3 1-.3 1-.4 1-.3 1-.4 1-.1.5-.2.5-.1.5-.2.5-.2.5-.1.5-.2.5-.2.5-.1.5-.2.5-.1.5-.2.5-.1.5-.2.5v.2l-.1.2v.2l-.1.1-.1.2v.2l-.2.2v.1l-.1.2-.1.2v.1l-.2.2v.2l-.1.1-.1.2-.1.1-.1.2-.1.1-.1.2-.1.1-.1.1-.1.2-.1.1-.1.2h-.2v.2l-.2.1-.1.2-.1.1-.1.1-.2.1v.2h-.2l-.2.2-.1.1-.1.1-.2.1-.2.1-.1.1-.2.1-.2.1-.2.1-.1.1h-.2l-.2.1h-.1l-.1.1h-.2l-.2.1h-2.1l-.2-.1-.2-.1h-.2l-.1-.2h-.2l-.2-.2h-.1l-.2-.2-.2-.1v-.1l-.2-.2-.2-.1v-.1l-.2-.2v-.1l-.2-.2v-.1l-.2-.1V261l-.1-.1v-.1l-.1-.1v-.1l-.1-.1v-.2h-.1v-.1l-.1-.1v-.2h-.1v-.1l-.1-.1-.1-.2-.1-.1-.1-.2v-.1h-.1v-.2h-.1v-.1h-.1v-.2h-.1l-.1-.1-.1-.2-.1-.1-.1-.1-.1-.2-.2-.1v-.2l-.2-.1-.1-.2-.2-.1-.1-.2-.2-.1-.1-.2-.1-.1-.2-.2-.1-.1-.2-.2-.2-.2-.3-.3-.3-.3-.3-.4-.4-.3-.3-.3-.3-.4-.3-.3-.3-.3-.3-.3-.3-.4-.3-.3-.3-.3-.6-.6-.6-.7-.6-.6-.5-.6-.6-.6-.3-.3-.3-.3-.2-.3-.3-.3-.3-.3-.3-.3-.2-.3-.3-.2-.3-.3-.3-.3-.2-.3-.3-.3-.3-.2-.3-.3-.3-.3-.2-.3-.3-.2-.3-.3-.3-.3h-.1l-.2-.2-.1-.1-.2-.2-.1-.1-.2-.1-.1-.2h-.2l-.1-.2-.2-.1-.1-.2h-.2l-.1-.2-.2-.1-.1-.2h-.2l-.1-.2-.2-.1-.2-.2h-.1l-.2-.2-.1-.1-.2-.1-.1-.2h-.2l-.2-.2-.1-.1-.2-.1-.2-.2h-.1l-.2-.2-.2-.1-.1-.1-.2-.1-.2-.2h-.2l-.1-.2h-.2l-.2-.2-.2-.1-.2-.1-.1-.1-.2-.2h-.2l-.2-.2h-.2l-.2-.2-.3-.2-.2-.1-.3-.2h-.2l-.3-.2-.2-.2-.3-.1-.2-.1-.3-.2-.2-.1-.3-.1-.2-.2h-.2l-.3-.2-.2-.1-.3-.2h-.2l-.3-.2-.2-.1-.3-.2h-.2l-.3-.2-.2-.1-.3-.1-.2-.1-.3-.2h-.2l-.3-.2h-.2l-.3-.2-.3-.1-.2-.1-.3-.1-.2-.1-.3-.1-.2-.1-.3-.2h-.2l-.3-.2h-.2l-.3-.2h-.2l-.3-.1-.2-.1-.3-.1-.3-.1-.2-.1-.3-.1-.2-.1-.3-.1h-.2l-.3-.2h-.2l-.3-.2h-.3l-.2-.1-.3-.1h-.2l-.3-.2h-.2l-.3-.1-.3-.1-.2-.1h-.3l-.2-.2h-.3l-.2-.1h-.3l-.3-.2h-.2l-.3-.1h-.2l-.3-.1-.3-.1h-.2l-.3-.1-.2-.1h-.3l-.3-.1-.2-.1h-.3l-.2-.1h-.3l-.3-.2h-.5l-.3-.1h-.2l-.3-.1-.2-.1h-.3l-.3-.1h-.2l-.3-.1h-.3l-.2-.1h-.3l-.3-.1h-.2l-.3-.1h-.3l-.2-.1h-.3l-.2-.1h-.6l-.2-.1h-.3l-.3-.1h-.2l-.3-.1h-.5l-.3-.1h-.3l-.5-.1h-.6l-.5-.2H249l-.5-.1-.6-.1h-.5l-.5-.1h-.6l-.5-.1h-1.1l-.6-.1h-.5l-.5-.1H241.4l-.5-.1h-2.2l-.6-.1H227.5l-.6.1H225.2l-.5.1h-1.2l-.5.1h-1.2l-.5.1H220l-.5.1h-.6l-.6.1h-1.1l-.6.1h-.6l-.5.1h-.6l-.6.1h-.6l-1.1.2h-1l-.6.1h-.5l-.5.1h-.5l-.6.1h-.5l-.6.2h-1.1l-.5.2h-1.1l-.6.2h-.5l-.6.1-.6.1h-.5l-.6.2h-.6l-.6.1-.5.1-.6.1-.6.1-.6.1-.6.1-.6.1-.6.1-.6.1-.6.1-.6.1-.6.1-.6.1-.6.1-.6.1-.6.2h-.6l-.6.2-.6.1-.6.1-.6.1-.7.2h-.6l-.6.2-.6.1-.6.2h-.6l-.7.2-.6.1-.6.2-.6.1-.7.1-.6.2-.6.1-.6.2h-.7l-.6.2-.6.2-.6.1-.7.2-.6.1-.6.2-.6.1-.6.1-.7.2-.6.1-.6.2-.6.2-.7.1-.6.2-.6.1-.6.2-.7.1-.6.2-.6.1-.6.2-.6.2-.6.1-.7.2-.6.1-.6.2-.6.2-.6.1-.6.2-.6.2-.6.1-.6.2-.6.2-.6.1-.6.2-.6.2-.6.1-.6.2-.6.2-.6.2-.6.1-.6.2-.6.2-.5.1-.6.2-.6.2-.6.2-.5.1-.6.2-.6.2-.5.2-.6.1-.6.2-.5.2-.6.2-.5.1-.6.2-.5.2-.6.2-.5.1-.5.2-.6.2-.5.2-.5.1-.5.2-.5.2-.6.2-.5.2-.5.1-.5.2-.5.2-.5.2h-.3l-.3.2h-.3l-.3.2h-.3l-.3.2h-.3l-.3.2h-.3l-.3.1-.3.1-.3.1-.3.1h-.3l-.2.2h-.3l-.3.1-.3.1h-.3l-.3.1-.3.1h-.3l-.2.2h-.6l-.3.2h-.5l-.6.2-.5.1-.6.2h-.5l-.6.2-.5.1-1 .2-1.2.3h-.5l-.5.2-.5.1-.6.1-.5.1-.5.2h-.3l-.3.1H120.3v.1h-.1l-.3.1-.5.3-.4.1-.3.2h-.2l-.1.1h-.2l-.2.2h-.4l-.1.2h-.4l-.1.1h-.2l-.2.1h-.5l-.2.1H114.7l-.1-.1-.3-.1h-.1l-.4-.2-.3-.2-.4-.3-.3-.3-.3-.3-.1-.3-.1-.2-.2-.2v-.3l-.2-.2V247.8l-.1-.2v-1l.1-.2V246.1l.1-.2v-.2l.1-.2v-.1l.1-.1v-.2l.1-.1v-.2h.1v-.2l.1-.2.1-.1v-.2l.1-.1.2-.3v-.3l.2-.3.2-.3.1-.3.2-.4.1-.3.2-.4.2-.3.2-.3.1-.4.2-.4.2-.3.2-.4.2-.4.2-.3.2-.4.2-.4.2-.4.2-.3.2-.4.2-.4.2-.4.2-.3.2-.4.2-.4.2-.3.2-.4.2-.3.2-.4.2-.3.2-.4.2-.3.2-.3.2-.3.1-.3.2-.3.2-.3.1-.3.2-.2.2-.3.1-.2.1-.3.2-.2.1-.2.1-.2.1-.2.2-.1v-.2l.2-.1.2-.3.2-.3.2-.3.2-.3.4-.5.4-.6.4-.5.4-.6.4-.5.4-.6.8-1 .9-1.1.4-.5.4-.6.4-.5.3-.5.4-.6.4-.5.4-.5.2-.3.2-.3.2-.2.2-.3.2-.3.2-.2.2-.3.1-.3.2-.2.2-.3.2-.2.2-.3.1-.3.2-.2.2-.3.2-.3.1-.2.2-.3.2-.3.2-.3.1-.2.2-.3.2-.3.1-.2.2-.3.2-.3.3-.6.4-.6.3-.6.4-.6.3-.6.4-.6.4-.6.3-.6.4-.6.4-.5.4-.6.3-.6.4-.6.4-.6.4-.6.3-.6.4-.6.4-.5.4-.6.3-.6.4-.6.4-.6.4-.5.4-.6.7-1.2.8-1.1.8-1.2.7-1.1 1.6-2.3.7-1.2.8-1.1.7-1.1.8-1.2.8-1.1.3-.6.4-.6.4-.5.4-.6.3-.6.4-.6.4-.5.3-.6.4-.6.4-.5.3-.6.4-.6.4-.6.3-.5.4-.6.4-.6.3-.6.4-.5.1-.3.2-.3.2-.3.2-.3.2-.4.2-.3.2-.3.2-.4.4-.6.4-.7.4-.8.4-.7.4-.7.2-.4.2-.4.3-.4.2-.3.2-.4.2-.4.3-.4.2-.4.2-.4.3-.3.2-.4.3-.4.2-.4.2-.4.3-.4.3-.3v-.2l.2-.2.1-.2.2-.2.1-.2.1-.2.2-.2v-.2l.2-.1.2-.2.1-.2.1-.2.2-.2.1-.2.1-.2.2-.1.1-.2.2-.2.1-.2.2-.2.1-.1.1-.2.2-.2.1-.2.2-.1.1-.2.2-.2.1-.2.2-.1.1-.2.2-.2.2-.1.1-.2.2-.2.1-.1.2-.2.2-.2.1-.1.2-.2.2-.1.1-.2.2-.1.2-.2.1-.1.2-.2.2-.1.2-.2.1-.1.2-.2.2-.1.2-.2h.2l.1-.2.2-.2h.2l.2-.2.2-.1.2-.2h.2l.2-.2.1-.1h.2l.1-.2h.2l.1-.2h.2l.3-.2.3-.2.3-.2.4-.1.3-.2.3-.1.3-.2.3-.1.3-.2.4-.1.3-.2.3-.1.3-.2h.3l.4-.2.3-.1.3-.2.3-.1.4-.1.3-.1.3-.2h.3l.4-.2h.3l.3-.2h.4l.3-.2h.3l.3-.2h.4l.3-.2h.3l.4-.1.3-.1.3-.1h.4l.3-.2h.3l.4-.1h.3l.3-.1.4-.1h.3l.3-.1.4-.1h.3l.3-.1h.4l.3-.1h.3l.4-.1h.3l.3-.1h.4l.3-.1h.3l.4-.1h.3l.3-.1h.7l.3-.1h.7l.3-.1h.7l.3-.1h1l.4-.1h1l.6-.1h.7l.6-.1h1.4l.6-.1H205l.7-.1H207l1.3-.1h1.9l.6-.1H212.1l.6-.1H214l.6-.1h1.2l.6-.1h.5l1.1-.1 1.2-.1 1.2-.1 1.3-.1 1.3-.1 1.4-.1 1.4-.1h.7l.7-.1h.8l.7-.1h1.5l.8-.1h.7l.8-.1h.7l.8-.1h1.6l.8-.1h2.3l.8-.1h5zm-.7 7.2H240l-.3.1h-2.3l-.8.1h-1.5l-.7.1h-1.5l-.8.1h-.7l-.8.1h-.7l-.7.1h-.8l-.7.1h-1.4l-1.4.2h-1.4l-1.3.2H221l-1.2.2h-1.2l-1.1.1h-.5l-.6.1h-.6l-.7.1H213.7l-.6.1h-1.9l-.7.1h-1.9l-1.3.1h-.7l-.6.1h-1.9l-.7.1h-1.2l-.7.1h-.6l-.6.1h-1l-.3.1H198.1l-.3.1h-.7l-.3.1H196l-.3.1h-.3l-.3.1h-.6l-.3.1h-.3l-.3.1h-.6l-.3.1h-.3l-.3.1h-.3l-.3.1h-.3l-.3.1-.3.1h-.3l-.3.1h-.3l-.3.1-.3.1h-.3l-.3.1-.2.1h-.3l-.3.2h-.3l-.3.1h-.3l-.3.2h-.2l-.3.1-.3.1-.3.1h-.3l-.2.2h-.3l-.3.2h-.3l-.2.2h-.3l-.3.2h-.2l-.3.2h-.3l-.2.2-.3.1-.3.1-.2.1-.3.2h-.3l-.2.2-.3.1-.2.2h-.3l-.2.2-.3.2h-.3l-.2.2-.1.1h-.2v.1l-.2.1h-.1l-.2.2-.2.1h-.1l-.1.2h-.2v.1l-.2.1-.1.1h-.1l-.1.2h-.2v.2h-.2l-.1.2h-.1l-.2.2-.2.2h-.1l-.1.2-.2.1v.1l-.2.2h-.1l-.1.2-.2.1v.1l-.2.2-.1.1-.1.1-.2.2-.2.2-.1.2-.1.1-.2.1v.2l-.2.1-.1.2-.1.1-.2.2v.1l-.2.2-.1.1-.1.2-.1.1-.2.2v.1l-.2.2-.1.2-.1.1-.1.2-.2.1v.2l-.2.2-.1.1-.1.2-.1.2-.1.1-.2.2-.2.4-.2.3-.2.4-.3.3-.2.4-.2.3-.2.4-.2.3-.3.4-.2.3-.2.4-.2.4-.2.3-.2.4-.2.4-.3.3-.4.7-.4.8-.4.7-.4.7-.4.7-.2.4-.2.3-.2.3-.2.4-.2.3-.2.3-.2.4-.2.3-.4.6-.3.6-.4.6-.4.6-.3.6-.4.5-.4.6-.4.6-.3.6-.4.6-.4.6-.4.5-.3.6-.4.6-.4.6-.4.6-.4.5-.3.6-.8 1.2-.8 1.1-.7 1.2-.8 1.1-.8 1.1-1.5 2.3-.8 1.2-.7 1.1-.8 1.2-.7 1.1-.4.6-.4.5-.4.6-.3.6-.4.6-.4.5-.4.6-.3.6-.4.6-.4.5-.3.6-.4.6-.4.6-.3.5-.4.6-.3.6-.4.6-.3.5-.4.6-.4.6-.3.6-.4.6-.3.6-.3.5-.2.3-.2.3-.2.3-.2.3-.2.3-.1.3-.2.3-.2.3-.2.3-.2.3-.2.3-.2.3-.2.3-.2.3-.2.3-.2.3-.2.2-.2.3-.2.3-.2.3-.2.3-.2.3-.2.2-.2.3-.2.3-.2.3-.4.5-.4.6-.4.5-.4.6-.4.5-.4.6-.4.5-.8 1-.8 1.1-.4.6-.4.5-.4.5-.4.6-.4.5-.4.5-.2.3-.2.3-.2.2-.2.3v.1l-.1.2h-.1l-.1.2-.1.2-.1.2-.2.2v.2l-.2.2-.2.3-.1.2-.2.3-.2.3-.1.3-.2.3-.2.3-.1.3-.2.3-.2.3-.2.4-.2.3-.2.3-.2.4-.2.3-.2.4-.2.4-.2.3-.2.4-.2.3-.2.4-.2.4-.1.3-.2.3h.4l.5-.2 1.1-.2 1-.3h.6l.5-.2h.6l.5-.2.5-.1.5-.1.5-.2h.6l.2-.1.3-.1h.2l.3-.1.3-.1h.2l.3-.1.2-.1h.3l.3-.2h.2l.3-.1h.3l.2-.2h.3l.2-.1.3-.1h.3l.2-.2h.3l.3-.2h.2l.3-.1.3-.1.5-.2.5-.2.5-.2.5-.2.6-.1.5-.2.5-.2.5-.2.6-.2.5-.1.6-.2.5-.2.6-.2.5-.2.6-.2.5-.1.6-.2.6-.2.5-.2.6-.2.6-.1.6-.2.5-.2.6-.2.6-.1.6-.2.6-.2.6-.2.6-.1.6-.2.6-.2.6-.2.6-.1.6-.2.6-.2.6-.2.6-.1.6-.2.6-.2.6-.2.6-.1.6-.2.7-.2.6-.1.6-.2.6-.2.7-.1.6-.2.6-.2.6-.1.7-.2.6-.1.6-.2.7-.2.6-.1.6-.2.6-.1.7-.2.6-.2.7-.1.6-.2.6-.1.7-.2.6-.1.6-.2.7-.1.6-.2.6-.1.7-.2.6-.1.7-.1.6-.2.6-.1.7-.2.6-.1.6-.1.7-.2.6-.1.6-.1.7-.2.6-.1.6-.1.7-.2h.6l.6-.2.6-.1.7-.2h.6l.6-.2.7-.1.6-.1.6-.2h.6l.6-.2h.7l.6-.2.6-.1.6-.1.6-.1.6-.1.6-.1.6-.1.6-.1.6-.1.6-.1h.6l.6-.2h.6l.6-.2h.6l.6-.1.6-.1h.6l.5-.2h.6l.6-.1h.6l.5-.1.6-.1h.6l.5-.1.6-.1h.5l.6-.1h.5l.6-.1h.5l.6-.1 1.1-.1h.6l.6-.1h.6l.6-.1h.5l.6-.1h1.2l.6-.1h.6l.5-.1h1.2l.6-.1h1.2l.5-.1h1.2l.6-.1h1.7l.6-.1h2.4l.5-.1H241.2l.6.1h1.1l.6.1h1.2l.5.1h.6l.6.1h.6l.5.1h.6l.6.1h.6l.5.1.6.1h.6l.6.1.5.1.6.1h.6l.3.1h.3l.3.1h.5l.3.1h.3l.3.1h.3l.3.1h.2l.3.1h.3l.3.1h.3l.3.1h.3l.2.2h.6l.3.1h.3l.3.1.3.1h.2l.3.1h.3l.3.2h.6l.2.2h.6l.3.2h.3l.3.1h.2l.3.1.3.1h.3l.3.2h.3l.2.1.3.1h.3l.3.2h.3l.3.1.2.1.3.1h.3l.3.2h.3l.2.2h.3l.3.1.3.1.3.1.2.1.3.1.3.1.3.1.3.1.2.1.3.1.3.1.3.1.3.1.2.1.3.1.3.1.3.1.3.1.2.1.3.2h.3l.3.2.2.1.3.1.3.1.3.1.3.2h.2l.3.2.3.1.3.2h.2l.3.2.3.1.3.2h.2l.3.2.3.2h.3l.2.2.3.2h.3l.3.2.2.2.3.1.3.1.2.2.3.1.3.2.3.1.2.2.3.1.3.2.2.1.3.2.3.1.3.2.2.1.3.2.2.1.2.1.3.2.2.1.2.1.2.2.2.1.2.1.2.2.2.1.2.1.2.2.2.1.2.2h.2l.2.2.2.2.2.1.2.1.2.2.2.1.2.2.2.1.2.1.2.2.2.1.1.2.2.1.2.2.2.1.2.1.1.2.2.1.2.2.2.1.1.2.2.1.2.2.2.1.1.2.2.1.2.1.1.2.2.1.2.2.1.1.3.3.4.3.3.3.3.3.3.3.3.3.3.3.3.3.3.3.3.4.3.3.3.3.3.3.3.3.3.3.3.3.3.3.3.3.3.3.5.6.6.7.6.6.6.6.5.6.3.3.3.3.3.3.3.4.3.3.3.3.3.3.3.3.3.3.3.3.3.3.3.4.2.1.2.2.2.2.2.2.1.2.2.2.2.2.2.2.2.2.1.2.2.2.2.2.1.2.2.2.1-.6.2-.5.2-.5.1-.5.2-.5.2-.5.1-.6.2-.5.2-.5.1-.5.2-.5.3-1 .4-1 .3-1 .4-1 .3-1.1.4-1 .3-1 .4-1 .3-1 .2-.4v-.3l.2-.4.1-.3.2-.4v-.3l.2-.4.1-.4.1-.3.2-.4.1-.4.1-.4.1-.4.2-.3v-.4l.2-.4.1-.4.2-.4v-.4l.2-.4.1-.4.1-.4.2-.4v-.4l.2-.5.1-.4.1-.4.1-.4.2-.4v-.5l.2-.4.1-.4.1-.4.1-.5.1-.4.2-.4v-.5l.2-.4v-.4l.2-.5.1-.4.1-.5.1-.4.1-.5.1-.4.1-.4.1-.5.1-.4.1-.5v-.4l.2-.5v-.4l.2-.5v-.5l.1-.4.1-.5.1-.4v-.5l.2-.4v-.5l.1-.4.1-.5v-.4l.1-.5.1-.5v-.4l.1-.5.1-.4v-.5l.1-.4v-.5l.1-.4.1-.5v-.9l.1-.4v-.5l.1-.4v-.5l.1-.4v-.9l.1-.5V201.6l.1-.5V194.6l-.1-.2v-1l-.1-.2V192.6l-.1-.2v-.7l-.1-.2v-.4l-.1-.2v-.5l-.1-.2v-.4l-.1-.2v-.2l-.1-.1v-.4l-.1-.2V188.4l-.1-.2v-.2l-.1-.2v-.1l-.1-.2V187.2l-.1-.2v-.2l-.1-.1v-.2l-.1-.2v-.1l-.1-.2v-.2l-.1-.1v-.2h-.1v-.2h-.1v-.2l-.1-.1v-.1l-.1-.1v-.2l-.1-.1-.1-.2-.2-.2v-.2l-.1-.1-.1-.2-.2-.2v-.2l-.2-.1v-.2l-.2-.1v-.2l-.2-.1v-.2l-.2-.1-.1-.2-.1-.1-.1-.2-.2-.1-.1-.2-.1-.1-.2-.2v-.1l-.2-.2-.2-.1-.1-.2-.1-.1-.2-.2-.1-.1-.2-.2-.1-.1-.2-.2-.1-.2-.2-.1-.1-.2-.2-.1-.2-.2-.1-.1-.2-.2-.1-.1-.2-.2-.2-.1-.2-.2-.1-.1-.2-.2-.2-.1-.1-.2-.2-.1-.2-.2-.2-.2-.2-.1-.1-.2-.2-.1-.2-.2-.2-.1-.2-.2-.3-.3-.4-.3-.4-.3-.4-.2-.3-.3-.4-.3-.4-.3-.4-.3-.4-.3-.4-.3-.3-.3-.4-.3-.4-.2-.8-.6-.7-.6-.7-.5-.4-.3-.4-.2-.3-.3-.4-.3-.3-.2-.4-.3-.3-.3-.3-.2-.4-.3-.3-.2-.1-.2h-.2l-.2-.2-.1-.1-.1-.1-.1-.1-.1-.1h-.1l-.2-.2-.2-.2h-.1l-.1-.1-.1-.1-.1-.1h-.2v-.2h-.2l-.1-.1-.2-.1v-.1l-.2-.1h-.1l-.2-.2-.2-.2h-.2v-.1l-.2-.1h-.1l-.3-.3-.3-.1-.3-.2-.3-.2-.3-.1-.2-.2-.3-.2-.3-.1-.3-.2-.3-.2-.4-.1-.3-.2-.3-.1-.3-.2-.3-.2-.3-.1-.4-.2-.3-.1-.3-.2-.4-.1-.3-.2-.3-.2-.4-.1-.3-.2-.4-.1-.3-.2-.4-.1-.3-.2-.4-.1-.3-.1-.4-.2-.4-.1-.3-.2-.4-.1-.3-.2h-.4l-.4-.2-.3-.2-.4-.1-.4-.1-.4-.2-.3-.1-.4-.1-.4-.2-.3-.1-.4-.1-.4-.2h-.4l-.3-.2-.4-.1-.4-.2h-.4l-.3-.2-.4-.1-.4-.1-.4-.2h-.3l-.4-.2-.4-.1-.4-.1-.3-.2h-.4l-.4-.2-.7-.2-.8-.2-.7-.2-.7-.2-.7-.2-.7-.2-.7-.2-.7-.2-.7-.2-.7-.2-.7-.2-.7-.2-.6-.1-.7-.2-1.2-.4-1.2-.3-1.2-.3-1-.3-.6-.1-.5-.1-.5-.2-.4-.1h-.3l-.2-.1h-.2l-.2-.1h-.3l-.2-.1h-.3l-.2-.1h-.3l-.2-.1h-.3l-.2-.1h-.3l-.3-.1h-.5l-.3-.1h-.6l-.3-.1h-.6l-.3-.1h-.6l-.4-.1H250.4l-.3-.1H248.4l-.3-.1h-4.3z"/>
  <g fill="#00529b">
    <path d="M186.5 28.2c.8 12.6 6.2 28 3.8 41.9-1.6 9.2-1.6 14.4 0 16.1.4.5 5.8-2.4 6.2-2.7a24 24 0 015.9-2.7c6-2.1 11.9-3.6 18.1-4.7 16-2.8 37 0 52.6 4.3 6 1.8 30.6 13.7 37.3 16.9 3 1.4 6.4 4.3 8.7 6.7.3.3 3.6 3.6 4 3.3.8-.9-1.2-5.5-1.7-6.3-4-6.3-12.4-30.8-17-36.6C288.8 44.6 279 30 251.7 25c-14.2-2.6-30.5-3-44.5.3a263 263 0 01-20.7 2.9z"/>
    <path d="M229.7 19.2H232.7l.3.1H235.2l.4.1h1.5l.3.1h1.1l.4.1h.7l.4.1h.7l.3.1h.8l.3.1h.7l.4.1h.4l.3.1h.7l.4.1h.3l.4.1h.3l.4.1h.4l.3.1h.4l.3.1h.4l.3.1h.4l.3.1h.4l.3.1.4.1h.3l.3.1h.4l.3.1.4.1h.3l.4.1h.3l.3.1.3.1h.4l.3.1.3.1h.3l.3.1.4.1h.3l.3.2h.3l.3.1h.3l.3.2h.3l.4.1h.3l.3.2h.3l.3.1.3.1h.3l.3.2h.3l.3.1.2.1.3.1.3.1h.3l.3.2h.3l.3.2h.3l.2.1.3.1.3.1.3.1.3.1.2.1.3.1.3.1.3.1.2.1.3.1.3.1.2.1.3.1.3.2h.2l.3.2h.3l.2.2.3.1.2.1.3.1.2.1.3.1.3.2h.2l.3.2.2.1.3.1.2.2h.3l.2.2.2.1.3.1.2.2h.3l.2.2.3.1.2.2h.2l.3.2.2.1.2.2.3.1.2.1.2.2.3.1.2.1.2.2.3.1.2.1.2.2.2.1.3.2.2.1.2.1.2.2.3.1.2.2.2.1.2.2.2.1.3.1.2.2.2.1.2.2.2.1.2.2.2.1.2.2.3.1.2.2.2.1.2.2.2.1.2.2.2.2.2.1.2.2.2.1.2.2.2.1.2.2.2.2.2.1.2.2.2.2.2.1.2.2.2.1.2.2.2.2.2.1.2.2.2.2.2.1.1.2.2.2.2.2.2.1.2.2.2.2.2.1.2.2.2.2.1.2.2.1.2.2.2.2.4.4.3.3.4.4.4.3.3.4.4.4.3.3.4.4.3.4.4.4.3.3.4.4.3.4.4.4.3.4.4.3.3.4.4.4.3.4.4.4.3.4.3.4.4.4.3.4.4.4.3.4.3.5.4.4.3.4.4.4.3.4.3.4.4.5.3.4.4.4.3.4.7.9.7.9.7.8.6 1 1.4 1.7 1.5 1.8.7 1 .7.9.2.1.1.2.1.2.2.2.1.2.2.2.1.2.1.3.2.2.1.2.1.2.2.3.1.2.2.2.1.3.1.2.2.3.1.3.1.2.2.3.1.2.2.3.1.3.1.3.2.3.1.3.2.2.1.3.1.3.2.3.1.3.2.4.1.3.2.3.1.3.2.3.2.7.3.6.3.7.3.7.3.7.3.6.3.7.3.7.3.7.3.8.3.7.3.7.6 1.4.6 1.5.6 1.4.6 1.4.6 1.4.2.7.3.6.3.7.3.7.2.6.3.6.3.7.2.6.3.6.3.5.2.6.1.3.2.3v.2l.2.3.1.2.1.3.2.2v.3l.2.2v.2l.2.3.1.2.1.2.1.2.1.2.1.2.1.2.1.1.1.2v.2l.2.1v.2l.1.1.1.1.1.2v.1h.1l.1.2v.1l.1.1v.1l.1.1.1.2.1.2.1.3.1.2.2.2v.3l.2.3v.2l.2.3V102.1l.1.1.1.2v.1l.1.2v.1l.1.2v.2l.1.1v.2l.1.1V104l.1.2v.2l.1.1v.4l.1.1v.4l.1.2V107.9l-.1.1v.2l-.1.1v.2l-.1.2-.1.1-.1.2-.1.2-.1.2-.1.1-.2.2v.1l-.2.2-.2.1-.3.2-.3.2-.2.2h-.3l-.3.2h-.5l-.2.1H322l-.2-.1h-.2l-.3-.2-.2-.1h-.2l-.1-.2h-.2l-.1-.2h-.1l-.1-.1h-.1l-.1-.2h-.1l-.1-.1h-.1l-.2-.2-.2-.2-.2-.2-.2-.1-.1-.2-.2-.2-.2-.1-.2-.2-.2-.2-.1-.1-.2-.2-.3-.3-.3-.3-.3-.3-.2-.2-.2-.2h-.1l-.2-.3-.2-.2-.2-.2-.2-.2-.3-.2-.2-.2-.2-.3-.3-.2-.2-.2-.3-.2v-.1l-.2-.1-.1-.1-.2-.1v-.1l-.2-.2h-.1l-.2-.2-.2-.2h-.1l-.2-.2h-.1l-.1-.2h-.2v-.2h-.2l-.2-.2-.2-.2h-.1l-.2-.2h-.1l-.1-.1-.2-.1v-.1h-.2l-.1-.2h-.2v-.1l-.2-.1h-.1l-.1-.2h-.2v-.1h-.2l-.1-.1-.1-.1h-.2v-.1h-.2v-.1h-.2l-.1-.1-.7-.4-.8-.3-1.8-.9-2.1-1-2.4-1.1-1.3-.7-1.3-.6-1.3-.6-1.4-.7-1.4-.6-1.5-.7-1.4-.7-1.4-.7-.8-.3-.7-.3-.7-.4-.7-.3-.7-.3-.7-.3-.7-.4-.7-.3-.7-.3-.7-.3-.7-.3-.6-.3-.7-.3-.6-.2-.6-.3-.6-.3-.6-.2-.6-.3-.6-.2-.5-.3-.5-.2-.5-.2-.5-.2h-.3l-.2-.2h-.2l-.2-.1-.2-.1h-.3l-.2-.2h-.1l-.2-.1h-.2l-.2-.1h-.1l-.2-.1h-.1l-.2-.1h-.1l-.1-.1h-.1l-.4-.1-.3-.1-.4-.1-.4-.1-.3-.1-.4-.1-.4-.1-.3-.1-.4-.1-.4-.1-.4-.1-.3-.1h-.4l-.4-.2h-.4l-.4-.2h-.3l-.4-.1-.4-.1-.4-.1-.4-.1h-.4l-.4-.2h-.4l-.4-.1-.4-.1-.4-.1h-.4l-.4-.2h-.4l-.4-.1h-.4l-.4-.2h-.4l-.4-.1h-.4l-.4-.2h-.4l-.4-.1h-.4l-.4-.1-.4-.1h-.5l-.4-.1-.4-.1h-.4l-.4-.1h-.4l-.5-.1-.4-.1h-.4l-.4-.1h-.4l-.4-.1h-.5l-.4-.1h-.4l-.4-.1h-.4l-.4-.1h-.5l-.4-.1h-.8l-.4-.1h-.5l-.4-.1h-.8l-.4-.1h-.9l-.4-.1h-1.3l-.4-.1h-1.6l-.4-.1H229l-.4.1h-.8l-.4.1h-.7l-.4.1h-.8l-.3.1h-.4l-.4.1h-.4l-.3.1h-.4l-.4.1h-.3l-.4.1h-.3l-.4.1h-.3l-.3.1h-.3l-.3.1h-.3l-.3.1h-.2l-.3.1h-.3l-.3.1-.3.1h-.2l-.3.1h-.3l-.3.1h-.2l-.3.1-.3.1h-.3l-.2.1h-.3l-.3.2h-.5l-.3.1-.3.1h-.3l-.2.1-.3.1h-.3l-.3.2h-.5l-.6.2-.5.2-.5.1-.6.2-.5.1-.6.2-.5.2-.6.1-.5.2-.6.2-.5.1-.5.2-.6.2-.5.2-.6.2-.5.1-.4.2h-.4l-.1.2h-.4l-.1.1-.2.1h-.2l-.2.1-.1.1h-.2l-.2.1-.1.1h-.2l-.1.2H200.4l-.2.2h-.1l-.2.1h-.1l-.2.2h-.1l-.1.1h-.2v.2h-.2l-.2.1v.1h-.1l-.1.1-.2.1-.1.1h-.2l-.1.2h-.2l-.2.2h-.2l-.2.2-.3.1-.2.2-.3.1-.2.1-.3.2-.3.1-.3.2-.3.1-.3.2h-.3l-.3.2-.3.2H193.5l-.1.2H193l-.1.1h-.2l-.1.1-.2.1h-.1l-.2.1H192l-.2.1h-.2l-.2.1h-.4l-.2.1h-1l-.3-.1h-.1l-.3-.2-.4-.1-.4-.3-.2-.1-.1-.2h-.2l-.1-.3h-.1l-.1-.2h-.1l-.1-.2v-.1l-.2-.1v-.1l-.1-.1v-.2h-.1l-.1-.2-.1-.2V87l-.1-.1-.1-.1v-.2h-.1V86.3l-.1-.1v-.1l-.1-.2v-.2l-.1-.1v-.2l-.1-.2V85l-.1-.1V84.7l-.1-.2V84l-.1-.1V83l-.1-.2V77.6l.1-.3v-.7l.1-.4V76l.1-.4v-.7l.1-.4V74l.1-.4v-.4l.1-.4.1-.4V72l.1-.4.1-.4v-.5l.1-.4.1-.4v-.5l.1-.3v-.3l.1-.2v-.3l.1-.3v-.6l.1-.3v-.6l.1-.3v-1.6l.1-.3V58.7l-.1-.4V57.4l-.1-.3v-.7l-.1-.3v-.7l-.1-.3v-.6l-.1-.4v-.6l-.1-.3v-.4l-.1-.3v-.3l-.1-.3v-.4l-.1-.3V51l-.1-.3-.1-.7-.1-.7-.1-.6-.1-.7-.1-.6-.2-.7v-.7l-.2-.6-.1-.7-.1-.6-.2-1.3-.3-1.4-.1-.6-.1-.7-.1-.6-.1-.7-.2-.6v-.7l-.2-.6V36l-.2-.6v-.7l-.1-.3v-.3l-.1-.4v-.6l-.1-.3v-.3l-.1-.4v-.6l-.1-.3v-.7l-.1-.3v-.6l-.1-.3V27l.2-.4.2-.3.2-.4.3-.3.3-.3.4-.3.4-.2.4-.2.4-.1H186.3l.5-.1.7-.1 1-.1.7-.1h.6l.7-.1.7-.1.8-.1.7-.1.9-.1.8-.1.8-.1.9-.1.9-.1.8-.2h.9l.4-.1h.4l.5-.1.4-.1h.4l.4-.1h.4l.4-.2h.7l.4-.1h.4l.3-.2h.7l.3-.1h.3l.3-.1.3-.1h.2l.3-.1h.2l.3-.1.4-.1.3-.1h.4l.3-.2h.4l.3-.1h.4l.3-.1.4-.1h.3l.4-.1.3-.1h.4l.3-.1h.4l.3-.2h.7l.4-.1h.4l.3-.1h.4l.3-.1h.4l.3-.1h.4l.4-.1h.7l.3-.1h.4l.4-.1h.7l.4-.1h.7l.3-.1h1.1l.4-.1h1.1l.4-.1H225l.3-.1H229.7zm-.7 7.4H224l-.4.1h-1.3l-.4.1h-1l-.3.1h-.7l-.3.1h-.7l-.3.1h-.7l-.3.1h-.7l-.3.1h-.4l-.3.1h-.3l-.4.1h-.3l-.3.1h-.3l-.4.1h-.3l-.3.1h-.3l-.4.1h-.3l-.3.1-.3.1h-.3l-.4.1-.3.1h-.3l-.3.1-.3.1h-.4l-.3.1-.3.1h-.3l-.3.2h-.6l-.3.2h-.7l-.3.2h-.8l-.3.2h-.8l-.4.1-.4.1h-.4l-.4.1-.4.1h-.5l-.4.1h-.4l-.4.2h-.9l-1 .2-.8.1-.9.1-.8.1-1 .1-.8.1-.8.1-.8.1-.8.1-.7.1-.7.1h-.1v.8l.1.3v.7l.1.3v.3l.1.3v.3l.2.6v.6l.2.6v.7l.2.6v.6l.2.7.1.6.1.7.3 1.3.2 1.3.1.7.1.6.1.7.2.7v.6l.2.7.1.7.1.7.1.7.1.7v.3l.1.3v.4l.1.3v.4l.1.3v.4l.1.3v.4l.1.3v.7l.1.4v.3l.1.4v.7l.1.3v.7l.1.4v1l.1.4V59.6l.1.4v6.4l-.1.3v.8l-.1.3v.7l-.1.4v.3l-.1.4v.4l-.1.3-.1.4v.4l-.1.4-.1.4v.4l-.1.4-.1.4v.4l-.1.4v.3l-.1.4v.4l-.1.3v.4l-.1.3v.7l-.1.3v.6l-.1.3V79l-.1.3v2.1l.3-.2.2-.1.2-.1.2-.1.2-.1.2-.1.1-.1h.2v-.2H194.8v-.2h.2l.2-.2h.2l.2-.2.2-.1.3-.2h.2l.2-.2.2-.1.2-.1.2-.1.2-.1.3-.1.2-.1.2-.1.2-.1.2-.1h.2l.2-.2h.2l.3-.1.2-.1.2-.1h.2l.2-.2h.2l.2-.1.4-.1.4-.2.6-.2.5-.2.6-.2.6-.2.6-.1.5-.2.6-.2.6-.2.6-.2.6-.1.5-.2.6-.2.6-.1.6-.2.6-.1.5-.2h.3l.3-.1.3-.1h.3l.3-.2h.3l.3-.1h.3l.3-.1.3-.1h.3l.3-.1.3-.1h.2l.3-.1.3-.1h.3l.3-.1h.3l.3-.2h.6l.3-.1h.3l.3-.1.3-.1h.3l.3-.1h.3l.3-.1h.3l.3-.1.4-.1h.4l.4-.1h.4l.4-.1.4-.1h.4l.4-.1h.4l.4-.1h.4l.5-.1h.8l.4-.1h.8l.5-.1h.8l.4-.1h1.3l.4-.1h3.5l.4-.1h5.2l.5.1H241.5l.5.1h.9l.4.1h.9l.4.1h.9l.4.1h.9l.5.1h.4l.5.1h.4l.4.1h.5l.4.1h.5l.4.1h.4l.5.1h.4l.5.1h.4l.4.1.5.1h.4l.4.1.5.1h.4l.4.1.5.1h.4l.4.1.5.1h.4l.4.2h.5l.4.1h.4l.4.2h.5l.4.1.4.1h.4l.5.2h.4l.4.1.4.1.4.1h.4l.5.2h.4l.4.2h.4l.4.1.4.1.4.1.4.1.4.1.4.1.4.1.4.1.4.1h.4l.4.2h.4l.4.2.4.1.4.1.3.1.4.1.4.1.4.1.4.1h.1l.2.1h.2l.2.2h.4l.2.2h.2l.3.1h.2l.2.2h.2l.3.1.2.1.2.1.3.1.2.1.3.1.5.2.5.3.6.2.6.2.6.3.6.2.6.3.6.3.6.3.7.2.7.3.6.3.7.3.7.3.7.4.7.3.7.3.7.3.7.4.8.3.7.3.7.4.7.3 1.5.7 1.5.7 1.4.6 1.4.7 1.4.7 1.4.6 1.3.6 1.3.7 2.4 1 2 1.1 1.9.9.8.3.6.4h.2l.2.1.1.1.2.1h.2l.2.2h.1l.2.2h.2l.2.2h.1l.2.2h.2l.1.2h.2v.1l-.2-.5-.2-.6-.3-.7-.3-.6-.3-.7-.2-.7-.3-.6-.3-.7-.3-.7-.6-1.4-.6-1.4-.6-1.4-.5-1.5-.6-1.4-.3-.7-.3-.7-.3-.7-.3-.7-.3-.7-.3-.7-.3-.6-.3-.7-.3-.7-.2-.6-.3-.6-.3-.7-.1-.3-.2-.3-.1-.3-.2-.3V73l-.2-.2-.2-.3V72l-.2-.3-.2-.2v-.3l-.2-.3-.1-.2-.2-.3v-.2l-.2-.3-.1-.2-.2-.2v-.2l-.2-.3-.1-.2-.1-.2-.1-.2-.1-.2-.1-.1-.2-.2v-.2l-.2-.1v-.2l-.1-.1-.1-.2-.1-.1-.1-.1v-.1l-.2-.1v-.1l-.8-1-.7-.9-1.4-1.8-1.4-1.8-.7-.8-.7-1-.7-.8-.6-.8-.4-.4-.3-.4-.3-.5-.4-.4-.3-.4-.3-.4-.3-.4-.4-.4-.3-.4-.3-.4-.4-.4-.3-.4-.3-.4-.3-.3-.4-.4-.3-.4-.3-.4-.3-.4-.4-.3-.3-.4-.3-.4-.3-.3-.4-.4-.3-.3-.3-.4-.4-.4-.3-.3-.3-.4-.3-.3-.4-.3-.3-.4-.3-.3-.4-.3-.3-.4-.3-.3-.4-.3-.1-.2-.2-.1-.2-.2-.1-.2-.2-.1-.2-.2-.2-.1-.1-.2-.2-.1-.2-.2-.1-.2-.2-.1-.2-.2-.2-.1-.1-.2-.2-.1-.2-.2-.2-.1-.1-.2-.2-.1-.2-.2-.2-.1-.1-.1-.2-.2-.2-.1-.2-.2-.1-.1-.2-.2-.2-.1-.2-.1-.2-.2-.1-.1-.2-.2-.2-.1-.2-.1-.2-.2-.2-.1-.1-.1-.2-.2-.2-.1-.2-.1-.2-.2-.2-.1-.2-.1-.2-.2h-.1l-.2-.2-.2-.2h-.2l-.2-.2-.2-.1-.2-.2h-.2l-.2-.2-.2-.1-.2-.1-.2-.2h-.2l-.2-.2-.2-.1-.2-.1-.2-.2h-.2l-.2-.2-.2-.1-.2-.1-.2-.1-.2-.2h-.2l-.2-.2h-.2l-.3-.2-.2-.1-.2-.1-.2-.1-.2-.1-.2-.1-.2-.2h-.3l-.2-.2h-.2l-.2-.2h-.2l-.3-.2h-.2l-.2-.2h-.2l-.3-.2h-.2l-.2-.2h-.3l-.2-.2h-.2l-.3-.2h-.2l-.2-.1-.3-.1-.2-.1-.3-.1-.2-.1-.2-.1h-.3l-.2-.2h-.3l-.2-.2h-.3l-.2-.1-.3-.1h-.2l-.3-.2h-.2l-.3-.1-.3-.1-.2-.1h-.3l-.2-.2h-.3l-.3-.1h-.2l-.3-.2h-.3l-.2-.1h-.3l-.3-.2h-.3l-.2-.1h-.3l-.3-.1-.3-.1h-.3l-.3-.1-.2-.1h-.3l-.3-.1-.3-.1h-.3l-.3-.1h-.3l-.3-.2h-.6l-.3-.1h-.3l-.3-.1-.3-.1h-.3l-.4-.1h-.3l-.3-.1h-.3l-.4-.1h-.3l-.3-.1h-.4l-.3-.1h-.3l-.4-.1h-.3l-.3-.1h-.3l-.4-.1h-.3l-.3-.1h-.4l-.3-.1h-.7l-.3-.1h-.4l-.3-.1h-.7l-.3-.1h-.7l-.3-.1h-.7l-.4-.1h-1l-.3-.1h-1.1l-.3-.1h-1.4l-.3-.1h-2.1l-.3-.1H229z"/>
  </g>
</svg>
