<svg xmlns="http://www.w3.org/2000/svg" fill-rule="evenodd" stroke-linejoin="round" stroke-miterlimit="2" clip-rule="evenodd" viewBox="0 0 1587 1536">
  <defs/>
  <path fill="#2d6810" d="M1527.97 20.41l4.71 1.43 4.34 2.32 3.81 3.13 3.13 3.8 2.32 4.35 1.43 4.72.49 4.9v1447.9l-.49 4.9-1.43 4.71-2.32 4.34-3.13 3.81-3.81 3.14-4.34 2.31-4.71 1.43-4.92.48H76.42l-4.9-.48-4.72-1.43-4.35-2.31-3.8-3.14-3.13-3.8-2.33-4.35-1.43-4.71-.48-4.9V45.05l.48-4.9 1.43-4.72 2.33-4.34 3.12-3.81 3.81-3.13 4.35-2.32 4.71-1.43 4.9-.48h1446.64l4.92.48zM101.55 70.2V1467.8h1396.37V70.2H101.55z"/>
  <path fill="#2d6810" d="M1518.52 735.38l-.47.02-2.55.19-2.11.52 4.86-.72 4.93.25 4.78 1.2 4.46 2.1 3.95 2.94 3.3 3.66 2.54 4.22 1.65 4.64.73 4.88-.25 4.92-1.19 4.78-2.11 4.45-2.95 3.96-3.65 3.3-4.22 2.54-4.65 1.65-4.28.69-.42.03-.66.03-.52.01-.63.01-.86.01-1.2.02-1.6.01-2.1.02-2.63.02-3.27.02-3.99.02-4.73.02-5.59.02-3.12.01-3.36.02H1483l-3.86.02h-4.12l-4.39.02-4.67.01-4.96.01-5.24.01-5.56.01-5.87.01-6.2.02h-6.53l-6.86.02h-7.2l-7.57.01-7.93.01-8.3.01-8.69.01-9.08.01h-9.47l-9.9.01-10.28.01h-10.73l-11.17.01-11.59.01h-24.57l-12.98.01h-27.4l-14.43.01h-97.47l-4.9-.49-4.72-1.43-4.35-2.32-3.8-3.13-3.13-3.8-2.32-4.35-1.43-4.72-.49-4.9.49-4.9 1.43-4.72 2.32-4.35 3.13-3.8 3.8-3.13 4.36-2.32 4.71-1.43 4.9-.48H1275.27l12.97-.01h12.52l12.04-.01h11.6l11.15-.01h10.74l10.29-.01 9.87-.01 9.48-.01h9.07l8.7-.02h8.29l7.91-.01 7.57-.01 7.2-.01 6.87-.01 6.5-.01 6.2-.02h5.86l5.54-.02h5.26l4.95-.02 4.65-.01 4.39-.01 4.12-.01 3.84-.01 3.6-.01 3.34-.02h3.12l5.56-.03 4.71-.02 3.94-.02 3.22-.02 2.59-.02 2.02-.01 1.5-.02 1.08-.01.67-.01h.33-.01zM821.27 988.45l4.74 1.35 4.38 2.25 3.86 3.06 3.19 3.76 2.4 4.3 1.5 4.7.57 4.9.18 10.9.18 10.75.17 10.58.17 10.4.17 10.25.17 10.09.16 9.92.15 9.75.16 9.6.15 9.43.15 9.29.14 9.12.14 8.98.14 8.81.13 8.66.14 8.53.13 8.35.12 8.22.12 8.07.12 7.92.12 7.78.11 7.64.11 7.5.11 7.35.1 7.23.11 7.07.1 6.95.1 6.8.1 6.67.08 6.56.1 6.4.08 6.27.08 6.16.08 6.03.08 5.91.08 5.77.07 5.65.08 5.55.07 5.4.06 5.3.07 5.16.06 5.06.06 4.96.06 4.83.06 4.72.05 4.6.05 4.5.05 4.39.05 4.28.05 4.19.04 4.06.05 3.98.04 3.86.04 3.78.03 3.66.04 3.57.03 3.48.03 3.37.03 3.3.03 3.18.03 3.1.02 3.02.03 2.92.02 2.85.02 2.74.02 2.68.02 2.58.02 2.5.01 2.42.02 2.33.01 2.28.01 2.2.02 2.1v2.04l.01 1.97.01 1.89v1.83l.01 1.77v1.68l.01 1.63V1473.8l-.01.93v.9l-.01.85v.81l-.02.77v.71l-.01.7v.63l-.02.6-.01 1.1-.02.98-.02.85-.02.73-.02.68-.02.58-.02.55-.03.53-.04.55-.05.65-.1.86-.2 1.36-.18.86-.86 3.04-2.1 4.46-2.91 3.97-3.64 3.33-4.21 2.55-4.63 1.68-4.88.75-4.92-.22-4.78-1.18-4.47-2.08-3.97-2.93-3.32-3.64-2.55-4.2-1.68-4.63-.75-4.88.22-4.9-.05.32-.07.71-.03.39-.01.16v.02-.12l.01-.24.01-.39.02-.53.01-.65.01-.81.02-.96v-.52l.01-.6.01-.62v-.67l.01-.72v-.75l.01-.81v-.85l.01-.9v-.95l.01-1.02V1456.68l-.01-1.75v-1.8l-.02-1.88v-1.95l-.01-2.01-.01-2.1-.02-2.17-.01-2.25-.01-2.34-.02-2.4-.02-2.47-.02-2.58-.02-2.67-.02-2.72-.02-2.82-.02-2.93-.03-2.98-.03-3.1-.02-3.18-.03-3.27-.04-3.38-.03-3.45-.04-3.58-.03-3.65-.04-3.76-.04-3.86-.04-3.94-.05-4.06-.04-4.19-.05-4.27-.05-4.38-.06-4.5-.05-4.58-.06-4.72-.05-4.81-.06-4.94-.07-5.06-.06-5.16-.07-5.3-.07-5.4-.07-5.53-.08-5.65-.07-5.77-.08-5.89-.08-6.01-.09-6.16-.08-6.27-.1-6.4-.08-6.54-.1-6.67-.1-6.8-.1-6.95-.1-7.07-.1-7.21-.11-7.35-.11-7.5-.11-7.62-.12-7.78-.12-7.92-.12-8.06-.13-8.21-.13-8.37-.13-8.51-.13-8.66-.14-8.81-.14-8.96-.15-9.12-.14-9.29-.15-9.42-.16-9.59-.16-9.77-.16-9.9-.16-10.09-.17-10.24-.17-10.4-.17-10.58-.18-10.74-.18-10.91.4-4.91 1.35-4.74 2.25-4.38 3.06-3.87 3.76-3.18 4.3-2.4 4.7-1.5 4.89-.57 4.9.4zm-22.93 490.34l-.52 2.35-.13.91 1.17-4.75-.52 1.5zM472.2 737.1l4.63 1.67 4.22 2.54 3.65 3.32 2.91 3.97 2.11 4.46 1.18 4.78.24 4.92-.74 4.87-1.68 4.64-2.54 4.22-3.31 3.64-3.98 2.93-4.45 2.1-3.14.88-.76.17-1.24.18-.79.1-.6.05-.47.04-.45.03-.47.02-.48.03-.55.02-.61.03-.7.02-.77.02-.88.03-1 .03-1.1.02-1.26.03-1.39.03-1.54.03-1.7.03-1.88.03-2.04.03-2.24.04-2.42.03-2.64.03-2.84.04-3.07.03-3.28.03-3.54.04-3.77.03-4.04.04-4.3.03-4.55.03-4.85.04-5.14.03-5.42.03-5.73.04-6.05.03-6.39.03-6.69.03-7.03.03-7.4.03-7.74.03-8.11.03-8.48.02-8.87.03-9.25.02-9.64.02-10.06.02-10.47.02-10.9.02-11.32.02-11.76.01-12.22.02h-12.66l-13.15.02H201l-14.09.01h-77.97l-17.16-.01-4.9-.49-4.71-1.43-4.35-2.33-3.8-3.12-3.13-3.82-2.32-4.34-1.43-4.72-.48-4.9.49-4.9 1.43-4.72 2.33-4.34 3.12-3.81 3.81-3.12 4.35-2.33 4.72-1.42 4.9-.48h17.15l16.62.01h75.4l13.6-.01 13.12-.01 12.67-.01 12.2-.02 11.75-.01 11.32-.02 10.89-.02 10.46-.02 10.04-.02 9.64-.02 9.23-.02 8.85-.03 8.47-.02 8.09-.03 7.72-.03 7.39-.03 7.01-.03 6.7-.03 6.35-.03 6.02-.03 5.73-.03 5.4-.04 5.1-.03 4.83-.03 4.54-.04 4.28-.03 4-.04 3.74-.03 3.5-.03 3.26-.04 3.02-.03 2.8-.03 2.6-.04 2.38-.03 2.19-.03 1.99-.03 1.8-.03 1.64-.03 1.47-.03 1.3-.03 1.16-.02 1.01-.03.89-.02.74-.02.63-.02.51-.02.39-.01.29-.02h.17l.07-.01h-.05l-.2.02-.38.03-.66.08-.22.04 4.9-.23 4.88.73zm-10.72-.36l-2.33.5-1.53.54 4.76-1.18-.9.14z"/>
  <g>
    <path fill="#fff" d="M434.1 350.4h774.22v790.53H434.1z"/>
    <path fill="#2d6810" d="M1213.21 325.75l4.72 1.43 4.34 2.32 3.8 3.13 3.14 3.8 2.32 4.35 1.43 4.72.48 4.9v790.53l-.48 4.9-1.43 4.72-2.32 4.34-3.13 3.81-3.81 3.13-4.34 2.32-4.72 1.43-4.9.48H434.1l-4.9-.48-4.72-1.43-4.35-2.32-3.8-3.13-3.13-3.81-2.33-4.34-1.43-4.72-.48-4.9V350.4l.48-4.9 1.43-4.72 2.33-4.34 3.12-3.81 3.81-3.13 4.35-2.32 4.71-1.43 4.9-.48h774.21l4.91.48zm-753.98 49.79v740.25h723.94V375.54H459.23z"/>
    <path fill="#2d6810" d="M751.15 728.23l3.64 1.36 3.23 2.14 2.66 2.83 1.95 3.36.04.1.1.24.15.35.18.43.1.27.12.27.11.3.13.31.12.33.14.35.14.37.14.38.14.4.15.41.14.43.15.42.08.25.07.23.08.24.07.24.08.24.07.24.08.26.07.26.07.26.08.27.07.27.07.28.08.3.07.3.07.3.07.31.07.33.06.34.07.35.06.36.06.38.05.4.05.43.04.37.11 1.21.1 1.15.1 1.14.1 1.14.1 1.14.08 1.14.09 1.14.08 1.13.08 1.14.08 1.14.08 1.14.07 1.14.07 1.13.07 1.14.07 1.13.06 1.14.06 1.13.06 1.14.06 1.13.06 1.14.05 1.13.05 1.13.05 1.14.04 1.13.05 1.13.04 1.13.04 1.13.04 1.13.04 1.13.03 1.13.04 1.12.03 1.13.03 1.13.03 1.13.02 1.12.03 1.13.02 1.12.03 1.13.02 1.12.02 1.12.02 1.12.01 1.13.02 1.12.01 1.12.02 1.12.01 1.12.01 1.11.01 1.12.01 1.12.01 1.12v1.11l.02 1.12V811.54l.02 2.22V828.27l-.02 1.13v1.12l-.02 1.13v1.12l-.02 1.13-.02 1.12-.01 1.12-.02 1.13-.02 1.12-.02 1.12-.02 1.12-.02 1.13-.03 1.12-.02 1.12-.03 1.12-.03 1.12-.03 1.12-.02 1.12-.03 1.12-.04 1.12-.03 1.11-.03 1.12-.04 1.12-.03 1.12-.04 1.11-.04 1.12-.04 1.12-.04 1.11-.04 1.12-.04 1.11-.04 1.12-.04 1.11-.05 1.11-.04 1.12-.05 1.11-.04 1.11-.05 1.12-.1 2.22-.1 2.22-.1 2.22-.1 2.23-.1 2.21-.12 2.22-.1 2.22-.12 2.21-.11 2.22-.12 2.21-.12 2.21-.11 2.21-.12 2.21-.12 2.21-.13 2.2-.24 4.42-.25 4.4-.5 8.8-.24 4.4-.12 2.2-.12 2.19-.12 2.2-.12 2.19-.12 2.19-.12 2.19-.11 2.2-.11 2.18-.12 2.19-.1 2.19-.11 2.19-.1 2.18-.1 2.19-.11 2.18-.1 2.19-.1 2.19-.04 1.09-.04 1.09-.05 1.09-.04 1.1-.1 2.42-.1 2.43-.1 2.43-.1 2.43-.2 4.88-.2 4.88-.1 2.44-.1 2.44-.1 2.44-.1 2.44-.1 2.44-.1 2.44-.08 2.44-.1 2.44-.03 1.2-.05 1.22-.04 1.22-.04 1.21-.04 1.22-.04 1.2-.03 1.22-.04 1.21-.04 1.21-.03 1.2-.03 1.22-.04 1.2-.03 1.2-.03 1.2-.03 1.21-.02 1.2-.03 1.2-.02 1.2-.03 1.2-.02 1.19-.02 1.19-.02 1.2-.01 1.18-.02 1.19-.01 1.18-.01 1.19-.01 1.18-.01 1.18v1.18l-.01 1.17v2.73l-.01.41v.38l1.27 2.4.98 3.96.01 4.07-.96 3.96-.1.25-.11.31-.13.32-.14.33-.14.34-.15.34-.16.35-.18.37-.2.38-.2.4-.24.43-.26.44-.3.48-.33.5-.34.49-.28.37-.23.29-.25.3-.27.33-.3.33-.35.37-.35.35-.39.37-.46.4-.47.4-.52.4-.6.42-.66.42-.7.4-.75.4-.85.39-.88.34-1 .33-1.08.28-1.1.2-1.1.14-1.21.07-1.24-.02-1.2-.1-1.24-.2-1.16-.28-1.08-.33-1.08-.42-1.02-.47-.9-.48-.84-.52-.8-.56-.69-.53-.6-.52-.59-.56-.5-.51-.46-.52-.4-.48-.36-.47-.33-.46-.28-.4-.32-.52-.4-.67-.36-.7-.3-.63-.25-.59-.22-.53-.17-.5-.16-.45-.13-.43-.11-.4-.1-.36-.09-.36-.08-.33-.06-.31-.07-.31-.05-.3-.06-.28-.04-.27-.04-.26-.04-.26-.04-.25-.03-.25-.03-.23-.03-.24-.03-.25-.05-.43-.04-.44-.03-.43-.04-.42-.02-.41-.03-.42-.02-.4-.02-.4-.02-.4-.01-.38-.02-.39v-.38l-.02-.38v-.37l-.01-.36v-.36l-.01-.36v-.35l-.01-.66v-4.58l.01-1.22v-1.23l.01-1.23.01-1.23.01-1.23.01-1.23.02-1.23.01-1.24.02-1.23.02-1.23.02-1.24.02-1.23.03-1.24.02-1.24.03-1.23.03-1.24.03-1.24.03-1.24.03-1.23.03-1.24.04-1.24.03-1.24.04-1.24.04-1.24.03-1.23.04-1.24.04-1.24.04-1.24.05-1.24.04-1.24.04-1.23.1-2.47.09-2.48.09-2.47.1-2.46.1-2.47.1-2.46.1-2.45.1-2.45.2-4.9.2-4.86.1-2.43.1-2.42.1-2.4.1-2.42.04-1.1.05-1.13.05-1.11.04-1.12.1-2.22.1-2.23.1-2.22.1-2.23.11-2.22.11-2.22.11-2.22.11-2.22.12-2.21.11-2.22.12-2.21.12-2.21.12-2.22.12-2.2.12-2.21.13-2.21.24-4.41.5-8.8.24-4.4.25-4.4.12-2.19.12-2.19.12-2.19.12-2.19.11-2.19.12-2.19.1-2.18.12-2.2.1-2.18.12-2.18.1-2.18.1-2.19.1-2.18.1-2.18.1-2.18.04-1.09.05-1.09.04-1.09.04-1.09.05-1.09.04-1.08.04-1.1.04-1.08.04-1.09.04-1.09.04-1.08.03-1.1.04-1.08.03-1.09.04-1.08.03-1.09.03-1.09.03-1.08.03-1.09.03-1.08.03-1.09.02-1.09.03-1.08.02-1.09.03-1.08.02-1.09.02-1.08.02-1.09.02-1.08.01-1.09.02-1.08.01-1.08.02-1.09v-1.08l.02-1.09v-1.08l.01-1.08.01-1.09v-1.08l.01-1.08v-10.92l-.02-2.2v-1.08l-.01-1.1v-1.08l-.01-1.1-.01-1.08-.01-1.1-.01-1.08-.01-1.09-.02-1.08-.01-1.1-.01-1.08-.02-1.08-.02-1.09-.01-1.08-.02-1.08-.02-1.09-.03-1.08-.02-1.08-.02-1.08-.03-1.08-.03-1.08-.03-1.08-.03-1.08-.03-1.07-.03-1.08-.04-1.08-.03-1.07-.04-1.08-.04-1.07-.04-1.07-.05-1.08-.04-1.07-.05-1.07-.05-1.07-.05-1.07-.06-1.07-.05-1.07-.06-1.06-.06-1.07-.06-1.06-.07-1.07-.07-1.06-.06-1.07-.08-1.06-.07-1.06-.07-1.06-.07-.9-1.55-2.17-1.5-3.79-.55-4.04.43-4.05.28-.77-.19-1.27.33-3.86 1.2-3.7 2.02-3.32 2.72-2.77 3.28-2.08 3.67-1.27 3.86-.4 3.85.48zm-20.54 316.08l-.13.24-.11.2-.08.16-.07.14-.05.11-.04.09v.01l.62-1.2-.14.25zm12.7-309.84l-.87.21-.88.28-.09.03 2.4-.63-.56.1zm2.52-.35l-.83.07-.37.05 3.76-.06-.32-.03-.71-.05h-.74l-.8.02z"/>
    <path fill="#2d6810" d="M1014.02 953.98l.37.12.37.12.37.13.37.14.35.14.37.14.36.15.35.15.36.16.35.16.35.17.34.17.34.17.34.18.34.18.33.19.33.19.32.2.33.19.32.2.3.2.32.22.31.2.3.22.3.22.3.22.3.22.29.23.28.23.28.23.29.23.27.24.28.24.26.24.27.24.26.25.25.25.26.25.25.25.24.25.25.26.23.26.24.25.24.27.22.26.23.26.22.27.21.26.22.27.21.27.2.27.22.27.2.27.2.28.2.27.18.28.19.27.19.28.18.28.18.28.18.28.17.28.17.29.17.28.17.28.16.28.16.29.15.29.16.28.15.29.14.29.16.28.14.3.14.28.14.3.13.29.14.28.13.3.13.29.13.3.13.28.12.3.11.3.12.29.12.3.11.29.11.3.1.29.12.3.1.3.11.3.1.29.1.3.1.3.09.3.1.3.09.3.08.3.09.3.1.3.07.3.08.3.08.3.08.31.08.3.07.3.07.31.08.3.06.31.07.3.06.31.07.3.07.32.05.3.07.3.06.32.05.3.05.31.06.31.05.31.05.31.05.3.05.32.04.31.04.31.05.31.04.31.03.32.04.31.04.31.04.32.02.31.04.31.03.32.03.31.03.32.02.31.02.32.02.31.03.32.02.32.02.31.01.32.02.32.02.32v.31l.02.32v.32l.02.32v.32l.01.32v.64l.01.32v1.29l-.02.32v.65l-.01.32-.01.32-.01.32-.02.33-.01.32-.02.32-.02.33-.02.33-.02.32-.02.32-.02.33-.02.33-.03.32-.02.33-.03.32-.03.33-.04.33-.02.33-.04.32-.03.33-.04.33-.04.33-.03.32-.04.33-.05.33-.04.33-.04.33-.04.32-.05.33-.05.33-.05.33-.05.33-.05.33-.05.33-.06.33-.06.33-.05.33-.06.33-.06.33-.06.33-.06.33-.07.33-.06.33-.07.33-.06.33-.08.33-.07.33-.07.33-.08.34-.07.33-.07.33-.08.33-.08.33-.08.33-.08.33-.09.33-.08.33-.09.33-.08.33-.09.33-.1.34-.09.33-.08.33-.1.33-.09.33-.1.33-.1.33-.1.33-.1.33-.1.33-.1.33-.1.33-.12.33-.1.33-.12.33-.1.33-.12.33-.11.33-.11.32-.13.33-.1.33-.13.33-.13.33-.12.33-.12.32-.12.33-.13.33-.13.33-.13.32-.13.33-.14.33-.13.32-.13.33-.14.32-.13.33-.15.32-.14.33-.14.32-.15.33-.14.32-.15.32-.15.32-.15.33-.16.32-.15.32-.15.32-.16.32-.16.33-.15.32-.17.32-.16.32-.16.31-.17.32-.17.32-.17.32-.18.32-.17.31-.17.32-.17.31-.18.32-.18.32-.18.3-.18.32-.18.32-.2.3-.18.32-.19.31-.19.31-.19.31-.2.31-.19.31-.2.3-.2.31-.2.31-.2.31-.2.3-.2.3-.21.31-.21.3-.2.31-.22.3-.21.3-.22.3-.22.3-.22.3-.21.3-.23.3-.23.3-.22.29-.23.3-.23.29-.23.3-.23.28-.24.3-.23.28-.24.3-.24.28-.24.29-.25.29-.24.28-.25.28-.25.29-.25.28-.25.28-.25.28-.26.28-.26.28-.26.27-.26.28-.26.27-.27.28-.27.27-.26.27-.27.27-.28.27-.27.27-.28.26-.28.27-.27.26-.29.26-.28.27-.28.25-.29.26-.3.26-.28.26-.3.25-.29.25-.3.25-.3.25-.3.25-.3.25-.3.24-.3.25-.32.24-.3.24-.32.24-.31.24-.32.23-.32.24-.32.23-.31.23-.33.23-.32.23-.32.22-.33.23-.33.22-.34.22-.34.22-.33.21-.34.22-.34.21-.34.21-.34.21-.34.2-.35.21-.35.2-.35.2-.35.2-.36.2-.36.2-.35.2-.35.19-.37.18-.36.19-.36.18-.37.19-.37.18-.37.18-.38.17-.36.18-.38.17-.38.17-.37.17-.38.16-.38.16-.38.16-.39.16-.39.16-.38.15-.4.15-.39.15-.39.15-.4.14-.4.14-.39.14-.4.14-.4.13-.4.13-.4.13-.4.13-.4.12-.42.12-.41.12-.42.12-.4.11-.42.11-.41.11-.42.1-.42.11-.42.1-.42.1-.42.1-.42.09-.42.09-.43.08-.43.09-.43.08-.43.08-.43.07-.43.08-.44.07-.43.07-.44.06-.43.06-.45.06-.43.06-.45.05-.44.06-.45.04-.44.05-.44.04-.45.04-.44.04-.46.03-.44.04-.45.02-.46.03-.44.02-.46.02-.46.02-.45.01-.46.02h-.46l-.45.01H968.25l-.46-.02h-.46l-.46-.02-.48-.02-.46-.02-.47-.02-.47-.03-.47-.03-.47-.03-.47-.04-.48-.03-.47-.04-.47-.05-.48-.04-.47-.05-.48-.06-.48-.05-.48-.06-.48-.06-.48-.07-.48-.06-.48-.07-.48-.08-.49-.07-.48-.08-.49-.08-.48-.09-.49-.09-.49-.09-.48-.1-.5-.09-.48-.1-.5-.1-.49-.1-.49-.11-.5-.11-.48-.12-.5-.12-.5-.12-.5-.12-.49-.13-.5-.12-.5-.14-.5-.13-.5-.14-.5-.14-.5-.14-.5-.15-.5-.15-.5-.15-.51-.16-.5-.16-.46-.14-.45-.15-.45-.15-.45-.15-.45-.15-.44-.15-.45-.15-.44-.15-.44-.16-.44-.16-.44-.16-.44-.15-.44-.17-.43-.16-.43-.16-.44-.17-.43-.16-.43-.17-.42-.17-.43-.17-.43-.17-.42-.17-.42-.18-.42-.18-.42-.17-.42-.18-.41-.18-.42-.18-.4-.18-.42-.19-.41-.18-.41-.19-.4-.18-.41-.2-.4-.18-.41-.2-.4-.18-.4-.2-.4-.2-.4-.19-.4-.2-.4-.2-.39-.2-.39-.2-.39-.2-.39-.2-.38-.2-.4-.21-.38-.21-.38-.2-.38-.22-.38-.2-.38-.22-.38-.21-.37-.22-.38-.21-.37-.22-.37-.22-.37-.22-.37-.22-.37-.22-.37-.22-.36-.23-.36-.22-.37-.23-.36-.22-.36-.23-.35-.23-.36-.23-.36-.23-.35-.24-.35-.23-.35-.23-.35-.24-.35-.24-.35-.24-.34-.23-.35-.24-.34-.25-.34-.24-.34-.24-.34-.25-.33-.24-.34-.25-.33-.25-.34-.24-.33-.25-.32-.25-.33-.25-.33-.26-.33-.25-.32-.25-.32-.26-.33-.26-.31-.25-.32-.26-.32-.26-.32-.26-.31-.26-.31-.26-.32-.26-.3-.27-.32-.26-.3-.27-.31-.27-.3-.26-.31-.27-.3-.27-.3-.27-.3-.27-.3-.27-.3-.27-.3-.28-.29-.27-.3-.27-.28-.28-.3-.28-.28-.27-.29-.28-.29-.28-.28-.28-.29-.28-.28-.28-.28-.28-.28-.29-.28-.28-.27-.28-.28-.29-.27-.28-.28-.29-.27-.28-.27-.3-.27-.28-.27-.29-.27-.29-.26-.29-.27-.29-.26-.3-.26-.28-.26-.3-.26-.29-.26-.3-.26-.29-.25-.3-.26-.29-.25-.3-.25-.3-.26-.29-.25-.3-.24-.3-.25-.3-.25-.3-.24-.3-.25-.3-.24-.3-.24-.3-.24-.3-.24-.3-.24-.31-.24-.3-.23-.31-.24-.3-.23-.31-.23-.3-.23-.31-.23-.31-.23-.3-.23-.32-.23-.3-.22-.31-.23-.31-.22-.31-.23-.31-.22-.31-.22-.31-.22-.32-.21-.3-.22-.32-.22-.31-.21-.32-.22-.31-.21-.32-.21-.31-.21-.31-.21-.32-.21-.31-.21-.32-.2-.32-.21-.31-.21-.32-.2-.32-.2-.32-.2-.31-.21-.32-.2-.32-.2-.32-.2-.32-.2-.32-.2-.32-.19-.32-.2-.32-.19-.32-.19-.32-.2-.32-.18-.32-.2-.33-.18-.32-.2-.32-.18-.32-.19-.32-.18-.33-.19-.32-.18-.33-.19-.33-.36-.64-.36-.65-.36-.65-.35-.65-.35-.65-.35-.65-.35-.66-.34-.65-.34-.65-.34-.66-.33-.66-.33-.65-.33-.66-.32-.66-.33-.66-.32-.65-.32-.66-.31-.66-.31-.66-.31-.66-.31-.66-.3-.66-.3-.66-.3-.67-.3-.66-.3-.66-.3-.66-.3-.66-.28-.67-.29-.66-.28-.66-.29-.66-.28-.67-.28-.66-.28-.66-.28-.66-.27-.66-.28-.67-.27-.66-.27-.66-.27-.66-.26-.66-.27-.67-.26-.66-.27-.66-.26-.66-.26-.66-.26-.66-.26-.66-.25-.65-.26-.66-.25-.66-.26-.66-.5-1.31-.5-1.31-.5-1.31-.5-1.3-.48-1.31-.49-1.3-.49-1.3-.48-1.29-.96-2.57-.96-2.57-.48-1.27-.47-1.27-.48-1.26-.48-1.26-.48-1.25-.48-1.26-.23-.62-.24-.62-.24-.62-.24-.61-.24-.62-.25-.61-.24-.62-.24-.6-.24-.62-.24-.6-.25-.61-.24-.6-.25-.61-.24-.6-.25-.6-.24-.6-.25-.6-.25-.59-.25-.6-.25-.58-.25-.59-.25-.59-.25-.58-.25-.58-.25-.58-.26-.58-.25-.58-.26-.57-.26-.58-.26-.57-.26-.56-.26-.57-.26-.56-.26-.57-.26-.55-.27-.56-.27-.56-.26-.55-.27-.55-.27-.55-.27-.54-.28-.54-.27-.54-.27-.54-.28-.54-.28-.53-.28-.53-.28-.53-.28-.52-.29-.53-.28-.52-.29-.52-.3-.52-.13-.25-.15-.25-.14-.26-.15-.25-.15-.26-.14-.25-.15-.25-.15-.26-.14-.25-.15-.25-.15-.25-.15-.25-.15-.25-.15-.24-.12-.2-.11-.18-.12-.2-.12-.18-.12-.18-.11-.18-.12-.19-.12-.18-.12-.17-.12-.18-.12-.18-.12-.17-.12-.17-.12-.17-.11-.17-.12-.17-.13-.17-.12-.16-.12-.17-.12-.16-.12-.16-.12-.16-.12-.16-.13-.16-.12-.15-.12-.16-.12-.15-.13-.15-.12-.15-.12-.15-.13-.15-.12-.15-.12-.14-.13-.15-.12-.14-.13-.14-.12-.14-.13-.14-.12-.14-.12-.13-.13-.14-.13-.13-.12-.14-.13-.13-.12-.13-.13-.13-.12-.12-.13-.13-.13-.13-.12-.12-.13-.13-.13-.12-.01-.01-.17.07-.63.3-.63.28-.63.29-.62.28-.63.28-.62.28-.63.28-.62.27-.63.28-.62.27-.62.27-.62.27-.62.26-.62.26-.62.26-.62.26-.62.26-.61.25-.62.25-.61.25-.62.25-.6.24-.62.24-.6.24-.62.23-.6.24-.6.23-.62.22-.6.23-.6.22-.6.22-.6.21-.6.21-.6.21-.6.21-.59.2-.6.2-.58.2-.6.2-.58.18-.6.19-.58.18-.59.18-.58.18-.59.17-.58.17-.58.17-.58.16-.58.16-.58.16-.58.15-.56.14-.3.08-.29.07-.28.07-.3.06-.28.07-.29.07-.28.07-.29.06-.29.06-.28.07-.29.06-.29.06-.28.06-.29.06-.28.05-.3.06-.28.06-.28.05-.29.05-.29.05-.28.05-.29.05-.28.05-.29.05-.29.04-.29.05-.28.04-.29.04-.28.04-.3.04-.28.03-.29.04-.28.04-.3.03-.28.03-.3.03-.28.03-.29.02-.3.03-.28.02-.3.03-.29.02-.29.01-.29.02-.3.02-.29.01-.3.01-.29.01-.3.01h-.3l-.3.01h-1.19l-.3-.01-.31-.01-.3-.01-.3-.02-.32-.02-.3-.02-.32-.02-.3-.02-.32-.03-.32-.03-.3-.03-.32-.04-.32-.04-.32-.04-.32-.05-.32-.05-.33-.05-.32-.06-.33-.06-.33-.07-.32-.06-.34-.08-.33-.07-.33-.09-.34-.08-.34-.1-.34-.09-.34-.1-.34-.1-.34-.12-.34-.11-.35-.13-.35-.13-.34-.13-.35-.14-.35-.14-.35-.16-.35-.15-.36-.17-.35-.17-.35-.18-.35-.19-.35-.2-.35-.2-.35-.2-.35-.21-.35-.22-.35-.23-.34-.24-.35-.24-.34-.26-.33-.26-.34-.26-.33-.28-.33-.28-.33-.29-.32-.3-.31-.3-.32-.31-.3-.32-.3-.32-.3-.33-.3-.34-.28-.34-.28-.35-.27-.36-.27-.36-.26-.36-.24-.35-.2-.31-.2-.3-.18-.3-.18-.32-.18-.3-.17-.32-.17-.32-.17-.32-.16-.33-.15-.33-.15-.34-.15-.33-.14-.34-.13-.34-.13-.35-.13-.35-.11-.36-.12-.35-.1-.35-.1-.36-.1-.36-.08-.36-.09-.37-.07-.36-.07-.37-.06-.36-.06-.36-.05-.37-.05-.37-.03-.36-.04-.37-.02-.36-.02-.36-.02-.37V902.22l.02-.36.02-.35.03-.35.03-.34.03-.35.05-.34.04-.34.05-.34.06-.33.06-.33.06-.33.07-.32.08-.33.07-.31.08-.32.09-.3.08-.32.1-.3.09-.3.1-.3.1-.3.1-.28.11-.3.11-.28.11-.27.12-.28.12-.28.12-.27.12-.26.12-.27.13-.26.12-.25.14-.26.13-.25.13-.25.14-.24.14-.25.13-.23.14-.23.15-.24.14-.23.15-.23.14-.22.14-.22.15-.22.15-.22.16-.22.15-.2.15-.21.15-.21.16-.2.15-.2.16-.2.16-.2.16-.2.16-.2.16-.18.16-.2.16-.18.16-.18.17-.19.16-.18.17-.18.16-.17.17-.18.17-.17.17-.18.16-.17.17-.16.17-.17.18-.17.16-.16.18-.16.17-.17.17-.15.18-.16.18-.16.17-.15.17-.16.18-.15.18-.15.17-.15.18-.15.18-.14.18-.15.18-.15.18-.14.18-.14.18-.14.2-.16.36-.26.36-.27.37-.27.38-.27.38-.26.37-.25.39-.25.38-.25.39-.25.38-.24.4-.24.39-.23.4-.23.4-.23.4-.23.4-.22.4-.22.41-.21.41-.21.41-.21.42-.2.42-.21.42-.2.42-.2.43-.2.42-.18.43-.19.44-.19.43-.18.44-.18.44-.18.44-.17.45-.17.44-.17.45-.16.45-.17.46-.16.46-.15.46-.16.46-.15.46-.14.47-.15.47-.14.47-.14.47-.14.48-.13.48-.13.48-.13.48-.12.48-.12.5-.12.48-.12.5-.1.49-.11.5-.11.5-.1.49-.1.5-.1.5-.09.52-.09.5-.08.51-.09.52-.08.51-.07.52-.07.52-.07.52-.07.52-.06.53-.06.53-.05.52-.05.52-.05.28-.02.27-.02.26-.02.27-.02.27-.02.27-.02.27-.01.26-.02.27-.01.27-.02.28-.01.27-.01.27-.01.27-.01.27-.01h.27l.27-.01h.28l.27-.01h.55l.28-.01H808.48l.27.01.28.01h.28l.28.02h.28l.27.02h.28l.29.02.27.01.28.02.29.01.28.02.28.02.28.02.28.02.28.02.29.03.28.02.28.02.28.03.29.03.28.03.29.03.28.03.28.03.29.03.29.04.28.04.29.03.28.04.29.04.29.04.28.04.29.05.29.04.29.05.28.05.29.04.29.05.29.06.29.05.28.05.3.06.28.05.29.06.29.06.29.06.29.06.29.07.29.06.29.07.29.06.29.07.28.07.3.07.29.08.29.07.29.07.29.08.29.08.29.08.29.08.29.08.3.09.28.08.3.09.28.09.3.09.29.09.29.1.29.09.29.1.29.09.29.1.29.1.29.1.3.1.28.1.3.11.28.11.29.11.06.02.39-.2.58-.3.58-.31.57-.3.58-.3.58-.32.57-.3.58-.3.57-.32.57-.3.58-.31.57-.31.57-.31.57-.31.56-.31.57-.31.57-.31.56-.31.56-.32.56-.3.56-.32.56-.3.56-.32.55-.31.56-.31.55-.31.55-.32.54-.3.55-.32.54-.3.55-.32.53-.3.54-.31 1.07-.62 1.06-.62 1.04-.6 1.04-.62 1.03-.6 1.01-.6 1-.6 1-.6.97-.58.97-.59.95-.57.93-.58.92-.56.9-.56.9-.56.87-.54.86-.54.84-.53.82-.52.8-.52.78-.5.77-.5.74-.48.72-.47.7-.47.69-.45.65-.44.64-.42.61-.42.3-.2.28-.2.29-.2.27-.18.27-.2.26-.18.26-.18.25-.17.24-.17.24-.17.23-.16.22-.16.2-.16.21-.15.2-.14.19-.14.18-.13.17-.13.16-.12.15-.12.14-.1.13-.11.12-.1.12-.09.4-.31.4-.32.39-.33.4-.32.4-.33.39-.32.4-.33.39-.33.4-.33.38-.34.4-.33.39-.34.4-.33.38-.34.4-.34.38-.34.39-.35.39-.34.38-.35.39-.34.39-.35.38-.35.38-.36.39-.35.38-.35.38-.36.39-.36.38-.35.38-.36.38-.37.37-.36.38-.36.38-.37.37-.36.38-.37.37-.37.38-.37.37-.37.37-.38.38-.37.37-.38.37-.38.37-.37.36-.38.37-.39.37-.38.36-.38.37-.39.36-.38.37-.39.36-.39.36-.39.36-.4.36-.38.36-.4.36-.4.35-.39.36-.4.36-.4.35-.4.36-.4.35-.4.35-.4.35-.4.35-.41.35-.4.35-.42.35-.4.34-.42.35-.4.34-.42.35-.41.34-.42.34-.41.34-.42.34-.42.34-.42.34-.42.34-.42.33-.42.34-.43.33-.42.33-.43.34-.43.33-.42.33-.43.33-.43.32-.43.33-.44.33-.43.32-.43.33-.44.32-.44.32-.43.32-.44.32-.44.32-.44.32-.44.31-.44.32-.44.31-.45.32-.44.3-.45.32-.45.31-.45.3-.44.32-.45.3-.45.3-.46.31-.45.3-.45.31-.46.3-.45.3-.46.3-.45.3-.46.3-.46.3-.46.29-.46.29-.46.3-.46.28-.46.3-.47.28-.46.29-.47.28-.46.29-.47.28-.47.29-.47.28-.47.28-.47.28-.47.27-.47.28-.47.28-.48.27-.47.27-.47.28-.48.27-.47.27-.48.27-.48.26-.48.27-.48.26-.48.27-.48.26-.48.26-.48.26-.48.26-.48.25-.49.26-.48.25-.49.26-.48.25-.49.25-.48.25-.5.25-.48.24-.49.25-.49.24-.49.24-.49.25-.49.24-.5.23-.48.24-.5.24-.5.23-.48.24-.5.23-.5.23-.49.23-.5.23-.5.22-.49.23-.5.22-.5.22-.5.23-.5.22-.5.21-.5.22-.5.22-.5.21-.5.21-.5.22-.5.2-.5.21-.5.21-.5.2-.51.21-.5.2-.51.2-.5.2-.51.2-.5.2-.52.2-.5.2-.5.19-.52.19-.5.19-.51.19-.51.18-.51.19-.51.18-.51.19-.51.18-.51.18-.51.18-.51.17-.51.18-.51.17-.52.17-.5.17-.52.17-.51.17-.52.17-.5.16-.52.17-.52.16-.51.16-.51.16-.52.15-.51.16-.52.15-.51.16-.52.15-.51.15-.52.14-.51.15-.52.15-.51.14-.52.14-.52.14-.51.14-.52.14-.52.13-.51.14-.52.13-.52.13-.51.13-.52.13-.52.12-.52.13-.51.12-.52.12-.52.12-.52.12-.51.12-.52.11-.52.11-.52.12-.52.1-.51.11-.52.11-.52.1-.52.1-.52.11-.51.1-.52.1-.52.1-.52.1-.51.09-.52.09-.52.09-.52.09-.52.08-.51.09-.52.08-.52.09-.52.08-.51.07-.52.08-.52.08-.51.07-.52.07-.52.07-.52.07-.51.07-.52.06-.51.07-.52.06-.52.06-.51.06-.52.05-.51.06-.52.05-.51.05-.52.05-.51.05-.52.05-.51.04-.52.05-.51.04-.52.04-.5.03-.52.04-.52.04-.5.03-.52.03-.51.03-.52.03-.5.02-.52.02-.51.03-.51.02-.51.02-.51.01-.51.02-.51.01-.51.01-.5.01-.52.01-.5v-.51l.01-.51v-3.04l-.02-.5v-.51l-.02-.5-.01-.5-.02-.51-.01-.5-.02-.51-.02-.5-.03-.5-.02-.5-.03-.5-.02-.5-.03-.5-.03-.5-.04-.5-.03-.5-.04-.5-.04-.5-.04-.5-.04-.5-.05-.5-.04-.5-.05-.49-.05-.5-.05-.49-.05-.49-.06-.5-.06-.49-.06-.49-.06-.5-.06-.48-.06-.5-.07-.48-.07-.5-.07-.48-.07-.5-.07-.48-.08-.49-.08-.49-.08-.48-.08-.49-.08-.49-.08-.48-.1-.48-.08-.49-.1-.48-.08-.48-.1-.49-.1-.48-.1-.48-.1-.48-.1-.48-.1-.48-.1-.48-.11-.47-.11-.48-.11-.48-.12-.47-.11-.48-.12-.47-.12-.48-.12-.47-.12-.47-.13-.48-.12-.47-.13-.47-.13-.47-.14-.47-.13-.47-.14-.46-.14-.47-.14-.47-.14-.46-.14-.47-.15-.46-.15-.47-.15-.46-.15-.47-.15-.46-.16-.46-.16-.46-.16-.46-.16-.46-.16-.46-.17-.45-.17-.46-.17-.46-.17-.45-.17-.46-.18-.45-.17-.46-.18-.45-.19-.45-.18-.45-.19-.45-.18-.45-.2-.45-.19-.45-.19-.45-.2-.44-.2-.45-.2-.44-.2-.45-.2-.44-.2-.45-.21-.44-.21-.44-.22-.44-.21-.44-.22-.44-.22-.44-.22-.43-.22-.44-.22-.44-.23-.43-.23-.44-.23-.43-.23-.43-.24-.44-.24-.43-.24-.43-.24-.43-.24-.43-.25-.43-.25-.42-.25-.43-.25-.42-.25-.43-.26-.42-.26-.43-.26-.42-.26-.42-.27-.42-.26-.42-.27-.42-.28-.42-.27-.42-.28-.42-.28-.41-.28-.42-.28-.41-.28-.41-.3-.42-.28-.41-.3-.41-.29-.41-.3-.41-.3-.4-.3-.42-.3-.4-.3-.4-.3-.41-.32-.4-.31-.41-.32-.4-.31-.4-.32-.4-.33-.4-.32-.4-.33-.4-.32-.4-.34-.4-.33-.4-.33-.39-.34-.4-.34-.38-.35-.4-.34-.39-.35-.39-.35-.39-.35-.39-.36-.38-.35-.39-.36-.39-.37-.38-.36-.38-.37-.39-.37-.38-.37-.38-.37-.38-.38-.38-.38-.38-.38-.37-.39-.38-.38-.38-.4-.37-.39-.37-.39-.38-.4-.37-.4-.37-.4-.37-.4-.37-.42-.37-.58-.52-.6-.54-.6-.53-.6-.53-.61-.54-.61-.53-.62-.54-.61-.54-.62-.53-.64-.54-.3-.26-.32-.27-.31-.27-.32-.26-.32-.27-.31-.26-.32-.27-.32-.27-.32-.26-.32-.26-.32-.27-.33-.26-.32-.26-.32-.26-.33-.27-.32-.26-.33-.26-.32-.26-.33-.25-.32-.26-.33-.26-.33-.25-.33-.26-.33-.25-.33-.26-.33-.25-.33-.25-.33-.25-.33-.25-.34-.25-.33-.24-.33-.25-.34-.24-.33-.25-.33-.24-.34-.24-.33-.24-.34-.24-.33-.23-.34-.24-.34-.23-.33-.23-.34-.23-.34-.23-.33-.23-.34-.23-.34-.22-.33-.22-.34-.23-.34-.21-.34-.22-.34-.22-.33-.21-.34-.21-.34-.21-.34-.21-.33-.2-.34-.21-.34-.2-.34-.2-.34-.2-.33-.2-.34-.2-.34-.19-.33-.19-.34-.19-.34-.18-.33-.18-.34-.19-.33-.17-.34-.18-.33-.18-.34-.17-.33-.17-.33-.16-.34-.17-.33-.16-.33-.16-.33-.16-.33-.15-.33-.16-.33-.15-.33-.14-.33-.15-.33-.14-.32-.14-.33-.14-.33-.13-.32-.13-.32-.13-.33-.13-.32-.12-.32-.13-.32-.11-.33-.12-.15-.06-.16-.05-.16-.06-.16-.05-.16-.06-.15-.05-.16-.05-.16-.06-.16-.05-.16-.05-.15-.05-.16-.05-.15-.05-.16-.04-.16-.05-.16-.05-.15-.04-.15-.05-.16-.04-.15-.05-.16-.04-.15-.04-.16-.04-.15-.04-.15-.05-.15-.03-.27-.07-.27-.07-.27-.06-.27-.06-.27-.07-.27-.05-.28-.06-.28-.06-.27-.05-.28-.06-.28-.05-.28-.05-.29-.05-.28-.04-.29-.05-.29-.04-.28-.04-.3-.04-.29-.04-.29-.04-.3-.04-.3-.03-.3-.04-.29-.03-.3-.03-.3-.03-.3-.02-.31-.03-.3-.02-.32-.03-.3-.02-.32-.02-.3-.02-.32-.01-.32-.02-.31-.02h-.32l-.32-.02-.32-.01-.32-.01h-.33l-.32-.01-.33-.01h-2.66l-.33.01h-.34l-.34.02h-.34l-.35.02h-.34l-.35.02-.34.02-.35.01-.35.02-.35.01-.35.02-.35.02-.35.02-.36.02-.35.02-.36.03-.35.02-.36.03-.36.02-.36.03-.36.03-.37.03-.36.02-.36.03-.74.07-.73.06-.74.07-.74.07-.75.07-.75.08-.75.08-.76.07-.76.09-.76.08-.77.08-.76.09-1.55.17-1.56.17-1.57.18-.79.09-.8.08-.79.09-.8.08-.8.09-.8.08-.8.08-.79.08-.52.05-.5.05-.51.05-.5.06-.5.05-.51.05-.5.06-.5.05-.51.06-.5.06-.5.06-.5.06-.5.06-.5.06-.51.06-.5.06-.5.07-.5.06-.5.07-.5.06-.5.07-.5.07-.5.07-.5.07-.5.07-.5.07-.5.07-.49.08-.5.07-.5.08-.49.07-.5.08-.49.08-.5.08-.5.08-.49.08-.49.08-.5.08-.49.08-.5.09-.49.08-.49.09-.5.09-.48.08-.5.1-.49.08-.49.1-.49.08-.5.1-.48.09-.5.1-.48.09-.49.1-.49.09-.49.1-.49.1-.49.1-.48.1-.5.1-.48.1-.49.1-.48.1-.49.1-.48.1-.49.11-.48.11-.49.1-.48.12-.49.1-.48.12-.48.1-.49.12-.48.11-.48.11-.48.12-.48.11-.49.12-.48.12-.48.11-.48.12-.48.12-.48.12-.48.12-.47.13-.48.12-.48.12-.48.13-.47.12-.48.13-.48.13-.47.12-.48.13-.47.13-.48.13-.47.13-.48.13-.47.14-.47.13-.48.14-.47.13-.47.14-.47.13-.47.14-.47.14-.48.14-.47.14-.46.14-.47.14-.47.15-.47.14-.47.14-.47.15-.46.14-.47.15-.47.15-.46.15-.47.15-.46.15-.47.15-.46.15-.47.15-.46.16-.46.15-.47.16-.46.15-.46.16-.46.16-.46.15-.46.16-.46.16-.46.16-.46.17-.46.16-.46.16-.46.17-.45.16-.46.17-.46.16-.45.17-.46.17-.45.17-.46.17-.45.17-.45.17-.46.17-.45.17-.45.18-.46.17-.45.18-.45.17-.45.18-.45.18-.45.17-.45.18-.45.18-.44.18-.45.19-.45.18-.44.18-.45.18-.45.19-.44.19-.45.18-.44.19-.45.19-.44.18-.44.2-.44.18-.45.2-.44.19-.44.19-.44.2-.44.19-.44.2-.44.19-.44.2-.43.19-.44.2-.44.2-.43.2-.44.2-.44.2-.43.2-.44.2-.43.2-.43.21-.43.2-.44.21-.43.2-.43.21-.43.21-.43.21-.43.21-.43.21-.43.21-.43.21-.43.22-.42.21-.43.21-.43.22-.42.21-.43.22-.42.22-.42.22-.43.21-.42.22-.42.22-.43.22-.42.23-.42.22-.42.22-.42.23-.42.22-.42.22-.41.23-.42.23-.42.22-.41.23-.42.23-.41.23-.42.23-.41.23-.42.24-.41.23-.41.23-.41.24-.42.23-.4.24-.42.23-.4.24-.41.24-.41.24-.41.24-.4.24-.42.24-.4.24-.4.24-.41.25-.4.24-.41.24-.4.25-.4.24-.4.25-.41.25-.4.25-.4.25-.4.24-.4.26-.4.25-.4.25-.4.25-.39.25-.4.26-.4.25-.39.26-.4.25-.38.26-.4.26-.39.26-.4.26-.38.25-.4.27-.38.26-.4.26-.38.26-.4.26-.38.27-.38.26-.4.27-.38.26-.38.27-.39.27-.38.27-.38.26-.39.27-.38.27-.38.27-.38.28-.38.27-.38.27-.38.28-.38.27-.37.28-.38.27-.38.28-.37.27-.38.28-.37.28-.38.28-.37.28-.37.28-.37.28-.37.28-.37.29-.37.28-.37.28-.37.29-.37.28-.37.29-.36.29-.37.29-.36.28-.37.3-.36.28-.37.3-.36.28-.36.3-.36.29-.36.29-.36.3-.36.29-.36.3-.36.29-.35.3-.36.3-.36.29-.35.3-.36.3-.35.3-.35.3-.35.3-.36.3-.35.3-.35.3-.35.3-.35.31-.35.3-.34.31-.35.3-.34.32-.35.3-.34.31-.35.31-.34.31-.35.31-.34.31-.34.31-.34.31-.34.32-.34.31-.34.32-.33.31-.34.32-.34.31-.33.32-.34.32-.33.31-.33.32-.34.32-.33.32-.33.32-.33.32-.33.33-.33.32-.33.32-.32.33-.33.32-.33.33-.32.32-.33.33-.32.33-.32.32-.33.33-.32.33-.32.33-.32.33-.32.33-.32.33-.32.34-.31.33-.32.33-.31.34-.32.33-.31.33-.32.34-.3.34-.32.34-.31.33-.31.34-.31.34-.31.34-.31.34-.3.34-.31.34-.3.35-.31.34-.3.34-.31.35-.3.34-.3.35-.31.34-.3.35-.3.35-.3.34-.3.35-.3.35-.29.35-.3.35-.3.35-.28.35-.3.35-.3.36-.28.35-.3.36-.28.35-.3.36-.28.35-.3.36-.28.35-.29.36-.28.36-.28.36-.29.36-.28.36-.29.36-.28.36-.28.36-.28.37-.28.36-.27.36-.28.37-.28.36-.27.37-.28.36-.27.37-.28.37-.27.36-.27.37-.27.37-.27.37-.27.37-.27.37-.27.37-.27.38-.26.37-.27.37-.26.37-.27.38-.26.37-.26.38-.26.38-.26.37-.26.38-.26.38-.26.38-.26.37-.25.38-.26.38-.25.39-.26.38-.25.38-.25.38-.25.38-.25.39-.25.38-.25.39-.25.38-.24.39-.25.39-.25.38-.24.4-.24.38-.25.39-.24.39-.24.39-.24.39-.24.39-.24.4-.23.38-.24.4-.24.39-.23.4-.24.39-.23.4-.23.39-.23.4-.23.4-.23.39-.23.4-.23.4-.23.4-.22.4-.23.4-.22.4-.23.4-.22.4-.22.4-.22.4-.22.41-.22.4-.22.41-.22.4-.21.41-.22.4-.21.41-.22.41-.21.41-.21.4-.21.42-.21.4-.21.42-.21.41-.2.41-.22.41-.2.42-.2.41-.21.41-.2.42-.2.41-.2.42-.2.41-.2.42-.16.33-.15.32-.16.33-.15.32-.15.32-.15.33-.15.32-.14.33-.15.32-.14.33-.15.32-.14.33-.14.32-.14.32-.14.33-.14.32-.14.33-.14.32-.13.33-.14.32-.13.32-.13.33-.13.32-.13.32-.13.33-.13.32-.13.32-.12.33-.13.32-.12.32-.12.32-.13.33-.12.32-.12.32-.11.32-.12.33-.12.32-.11.32-.12.32-.11.32-.11.33-.11.32-.11.32-.11.32-.1.32-.11.33-.11.31-.1.33-.1.32-.1.32-.11.32-.1.32-.1.32-.1.32-.1.32-.09.32-.1.32-.09.32-.09.32-.09.32-.1.32-.08.32-.09.32-.08.32-.09.32-.08.32-.09.32-.08.32-.08.32-.08.32-.08.32-.08.31-.08.32-.07.32-.08.32-.07.32-.07.32-.08.31-.07.32-.07.32-.06.32-.07.31-.07.32-.06.32-.07.32-.06.31-.06.32-.06.32-.06.31-.06.32-.06.32-.05.31-.06.32-.05.32-.05.31-.06.32-.05.32-.05.31-.05.32-.04.31-.05.32-.05.31-.04.32-.04.32-.04.31-.05.32-.03.31-.04.32-.04.31-.04.31-.03.32-.04.32-.03.31-.03.31-.03.32-.03.31-.03.32-.03.31-.02.31-.03.32-.02.31-.03.31-.02.32-.02.31-.02.32-.02.3-.02.32-.01.32-.02.3-.01.32-.01.32-.02.3v.32l-.02.31v.32l-.01.31v.31l-.01.32v.3l-.01.32v1.87l.01.32v.3l.01.32.01.31.01.31.01.32.01.3.02.32.01.31.02.31.01.32.02.3.02.32.02.31.02.31.02.31.03.32.02.3.03.32.02.3.03.32.03.31.03.31.03.32.03.3.04.32.03.3.04.32.04.31.03.31.04.31.05.32.04.3.04.32.04.31.05.31.05.31.04.32.05.3.05.32.06.31.05.31.05.31.06.32.05.3.06.32.06.3.06.32.06.31.06.31.07.32.06.3.07.32.06.31.07.31.07.32.07.3.08.32.07.31.07.31.08.32.08.31.08.31.08.31.08.32.08.3.08.32.09.32.08.3.09.32.09.31.09.32.09.3.09.32.1.32.09.31.1.31.1.32.1.31.1.31.1.32.1.31.1.32.1.31.11.31.1.32.12.31.11.32.11.31.11.32.12.31.11.32.12.31.12.32.12.31.12.32.12.31.13.32.12.31.13.32.13.31.13.32.13.32.13.31.13.32.14.32.14.31.13.32.14.31.14.32.05.1.05.11.04.1.05.11.05.1.05.11.05.11.06.1.05.11.05.1.06.12.05.1.06.11.05.1.06.12.06.1.06.12.05.1.06.11.06.1.07.12.06.1.06.12.06.1.06.12.07.1.06.12.07.1.07.12.06.1.07.12.07.1.07.12.07.1.07.12.07.11.07.1.08.12.07.11.07.11.08.11.07.11.08.12.07.1.08.11.08.12.08.1.08.12.08.1.08.12.08.1.08.12.08.1.08.12.09.1.08.11.08.12.09.1.08.11.09.11.09.11.08.11.1.1.08.12.09.1.09.11.09.11.09.1.09.12.1.1.08.11.1.1.09.11.1.11.09.1.1.11.09.1.1.11.09.1.1.11.1.1.1.11.1.1.09.1.1.11.1.1.1.1.1.1.1.11.1.1.1.1.1.1.1.1.11.1.1.1.11.1.1.1.11.1.1.1.11.1.1.1.11.1.11.09.11.1.1.1.11.09.11.1.11.09.11.1.11.08.11.1.1.09.12.1.11.08.11.1.11.09.12.09.11.09.11.09.11.08.12.1.11.08.12.09.1.09.12.08.12.09.11.08.12.09.11.08.12.08.12.09.11.08.12.08.11.08.12.08.12.08.11.08.12.08.12.08.12.08.11.08.12.07.12.08.12.08.12.07.12.08.12.07.12.07.11.08.12.07.12.07.12.07.12.07.12.07.12.07.12.07.12.06.12.07.12.07.12.06.13.07.12.06.12.07.12.06.12.06.12.06.12.06.12.06.12.06.12.06.13.06.12.06.12.06.12.05.12.06.12.06.12.05.12.05.13.06.12.05.12.05.12.05.12.05.12.05.13.05.12.05.12.05.12.04.12.05.12.05.12.04.12.04.12.05.12.04.12.04.12.04.13.05.12.04.12.03.12.04.12.04.12.04.12.04.12.03.12.04.12.03.12.03.12.04.12.03.12.03.12.03.11.03.12.03.12.03.12.03.12.03.12.02.12.03.12.03.11.02.12.03.12.02.12.02.11.02.12.03.12.02.11.01.13.02.11.02.12.02.12.02.11.01.12.02.11.02.12.01.11.01.12.02.12.01.11.01.12.01.11.01.12.01.12.01.11.01h.11l.12.02H657l.11.01h.12l.11.01H658l.2.01h.26l.37.01.7.03h.24l.57-.14 4.08-.02 3.96.96 3.62 1.88 3.06 2.7.48.54.44.58.88 1.3.93 1.71v.01l.76 1.93.6 2.47.23 2.66-.21 2.8v.02l-.65 2.62v.01l-1 2.37v.01l-1.2 2.02h-.01l-1.2 1.53h-.01l-1.23 1.25-.54.5-1.1.85-.97.63-1 .57-1.24.59-1.14.43-.92.29-.74.2-.6.13-.54.1-.45.07-.4.05-.35.05-.31.03-.3.03-.26.02-.25.02-.27.01-.39.02-.4.01h-.36l-.34.01h-1.5l-.49-.02-.44-.01-.66-.02h-.62l-.32-.01h-.32l-.3-.02h-.32l-.31-.02-.31-.01-.32-.02-.3-.02-.32-.02-.3-.02-.32-.02-.3-.02-.31-.03-.31-.03-.3-.03-.32-.03-.3-.03-.3-.04-.31-.03-.3-.04-.31-.04-.3-.04-.3-.05-.3-.04-.31-.05-.3-.04-.3-.05-.3-.05-.3-.06-.3-.05-.3-.06-.3-.06-.3-.05-.3-.06-.29-.07-.3-.06-.29-.07-.29-.06-.3-.07-.29-.07-.29-.07-.29-.07-.29-.08-.29-.07-.29-.08-.28-.08-.3-.08-.28-.08-.29-.08-.28-.08-.29-.09-.28-.09-.28-.08-.29-.1-.28-.08-.28-.1-.28-.09-.28-.1-.28-.09-.28-.1-.28-.1-.27-.1-.28-.1-.27-.1-.28-.1-.27-.1-.28-.11-.27-.1-.27-.12-.27-.1-.27-.12-.27-.1-.27-.12-.27-.12-.26-.11-.27-.12-.27-.12-.26-.12-.27-.11-.26-.13-.26-.12-.27-.12-.26-.13-.26-.12-.25-.13-.27-.13-.25-.12-.26-.14-.26-.13-.25-.13-.26-.13-.25-.14-.25-.13-.26-.14-.25-.13-.25-.14-.25-.14-.25-.14-.25-.14-.25-.14-.24-.15-.25-.14-.24-.15-.25-.14-.24-.15-.25-.15-.24-.15-.24-.15-.24-.15-.24-.15-.24-.15-.24-.15-.24-.16-.23-.15-.24-.16-.23-.16-.24-.16-.23-.15-.23-.17-.24-.16-.23-.16-.23-.16-.23-.16-.22-.17-.23-.16-.23-.17-.23-.16-.22-.17-.22-.17-.23-.17-.22-.17-.23-.17-.21-.17-.22-.17-.23-.18-.21-.17-.22-.17-.22-.18-.22-.17-.21-.18-.22-.18-.2-.18-.22-.18-.22-.18-.2-.18-.22-.18-.2-.18-.22-.18-.2-.19-.21-.18-.2-.19-.21-.18-.2-.19-.21-.19-.2-.18-.2-.2-.21-.18-.2-.2-.2-.18-.2-.2-.2-.19-.2-.19-.2-.2-.19-.19-.2-.2-.19-.19-.19-.2-.2-.19-.18-.2-.2-.2-.18-.2-.19-.2-.19-.2-.19-.2-.18-.2-.19-.2-.18-.2-.18-.2-.19-.2-.18-.21-.18-.2-.18-.21-.18-.2-.18-.22-.18-.2-.17-.21-.18-.21-.17-.2-.18-.22-.17-.2-.17-.22-.17-.21-.17-.21-.17-.22-.17-.2-.17-.22-.17-.22-.16-.21-.17-.22-.16-.22-.16-.21-.17-.22-.16-.22-.16-.22-.16-.22-.15-.22-.16-.22-.16-.22-.15-.22-.16-.22-.15-.23-.16-.22-.15-.22-.15-.23-.15-.22-.15-.22-.15-.23-.14-.23-.15-.22-.15-.23-.14-.23-.14-.23-.15-.23-.14-.23-.14-.23-.14-.23-.13-.23-.14-.23-.14-.23-.13-.24-.14-.23-.13-.23-.13-.24-.13-.23-.13-.24-.13-.24-.13-.23-.13-.24-.12-.23-.13-.24-.13-.24-.12-.24-.12-.24-.12-.24-.12-.24-.12-.25-.12-.24-.11-.24-.12-.24-.11-.25-.12-.24-.1-.24-.12-.25-.1-.24-.2-.43-.19-.43-.18-.42-.19-.43-.18-.43-.18-.43-.18-.42-.18-.43-.17-.43-.17-.43-.18-.43-.17-.43-.16-.42-.17-.43-.17-.43-.16-.43-.16-.43-.16-.43-.16-.43-.16-.43-.15-.43-.15-.43-.16-.43-.15-.44-.14-.43-.15-.43-.14-.43-.15-.43-.14-.43-.14-.44-.14-.43-.13-.43-.14-.43-.13-.43-.13-.44-.13-.43-.13-.43-.12-.44-.13-.43-.12-.43-.12-.44-.12-.43-.12-.43-.11-.44-.12-.43-.1-.44-.12-.43-.1-.44-.12-.43-.1-.43-.1-.44-.1-.43-.1-.44-.1-.43-.1-.44-.1-.43-.1-.44-.08-.43-.1-.44-.08-.43-.1-.44-.08-.43-.08-.44-.08-.44-.08-.43-.08-.44-.08-.43-.07-.44-.08-.44-.07-.43-.07-.44-.07-.43-.07-.44-.06-.43-.06-.44-.07-.44-.06-.43-.06-.44-.05-.43-.06-.44-.05-.44-.06-.43-.05-.44-.04-.44-.05-.43-.05-.44-.04-.43-.04-.44-.05-.44-.03-.43-.04-.44-.04-.44-.03-.43-.03-.44-.03-.43-.04-.44-.02-.43-.03-.44-.02-.44-.03-.43-.02-.44-.02-.43-.01-.44-.02-.43-.02-.44-.01-.43-.01-.44-.01-.43-.01-.44v-.43l-.01-.44v-3.04l.01-.44v-.43l.02-.43.01-.44.01-.43.02-.43.02-.44.01-.43.02-.43.02-.44.03-.43.02-.43.03-.44.02-.43.03-.43.03-.43.03-.43.04-.44.03-.43.04-.43.04-.43.04-.43.04-.44.04-.42.04-.44.05-.43.05-.43.04-.43.05-.43.05-.43.06-.43.05-.43.06-.43.05-.43.06-.42.06-.43.06-.43.07-.43.06-.43.07-.43.06-.43.07-.42.07-.43.07-.43.08-.43.07-.42.08-.43.07-.43.08-.42.08-.43.08-.43.09-.42.08-.43.09-.42.08-.43.1-.42.08-.43.1-.42.09-.42.1-.43.09-.42.1-.42.1-.43.09-.42.1-.42.1-.43.1-.42.11-.42.1-.42.12-.42.1-.43.12-.42.1-.42.12-.42.11-.42.12-.42.12-.42.12-.42.11-.42.13-.42.12-.42.12-.41.13-.42.12-.42.13-.42.13-.42.13-.41.13-.42.13-.42.14-.41.13-.42.14-.42.14-.41.14-.42.14-.41.14-.42.14-.42.14-.41.15-.41.15-.42.14-.41.15-.42.15-.4.15-.42.16-.41.15-.42.16-.4.15-.42.16-.41.16-.41.16-.41.16-.41.16-.42.17-.4.16-.41.17-.42.17-.4.16-.41.17-.41.18-.41.17-.41.17-.4.18-.42.17-.4.18-.41.18-.4.17-.41.19-.4.18-.42.18-.4.18-.4.19-.41.19-.4.18-.41.2-.4.18-.41.2-.4.18-.4.24-.5.23-.48.24-.49.23-.48.24-.49.24-.48.24-.48.24-.48.24-.49.24-.48.24-.48.25-.48.24-.47.25-.48.25-.48.25-.48.25-.47.25-.48.25-.47.25-.48.25-.47.26-.47.26-.47.25-.48.26-.47.26-.47.26-.47.26-.46.26-.47.27-.47.26-.47.26-.46.27-.47.27-.46.27-.46.26-.47.27-.46.28-.46.27-.46.27-.46.27-.46.28-.46.28-.46.27-.46.28-.45.28-.46.28-.46.28-.45.28-.46.28-.45.29-.45.28-.45.29-.45.29-.46.28-.45.3-.44.28-.45.3-.45.29-.45.29-.44.3-.45.29-.45.3-.44.29-.44.3-.45.3-.44.3-.44.3-.44.3-.44.3-.44.3-.44.3-.44.3-.43.31-.44.31-.43.3-.44.32-.43.3-.44.32-.43.3-.43.32-.43.31-.43.32-.43.32-.43.31-.43.32-.43.32-.43.31-.42.33-.43.32-.42.32-.43.32-.42.32-.42.33-.42.32-.42.33-.42.33-.42.32-.42.33-.42.33-.42.33-.41.34-.42.33-.42.33-.41.34-.41.33-.42.34-.4.33-.42.34-.41.34-.41.34-.41.34-.4.34-.42.34-.4.35-.41.34-.4.34-.4.35-.41.35-.4.34-.4.35-.41.35-.4.35-.4.35-.4.35-.4.36-.4.35-.4.35-.4.36-.39.35-.4.36-.39.36-.39.36-.4.36-.38.36-.4.36-.38.36-.4.36-.38.37-.39.36-.39.36-.38.37-.39.37-.38.37-.39.36-.38.37-.38.37-.39.37-.38.38-.38.37-.38.37-.38.37-.37.38-.38.38-.38.37-.37.38-.38.38-.37.38-.37.38-.38.38-.37.38-.37.38-.37.38-.37.39-.37.38-.36.39-.37.38-.37.39-.36.39-.37.39-.36.39-.36.39-.37.39-.36.39-.36.39-.36.4-.36.39-.35.4-.36.39-.36.4-.35.39-.36.4-.35.4-.36.4-.35.4-.35.4-.35.4-.35.4-.35.4-.35.4-.35.41-.34.4-.35.41-.35.4-.34.42-.35.4-.34.41-.34.41-.34.41-.34.41-.34.42-.34.4-.34.42-.34.42-.33.41-.34.42-.33.41-.34.42-.33.42-.33.42-.33.41-.33.42-.33.43-.33.41-.33.43-.33.42-.33.42-.32.43-.33.42-.32.43-.32.42-.33.43-.32.43-.32.43-.32.43-.32.43-.32.43-.31.43-.32.43-.32.43-.31.43-.32.44-.31.43-.31.44-.31.43-.31.44-.32.44-.3.44-.31.43-.31.44-.3.44-.31.44-.3.44-.31.45-.3.44-.3.44-.31.45-.3.44-.3.45-.3.44-.3.45-.3.45-.3.44-.29.45-.3.45-.29.45-.3.45-.28.45-.3.45-.29.46-.29.45-.29.45-.28.46-.3.45-.28.46-.28.45-.29.46-.28.46-.28.45-.29.46-.28.46-.28.46-.28.46-.28.46-.28.47-.27.46-.28.46-.27.46-.28.47-.27.46-.27.47-.28.46-.27.47-.27.47-.27.47-.27.46-.26.47-.27.47-.27.47-.26.47-.26.47-.27.48-.26.47-.26.47-.26.48-.26.47-.26.48-.26.47-.26.48-.25.47-.26.48-.25.48-.26.48-.25.48-.25.48-.25.48-.25.48-.25.48-.25.48-.25.48-.24.48-.25.49-.24.48-.25.49-.24.48-.24.49-.25.48-.24.49-.24.49-.23.48-.24.5-.24.48-.24.5-.23.48-.23.5-.24.48-.23.5-.23.49-.23.5-.23.48-.23.5-.23.5-.23.49-.22.5-.23.49-.22.5-.23.5-.22.49-.22.5-.22.5-.22.5-.22.5-.22.5-.22.5-.21.5-.22.5-.21.5-.22.5-.2.5-.22.51-.21.5-.21.5-.21.51-.2.5-.21.52-.21.5-.2.51-.21.5-.2.52-.2.5-.21.51-.2.51-.2.51-.2.51-.2.51-.2.52-.2.5-.19.52-.2.51-.18.52-.2.51-.19.52-.19.51-.19.52-.19.51-.19.52-.18.52-.19.51-.19.52-.18.52-.18.52-.19.51-.18.52-.18.52-.18.53-.18.52-.17.52-.18.52-.18.52-.17.52-.18.53-.17.52-.17.52-.17.53-.17.52-.17.53-.17.52-.17.53-.17.53-.16.52-.17.53-.16.53-.16.53-.17.53-.16.53-.16.53-.16.53-.15.53-.16.53-.16.53-.15.53-.16.53-.15.53-.15.54-.15.53-.15.54-.16.53-.14.53-.15.54-.15.53-.14.54-.15.53-.14.54-.15.54-.14.54-.14.53-.14.54-.14.54-.14.54-.13.54-.14.54-.14.54-.13.54-.13.54-.14.54-.13.54-.13.54-.13.55-.13.54-.12.54-.13.55-.13.54-.12.54-.13.55-.12.54-.12.55-.12.54-.12.55-.12.55-.12.54-.11.55-.12.55-.12.55-.11.54-.11.55-.12.55-.1.55-.12.55-.1.55-.11.55-.11.55-.1.55-.11.55-.1.55-.11.56-.1.55-.1.55-.1.55-.1.56-.1.55-.1.55-.1.56-.1.55-.09.56-.09.55-.1.56-.08.55-.1.56-.08.56-.1.55-.08.56-.09.56-.08.55-.09.56-.08.56-.08.56-.09.56-.08.56-.08.56-.07.56-.08.56-.08.56-.07.56-.08.56-.07.56-.07.56-.08.57-.07.56-.07.56-.07.56-.06.56-.07.57-.06.56-.07.57-.06.56-.07.56-.06.57-.06.56-.06.57-.06.56-.05.57-.06.55-.05.73-.08.73-.07.73-.08.74-.07.74-.08.75-.08.76-.09.76-.08 1.54-.17 1.56-.18 1.58-.17.8-.1.8-.08.82-.09.81-.09.82-.08.83-.09.83-.08.84-.08.84-.08.84-.08.85-.07.85-.08.43-.03.43-.03.43-.04.43-.03.44-.03.43-.04.44-.03.43-.03.44-.02.44-.03.44-.03.44-.02.44-.03.44-.02.45-.02.44-.02.45-.02.45-.02.45-.02.45-.01.45-.02h.45l.45-.02h.45l.46-.02h.91l.46-.01H861.62l.46.01.47.01.46.02h.47l.47.02.46.02.47.02.47.02.48.03.47.02.47.03.47.03.48.03.47.04.48.04.48.04.47.04.48.05.48.04.49.06.48.05.48.06.48.05.48.07.49.06.48.07.49.07.48.08.5.07.48.08.49.09.49.08.49.1.49.09.49.1.49.1.49.1.49.1.5.11.49.12.49.11.5.12.47.13.3.07.27.07.28.08.28.07.28.08.27.08.27.07.28.08.28.08.27.08.27.09.27.08.28.08.27.09.27.08.27.09.27.09.27.08.27.1.27.08.27.1.27.08.26.1.27.09.26.1.28.1.52.18.53.2.52.2.53.2.52.2.52.2.52.22.51.2.51.22.52.22.5.23.51.22.5.23.51.23.5.23.5.23.5.24.5.24.49.24.5.24.48.25.49.24.49.26.48.25.48.25.48.26.48.26.48.26.47.26.47.26.48.27.46.27.47.27.47.27.46.27.46.27.46.28.46.28.46.28.45.28.45.28.45.28.45.28.45.29.45.29.44.28.44.3.44.28.44.3.44.29.43.3.43.29.43.3.43.29.43.3.43.3.42.3.42.3.42.3.42.3.42.3.42.3.4.3.42.3.41.3.4.31.42.3.4.31.4.31.4.3.4.31.4.3.4.32.4.3.39.31.39.3.39.32.38.3.39.31.38.31.38.3.38.32.38.3.38.31.37.3.38.32.37.3.37.31.36.3.37.31.37.3.36.31.36.3.36.31.36.31.7.6.7.6.7.6.68.6.68.6.67.59.66.58.65.59.65.57.65.58.5.46.53.48.5.47.52.47.5.48.51.47.5.48.5.48.5.48.5.49.49.48.49.49.48.49.48.49.48.49.48.49.47.5.47.49.47.5.47.5.46.5.46.5.46.5.45.5.45.5.45.52.44.5.45.52.43.5.44.52.43.51.43.52.43.52.43.52.42.52.42.52.42.52.4.52.42.53.4.52.41.53.4.53.4.53.4.53.4.54.38.53.39.54.39.53.38.54.38.54.37.54.38.54.37.54.37.55.36.54.36.55.36.55.36.54.35.55.35.56.34.55.35.55.34.56.34.55.35.56.33.55.33.56.33.56.32.56.32.56.32.57.32.56.32.57.3.56.32.57.3.57.3.56.3.58.3.57.3.57.29.57.29.57.28.58.29.57.28.58.27.58.28.57.27.58.28.58.26.58.26.59.27.58.25.58.26.58.25.59.25.58.26.6.24.58.24.59.24.58.24.6.24.58.22.6.23.59.23.59.22.6.22.59.22.6.22.59.21.6.21.59.2.6.22.6.2.6.2.6.2.6.2.6.18.6.19.6.19.6.18.6.18.6.18.6.18.61.17.6.17.61.17.6.17.61.16.61.16.6.16.62.15.6.15.62.15.6.15.62.15.6.15.62.13.6.14.62.13.61.14.62.13.6.13.62.12.62.13.61.12.62.11.61.12.62.1.61.12.62.1.62.12.61.1.62.1.62.1.62.1.61.1.62.08.62.1.62.08.62.08.62.08.62.08.62.08.62.06.62.08.62.07.62.07.63.06.62.06.62.06.62.07.63.04.62.06.62.05.62.05.63.04.62.05.62.04.63.04.62.04.63.03.62.04.62.03.63.03.62.01.63.03.62.02.63.02.62.02.63v.62l.03.63v.62l.02.63v3.75l-.01.63-.01.62-.02.63-.01.63-.02.62-.02.63-.02.62-.03.63-.01.63-.03.62-.03.63-.03.62-.04.63-.04.62-.03.63-.04.63-.04.62-.05.63-.04.62-.05.63-.05.62-.05.63-.06.62-.06.63-.05.62-.06.63-.07.62-.06.63-.07.62-.07.62-.06.63-.08.62-.07.63-.08.62-.08.62-.08.63-.08.62-.09.62-.08.63-.09.62-.1.62-.09.62-.1.62-.09.63-.1.62-.1.62-.1.62-.1.62-.1.62-.12.62-.1.62-.12.62-.11.62-.12.62-.12.62-.12.62-.12.62-.12.62-.13.61-.12.62-.14.62-.13.62-.13.61-.13.62-.14.62-.14.61-.14.62-.14.61-.14.62-.15.61-.14.62-.16.61-.15.61-.16.62-.15.61-.15.61-.16.62-.16.6-.16.62-.17.61-.16.61-.17.61-.17.61-.17.61-.17.6-.18.62-.18.6-.17.61-.18.61-.2.6-.17.61-.19.6-.18.61-.19.6-.2.61-.19.6-.19.61-.2.6-.2.6-.2.61-.19.6-.2.6-.2.6-.21.6-.21.6-.21.6-.2.6-.23.6-.21.6-.21.6-.22.6-.22.59-.22.6-.22.59-.23.6-.22.59-.23.59-.23.6-.23.58-.23.6-.24.59-.23.59-.24.59-.24.59-.24.58-.24.6-.24.58-.25.58-.24.6-.25.58-.26.58-.24.59-.26.58-.25.58-.26.58-.25.58-.27.59-.25.58-.27.58-.26.57-.27.58-.26.58-.27.58-.27.57-.27.58-.28.57-.27.58-.28.57-.28.57-.27.57-.29.57-.28.57-.28.57-.29.57-.28.57-.3.57-.28.56-.3.57-.28.56-.3.57-.3.56-.3.56-.29.57-.3.56-.3.56-.3.56-.3.56-.31.55-.31.56-.3.56-.32.55-.31.55-.31.56-.32.55-.31.55-.32.55-.32.55-.32.55-.32.55-.32.55-.33.54-.32.55-.33.54-.33.55-.33.54-.33.54-.33.54-.33.55-.34.53-.34.54-.33.54-.34.54-.34.53-.35.54-.34.53-.34.53-.35.53-.35.53-.35.53-.34.53-.36.53-.35.53-.35.52-.36.53-.35.52-.36.52-.36.53-.36.52-.36.51-.37.52-.36.52-.37.52-.36.51-.37.52-.37.51-.37.51-.37.51-.38.51-.37.51-.38.51-.38.5-.37.51-.38.5-.39.51-.38.5-.38.5-.38.5-.4.5-.38.5-.39.5-.39.5-.39.49-.39.5-.4.48-.39.5-.4.48-.39.5-.4.48-.4.49-.4.48-.4.48-.4.49-.4.48-.41.48-.4.48-.42.47-.4.48-.41.48-.42.47-.4.47-.42.47-.42.48-.41.46-.42.47-.42.47-.42.46-.42.47-.42.46-.42.46-.43.46-.42.46-.43.46-.43.45-.42.46-.43.45-.43.45-.44.45-.43.45-.43.45-.44.45-.44.44-.43.45-.44.44-.44.44-.44.44-.44.44-.45.43-.44.44-.45.43-.44.44-.45.43-.45.43-.45.42-.45.43-.45.43-.45.42-.46.42-.45.42-.46.42-.46.42-.45.42-.46.41-.46.42-.46.41-.47.41-.46.41-.46.4-.47.41-.47.4-.46.41-.47.4-.47.4-.47.4-.47.4-.48.4-.47.39-.48.39-.47.39-.48.39-.48.39-.47.38-.5.4-.24.19-.25.2-.26.2-.26.2-.26.2-.27.2-.27.2-.28.21-.28.2-.28.22-.29.2-.3.22-.29.21-.3.22-.3.22-.32.22-.31.22-.32.23-.33.22-.33.23-.34.24-.33.23-.35.24-.36.24-.7.48-.74.5-.75.5-.77.5-.79.53-.8.53-.83.53-.84.55-.86.55-.88.56-.9.57-.9.58-.94.58-.94.6-.96.59-.97.6-.99.6-1 .62-1.02.62-1.03.63-1.04.62-1.06.64-1.07.63-1.08.65-1.1.64-1.1.65-1.11.65-1.13.65-1.13.66-.57.33-.58.33-.57.33-.58.33-.58.33-.59.33-.58.33-.59.33-.59.33-.5.28.13.17.22.3.23.3.21.3.22.3.22.3.22.31.21.3.22.32.2.3.22.32.21.31.2.32.22.31.2.32.21.32.2.32.21.33.2.32.2.33.2.32.2.33.19.32.2.32.18.32.2.32.18.32.19.32.19.32.19.33.18.32.19.32.18.32.18.33.19.33.36.64.36.64.35.65.35.65.35.65.35.65.34.66.34.65.34.65.34.65.33.66.33.66.32.65.33.66.32.65.32.66.31.66.31.66.32.66.3.66.31.66.3.65.3.66.3.66.3.67.3.66.29.66.29.66.29.66.29.66.28.66.28.66.28.66.28.67.28.66.28.66.27.66.27.66.27.66.27.66.27.66.27.66.26.66.26.66.27.66.26.66.26.66.26.66.25.66.26.66.25.65.26.66.25.66.5 1.3.5 1.32.5 1.3.49 1.31.49 1.3.49 1.3.97 2.59.96 2.57.48 1.28.48 1.28.47 1.27.48 1.27.48 1.27.47 1.25.48 1.26.48 1.25.24.62.24.62.24.62.24.62.24.61.25.62.24.6.24.62.24.61.25.6.24.62.24.6.25.6.25.6.24.6.25.6.25.6.25.6.24.59.25.59.26.59.25.58.25.59.25.58.26.58.25.58.26.58.26.57.26.58.26.57.26.57.26.56.26.57.26.56.27.56.27.56.26.55.27.55.27.56.27.54.28.55.27.54.28.55.27.53.28.54.28.54.28.53.28.53.29.52.28.53.3.52.28.52.3.52.14.25.14.26.15.25.14.26.15.25.15.26.15.25.15.25.15.26.15.25.14.25.16.25.15.25.15.25.15.24.15.25.15.25.16.24.15.25.15.24.16.25.15.24.16.25.15.24.16.24.16.24.15.24.16.24.16.23.16.24.16.24.16.24.16.23.16.24.16.23.16.24.16.23.16.23.17.23.16.23.16.23.17.23.16.23.17.23.16.23.17.22.17.23.17.22.17.23.16.22.17.22.17.23.17.22.17.22.18.22.17.22.17.22.17.22.18.21.17.22.18.22.17.21.18.22.17.2.18.22.18.22.18.2.18.22.18.2.18.22.18.2.18.21.18.21.19.2.18.21.18.2.19.21.19.2.18.21.19.2.18.2.2.2.18.2.2.2.18.2.2.2.18.2.2.2.19.2.2.19.19.2.2.19.19.2.2.18.2.2.19.19.2.19.2.19.2.19.2.19.2.18.2.19.2.19.21.18.2.19.21.18.2.18.21.19.21.18.21.18.21.18.21.18.21.18.21.18.22.18.21.18.22.17.21.18.22.17.22.18.22.17.21.18.23.17.22.17.22.17.22.17.23.17.22.17.23.17.22.17.23.17.23.16.23.17.23.16.23.17.23.16.24.16.23.17.24.16.23.16.24.16.24.16.24.16.24.16.24.16.24.15.25.16.24.16.25.15.25.15.24.16.25.15.25.15.26.16.25.15.25.15.26.15.25.14.26.15.26.15.26.15.26.14.27.15.26.14.27.15.26.14.27.14.27.15.27.14.27.14.27.14.27.14.28.13.27.14.28.14.28.14.28.13.28.13.29.14.28.13.29.14.28.13.29.13.3.13.28.13.3.13.3.13.28.12.3.13.3.13.3.12.3.13.3.12.31.12.3.12.31.13.3.12.32.12.31.12.32.11.3.12.33.12.31.11.32.12.32.11.32.12.33.11.32.11.33.11.33.11.33.11.33.11.33.1.34.11.35.11.34.11.34.1.34.1.34.1.34.1.34.1.33.09.33.09.33.08.33.09.32.08.33.08.32.08.32.08.32.07.31.07.32.07.3.07.32.06.3.06.31.07.3.05.31.06.3.05.3.06.3.05.3.05.29.04.3.05.28.04.3.04.28.04.28.03.29.04.28.03.27.03.29.03.27.03.28.02.27.03.27.02.27.02.26.02.27.01.26.02.27.01.26.01.26.01.25.01h.26l.25.01h1.73l.25-.02h.24l.23-.02h.24l.23-.02.24-.02.23-.01.22-.02.24-.02.23-.02.22-.02.23-.02.22-.03.23-.02.21-.03.22-.03.22-.03.21-.03.22-.03.21-.04.22-.03.2-.04.21-.03.21-.04.2-.04.22-.04.2-.04.2-.05.2-.04.21-.05.2-.04.2-.05.2-.05.18-.05.2-.05.2-.05.2-.05.18-.06.2-.05.19-.06.18-.06.19-.06.18-.06.2-.06.17-.06.2-.06.17-.06.18-.07.18-.07.18-.06.19-.07.17-.07.18-.07.17-.07.18-.07.18-.08.17-.07.17-.07.18-.08.17-.08.17-.08.17-.08.16-.08.17-.08.17-.08.17-.08.16-.09.17-.08.16-.09.16-.08.17-.1.16-.08.16-.1.16-.08.17-.1.16-.09.15-.1.16-.09.16-.1.16-.1.15-.09.16-.1.15-.1.16-.1.15-.1.16-.1.15-.1.15-.12.16-.1.14-.1.15-.12.15-.1.15-.12.16-.1.14-.12.15-.11.15-.12.14-.11.14-.12.15-.12.15-.11.14-.12.15-.12.14-.12.14-.13.14-.12.15-.12.14-.13.14-.12.13-.13.14-.13.15-.13.14-.13.13-.13.13-.13.14-.13.14-.14.14-.14.13-.13.13-.14.14-.13.13-.14.13-.14.13-.14.13-.15.14-.14.13-.14.13-.15.12-.14.14-.15.12-.14.13-.15.12-.15.14-.15.12-.15.12-.15.13-.16.12-.15.12-.16.12-.15.13-.16.12-.15.12-.16.13-.16.1-.16.13-.16.12-.17.12-.16.11-.16.12-.16.12-.17.11-.17.11-.16.12-.17.11-.17.12-.17.1-.16.11-.17.12-.18.1-.17.11-.17.12-.17.1-.18.11-.17.1-.18.11-.18.1-.17.11-.18.1-.18.1-.18.11-.18.1-.18.1-.18.1-.18.1-.19.1-.18.1-.18.1-.19.1-.18.09-.19.1-.18.09-.19.1-.19.09-.19.08-.18.1-.2.1-.18.08-.2.1-.18.08-.2.08-.19.09-.19.08-.2.09-.18.08-.2.09-.2.08-.19.09-.2.07-.19.09-.2.07-.19.08-.2.08-.19.08-.2.08-.2.07-.2.08-.2.07-.19.08-.2.06-.2.08-.2.07-.2.07-.2.07-.2.06-.2.07-.2.07-.2.06-.2.07-.2.07-.2.06-.2.06-.2.06-.2.06-.2.07-.21.05-.2.06-.2.06-.2.05-.21.06-.2.06-.2.05-.2.05-.21.06-.2.05-.2.05-.2.05-.21.05-.2.04-.2.05-.2.05-.21.05-.2.04-.2.05-.2.04-.21.05-.2.03-.2.04-.2.05-.2.04-.2.03-.2.04-.21.04-.2.03-.2.04-.2.02-.2.04-.2.03-.2.04-.2.03-.2.02-.2.03-.2.03-.2.03-.19.03-.2.03-.2.02-.19.02-.2.02-.2.02-.19.03-.2.02-.19.02-.19.02-.2.02-.18v-.2l.02-.19.02-.19.02-.19.01-.19.01-.19.02-.18v-.2l.02-.18v-.19l.02-.18v-.19l.02-.18v-.37l.01-.18v-.36l.01-.18V995l-.01-.17v-.17l-.01-.17-.01-.17-.01-.16V994l-.01-.16-.01-.17-.01-.16-.02-.16-.01-.16v-.16l-.03-.16v-.16l-.03-.15v-.16l-.02-.16-.01-.15-.02-.15-.02-.15-.02-.15-.02-.14-.02-.15-.02-.15-.02-.14-.02-.14-.01-.14-.03-.14-.02-.14-.03-.14-.02-.13-.03-.14-.02-.13-.02-.13-.02-.13-.03-.13-.03-.12-.03-.13-.02-.12-.03-.12-.02-.12-.03-.12-.03-.12-.03-.11-.03-.11-.03-.11-.02-.12-.03-.1-.03-.1-.03-.11-.04-.1-.03-.1-.02-.1-.03-.1-.03-.1-.04-.1-.03-.08-.03-.1-.02-.08-.03-.09-.04-.08-.03-.08-.03-.09-.02-.07-.03-.08-.04-.07-.03-.07-.03-.08-.03-.07-.02-.06-.03-.06-.03-.07-.03-.06-.03-.05-.02-.06-.02-.06-.03-.04-.02-.05-.03-.05-.03-.05-.02-.04-.03-.04-.02-.04v-.02l-2.27-1-3.23-2.5-2.52-3.2-1.7-3.71-.74-4 .23-4.08 1.19-3.9 2.1-3.49 2.86-2.9 3.48-2.12 3.88-1.23 4.07-.26 4.02.72.26.08zm-11.08 31.85l.06.02.05.03.05.03.06.03.06.03.05.02.06.03.06.03.06.02.06.03.07.02.05.03.07.02.06.02.06.02h.01l-.9-.4.01.02zM645.58 830.32l.43 2.56.7 2.18.85 1.81.92 1.49.89 1.18.47.53-2.33-3.35-1.46-3.8-.47-3.77v1.17zm1.25-7.96l-.82 2.5-.44 2.72v1.03l.45-3.78 1.23-3.28-.42.8zm2.35-3.94l-1.23 1.75-.21.42 1.63-2.4-.2.23zm2.39-2.44l-1.17 1.07-.1.11 1.69-1.5-.42.32zm3-2.02l-.6.35 1.08-.57-.48.22z"/>
    <path fill="#2d6810" d="M627.63 859.09l.38-.3.4-.31.4-.32.4-.31.4-.32.41-.33.41-.33.41-.33.42-.33.84-.68.84-.69.85-.7.85-.69.86-.7.85-.7.84-.7 1.68-1.38 1.64-1.36 1.6-1.31.77-.64.75-.63.75-.6.72-.6.7-.56.68-.55.34-.27.33-.27.32-.26.32-.25.32-.25.31-.24.3-.24.32-.24.3-.23.3-.23.31-.22.3-.23.32-.22.32-.23.34-.24.35-.23.35-.23.24-.16.22-.13.24-.14.25-.15.27-.16.27-.14.36-.2.32-.17.32-.16.32-.17.31-.16.32-.16.32-.15.31-.16.32-.15.32-.15.3-.15.32-.14.32-.15.3-.14.32-.14.31-.14.3-.13.32-.13.3-.14.31-.13.31-.12.3-.13.3-.13.31-.12.3-.12.3-.12.3-.12.3-.12.3-.11.3-.12.3-.11.3-.12.58-.21.59-.22.58-.2.57-.2.57-.21.57-.2.56-.19.55-.19.55-.19.32-.1-.09-.2-.16-.39-.16-.39-.15-.39-.16-.39-.16-.39-.15-.4-.15-.39-.15-.4-.15-.39-.15-.4-.15-.4-.15-.4-.14-.4-.15-.4-.14-.4-.14-.4-.15-.4-.13-.4-.14-.41-.14-.4-.14-.41-.14-.4-.13-.42-.13-.4-.14-.42-.13-.4-.13-.41-.13-.41-.13-.42-.13-.4-.12-.42-.13-.41-.12-.42-.13-.41-.12-.42-.12-.41-.12-.42-.12-.41-.12-.42-.12-.41-.12-.42-.12-.41-.11-.42-.12-.42-.11-.41-.11-.42-.11-.42-.12-.41-.1-.42-.12-.42-.1-.41-.11-.42-.1-.42-.11-.41-.11-.43-.2-.82-.2-.83-.2-.84-.2-.82-.2-.83-.19-.82-.19-.83-.18-.82-.18-.82-.17-.81-.18-.81-.17-.81-.16-.8-.16-.8-.16-.8-.16-.8-.15-.78-.15-.78-.14-.78-.15-.77-.13-.77-.14-.76-.13-.76-.13-.74-.12-.74-.12-.74-.12-.73-.12-.72-.1-.71-.11-.7-.1-.7-.1-.7-.1-.68-.1-.67-.09-.66-.08-.66-.09-.65-.08-.63-.07-.63-.07-.62-.07-.62-.07-.6-.06-.59-.06-.58-.05-.58-.05-.56-.05-.56-.04-.55-.04-.54-.03-.5-.06-.12-.18-.43-.3-.79-.27-.8v-.01l-.23-.84-.19-.85-.14-.86-.09-.8-.05-.79-.02-.8.02-.79.07-.84.1-.84.15-.83.18-.82.23-.81.27-.8.3-.78.35-.77.4-.76.43-.74.46-.72.5-.7.54-.66.57-.64.6-.61.63-.58.66-.55.68-.5.71-.49.74-.43.74-.4.75-.36.78-.31.79-.28.8-.24.8-.2.83-.17.83-.12.83-.07.84-.04h.83l.78.04.77.08.77.11.76.15.75.18.74.21.75.26.73.29.72.32.7.35.69.39.62.39.59.4.57.43.41.32.64.57.41.39.3.3.3.31.24.27.2.21.16.2.57.65.53.7.49.71.45.75.42.76.37.79.34.8.3.82.04.17v.01l.13.3.13.32.12.32.13.36.13.37.13.4.12.42.13.45.12.48.12.52.1.55.1.6.09.56.04.4.03.36.03.37.02.39.01.4V770.47l.01.08V770.86l.01.1v.13l.01.1.02.3.02.29.02.32.02.33.03.36.03.38.04.39.04.41.04.43.04.44.05.46.06.47.05.49.06.5.07.51.06.53.07.53.08.55.07.56.09.57.08.58.09.59.09.6.1.6.1.62.1.63.1.63.1.64.11.64.12.66.11.66.12.66.13.67.12.68.13.68.14.68.13.7.14.69.14.7.14.7.15.7.15.7.15.71.16.7.16.72.16.71.16.71.17.72.17.7.17.72.18.71.17.72.1.35.08.35.1.35.08.36.1.35.09.35.09.35.1.36.09.35.1.34.09.35.1.35.09.35.1.34.1.35.1.34.09.35.1.34.1.34.1.34.1.33.1.34.1.34.1.33.1.33.1.33.11.33.1.33.1.33.11.32.1.32.11.32.1.32.11.32.1.31.12.32.1.3.1.32.12.3.1.3.11.3.11.3.1.3.12.3.1.3.11.28.11.29.11.28.11.28.1.28.12.28.1.27.12.27.1.27.12.26.1.26.11.26.11.25.11.25.11.25.1.24.11.24.11.24.11.23.1.23.11.23.1.22.11.22.1.2.11.22.1.2.03.05.4.05.44.07.45.07.5.1.52.12.56.15.6.17.63.21.67.25.73.3.78.38.84.45.87.54.89.62.82.65.59.53.47.45.46.49.47.52.45.55.44.58.45.65.4.66.38.68.36.7.32.72.3.75.26.78.22.76.18.75.15.79.12.77.07.74.04.73.02.71-.02.7-.04.69-.07.66-.09.63-.1.57-.12.58-.14.57-.14.51-.15.48-.2.58-.3.78-.35.78-.36.72-.36.65-.35.57-.34.53-.35.5-.33.44-.31.4-.31.38-.31.35-.3.33-.28.3-.28.29-.28.27-.27.26-.26.25-.35.32-.47.4-.62.49-.62.44-.76.5-1.12.63-1.26.58-1.21.45-1.18.34-1.1.24-.99.15-.9.1-.83.03h-.72l-.62-.01-.57-.04-.47-.04-.43-.05-.14-.02h-.06l-.34-.03-.33-.03-.33-.04-.2.08-.3.14-.32.13-.3.13-.32.13-.3.13-.31.13-.31.13-.3.12-.3.12-.31.12-.3.12-.3.12-.3.11-.3.12-.3.11-.31.12-.58.21-.59.22-.58.2-.58.21-.57.2-.57.2-.56.2-.56.18-.55.19-.55.18-.54.18-.54.18-1.04.35-1.03.34-1.02.33-.49.16-.49.17-.48.16-.47.16-.47.16-.46.16-.46.16-.45.16-.44.15-.43.16-.43.16-.43.16-.2.07-.2.08-.21.08-.2.08-.2.08-.2.08-.2.07-.2.08-.19.08-.19.08-.19.08-.19.08-.19.08-.18.07-.18.08-.18.08-.18.08-.18.08-.17.08-.17.08-.18.08-.17.08-.16.08-.17.08-.16.08-.16.08-.17.08-.15.08-.1.04-.12.1-.16.12-.17.13-.19.14-.2.16-.22.18-.24.18-.24.2-.26.2-.27.21-.27.22-.6.49-.63.5-.66.55-.7.57-.72.59-.74.62-1.57 1.3-1.64 1.35-1.7 1.4-.88.73-.88.72-.89.73-.9.73-.9.74-.9.73-.9.73-.46.37-.45.36-.45.36-.45.36-.45.36-.45.36-.45.35-.45.35-.45.35-.44.35-.45.34-.44.34-.44.34-.44.33-.44.33-.43.33-.44.33-.43.32-.43.31-.43.31-.43.31-.42.3-.43.3-.42.3-.42.3-.43.29-.42.28-.41.27-.23.15-.21.14-.22.14-.21.13-.22.14-.22.14-.22.13-.22.13-.22.14-.23.13-.22.14-.24.13-.23.13-.24.14-.24.13-.24.13-.26.13-.25.14-.27.13-.27.14-.29.13-.28.13-.3.14-.32.13-.32.14-.34.14-.36.14-.38.13-.4.14-.42.14-.46.13-.5.14-.52.13-.56.12-.62.11-.67.1-.73.08-.7.05-.55.02h-.9l-.5-.03-.5-.03-.52-.05-.57-.08-.58-.1-.6-.11-.63-.15-.65-.18-.68-.21-.67-.25-.7-.28-.69-.32-.7-.36-.72-.42-.7-.45-.7-.5-.66-.53-.66-.58-.65-.63-.57-.61-.56-.66-.53-.7-.47-.7-.44-.7-.4-.71-.34-.7-.31-.71-.27-.69-.23-.67-.2-.66-.16-.64-.14-.62-.1-.6-.1-.56-.06-.56-.04-.54-.03-.49-.02-.48V878.5l.03-.42.02-.4.04-.39.04-.37.06-.44.09-.59.11-.6.13-.58.13-.53.14-.5.14-.46.15-.44.14-.42.15-.4.14-.37.15-.36.15-.35.14-.33.15-.33.15-.32.15-.31.15-.3.15-.3.16-.3.15-.29.16-.29.13-.23.44-.75.48-.73.51-.7.55-.67.58-.65.62-.61.65-.59.68-.54.7-.51.73-.48.75-.44.78-.4.79-.35.81-.32.83-.27.84-.23.85-.19.86-.14.86-.1.87-.05.87-.01h.3l.09-.06zM935.34 429.03h.37l.37.01h.36l.37.02.37.01.36.02.37.01.36.02.37.02.36.03.36.02.36.03.36.03.36.04.36.03.36.04.35.04.36.04.35.04.36.05.35.05.35.05.36.05.35.06.35.06.35.06.35.06.34.07.35.07.35.07.34.07.35.07.34.08.34.08.34.09.34.08.34.09.34.09.34.1.34.09.34.1.33.1.33.1.34.1.33.12.33.1.33.12.33.12.32.12.33.12.33.12.32.13.32.13.32.13.32.13.32.14.32.14.32.15.31.14.31.15.31.15.31.15.31.16.31.16.3.16.31.16.3.17.3.17.3.17.3.18.3.17.29.18.3.18.28.19.3.19.28.19.28.19.28.2.28.19.28.2.28.2.27.2.27.21.28.21.26.21.27.21.26.22.27.22.25.22.26.22.25.23.26.22.24.23.25.23.25.24.24.23.24.24.23.24.24.24.24.24.22.24.23.25.23.25.21.25.22.25.22.25.22.25.21.26.21.26.2.26.2.26.2.26.2.26.2.27.2.26.2.27.17.27.19.26.18.27.18.28.18.27.17.27.17.28.17.27.17.28.16.28.16.28.16.27.16.28.15.28.15.29.15.28.15.28.14.28.14.29.13.28.15.29.13.28.12.29.13.28.13.3.12.28.12.29.11.28.13.3.11.29.1.28.12.3.1.28.1.3.11.28.1.3.1.28.1.3.09.29.08.29.09.29.08.29.09.3.08.28.08.3.08.29.08.29.07.3.07.28.07.3.07.29.06.29.07.3.06.28.06.3.06.29.05.29.06.3.05.28.04.3.06.29.05.29.04.29.04.3.04.28.04.3.04.28.03.3.04.29.03.29.04.29.03.29.02.29.03.29.02.29.03.3.02.28.02.29.02.29.02.29v.29l.02.29.01.29.01.28.01.3.01.28.01.29v.29l.01.29V472.79l-.02.29V473.65l-.02.29v.29l-.03.28v.29l-.01.28-.02.29-.02.28-.02.29-.02.28-.02.29-.03.28-.02.29-.02.28-.02.29-.03.28-.03.28-.03.29-.04.28-.02.28-.03.29-.04.28-.03.28-.04.28-.03.29-.04.28-.04.28-.05.28-.04.28-.03.29-.05.28-.05.28-.04.28-.04.28-.05.28-.06.28-.04.28-.05.28-.06.28-.05.28-.05.28-.06.28-.06.28-.04.28-.07.27-.06.28-.05.28-.06.28-.07.28-.05.28-.07.27-.06.28-.07.28-.07.27-.06.28-.07.28-.07.28-.14.54-.14.55-.15.55-.15.55-.15.55-.16.55-.16.54-.16.55-.17.54-.17.54-.17.55-.18.54-.18.54-.2.53-.17.54-.2.54-.19.53-.2.54-.2.53-.2.53-.2.53-.21.53-.2.53-.23.53-.21.53-.22.52-.23.52-.23.53-.22.51-.23.52-.24.52-.23.52-.24.51-.24.52-.25.5-.24.52-.26.5-.25.51-.25.51-.27.5-.25.5-.27.5-.26.5-.27.5-.27.5-.27.49-.29.5-.27.48-.28.49-.29.49-.28.48-.3.48-.28.48-.3.48-.3.48-.29.47-.3.47-.3.47-.31.47-.3.47-.32.46-.31.46-.32.46-.32.46-.32.45-.32.45-.32.45-.33.45-.33.44-.33.45-.34.44-.34.43-.34.44-.34.43-.34.43-.35.43-.35.42-.35.43-.36.41-.35.42-.36.4-.18.22-.19.2-.18.2-.18.21-.19.2-.18.2-.18.2-.19.21-.19.2-.18.2-.19.2-.19.2-.19.2-.19.19-.19.2-.19.19-.2.2-.18.18-.2.2-.2.19-.19.2-.2.18-.19.2-.2.18-.2.19-.2.18-.19.19-.2.18-.2.19-.2.18-.2.18-.2.19-.21.18-.2.18-.21.17-.2.18-.22.18-.2.18-.21.17-.21.18-.21.17-.21.18-.22.17-.2.16-.29.23-.28.23-.28.22-.29.22-.28.22-.28.22-.29.22-.28.21-.29.22-.28.22-.29.21-.28.21-.29.22-.29.2-.28.22-.29.2-.29.22-.28.2-.3.2-.28.22-.29.2-.28.2-.3.2-.28.2-.3.2-.28.2-.29.2-.29.2-.29.2-.3.2-.28.2-.3.19-.28.19-.3.2-.29.18-.29.2-.3.18-.28.2-.3.18-.29.19-.3.18-.28.19-.3.18-.3.19-.58.36-.59.36-.59.35-.59.36-.59.35-.59.35-.6.34-.58.34-.6.34-.6.33-.59.33-.6.33-.59.32-.6.33-.59.31-.6.32-.6.31-.6.31-.59.3-.6.31-.6.3-.6.3-.6.3-.6.29-.6.29-.6.29-.6.28-.6.29-.6.28-.6.27-.6.28-.61.27-.6.27-.6.27-.6.27-.61.26-.6.26-.6.26-.61.26-.6.25-.6.25-.61.25-.6.25-.61.25-.6.24-.6.25-.61.24-.6.24-.61.23-.6.24-.6.23-.61.24-.6.23-.61.23-.6.22-.6.23-.61.22-.6.23-.6.22-.61.22-.6.22-.6.22-.6.21-.61.22-.6.21-.6.21-.6.21-.6.22-.61.2-.6.21-.6.2-.6.22-.6.2-.6.2-1.2.41-1.2.4-1.2.4-1.2.4-1.19.4-1.2.39-1.19.39-1.19.39-2.37.77-2.37.77-2.37.77-1.17.38-1.29.42-.34.1-.39.12-.33.09-.28.07-.26.06-.25.06-.23.05-.23.05-.4.1-.43.08-.43.08-.43.09-.45.08-.47.09-.48.09-.5.09-1.04.18-1.1.2-2.38.41-1.26.23-1.29.22-1.31.24-.66.12-.66.12-.66.12-.67.12-.66.12-.66.13-.65.12-.65.12-.64.13-.62.12-.62.13-.61.12-.6.12-.57.12-.56.12-.55.12-.25.06-.26.06-.25.05-.24.06-.24.06-.23.05-.23.06-.21.05-.2.05-.2.05-.2.05h-.03l-.29.19-.86.47-.88.43-.91.37-.93.32-.95.26-.96.21-.97.15-.98.1-.98.04-.99-.02-.98-.08-.97-.13-.97-.2-.95-.24-.94-.3-.91-.35-.9-.4-.87-.47-.49-.3-.58.58-.47.43-.44.38-.5.4-.56.42-.66.44-.72.44-.8.43-.92.43-1.08.43-1.2.38-1.3.3-.68.11-.75.1-.75.06H814l-.8.03h-.81l-.86-.06-.86-.1h-.01l-.8-.12-.79-.17h-.01l-.85-.22-.83-.26h-.01l-.8-.3-.78-.35h-.01l-.75-.37-.72-.4-.02-.01-.64-.4-.62-.42-.01-.01-.78-.6-.75-.64-.7-.68-.67-.72-.63-.76-.58-.8-.53-.82-.48-.86-.43-.88-.38-.91-.33-.93-.27-.94-.22-.96-.16-.97-.1-.98-.05-.98.01-.99.07-.98.12-.97.18-.97.24-.95.3-.94.34-.92.4-.9.45-.88.5-.84.55-.82.28-.37.04-.1.1-.26.1-.29.12-.3.11-.3.11-.32.12-.32.12-.34.12-.34.12-.34.12-.35.12-.35.12-.35.12-.36.12-.35.11-.36.12-.35.11-.35.12-.35.1-.33.22-.68.2-.64.2-.6.16-.57.16-.51.13-.45.11-.39.04-.14.04-.13.05-.25.07-.32.07-.33.07-.32.07-.33.07-.32.07-.33.08-.32.07-.33.07-.32.08-.32.08-.33.08-.32.07-.33.08-.32.08-.32.09-.32.08-.33.08-.32.09-.32.08-.32.09-.33.08-.32.1-.32.08-.32.09-.32.1-.32.08-.32.1-.32.09-.32.1-.32.09-.32.1-.32.1-.32.1-.32.09-.32.1-.32.1-.32.1-.32.1-.32.11-.32.1-.31.11-.32.11-.32.11-.32.11-.31.11-.32.11-.32.11-.31.12-.32.11-.31.12-.32.11-.32.12-.31.12-.32.12-.31.12-.32.13-.31.12-.31.12-.32.13-.31.12-.31.13-.32.13-.31.13-.31.13-.31.13-.32.13-.3.14-.32.13-.31.14-.31.13-.31.14-.32.14-.3.14-.31.14-.32.14-.3.15-.31.14-.31.15-.31.15-.31.15-.3.14-.32.15-.3.16-.31.15-.3.15-.31.16-.31.15-.3.16-.31.16-.3.16-.31.16-.3.16-.31.16-.3.16-.31.17-.3.17-.3.16-.31.17-.3.17-.3.17-.3.17-.31.18-.3.17-.3.17-.3.18-.3.18-.3.18-.3.18-.3.18-.3.18-.3.18-.3.19-.3.18-.3.19-.3.19-.3.19-.3.19-.29.19-.3.2-.3.18-.29.2-.3.2-.29.2-.3.19-.29.2-.29.24-.35.24-.35.24-.34.24-.36.24-.35.25-.35.24-.35.25-.35.25-.35.26-.36.25-.35.25-.35.26-.36.26-.35.26-.36.26-.35.26-.36.26-.36.27-.35.27-.36.27-.36.27-.36.27-.36.27-.36.28-.36.27-.36.28-.36.28-.36.28-.36.28-.36.29-.36.28-.36.29-.37.29-.36.29-.36.29-.37.29-.36.3-.36.29-.37.3-.36.3-.37.3-.36.3-.36.3-.37.3-.36.3-.37.31-.37.31-.36.31-.37.31-.36.31-.37.32-.36.31-.37.32-.37.32-.36.32-.37.32-.37.32-.36.32-.37.33-.36.32-.37.33-.37.33-.36.33-.37.33-.37.33-.36.34-.37.33-.36.34-.37.34-.36.34-.37.34-.36.34-.37.34-.36.35-.37.34-.36.35-.37.35-.36.35-.37.35-.36.35-.36.35-.37.36-.36.35-.36.36-.36.36-.36.36-.37.36-.36.36-.36.36-.36.37-.36.36-.36.37-.36.37-.35.37-.36.37-.36.37-.36.37-.35.38-.36.37-.36.38-.35.37-.36.38-.35.38-.35.38-.36.39-.35.38-.35.38-.35.39-.35.38-.35.4-.35.38-.35.4-.35.38-.35.4-.34.39-.35.4-.35.39-.34.4-.34.4-.35.39-.34.4-.34.4-.34.4-.34.4-.34.41-.34.4-.33.41-.34.4-.34.42-.33.4-.33.42-.34.4-.33.42-.33.42-.33.41-.33.42-.33.41-.32.42-.33.42-.32.42-.33.42-.32.42-.32.43-.32.42-.32.43-.32.42-.32.43-.31.43-.32.43-.31.43-.31.43-.31.43-.31.43-.31.44-.31.43-.3.44-.31.43-.3.44-.3.44-.3.44-.3.44-.3.45-.3.44-.3.44-.3.45-.29.44-.29.45-.29.45-.29.45-.28.45-.29.45-.28.45-.29.45-.28.45-.28.46-.27.45-.28.46-.27.46-.28.46-.27.46-.27.46-.27.46-.26.46-.27.46-.26.47-.26.46-.26.47-.26.47-.26.46-.25.47-.25.47-.26.47-.24.47-.25.48-.25.47-.24.47-.24.48-.24.48-.24.47-.23.48-.24.48-.23.48-.23.48-.23.48-.22.49-.22.48-.23.49-.21.48-.22.49-.22.48-.21.5-.21.48-.2.5-.21.48-.2.5-.21.49-.2.5-.2.49-.2.5-.18.5-.2.49-.18.5-.19.5-.18.5-.18.5-.18.5-.17.5-.18.5-.17.52-.16.5-.17.5-.16.52-.16.5-.16.51-.15.52-.16.5-.15.52-.14.51-.15.52-.14.51-.13.52-.14.52-.13.51-.13.52-.13.52-.12.52-.12.52-.12.53-.11.52-.11.52-.11.53-.1.52-.11.53-.1.53-.1.52-.09.4-.07.41-.06.4-.07.4-.06.4-.06.4-.06.4-.06.4-.05.39-.05.4-.06.39-.04.39-.05.39-.05.39-.04.39-.04.39-.04.38-.04.39-.03.39-.03.38-.03.38-.03.39-.03.38-.02.38-.03.38-.02.38-.02.37-.01.38-.02.38-.01.37-.01.38-.01h.37l.38-.01H935.34zm-84.86 139.56l.04-.12.12-.48-.16.6zm.57-2.88l-.14.97-.16.82.11-.46.22-1.53.04-.78-.07.98zm-30-13.75l.7.42h.01l-1-.6-.51-.23.8.41zm-1.77-.85l.7.32-.73-.34-.55-.2.58.22zm-1.2-.43l-.44-.15-.2-.05.63.2zm-1.91-.5l-.15-.03-.14-.02.29.05zm118.53-87.35h-.37l-.18.01h-.2l-.18.01h-.2l-.2.01-.19.01-.2.01-.2.01-.21.02h-.2l-.22.02-.21.02-.22.02-.22.02-.22.02-.22.02-.22.02-.23.02-.23.03-.23.03-.24.02-.24.03-.24.03-.24.04-.25.03-.24.04-.25.03-.25.04-.26.04-.26.04-.26.05-.25.04-.33.06-.32.05-.32.07-.33.06-.32.06-.33.07-.32.07-.33.07-.33.08-.33.07-.33.08-.33.08-.33.08-.33.09-.33.08-.33.1-.34.09-.33.09-.34.1-.33.1-.34.1-.34.1-.33.1-.34.1-.34.12-.34.1-.34.12-.34.11-.35.12-.34.12-.34.12-.34.13-.35.12-.34.13-.35.13-.34.13-.35.14-.34.13-.35.14-.35.14-.35.14-.35.15-.34.15-.35.14-.35.15-.35.16-.35.15-.35.16-.35.16-.35.16-.36.16-.35.16-.35.17-.35.17-.35.17-.36.17-.35.18-.35.17-.36.18-.35.18-.35.18-.36.19-.35.18-.36.19-.35.19-.36.19-.35.2-.36.19-.35.2-.36.2-.35.2-.36.2-.35.2-.36.2-.35.21-.36.2-.35.22-.36.21-.35.22-.36.21-.35.22-.36.22-.35.22-.36.22-.35.22-.36.23-.35.22-.36.23-.35.23-.35.23-.36.24-.35.23-.36.24-.35.23-.35.24-.36.24-.35.24-.35.25-.35.24-.35.25-.36.25-.35.24-.35.25-.35.26-.35.25-.35.25-.35.26-.35.26-.34.25-.35.26-.35.26-.35.26-.35.27-.34.26-.35.27-.35.26-.34.27-.34.27-.35.27-.34.27-.35.27-.34.28-.34.27-.34.28-.35.27-.34.28-.34.28-.34.28-.34.28-.33.28-.34.28-.34.29-.34.28-.33.29-.34.29-.33.28-.34.3-.33.28-.33.29-.34.3-.33.28-.33.3-.33.29-.33.3-.33.29-.32.3-.33.29-.33.3-.32.3-.33.3-.32.29-.32.3-.33.3-.32.3-.32.3-.32.3-.32.3-.32.31-.31.3-.32.3-.32.31-.31.3-.31.31-.32.31-.3.3-.32.32-.31.3-.31.31-.3.31-.31.3-.31.32-.3.3-.31.32-.3.3-.3.32-.3.31-.3.31-.3.31-.3.32-.3.3-.3.32-.3.31-.29.31-.3.32-.28.31-.3.31-.28.32-.3.31-.28.31-.29.32-.28.31-.29.31-.28.32-.28.31-.28.31-.28.32-.28.31-.27.32-.28.31-.27.31-.28.32-.27.3-.27.32-.27.32-.27.3-.26.32-.27.31-.26.32-.27.3-.26.32-.26.31-.26.31-.26.31-.25.31-.26.31-.25.31-.25.31-.26.31-.25.31-.24.31-.25.31-.25.3-.24.31-.24.31-.24.3-.24.31-.24.3-.24.31-.23.3-.24.31-.23.3-.23.3-.23.3-.23.3-.23.3-.22.3-.22.3-.22.3-.22.3-.22.3-.22.3-.22.29-.2.3-.22.29-.21.3-.21.28-.2.3-.21.28-.2.3-.21.28-.2.29-.2.28-.2.29-.2.28-.19.29-.19.28-.14.2-.14.2-.13.2-.14.21-.13.2-.13.2-.14.21-.13.2-.13.21-.13.2-.13.2-.13.21-.12.2-.13.2-.12.21-.13.2-.12.21-.12.2-.12.21-.12.2-.12.2-.12.21-.12.2-.12.21-.12.2-.11.21-.12.2-.11.21-.11.2-.12.21-.1.2-.12.21-.1.21-.12.2-.1.21-.11.2-.11.22-.1.2-.11.2-.1.22-.11.2-.1.21-.1.2-.1.21-.1.21-.1.21-.1.2-.1.22-.1.2-.1.21-.1.22-.1.2-.09.21-.1.21-.08.21-.1.21-.09.21-.09.21-.09.21-.09.22-.09.2-.09.22-.09.21-.08.21-.09.22-.09.21-.08.21-.08.22-.09.21-.08.21-.08.22-.09.21-.08.22-.08.21-.08.22-.08.22-.08.21-.07.22-.08.22-.08.22-.07.21-.08.22-.07.22-.08.22-.07.22-.07.22-.08.22-.07.22-.07.22-.07.22-.07.22-.04.15.3-.07.67-.15.7-.15.7-.14.71-.15.71-.14.72-.15.71-.14.72-.14.72-.14.72-.13.72-.14.72-.13.72-.13.7-.13.71-.13.7-.13 1.37-.24 1.33-.24 1.28-.22 2.36-.42 1.06-.18.96-.18.43-.07.41-.08.37-.07.34-.06.29-.06.24-.04.04-.01.58-.2 1.2-.38 2.38-.78 2.36-.76 2.35-.77 1.16-.37 1.16-.38 1.15-.38 1.15-.38 1.14-.38 1.14-.38 1.13-.38 1.14-.39.55-.19.56-.19.56-.19.56-.2.56-.18.55-.2.55-.19.56-.2.55-.19.55-.2.54-.19.55-.2.54-.2.55-.19.54-.2.54-.2.54-.2.53-.2.54-.2.53-.2.53-.2.53-.2.53-.2.53-.2.53-.21.52-.2.53-.22.52-.2.52-.21.52-.21.51-.21.52-.22.51-.21.51-.21.51-.22.51-.22.5-.21.52-.22.5-.22.5-.22.5-.23.5-.22.5-.23.5-.22.49-.23.5-.23.48-.23.5-.23.48-.24.49-.23.48-.24.48-.23.48-.24.48-.24.48-.25.48-.24.47-.25.47-.24.47-.25.47-.25.47-.26.47-.25.46-.26.47-.25.46-.26.46-.27.46-.26.45-.26.46-.27.45-.27.45-.27.45-.27.45-.28.46-.28.21-.13.23-.14.22-.14.22-.14.22-.15.22-.14.22-.14.23-.14.21-.15.22-.14.22-.15.22-.14.22-.15.22-.14.22-.15.21-.15.22-.14.22-.15.21-.15.22-.15.22-.15.21-.15.21-.16.22-.15.21-.15.22-.15.21-.16.21-.15.21-.16.22-.15.2-.16.22-.16.21-.15.21-.16.21-.16.21-.16.21-.16.21-.16.21-.17.21-.16.2-.16.22-.16.2-.17.2-.16.1-.07.09-.08.09-.07.09-.07.09-.08.1-.08.08-.08.1-.07.09-.08.1-.09.09-.08.1-.08.09-.09.1-.09.09-.08.1-.1.1-.08.09-.1.1-.08.1-.1.1-.09.1-.1.1-.1.09-.09.1-.1.1-.1.1-.1.1-.1.1-.1.1-.1.1-.1.1-.11.1-.11.1-.11.1-.1.11-.12.1-.1.1-.12.1-.11.11-.12.1-.11.1-.11.1-.12.1-.1.22-.26.2-.24.21-.24.21-.25.2-.25.22-.26.2-.26.21-.26.2-.26.22-.27.2-.28.21-.27.2-.28.21-.28.2-.28.21-.29.2-.29.2-.3.21-.29.2-.3.2-.3.2-.3.2-.3.2-.31.2-.31.2-.31.2-.32.19-.31.2-.32.18-.32.2-.33.18-.32.2-.33.18-.33.18-.33.19-.33.18-.33.18-.33.18-.34.18-.34.17-.34.18-.34.17-.34.17-.34.17-.34.17-.35.16-.35.17-.34.16-.35.16-.35.16-.35.15-.35.16-.35.15-.35.15-.35.14-.35.15-.35.14-.35.14-.36.14-.35.14-.35.13-.35.13-.35.13-.36.13-.35.12-.35.13-.35.11-.35.12-.35.12-.35.1-.35.12-.35.1-.35.11-.35.1-.34.1-.35.1-.34.1-.34.08-.34.1-.34.08-.36.04-.15.04-.17.04-.17.04-.17.04-.16.04-.17.04-.17.04-.16.03-.17.04-.16.03-.17.04-.16.03-.17.03-.16.04-.16.03-.16.03-.17.03-.16.03-.16.03-.16.03-.16.02-.16.03-.15.03-.16.02-.16.03-.16.02-.15.02-.16.03-.15.02-.16.02-.15.02-.15.02-.15.02-.16.02-.15.02-.15.01-.15.02-.15.02-.14.01-.15.02-.15v-.14l.02-.15.01-.14.02-.14v-.14l.02-.15v-.14l.02-.14v-.14l.01-.13.01-.14v-.14l.01-.13v-.14l.01-.13v-.26l.01-.13V470.94l-.01-.12V470.6l-.01-.12-.01-.12v-.11l-.01-.11-.01-.11-.01-.12v-.1l-.02-.11v-.11l-.02-.1v-.11l-.02-.1-.01-.1-.01-.11-.02-.1v-.1l-.02-.1-.02-.1-.01-.09-.02-.1v-.08l-.02-.1-.02-.09-.02-.09-.01-.08-.02-.09-.02-.08-.01-.09-.02-.08-.02-.08-.02-.08-.01-.08-.02-.08-.02-.08-.02-.07-.02-.08-.02-.07-.02-.07-.02-.07-.02-.07-.02-.06-.02-.07-.02-.07-.02-.06-.02-.06-.02-.06-.02-.06-.02-.06-.02-.06-.02-.06-.02-.05-.02-.06-.02-.05-.02-.05-.02-.05-.03-.05-.02-.05-.02-.04-.02-.05-.02-.05-.02-.04-.02-.04-.02-.04-.02-.04-.02-.04-.02-.04-.02-.04-.02-.03-.01-.04-.02-.03-.02-.04-.02-.03-.02-.03-.02-.03-.02-.03-.02-.03-.02-.03-.01-.03-.02-.02-.02-.03-.02-.03-.01-.02-.02-.03-.02-.02-.02-.02-.01-.03-.02-.02-.02-.02-.01-.02-.02-.02-.02-.02-.01-.02-.02-.02-.02-.02-.01-.02-.02-.02-.02-.02-.02-.01-.01-.02-.02-.02-.02-.02-.01-.01-.02-.02-.02-.02-.02-.02-.02-.01-.02-.02-.01-.02-.02-.01-.02-.02-.03-.02-.02-.01-.02-.02-.02-.02-.02-.02-.02-.01-.03-.02-.02-.02-.03-.02-.02-.02-.03-.02-.03-.01-.03-.02-.03-.02-.03-.02-.03-.02-.03-.02-.04-.02-.03-.02-.04-.02-.03-.02-.04-.02-.04-.02-.04-.03-.04-.02-.04-.02-.05-.02-.05-.02-.04-.03-.05-.02-.05-.02-.05-.02-.06-.03-.05-.02-.06-.03-.06-.02-.06-.02-.06-.02-.06-.03-.07-.02-.07-.03-.07-.02-.07-.02-.07-.03-.08-.02-.07-.03-.08-.02-.08-.02-.09-.03-.08-.02-.09-.02-.09-.03-.09-.02-.1-.02-.09-.03-.1-.02-.1-.02-.1-.02-.1-.02-.11-.02-.11-.02-.11-.02-.12-.02-.11-.02-.12-.02-.12-.02-.12-.02-.13-.02-.13-.01-.13-.02-.13-.01-.13-.02-.14-.01-.14-.02-.14-.01-.15-.01-.14-.01-.15-.01-.15-.01-.16-.01-.15-.01h-.16l-.16-.02h-.33l-.17-.01h-.7z"/>
    <g>
      <path fill="#2d6810" d="M697.99 448.52h.5l.25.01h.25l.25.02h.25l.24.01.25.01.25.01.24.02.25.01.26.02.47.03.5.03.48.04.48.05.49.04.48.06.48.05.48.06.47.06.48.06.47.07.47.07.47.08.47.08.47.07.47.09.47.08.46.09.46.09.47.1.46.09.46.1.46.1.45.1.46.1.45.1.46.12.45.1.45.12.45.12.45.11.45.12.44.12.45.12.44.13.44.12.45.13.44.13.43.13.44.13.44.13.43.14.44.13.43.14.43.14.43.14.43.14.42.14.43.14.42.14.42.15.42.15.42.14.42.15.41.15.42.15.4.15.42.15.4.15.41.15.4.15.41.15.4.16.4.15.4.16.4.15.39.16.39.15.39.16.38.15.39.16.38.16.38.15.38.16.37.15.38.16.37.16.37.15.36.16.38.16.7.3.72.32.7.3.68.32.68.3.67.3.65.3.64.3.63.3.61.29.6.28.6.29.57.28.56.27.57.28.58.29.57.28.57.3.57.29.57.3.58.3.57.3.57.3.57.3.57.32.57.31.56.32.57.32.57.32.57.32.56.33.57.33.56.33.57.34.56.34.57.34.56.34.56.35.56.35.56.35.56.36.55.36.56.36.55.36.56.37.55.37.55.37.55.38.55.37.55.38.55.39.54.38.55.4.54.38.54.4.54.4.54.4.54.4.53.4.54.41.53.41.53.42.53.42.52.42.53.42.52.42.52.43.51.43.27.22.26.22.26.22.26.22.25.21.26.23.25.22.26.22.26.22.25.22.25.23.26.22.25.23.25.22.25.23.25.23.25.23.25.22.25.23.25.23.25.23.25.24.25.23.24.23.25.24.24.23.25.24.24.23.25.24.24.24.24.24.24.23.24.24.24.25.24.24.24.24.24.24.24.25.24.24.23.24.24.25.23.25.24.24.23.25.23.25.24.25.23.25.23.25.23.25.23.26.23.25.22.25.23.26.23.25.22.26.23.26.22.25.22.26.23.26.22.26.22.26.22.26.22.27.22.26.21.26.22.27.22.26.21.27.22.27.2.26.22.27.21.27.21.27.21.27.21.28.21.27.2.27.21.28.2.27.21.28.2.27.21.28.2.28.2.28.2.28.2.28.2.28.2.28.2.28.19.29.19.28.2.29.18.28.2.29.19.29.18.29.2.28.18.3.18.28.19.3.18.29.18.3.19.29.18.3.18.29.17.3.18.3.18.29.17.3.17.3.18.3.17.3.17.3.17.3.16.31.17.3.17.3.16.32.16.3.17.31.16.31.15.31.16.31.16.31.16.31.15.32.15.31.15.32.15.31.15.32.15.31.15.32.14.32.14.32.15.32.14.32.14.32.14.33.13.32.14.32.13.33.13.33.14.32.12.33.13.33.13.33.12.33.1.26.05.11.02.07.03.08.04.09.05.1.05.13.06.14.07.14.07.15.08.17.08.18.09.18.1.2.1.2.1.2.11.22.12.23.12.22.13.24.12.24.14.25.14.25.14.26.15.26.15.27.15.27.16.27.16.28.16.28.17.3.17.28.17.3.18.29.18.3.18.3.18.3.19.3.19.31.19.31.2.31.19.32.2.31.2.32.2.31.2.32.2.32.2.32.2.31.21.32.21.32.21.32.2.32.22.33.21.32.21.31.22.32.2.32.22.3.43.65.42.62.43.62.42.61.42.6.42.6.41.59.41.57.4.56.4.54.38.53.39.53.18.24.18.24.18.25.18.23.18.23.17.23.16.22.17.22.16.2.16.2.15.2.15.2.14.17.14.18.14.17.13.16.12.15.12.15.08.1.8.63.75.7.7.73.67.78.61.81.57.85.51.88.46.92.4.93.35.96.28.99.23.99.17 1 .1 1.02.05 1.02-.02 1.02-.08 1.02-.14 1.01-.2 1-.26 1-.33.96-.38.95-.43.92-.5.9-.53.86-.6.83-.64.8-.7.75-.73.7-.77.67-.82.62-.85.56-.88.51-.91.46-.94.4-.96.35-.98.29h-.02l-.76.18-.76.14-.77.11h-.02l-.98.09-.98.03h-.02l-.86-.02-.85-.07-.75-.08-1.37-.26-1.14-.3-.98-.33-.83-.34-.71-.32-.6-.3-.53-.3-.47-.28-.4-.25-.36-.24-.33-.23-.3-.22-.27-.2-.13-.1-.3.41-.65.8-.7.75-.73.7-.78.66-.81.62-.85.56-.89.51-.91.46-.94.4-.96.34-.98.28-1 .23-1 .16-1.02.1-1.02.05-1.02-.02-1.02-.09-1.01-.14-1-.2-.99-.27-.52-.17-.06-.02-.15-.04-.18-.04-.2-.05-.23-.06-.25-.06-.27-.07-.3-.07-.32-.08-.35-.08-.37-.09-.39-.09-.41-.1-.44-.1-.46-.1-.48-.1-.5-.11-.53-.12-.55-.12-.57-.12-.6-.13-.62-.13-.64-.13-.67-.14-.69-.15-.71-.14-.74-.15-.76-.16-.8-.16-.8-.16-.84-.16-.86-.17-.88-.17-.91-.18-.93-.18-.96-.18-.99-.2-1-.18-1.04-.2-1.06-.2-1.1-.2-1.1-.2-1.14-.2-1.17-.21-1.19-.22-1.22-.21-1.24-.23-1.27-.22-1.3-.22-1.32-.23-1.36-.24-1.38-.23-1.4-.24-1.44-.25-.67-.1-.66-.12-1.35-.22-1.36-.22-1.37-.23-1.37-.22-1.39-.22-2.79-.45-1.4-.22-1.42-.23-1.42-.23-1.43-.23-1.43-.24-.72-.12-.72-.12-.72-.12-.72-.13-.73-.12-.72-.13-.73-.12-.73-.13-.73-.13-.73-.13-.73-.14-.74-.13-.73-.14-.73-.13-.74-.14-.74-.15-.74-.14-.73-.15-.75-.14-.73-.15-.75-.16-.74-.15-.74-.16-.75-.16-.74-.16-.75-.16-.74-.17-.75-.17-.74-.17-.75-.18-.75-.18-.75-.18-.74-.19-.75-.18-.75-.2-.75-.19-.74-.2-.39-.1-.37-.1-.38-.1-.37-.1-.38-.1-.37-.11-.38-.1-.37-.11-.38-.1-.37-.12-.38-.1-.37-.12-.38-.1-.38-.12-.37-.11-.37-.12-.38-.11-.38-.12-.37-.12-.38-.11-.37-.12-.38-.12-.37-.12-.38-.13-.37-.12-.38-.13-.37-.12-.38-.13-.37-.13-.38-.13-.37-.13-.38-.13-.37-.13-.37-.13-.38-.14-.37-.14-.38-.13-.37-.14-.37-.14-.38-.14-.37-.14-.37-.15-.38-.14-.37-.15-.37-.15-.38-.15-.37-.15-.37-.15-.37-.15-.37-.16-.37-.15-.38-.16-.37-.16-.37-.16-.37-.16-.37-.16-.37-.16-.37-.17-.37-.17-.37-.16-.37-.17-.37-.17-.36-.18-.37-.17-.37-.18-.37-.17-.37-.18-.36-.18-.37-.18-.37-.19-.36-.18-.37-.19-.36-.19-.37-.19-.36-.19-.37-.2-.36-.18-.36-.2-.36-.2-.37-.2-.36-.2-.36-.2-.36-.2-.36-.21-.36-.21-.36-.2-.36-.22-.36-.21-.35-.22-.36-.21-.36-.22-.36-.22-.35-.22-.35-.23-.36-.22-.35-.23-.36-.23-.35-.23-.35-.23-.35-.23-.35-.24-.35-.24-.35-.24-.35-.24-.35-.24-.35-.25-.34-.25-.35-.24-.34-.26-.35-.25-.34-.25-.34-.26-.34-.26-.35-.26-.34-.26-.34-.26-.34-.27-.33-.27-.34-.27-.34-.27-.33-.27-.33-.28-.34-.28-.33-.28-.33-.28-.33-.29-.33-.28-.33-.29-.33-.29-.33-.3-.2-.18-.22-.2-.2-.2-.22-.19-.2-.2-.2-.2-.21-.2-.2-.2-.2-.2-.2-.21-.2-.2-.2-.22-.19-.2-.19-.22-.2-.21-.18-.22-.19-.21-.18-.22-.19-.22-.18-.22-.18-.21-.18-.23-.17-.22-.18-.23-.17-.22-.17-.23-.17-.23-.17-.23-.16-.23-.17-.23-.16-.23-.16-.24-.16-.23-.15-.24-.15-.23-.16-.24-.14-.24-.15-.25-.15-.24-.14-.24-.14-.24-.14-.25-.14-.24-.13-.25-.14-.25-.12-.24-.13-.25-.13-.25-.13-.25-.12-.25-.12-.26-.12-.25-.11-.25-.11-.25-.12-.26-.1-.25-.11-.26-.1-.25-.11-.26-.1-.26-.1-.25-.1-.26-.09-.26-.1-.26-.08-.26-.1-.26-.08-.26-.08-.26-.08-.26-.08-.26-.08-.26-.07-.25-.08-.27-.07-.26-.07-.26-.06-.26-.07-.26-.06-.26-.06-.26-.06-.26-.06-.27-.05-.26-.05-.26-.05-.26-.05-.26-.05-.26-.04-.26-.04-.26-.05-.26-.04-.27-.03-.26-.04-.25-.03-.26-.03-.26-.03-.26-.03-.26-.02-.26-.03-.26-.02-.25-.02-.26-.02-.26-.01-.26-.02-.25-.01-.26-.01-.26-.01-.25-.01-.25v-.26l-.01-.25v-1.77l.02-.25v-.25l.02-.25.01-.25.01-.25.02-.25.02-.25.01-.25.02-.24.03-.25.02-.24.02-.25.03-.24.02-.25.03-.24.03-.25.03-.23.03-.25.04-.24.03-.24.04-.24.03-.24.04-.24.04-.24.04-.24.04-.24.04-.23.05-.24.04-.24.05-.23.05-.23.05-.24.05-.24.05-.23.05-.23.05-.23.06-.23.05-.24.06-.23.06-.24.11-.45.12-.45.13-.46.13-.45.13-.45.14-.45.14-.44.14-.45.15-.44.15-.44.16-.44.16-.44.16-.43.16-.43.17-.43.17-.43.18-.43.17-.42.19-.43.18-.42.18-.42.2-.42.19-.41.2-.42.19-.41.2-.41.2-.41.2-.4.22-.41.2-.4.22-.41.22-.4.21-.4.23-.4.22-.4.22-.39.23-.39.23-.39.23-.39.24-.39.24-.38.24-.39.24-.38.24-.38.25-.38.24-.38.25-.38.25-.37.26-.37.25-.38.26-.37.26-.36.26-.37.27-.37.26-.36.27-.36.27-.36.27-.36.27-.36.28-.36.27-.35.28-.36.28-.35.28-.35.28-.35.29-.34.29-.35.28-.34.3-.34.28-.34.3-.34.29-.34.3-.34.3-.33.3-.33.3-.33.3-.33.3-.33.3-.33.3-.32.31-.32.31-.32.31-.32.31-.32.32-.32.31-.31.32-.31.31-.31.32-.31.32-.31.32-.3.32-.3.33-.31.32-.3.32-.3.33-.3.33-.3.33-.28.33-.3.33-.28.33-.3.33-.28.34-.28.33-.28.34-.28.34-.28.34-.28.34-.27.34-.27.34-.27.34-.27.35-.27.34-.26.35-.26.35-.26.35-.26.35-.26.35-.25.35-.25.35-.25.36-.25.35-.25.36-.24.35-.24.36-.24.36-.24.36-.23.36-.23.36-.24.37-.22.36-.23.37-.22.36-.22.37-.22.37-.22.37-.21.37-.21.37-.21.38-.2.37-.21.38-.2.38-.2.37-.2.38-.2.38-.18.39-.2.38-.18.39-.18.38-.18.4-.18.38-.17.4-.18.39-.17.4-.16.39-.16.4-.17.4-.15.4-.16.4-.15.4-.14.41-.15.41-.14.41-.14.41-.13.42-.13.42-.13.42-.12.42-.12.42-.12.43-.1.43-.12.43-.1.43-.1.44-.1.44-.08.44-.09.42-.07.25-.05.23-.03.26-.05.26-.04.27-.04.27-.03.26-.04.26-.03.27-.03.26-.03.26-.03.26-.02.26-.03.26-.02.27-.02.25-.02.26-.02.26-.01.26-.02.25-.01.26-.01.26-.01.25-.01.25-.01h.26l.25-.01H698zm80.37 130.4l1 .47.2.09-.2-.08-.92-.44-.84-.47.76.43zm-1.56-.88l.74.42-.86-.54-.77-.56.89.68zm-4.3-4.17l.02.03-.04-.05.01.02zm-74.85-91.54H697.21l-.07.01h-.13l-.06.01h-.06l-.06.01h-.11l-.06.01h-.05l-.05.01h-.05l-.05.01h-.04l-.04.01h-.05l-.04.02h-.07l-.04.01h-.02l-.08.02-.07.01-.07.02-.07.01-.08.02-.08.02-.1.02-.08.03-.1.02-.1.03-.1.03-.12.04-.11.03-.12.04-.12.04-.12.04-.13.05-.13.05-.14.05-.14.05-.14.06-.14.05-.15.07-.15.06-.15.06-.16.07-.16.07-.16.08-.16.07-.16.08-.17.08-.17.09-.17.08-.18.1-.17.08-.18.1-.18.1-.18.1-.19.1-.18.1-.19.1-.19.11-.19.11-.19.12-.19.11-.2.12-.19.12-.2.12-.19.13-.2.13-.2.13-.2.13-.2.13-.2.14-.2.14-.2.14-.2.14-.21.14-.2.15-.21.15-.2.15-.21.15-.2.16-.22.15-.2.16-.21.16-.2.16-.22.17-.2.16-.21.17-.2.17-.22.17-.2.17-.21.18-.2.17-.22.18-.2.18-.21.18-.2.18-.21.19-.21.18-.2.19-.2.19-.21.19-.2.19-.21.19-.2.2-.2.19-.2.2-.2.19-.2.2-.2.2-.2.2-.2.2-.2.2-.2.2-.19.2-.2.21-.18.2-.2.21-.19.21-.18.21-.2.21-.18.2-.18.22-.19.21-.18.21-.18.22-.18.21-.18.21-.18.22-.18.21-.17.22-.17.21-.18.22-.17.21-.16.22-.17.22-.17.21-.16.22-.16.22-.16.21-.16.22-.16.22-.15.22-.15.21-.15.22-.15.22-.15.21-.15.22-.14.22-.14.21-.14.22-.14.21-.13.22-.14.2-.13.22-.12.21-.13.22-.13.2-.12.22-.12.21-.12.2-.11.22-.12.2-.1.2-.11.21-.11.2-.1.21-.1.2-.1.2-.1.2-.1.2-.1.2-.08.2-.09.19-.08.19-.09.19-.08.19-.08.18-.07.19-.07.18-.07.18-.07.18-.07.18-.06.17-.06.18-.06.17-.06.17-.05.16-.06.17-.04.16-.05.16-.05.15-.04.16-.04.15-.04.17-.02.05-.01.08-.02.07-.02.07-.01.07-.02.07-.02.07v.07l-.02.06-.02.07v.07l-.02.07-.01.06-.02.06v.07l-.02.06v.06l-.02.06v.06l-.02.06v.06l-.01.06v.05l-.02.07v.1l-.01.05-.01.06v.05l-.01.05v.1l-.01.05v.09l-.01.05V512.33l-.01.04V512.81l.01.03v.09l.01.03v.08l.01.02v.05l.01.02v.04l.01.03v.04l.01.01v.02l.01.02v.04l.01.01v.03l.01.02v.03l.01.02.01.03.01.02v.02l.01.02.01.02v.02l.01.02.01.02.01.02.01.02v.01l.02.02v.02l.01.01.02.02v.02l.02.02.01.02v.01l.02.01.01.02.02.03v.01l.02.02v.01l.02.01v.02l.02.01.01.02.01.01.02.02.01.02.02.01.01.02.02.02.02.02.01.02.02.02.02.02.02.02.02.02.02.02.02.03.03.02.02.02.02.03.03.02.03.03.02.02.04.03.03.03.2.18.2.18.2.18.2.17.21.18.2.18.22.17.2.17.21.17.21.18.21.17.21.16.21.17.22.17.2.17.22.16.22.16.21.17.22.16.22.16.21.16.22.16.22.16.22.15.22.16.22.15.23.16.22.15.23.16.22.15.23.15.22.15.23.15.23.14.23.15.23.15.23.14.23.15.24.14.23.14.23.15.24.14.23.14.24.14.24.14.24.13.24.14.24.14.24.13.24.14.25.13.24.13.24.13.25.14.25.13.24.13.25.13.25.13.25.12.25.13.25.13.26.12.25.13.26.12.25.12.26.12.25.12.26.13.26.12.26.12.26.11.26.12.26.12.26.12.27.11.26.12.27.11.26.11.27.12.27.1.27.12.27.11.27.11.27.11.27.1.27.12.28.1.27.11.28.1.27.11.28.1.28.11.28.1.28.1.28.11.28.1.28.1.28.1.29.1.28.1.29.1.28.1.29.1.29.09.28.1.3.1.28.09.3.09.28.1.3.09.29.09.3.1.28.08.3.1.3.08.3.09.29.09.3.09.3.08.3.1.3.08.3.08.3.09.3.08.3.09.3.08.3.09.31.08.3.08.3.08.63.16.61.16.62.16.62.16.63.15.62.15.63.15.63.15.64.15.63.14.64.15.64.14.65.14.64.14.65.13.65.14.65.13.65.13.66.14.65.13.66.12.66.13.67.13.66.12.67.13.66.12.67.12.67.12.68.12.67.12.68.12.67.11.68.12.68.12.69.11.68.12.68.11 1.37.23 1.38.22 1.38.23 1.39.22 1.39.22 2.79.45 1.4.22 1.4.23 1.4.23 1.42.23 1.4.23.71.12.7.12 1.48.25 1.44.24 1.42.24 1.39.24 1.36.24 1.34.23 1.3.23 1.29.23 1.26.22 1.23.23 1.2.21 1.18.22 1.15.2 1.13.22 1.1.2 1.08.2 1.05.2 1.03.2 1 .19.98.19.95.18.93.18.9.18.89.17.85.17.84.17.8.17.8.16.76.15.74.16.34.07-.12-.22-.22-.37-.22-.37-.2-.38-.22-.37-.2-.37-.22-.37-.2-.37-.2-.37-.2-.37-.2-.36-.2-.37-.19-.37-.19-.37-.19-.36-.18-.37-.19-.37-.18-.37-.18-.37-.18-.37-.17-.36-.17-.38-.17-.37-.17-.38-.16-.38-.17-.38-.16-.4-.16-.39-.15-.4-.13-.33-.1-.25-.06-.18-.07-.18-.07-.18-.07-.18-.08-.18-.07-.18-.07-.19-.08-.17-.08-.19-.07-.18-.08-.18-.08-.18-.08-.18-.08-.18-.08-.18-.09-.18-.08-.18-.09-.19-.08-.18-.1-.18-.08-.18-.09-.18-.09-.18-.1-.18-.08-.19-.1-.18-.1-.18-.09-.18-.1-.18-.09-.18-.1-.18-.1-.19-.1-.18-.1-.18-.1-.18-.1-.18-.1-.18-.11-.19-.1-.18-.12-.18-.1-.18-.11-.18-.11-.18-.11-.18-.12-.19-.1-.18-.12-.18-.12-.18-.11-.18-.12-.18-.12-.18-.12-.18-.11-.18-.13-.19-.12-.18-.12-.18-.12-.18-.13-.18-.12-.18-.13-.18-.13-.18-.12-.18-.13-.18-.13-.18-.13-.18-.13-.18-.14-.18-.13-.18-.13-.18-.14-.18-.14-.18-.13-.18-.14-.18-.14-.18-.14-.18-.14-.18-.14-.18-.14-.18-.15-.17-.14-.18-.14-.18-.15-.18-.15-.18-.14-.17-.15-.18-.15-.18-.15-.18-.15-.17-.15-.18-.16-.18-.15-.17-.16-.18-.15-.18-.16-.17-.15-.18-.16-.18-.16-.17-.16-.18-.16-.17-.16-.18-.16-.17-.16-.17-.16-.18-.17-.17-.16-.18-.17-.17-.17-.17-.16-.18-.17-.17-.17-.17-.17-.17-.17-.18-.17-.17-.17-.17-.17-.17-.17-.17-.18-.17-.17-.17-.18-.17-.17-.17-.18-.17-.18-.17-.17-.17-.18-.17-.18-.17-.18-.17-.18-.17-.19-.16-.18-.17-.18-.17-.18-.17-.19-.16-.18-.17-.19-.16-.18-.17-.19-.17-.18-.16-.2-.16-.18-.17-.19-.16-.19-.17-.19-.16-.19-.16-.2-.16-.18-.17-.2-.16-.18-.15-.4-.33-.39-.32-.39-.32-.4-.32-.4-.32-.39-.31-.4-.31-.4-.32-.4-.3-.41-.31-.41-.31-.41-.3-.42-.31-.41-.3-.42-.3-.41-.3-.42-.3-.42-.3-.43-.28-.42-.3-.42-.29-.43-.28-.43-.29-.43-.28-.43-.28-.43-.28-.43-.28-.44-.28-.43-.27-.44-.28-.43-.27-.44-.26-.44-.27-.44-.27-.44-.26-.44-.26-.45-.26-.44-.25-.44-.26-.45-.25-.44-.25-.45-.25-.44-.24-.45-.24-.44-.24-.45-.24-.45-.24-.45-.23-.44-.24-.45-.23-.45-.22-.45-.23-.45-.22-.45-.22-.46-.23-.48-.23-.5-.24-.5-.24-.52-.24-.52-.25-.54-.25-.54-.25-.56-.25-.56-.26-.57-.25-.58-.26-.58-.25-.6-.26-.3-.13-.3-.13-.3-.13-.3-.12-.3-.13-.31-.13-.31-.13-.31-.12-.31-.13-.31-.13-.31-.12-.31-.13-.32-.12-.31-.13-.32-.12-.31-.12-.32-.12-.32-.12-.32-.13-.31-.12-.32-.11-.32-.12-.32-.12-.32-.12-.32-.11-.32-.12-.32-.1-.32-.12-.32-.11-.32-.11-.32-.11-.32-.1-.32-.11-.31-.1-.32-.1-.32-.11-.31-.1-.32-.1-.31-.1-.32-.1-.3-.09-.32-.09-.31-.09-.31-.09-.3-.08-.31-.1-.3-.07-.31-.09-.3-.08-.3-.07-.3-.08-.3-.07-.3-.08-.28-.07-.3-.06-.28-.07-.29-.06-.28-.06-.28-.06-.28-.06-.27-.06-.27-.05-.27-.05-.27-.05-.26-.05-.26-.04-.26-.04-.25-.04-.25-.04-.24-.03-.24-.04-.24-.03-.23-.03-.23-.02-.22-.02-.22-.03-.22-.02-.2-.01-.21-.02-.22-.01h-.08l-.1-.01h-.1l-.08-.01h-.19l-.09-.01h-.59zm110 61.74l-1.1.29.99-.23 1-.17-.89.1zm5.67-.06l-.16-.03-.23-.02.4.05zm-3.55-.19l-1.22.14 1.01-.1.9-.04h-.69zm1.11 0l.72.01.51.04-.52-.05h-.7z"/>
    </g>
  </g>
</svg>
