<?xml version="1.0" encoding="UTF-8" standalone="no"?>
<!DOCTYPE svg PUBLIC "-//W3C//DTD SVG 1.1//EN" "http://www.w3.org/Graphics/SVG/1.1/DTD/svg11.dtd">
<svg width="100%" height="100%" viewBox="0 0 401 402" version="1.1" xmlns="http://www.w3.org/2000/svg" xmlns:xlink="http://www.w3.org/1999/xlink" xml:space="preserve" xmlns:serif="http://www.serif.com/" style="fill-rule:evenodd;clip-rule:evenodd;stroke-linecap:round;stroke-linejoin:round;stroke-miterlimit:1.5;">
    <g transform="matrix(0.931643,0,0,1,4.74308,-5.53621)">
        <ellipse cx="114.695" cy="156.55" rx="37.704" ry="34.095" style="fill:rgb(0,105,140);stroke:rgb(0,105,140);stroke-width:1.03px;"/>
    </g>
    <g transform="matrix(0.931643,0,0,1,4.74308,-100.964)">
        <ellipse cx="114.695" cy="156.55" rx="37.704" ry="34.095" style="fill:none;stroke:rgb(0,105,140);stroke-width:10.14px;"/>
    </g>
    <g transform="matrix(0.931643,0,0,1,93.3329,-5.53621)">
        <ellipse cx="114.695" cy="156.55" rx="37.704" ry="34.095" style="fill:none;stroke:rgb(0,105,140);stroke-width:10.1px;"/>
    </g>
    <g transform="matrix(0.931643,0,0,1,188.81,-5.53621)">
        <ellipse cx="114.695" cy="156.55" rx="37.704" ry="34.095" style="fill:none;stroke:rgb(0,105,140);stroke-width:10.1px;"/>
    </g>
    <g transform="matrix(0.931643,0,0,1,93.3329,87.3422)">
        <ellipse cx="114.695" cy="156.55" rx="37.704" ry="34.095" style="fill:none;stroke:rgb(0,105,140);stroke-width:10.1px;"/>
    </g>
    <g transform="matrix(0.931643,0,0,1,188.81,87.3422)">
        <ellipse cx="114.695" cy="156.55" rx="37.704" ry="34.095" style="fill:none;stroke:rgb(0,105,140);stroke-width:10.1px;"/>
    </g>
    <g transform="matrix(0.931643,0,0,1,93.3329,179.859)">
        <ellipse cx="114.695" cy="156.55" rx="37.704" ry="34.095" style="fill:none;stroke:rgb(0,105,140);stroke-width:10.1px;"/>
    </g>
    <g transform="matrix(0.931643,0,0,1,188.81,179.859)">
        <ellipse cx="114.695" cy="156.55" rx="37.704" ry="34.095" style="fill:none;stroke:rgb(0,105,140);stroke-width:10.1px;"/>
    </g>
    <g transform="matrix(0.931643,0,0,1,188.81,-100.964)">
        <ellipse cx="114.695" cy="156.55" rx="37.704" ry="34.095" style="fill:rgb(0,105,140);stroke:rgb(0,105,140);stroke-width:1.03px;"/>
    </g>
    <g transform="matrix(0.931643,0,0,1,93.3329,-100.964)">
        <ellipse cx="114.695" cy="156.55" rx="37.704" ry="34.095" style="fill:rgb(0,105,140);stroke:rgb(0,105,140);stroke-width:1.03px;"/>
    </g>
    <g transform="matrix(0.931643,0,0,1,4.74308,176.204)">
        <ellipse cx="114.695" cy="156.55" rx="37.704" ry="34.095" style="fill:rgb(0,105,140);stroke:rgb(0,105,140);stroke-width:1.03px;"/>
    </g>
    <g transform="matrix(0.931643,0,0,1,4.74308,85.8609)">
        <ellipse cx="114.695" cy="156.55" rx="37.704" ry="34.095" style="fill:rgb(0,105,140);stroke:rgb(0,105,140);stroke-width:1.03px;"/>
    </g>
</svg>
